<svg width="32" height="37" viewBox="0 0 32 37" fill="none" xmlns="http://www.w3.org/2000/svg">
<path d="M9.12732 24.3393C7.37187 22.5839 6.28613 20.1587 6.28613 17.4799C6.28613 14.8011 7.37187 12.3759 9.12732 10.6205C10.8828 8.86503 13.3079 7.7793 15.9867 7.7793C18.6656 7.7793 21.0907 8.86503 22.8462 10.6205C24.6016 12.3759 25.6874 14.8011 25.6874 17.4799C25.6874 20.1587 24.6016 22.5839 22.8462 24.3393" stroke="#222222" stroke-width="2" stroke-linecap="round"/>
<path d="M20.3094 27.5287C20.3094 28.3658 19.6295 29.0457 18.7924 29.0457H13.1811C12.3439 29.0457 11.6641 28.3658 11.6641 27.5287C11.6641 26.6916 12.3439 26.0117 13.1811 26.0117H18.7924C19.6295 26.0117 20.3094 26.6916 20.3094 27.5287Z" stroke="#222222" stroke-width="2" stroke-linecap="round"/>
<path d="M20.3094 30.726C20.3094 31.5631 19.6295 32.243 18.7924 32.243H13.1811C12.3439 32.243 11.6641 31.5631 11.6641 30.726C11.6641 29.8888 12.3439 29.209 13.1811 29.209H18.7924C19.6295 29.209 20.3094 29.8888 20.3094 30.726Z" stroke="#222222" stroke-width="2" stroke-linecap="round"/>
<path d="M14.5264 25.6617V15.7227" stroke="#222222" stroke-width="2" stroke-linecap="round"/>
<path d="M17.4473 25.6617V15.7227" stroke="#222222" stroke-width="2" stroke-linecap="round"/>
<path d="M14.5811 35.0234H17.3867" stroke="#222222" stroke-width="2" stroke-linecap="round"/>
<path d="M15.9971 1V4.50582" stroke="#222222" stroke-width="2" stroke-linecap="round"/>
<path d="M1 7.21484L3.48096 9.69073" stroke="#222222" stroke-width="2" stroke-linecap="round"/>
<path d="M28.5195 9.69073L31.0005 7.21484" stroke="#222222" stroke-width="2" stroke-linecap="round"/>
</svg>
