<svg width="32" height="24" viewBox="0 0 32 24" fill="none" xmlns="http://www.w3.org/2000/svg">
<path d="M30.8107 1H18.8208C17.2644 1 16.0127 2.09524 16.0127 3.45399V22.106C16.0127 20.7472 17.2726 19.652 18.8208 19.652H30.8107C30.8766 19.652 30.9343 19.652 31.0002 19.652V1.00823C30.9343 1.00823 30.8766 1.00823 30.8107 1.00823V1Z" stroke="#222222" stroke-width="2" stroke-linecap="round" stroke-linejoin="round"/>
<path d="M1.1894 1H13.1876C14.7358 1 15.9957 2.09524 15.9957 3.45399V22.106C15.9957 20.7472 14.7358 19.652 13.1876 19.652H1.1894C1.12352 19.652 1.06588 19.652 1 19.652V1.00823C1.06588 1.00823 1.12352 1.00823 1.1894 1.00823V1Z" stroke="#222222" stroke-width="2" stroke-linecap="round" stroke-linejoin="round"/>
</svg>
