<svg width="77" height="77" viewBox="0 0 77 77" fill="none" xmlns="http://www.w3.org/2000/svg">
<g clip-path="url(#clip0_2161_11992)">
<path d="M0.00793312 3.20555C0.00793312 3.21575 0.00793312 3.22481 0.0101997 3.23501L1.14804 12.0236C1.23643 12.7082 1.82008 13.2068 2.49213 13.2068C2.54993 13.2068 2.60886 13.2034 2.6678 13.1955C3.41124 13.0991 3.93483 12.4192 3.83963 11.6757L3.21291 6.8366L11.7818 15.4054C12.0912 15.0767 12.404 14.7503 12.7247 14.4307C13.0454 14.11 13.3718 13.7972 13.7005 13.4867L5.13046 4.91794L9.96967 5.54465C10.0286 5.55259 10.0875 5.55598 10.1453 5.55598C10.8174 5.55598 11.401 5.05734 11.4894 4.37283C11.5858 3.6294 11.061 2.94943 10.3176 2.8531L1.52996 1.71528C1.51976 1.71414 1.51069 1.71414 1.50049 1.71301C1.47329 1.70961 1.44723 1.70848 1.42003 1.70621C1.3985 1.70621 1.3781 1.70508 1.35656 1.70508C1.3339 1.70508 1.31236 1.70508 1.2897 1.70621C1.26363 1.70734 1.2387 1.70961 1.21263 1.71188C1.20243 1.71188 1.19223 1.71188 1.18203 1.71414C1.1741 1.71414 1.16617 1.71754 1.1571 1.71868C1.1299 1.72208 1.10384 1.72774 1.07777 1.73341C1.0585 1.73681 1.04037 1.74134 1.02111 1.74588C0.99844 1.75154 0.975774 1.75834 0.951974 1.76514C0.930442 1.77194 0.908909 1.77874 0.88851 1.78667C0.870377 1.79347 0.852244 1.80141 0.834111 1.80821C0.810312 1.81841 0.786512 1.82861 0.763846 1.83994C0.749113 1.84674 0.73438 1.85467 0.720781 1.8626C0.695848 1.8762 0.672049 1.88867 0.648249 1.9034C0.635783 1.91134 0.623317 1.9204 0.609717 1.92834C0.585918 1.9442 0.563252 1.96007 0.540585 1.97707C0.528119 1.98727 0.515653 1.99747 0.503186 2.00767C0.482787 2.02466 0.462388 2.04166 0.441988 2.0598C0.428389 2.07226 0.414789 2.08586 0.401189 2.09946C0.38419 2.11646 0.36719 2.13346 0.351324 2.15046C0.336591 2.16633 0.322991 2.18332 0.309392 2.20032C0.295792 2.21619 0.282192 2.23206 0.269726 2.24906C0.254993 2.26832 0.242527 2.28759 0.228927 2.30685C0.217594 2.32272 0.207394 2.33972 0.197195 2.35558C0.184728 2.37598 0.173395 2.39752 0.162062 2.41792C0.152996 2.43605 0.142796 2.45305 0.13373 2.47118C0.12353 2.49158 0.115597 2.51198 0.10653 2.53351C0.097464 2.55391 0.0895309 2.57544 0.0815978 2.59584C0.074798 2.61511 0.0691315 2.63324 0.0623317 2.65251C0.0543985 2.67744 0.0475987 2.70237 0.0407989 2.7273C0.0362657 2.7443 0.0328658 2.7613 0.0294659 2.7783C0.0237994 2.8055 0.0181328 2.83383 0.0147329 2.86216C0.0135996 2.8701 0.011333 2.8769 0.0101997 2.88483C0.00906642 2.89503 0.00906642 2.90409 0.00793312 2.91429C0.00566651 2.94036 0.00339991 2.96756 0.0011333 2.99476C0.0011333 3.01629 0 3.03782 0 3.05936C0 3.08089 0 3.10242 0.0011333 3.12395C0.00226661 3.15115 0.00453321 3.17722 0.00793312 3.20442V3.20555Z" fill="#86C8F9"/>
<path d="M12.1535 61.6211L3.21178 70.5627L3.8385 65.7236C3.93483 64.9802 3.41011 64.3002 2.66666 64.2039C1.92435 64.1075 1.24323 64.6322 1.1469 65.3757L0.0101997 74.1643C0.00906642 74.1745 0.00906642 74.1836 0.00793312 74.1938C0.00566651 74.2198 0.00339991 74.247 0.0011333 74.2742C0.0011333 74.2958 0 74.3173 0 74.3388C0 74.3604 0 74.3819 0.0011333 74.4034C0.00226661 74.4306 0.00453321 74.4567 0.00793312 74.4839C0.00793312 74.4941 0.00793312 74.5032 0.0101997 74.5134C0.0101997 74.5213 0.0135996 74.5304 0.0147329 74.5383C0.0181328 74.5632 0.0226661 74.587 0.0271993 74.6108C0.0305992 74.6301 0.0351324 74.6482 0.0396656 74.6675C0.0453321 74.689 0.0509986 74.7106 0.0577984 74.7321C0.0645983 74.7536 0.0713981 74.774 0.0781979 74.7955C0.0849977 74.8137 0.0906642 74.8318 0.0985974 74.8488C0.107664 74.8726 0.118997 74.8953 0.129197 74.9191C0.135996 74.9338 0.142796 74.9485 0.150729 74.9621C0.163196 74.9871 0.177929 75.0109 0.191528 75.0347C0.198328 75.0471 0.205128 75.0585 0.213061 75.0709C0.228927 75.0959 0.245927 75.1197 0.262926 75.1423C0.270859 75.1525 0.277659 75.1639 0.285592 75.1741C0.303725 75.1967 0.322991 75.2194 0.342257 75.2409C0.351324 75.2511 0.359257 75.2613 0.368323 75.2704C0.38759 75.2908 0.409122 75.3112 0.430655 75.3305C0.440855 75.3395 0.449921 75.3497 0.460121 75.3588C0.49072 75.386 0.522453 75.4109 0.555318 75.4347C0.572318 75.4472 0.590451 75.4585 0.608584 75.4699C0.625583 75.4812 0.642583 75.4937 0.660716 75.5039C0.678848 75.5141 0.696981 75.5243 0.715114 75.5333C0.73438 75.5435 0.753646 75.5537 0.772913 75.5639C0.789912 75.5719 0.808045 75.5787 0.825045 75.5866C0.847711 75.5968 0.870377 75.6059 0.894176 75.6138C0.910042 75.6194 0.925909 75.624 0.941775 75.6297C0.968974 75.6387 0.99504 75.6455 1.02224 75.6534C1.03584 75.6568 1.05057 75.6602 1.06417 75.6636C1.09477 75.6704 1.12424 75.6761 1.15597 75.6806C1.1639 75.6818 1.17184 75.684 1.17977 75.6852C1.1877 75.6852 1.19563 75.6863 1.20357 75.6874C1.2183 75.6886 1.23303 75.6908 1.24777 75.692C1.28063 75.6942 1.31236 75.6965 1.34523 75.6965C1.3475 75.6965 1.3509 75.6965 1.35316 75.6965C1.35316 75.6965 1.3543 75.6965 1.35543 75.6965C1.35656 75.6965 1.35656 75.6965 1.3577 75.6965C1.35996 75.6965 1.36336 75.6965 1.36563 75.6965C1.39736 75.6965 1.43023 75.6942 1.46309 75.692C1.47783 75.6908 1.49256 75.6897 1.50729 75.6874C1.51523 75.6874 1.52316 75.6863 1.53109 75.6852L10.3199 74.5474C11.0633 74.451 11.5869 73.7711 11.4917 73.0276C11.3954 72.2842 10.7154 71.7606 9.97193 71.8558L5.13273 72.4825L13.9918 63.6236C13.3582 62.9731 12.7451 62.3067 12.1558 61.6222L12.1535 61.6211Z" fill="#86C8F9"/>
<path d="M64.7509 28.478C63.3569 25.1824 61.3612 22.2234 58.8203 19.6814C56.2783 17.1395 53.3193 15.1449 50.0236 13.7509C46.6101 12.3071 42.9858 11.5762 39.2505 11.5762C35.5151 11.5762 31.8896 12.3083 28.4784 13.7509C25.1828 15.1449 22.2226 17.1406 19.6817 19.6814C17.1397 22.2234 15.1451 25.1824 13.7511 28.478C12.3073 31.8903 11.5752 35.5157 11.5752 39.251C11.5752 42.9863 12.3073 46.6117 13.7511 50.0229C15.144 53.3196 17.1397 56.2786 19.6817 58.8195C22.2237 61.3614 25.1828 63.356 28.4784 64.75C31.8908 66.1938 35.5162 66.9247 39.2505 66.9247C42.9847 66.9247 46.6113 66.1926 50.0236 64.75C53.3193 63.356 56.2795 61.3603 58.8203 58.8195C61.3612 56.2775 63.3569 53.3185 64.7509 50.0229C66.1947 46.6106 66.9257 42.9863 66.9257 39.251C66.9257 35.5157 66.1936 31.8903 64.7509 28.478ZM47.3717 37.4752L41.3403 46.2581L35.3077 55.0105C35.2216 55.1363 35.0799 55.2077 34.9348 55.2077C34.8748 55.2077 34.8136 55.1998 34.7558 55.1737C34.5574 55.0887 34.4475 54.8813 34.4928 54.6705L37.2706 41.7307H31.4998C31.3321 41.7307 31.1779 41.623 31.0997 41.4734C31.0215 41.3249 31.0329 41.13 31.1281 40.9917L43.1909 23.4927C43.3133 23.3148 43.5445 23.2445 43.7429 23.3306C43.9412 23.4156 44.0511 23.6219 44.0058 23.8327L41.2281 36.7442H46.9977C47.1654 36.7442 47.3196 36.853 47.3978 37.0014C47.476 37.1499 47.4658 37.338 47.3706 37.4763L47.3717 37.4752Z" fill="#0072C6"/>
<path d="M76.9924 3.00633C76.9924 3.01653 76.9924 3.0256 76.9901 3.0358L75.8523 11.8244C75.7639 12.5089 75.1802 13.0076 74.5082 13.0076C74.4504 13.0076 74.3914 13.0042 74.3325 12.9962C73.5891 12.8999 73.0655 12.2199 73.1607 11.4765L73.7874 6.63738L65.2185 15.2062C64.9091 14.8775 64.5963 14.5511 64.2756 14.2315C63.9549 13.9108 63.6285 13.598 63.2998 13.2875L71.8687 4.71873L67.0295 5.34543C66.9706 5.35337 66.9116 5.35677 66.8538 5.35677C66.1818 5.35677 65.5981 4.85812 65.5097 4.17362C65.4134 3.43018 65.9381 2.75021 66.6816 2.65388L75.4703 1.51606C75.4805 1.51493 75.4896 1.51493 75.4998 1.51379C75.527 1.51039 75.5531 1.50926 75.5803 1.50699C75.6018 1.50699 75.6222 1.50586 75.6437 1.50586C75.6664 1.50586 75.6879 1.50586 75.7106 1.50699C75.7367 1.50813 75.7616 1.51039 75.7877 1.51266C75.7979 1.51266 75.8081 1.51266 75.8183 1.51493C75.8262 1.51493 75.8341 1.51833 75.8432 1.51946C75.8704 1.52286 75.8965 1.52853 75.9225 1.53419C75.9418 1.53759 75.9599 1.54212 75.9792 1.54666C76.0019 1.55232 76.0245 1.55912 76.0483 1.56592C76.0699 1.57272 76.0914 1.57952 76.1118 1.58746C76.1299 1.59426 76.1481 1.60219 76.1662 1.60899C76.19 1.61919 76.2138 1.62939 76.2365 1.64072C76.2512 1.64752 76.2659 1.65545 76.2795 1.66339C76.3045 1.67699 76.3283 1.68945 76.3521 1.70418C76.3645 1.71212 76.377 1.72118 76.3906 1.72912C76.4144 1.74498 76.4371 1.76085 76.4597 1.77785C76.4722 1.78805 76.4847 1.79825 76.4971 1.80845C76.5175 1.82545 76.5379 1.84245 76.5583 1.86058C76.5719 1.87304 76.5855 1.88664 76.5991 1.90024C76.6161 1.91724 76.6331 1.93424 76.649 1.95124C76.6637 1.96711 76.6773 1.98411 76.6909 2.00111C76.7045 2.01697 76.7181 2.03284 76.7306 2.04984C76.7453 2.0691 76.7578 2.08837 76.7714 2.10763C76.7827 2.1235 76.7929 2.1405 76.8031 2.15637C76.8156 2.17676 76.8269 2.1983 76.8382 2.2187C76.8473 2.23683 76.8575 2.25383 76.8666 2.27196C76.8768 2.29236 76.8847 2.31276 76.8938 2.33429C76.9028 2.35469 76.9108 2.37622 76.9187 2.39662C76.9255 2.41589 76.9312 2.43402 76.938 2.45329C76.9459 2.47822 76.9527 2.50315 76.9595 2.52808C76.964 2.54508 76.9674 2.56208 76.9708 2.57908C76.9765 2.60628 76.9822 2.63461 76.9856 2.66294C76.9867 2.67088 76.989 2.67768 76.9901 2.68561C76.9912 2.69581 76.9912 2.70488 76.9924 2.71508C76.9946 2.74114 76.9969 2.76834 76.9992 2.79554C76.9992 2.81707 77.0003 2.8386 77.0003 2.86014C77.0003 2.88167 77.0003 2.9032 76.9992 2.92473C76.998 2.95193 76.9958 2.978 76.9924 3.0052V3.00633Z" fill="#86C8F9"/>
<path d="M64.8469 61.4199L73.7886 70.3616L73.1619 65.5224C73.0656 64.779 73.5903 64.099 74.3337 64.0027C75.076 63.9064 75.7572 64.4311 75.8535 65.1745L76.9913 73.9631C76.9925 73.9733 76.9925 73.9824 76.9936 73.9926C76.9959 74.0187 76.9981 74.0459 77.0004 74.0731C77.0004 74.0946 77.0015 74.1161 77.0015 74.1377C77.0015 74.1592 77.0015 74.1807 77.0004 74.2023C76.9993 74.2295 76.997 74.2555 76.9936 74.2827C76.9936 74.2929 76.9936 74.302 76.9913 74.3122C76.9913 74.3201 76.9879 74.3292 76.9868 74.3371C76.9834 74.3621 76.9789 74.3859 76.9743 74.4097C76.9709 74.4289 76.9664 74.4471 76.9619 74.4663C76.9562 74.4879 76.9505 74.5094 76.9437 74.5309C76.9369 74.5524 76.9301 74.5728 76.9233 74.5944C76.9165 74.6125 76.9109 74.6306 76.9029 74.6476C76.8939 74.6714 76.8825 74.6941 76.8723 74.7179C76.8655 74.7326 76.8587 74.7474 76.8508 74.761C76.8383 74.7859 76.8236 74.8097 76.81 74.8335C76.8032 74.846 76.7964 74.8573 76.7885 74.8698C76.7726 74.8947 76.7556 74.9185 76.7386 74.9412C76.7307 74.9514 76.7239 74.9627 76.7159 74.9729C76.6978 74.9956 76.6785 75.0182 76.6593 75.0398C76.6502 75.05 76.6423 75.0602 76.6332 75.0692C76.6139 75.0896 76.5924 75.11 76.5709 75.1293C76.5607 75.1384 76.5516 75.1486 76.5414 75.1576C76.5108 75.1848 76.4791 75.2098 76.4462 75.2336C76.4292 75.246 76.4111 75.2573 76.3929 75.2687C76.3759 75.28 76.3589 75.2925 76.3408 75.3027C76.3227 75.3129 76.3045 75.3231 76.2864 75.3321C76.2671 75.3423 76.2479 75.3525 76.2286 75.3627C76.2116 75.3707 76.1935 75.3775 76.1765 75.3854C76.1538 75.3956 76.1311 75.4047 76.1073 75.4126C76.0915 75.4183 76.0756 75.4228 76.0598 75.4285C76.0326 75.4375 76.0065 75.4443 75.9793 75.4523C75.9657 75.4557 75.951 75.4591 75.9374 75.4625C75.9068 75.4693 75.8773 75.4749 75.8456 75.4795C75.8376 75.4806 75.8297 75.4829 75.8218 75.484C75.8138 75.484 75.8059 75.4851 75.798 75.4863C75.7832 75.4874 75.7685 75.4897 75.7538 75.4908C75.7209 75.4931 75.6892 75.4953 75.6563 75.4953C75.654 75.4953 75.6506 75.4953 75.6484 75.4953C75.6484 75.4953 75.6472 75.4953 75.6461 75.4953C75.645 75.4953 75.645 75.4953 75.6438 75.4953C75.6416 75.4953 75.6382 75.4953 75.6359 75.4953C75.6042 75.4953 75.5713 75.4931 75.5384 75.4908C75.5237 75.4897 75.509 75.4885 75.4942 75.4863C75.4863 75.4863 75.4784 75.4851 75.4704 75.484L66.6817 74.3462C65.9382 74.2499 65.4146 73.5699 65.5098 72.8265C65.6062 72.083 66.2861 71.5594 67.0296 71.6546L71.8688 72.2813L63.0098 63.4224C63.6433 62.7719 64.2564 62.1056 64.8457 61.4211L64.8469 61.4199Z" fill="#86C8F9"/>
</g>
<defs>
<clipPath id="clip0_2161_11992">
<rect width="77" height="77" fill="white"/>
</clipPath>
</defs>
</svg>
