<svg width="99" height="67" viewBox="0 0 99 67" fill="none" xmlns="http://www.w3.org/2000/svg">
<path d="M25.4659 42.7782V19.4023H6.93715L0 36.7008V55.5704H7.70795C9.14578 52.6058 12.0363 50.5751 15.3566 50.5751C18.677 50.5751 21.5526 52.6058 23.0053 55.5704H24.4283C25.8809 52.6058 28.7566 50.5751 32.0769 50.5751C35.3973 50.5751 38.2729 52.6058 39.7256 55.5704H64.5985C66.0364 52.6058 68.9268 50.5751 72.2472 50.5751C75.5675 50.5751 78.4432 52.6058 79.8958 55.5704H81.3188C82.7567 52.6058 85.6472 50.5751 88.9675 50.5751C92.2878 50.5751 95.1635 52.6058 96.6162 55.5704H98.3653V42.7782H25.4659Z" fill="#86C8F9"/>
<path d="M15.6834 38.1414H7.42697C6.65617 38.1414 5.98914 37.8005 5.61856 37.2224C5.24799 36.6295 5.20352 35.8587 5.48516 35.0879L9.04267 25.4085C9.5763 23.9558 11.1327 22.8145 12.5854 22.8145H15.6834C17.225 22.8145 18.4701 24.1633 18.4701 25.8087V35.162C18.4701 36.8073 17.225 38.1562 15.6834 38.1562V38.1414Z" fill="#0072C6"/>
<path d="M15.3565 52.7402C11.6952 52.7402 8.71582 55.942 8.71582 59.8701C8.71582 63.7982 11.6952 66.9999 15.3565 66.9999C19.0178 66.9999 21.9824 63.7982 21.9824 59.8701C21.9824 55.942 19.003 52.7402 15.3565 52.7402Z" fill="#0072C6"/>
<path d="M32.0626 52.7402C28.4013 52.7402 25.4219 55.942 25.4219 59.8701C25.4219 63.7982 28.4013 66.9999 32.0626 66.9999C35.7238 66.9999 38.6884 63.7982 38.6884 59.8701C38.6884 55.942 35.709 52.7402 32.0626 52.7402Z" fill="#0072C6"/>
<path d="M72.1583 52.7402C68.497 52.7402 65.5176 55.942 65.5176 59.8701C65.5176 63.7982 68.497 66.9999 72.1583 66.9999C75.8195 66.9999 78.7841 63.7982 78.7841 59.8701C78.7841 55.942 75.8047 52.7402 72.1583 52.7402Z" fill="#0072C6"/>
<path d="M88.8633 52.7402C85.2021 52.7402 82.2227 55.942 82.2227 59.8701C82.2227 63.7982 85.2021 66.9999 88.8633 66.9999C92.5246 66.9999 95.4892 63.7982 95.4892 59.8701C95.4892 55.942 92.5098 52.7402 88.8633 52.7402Z" fill="#0072C6"/>
<path d="M50.3683 0H37.917V7.11503H50.3683V0Z" fill="#0072C6"/>
<path d="M87.3074 5.09766H37.769C32.5662 5.09766 28.3564 9.69278 28.3564 15.3552V28.3253C28.3564 34.0025 32.5662 38.5828 37.769 38.5828H87.3074C92.5103 38.5828 96.72 33.9876 96.72 28.3253V15.3552C96.72 9.69278 92.5103 5.09766 87.3074 5.09766Z" fill="#0072C6"/>
<path d="M51.5242 23.2722C51.5242 21.8789 50.9757 20.6634 50.3235 19.5369C48.1001 15.6681 45.1058 10.4355 45.1058 10.4355C45.1058 10.4355 42.1116 15.6681 39.8882 19.5369C39.2508 20.6634 38.6875 21.8789 38.6875 23.2722C38.6875 26.7112 41.3853 29.5127 44.7797 29.6758C44.8835 29.6758 45.0021 29.6758 45.1058 29.6758C45.2096 29.6758 45.3282 29.6758 45.432 29.6758C48.8264 29.5127 51.5242 26.6964 51.5242 23.2722Z" fill="#86C8F9"/>
<path d="M41.8297 19.2246C39.7989 21.2554 39.3987 24.6053 41.5628 26.5027C42.0965 26.977 43.2971 25.7467 41.7852 23.375C40.8513 21.9076 41.8297 19.2394 41.8297 19.2394V19.2246Z" fill="#0072C6"/>
<path d="M98.3504 42.2754H0V46.4851H98.3504V42.2754Z" fill="#0072C6"/>
</svg>
