<svg width="86" height="49" viewBox="0 0 86 49" fill="none" xmlns="http://www.w3.org/2000/svg">
<path d="M37.9064 29.8913L37.8646 29.9331C37.1042 30.6935 37.2507 31.9632 38.1575 32.5352C39.5946 33.4421 41.2549 33.9235 42.999 33.9235C44.743 33.9235 46.4033 33.4421 47.8404 32.5352C48.7472 31.9632 48.8937 30.6935 48.1334 29.9331L48.0915 29.8913C47.5264 29.3262 46.6614 29.2704 45.9847 29.682C45.0918 30.2261 44.0663 30.5191 42.999 30.5191C41.9316 30.5191 40.9061 30.2261 40.0132 29.682C39.3365 29.2634 38.4715 29.3262 37.9064 29.8843V29.8913Z" fill="#86C8F9"/>
<path d="M35.0258 34.8924C34.3492 34.3622 33.3865 34.418 32.7795 35.0249C32.054 35.7504 32.1377 36.9364 32.94 37.5712C38.8208 42.2103 47.1852 42.2103 53.066 37.5712C53.8682 36.9364 53.952 35.7434 53.2264 35.0249C52.6195 34.418 51.6568 34.3622 50.9802 34.8924C50.8895 34.9621 50.7988 35.0319 50.7081 35.1016C46.1597 38.5129 39.8463 38.5129 35.2909 35.1016C35.2002 35.0319 35.1096 34.9621 35.0189 34.8924H35.0258Z" fill="#86C8F9"/>
<path d="M56.2345 40.2723C56.1857 40.3142 56.1369 40.356 56.088 40.3979C48.5469 46.7252 37.4619 46.7252 29.9277 40.3979C29.8719 40.356 29.8231 40.3072 29.7673 40.2653C29.0906 39.6863 28.086 39.7212 27.4582 40.349C26.7676 41.0397 26.7885 42.1907 27.5349 42.8255C36.4015 50.4504 49.6142 50.4504 58.4739 42.8255C59.2133 42.1907 59.2412 41.0397 58.5506 40.349C57.9228 39.7212 56.9112 39.6863 56.2345 40.2723Z" fill="#86C8F9"/>
<path d="M43.0006 27.2277C44.7343 27.2277 46.1398 25.8222 46.1398 24.0885C46.1398 22.3547 44.7343 20.9492 43.0006 20.9492C41.2668 20.9492 39.8613 22.3547 39.8613 24.0885C39.8613 25.8222 41.2668 27.2277 43.0006 27.2277Z" fill="#86C8F9"/>
<path d="M53.2335 8.3713C53.2335 3.74616 49.4873 0 44.8622 0H41.1369C36.5118 0 32.7656 3.74616 32.7656 8.3713C39.5882 7.54812 46.4178 7.54812 53.2404 8.3713H53.2335Z" fill="#0072C6"/>
<path d="M30.0111 3.29102H3.22993C1.45103 3.29102 0 4.73506 0 6.52094H26.7812C28.5601 6.52094 30.0111 5.07689 30.0111 3.29102Z" fill="#0072C6"/>
<path d="M66.7869 15.2974C50.9303 10.5886 35.0667 10.5886 19.21 15.2974V9.33984H10.7969V21.7294C10.7969 24.0454 12.6107 26.0406 14.9267 26.0825C17.2846 26.1243 19.21 24.2268 19.21 21.8759V21.541H25.4815L17.8357 32.2633C17.473 32.7725 17.2358 33.3655 17.1381 33.9864L15.3034 45.8038C15.0802 47.2409 16.1964 48.5454 17.6544 48.5454C18.1915 48.5454 18.6938 48.371 19.0984 48.0571C19.503 47.7502 19.81 47.3177 19.9495 46.7944L22.8934 35.9885L31.7391 26.3894H37.02C36.7479 25.6778 36.5944 24.9035 36.5944 24.0943C36.5944 20.5644 39.4616 17.6902 42.9985 17.6902C46.5354 17.6902 49.4025 20.5574 49.4025 24.0943C49.4025 24.9035 49.256 25.6778 48.977 26.3894H54.2579L63.1036 35.9885L66.0475 46.7944C66.3265 47.8269 67.2683 48.5454 68.3356 48.5454C69.6681 48.5454 70.7145 47.4572 70.7145 46.1736C70.7145 46.055 70.7075 45.9294 70.6866 45.8038L68.8519 33.9864C68.7542 33.3655 68.517 32.7725 68.1543 32.2633L60.5085 21.541H66.78V21.7294C66.78 24.0454 68.5937 26.0406 70.9028 26.0825C73.2677 26.1243 75.1931 24.2268 75.1931 21.8759V9.34682H66.78V15.3044L66.7869 15.2974Z" fill="#0072C6"/>
<path d="M59.2182 6.51509H85.9994C85.9994 4.73619 84.5553 3.28516 82.7695 3.28516H55.9883C55.9883 5.06406 57.4323 6.51509 59.2182 6.51509Z" fill="#0072C6"/>
</svg>
