<svg width="70" height="70" viewBox="0 0 70 70" fill="none" xmlns="http://www.w3.org/2000/svg">
<path d="M3.46531 22.6363L0.00390625 26.0977L43.9049 69.9986L47.3663 66.5372L3.46531 22.6363Z" fill="#86C8F9"/>
<path d="M14.7759 11.3277L11.3145 14.7891L55.2154 58.69L58.6768 55.2286L14.7759 11.3277Z" fill="#86C8F9"/>
<path d="M26.0884 0.00148971L22.627 3.46289L66.5279 47.3639L69.9893 43.9025L26.0884 0.00148971Z" fill="#86C8F9"/>
<path d="M22.6402 66.5288L26.1016 69.9902L70.0025 26.0893L66.5411 22.6279L22.6402 66.5288Z" fill="#86C8F9"/>
<path d="M11.3296 55.2202L14.791 58.6816L58.692 14.7807L55.2306 11.3193L11.3296 55.2202Z" fill="#86C8F9"/>
<path d="M0.00344284 43.9058L3.46484 47.3672L47.3658 3.46621L43.9044 0.00480992L0.00344284 43.9058Z" fill="#86C8F9"/>
<path d="M12.3695 37.4518C13.7212 37.4518 14.817 36.356 14.817 35.0042C14.817 33.6525 13.7212 32.5566 12.3695 32.5566C11.0177 32.5566 9.92188 33.6525 9.92188 35.0042C9.92188 36.356 11.0177 37.4518 12.3695 37.4518Z" fill="#0072C6"/>
<path d="M23.68 26.1256C25.0318 26.1256 26.1276 25.0298 26.1276 23.678C26.1276 22.3263 25.0318 21.2305 23.68 21.2305C22.3282 21.2305 21.2324 22.3263 21.2324 23.678C21.2324 25.0298 22.3282 26.1256 23.68 26.1256Z" fill="#0072C6"/>
<path d="M35.0062 14.8131C36.3579 14.8131 37.4538 13.7173 37.4538 12.3655C37.4538 11.0138 36.3579 9.91797 35.0062 9.91797C33.6544 9.91797 32.5586 11.0138 32.5586 12.3655C32.5586 13.7173 33.6544 14.8131 35.0062 14.8131Z" fill="#0072C6"/>
<path d="M23.68 48.7604C25.0318 48.7604 26.1276 47.6646 26.1276 46.3128C26.1276 44.9611 25.0318 43.8652 23.68 43.8652C22.3282 43.8652 21.2324 44.9611 21.2324 46.3128C21.2324 47.6646 22.3282 48.7604 23.68 48.7604Z" fill="#0072C6"/>
<path d="M35.0062 37.4518C36.3579 37.4518 37.4538 36.356 37.4538 35.0042C37.4538 33.6525 36.3579 32.5566 35.0062 32.5566C33.6544 32.5566 32.5586 33.6525 32.5586 35.0042C32.5586 36.356 33.6544 37.4518 35.0062 37.4518Z" fill="#0072C6"/>
<path d="M46.3167 26.1256C47.6685 26.1256 48.7643 25.0298 48.7643 23.678C48.7643 22.3263 47.6685 21.2305 46.3167 21.2305C44.965 21.2305 43.8691 22.3263 43.8691 23.678C43.8691 25.0298 44.965 26.1256 46.3167 26.1256Z" fill="#0072C6"/>
<path d="M35.0062 60.0709C36.3579 60.0709 37.4538 58.9751 37.4538 57.6234C37.4538 56.2716 36.3579 55.1758 35.0062 55.1758C33.6544 55.1758 32.5586 56.2716 32.5586 57.6234C32.5586 58.9751 33.6544 60.0709 35.0062 60.0709Z" fill="#0072C6"/>
<path d="M46.3167 48.7604C47.6685 48.7604 48.7643 47.6646 48.7643 46.3128C48.7643 44.9611 47.6685 43.8652 46.3167 43.8652C44.965 43.8652 43.8691 44.9611 43.8691 46.3128C43.8691 47.6646 44.965 48.7604 46.3167 48.7604Z" fill="#0072C6"/>
<path d="M57.6273 37.4518C58.979 37.4518 60.0748 36.356 60.0748 35.0042C60.0748 33.6525 58.979 32.5566 57.6273 32.5566C56.2755 32.5566 55.1797 33.6525 55.1797 35.0042C55.1797 36.356 56.2755 37.4518 57.6273 37.4518Z" fill="#0072C6"/>
</svg>
