<svg width="99" height="51" viewBox="0 0 99 51" fill="none" xmlns="http://www.w3.org/2000/svg">
<path d="M37.6911 26.9759C37.6911 21.5192 33.2676 17.0957 27.8109 17.0957C22.3542 17.0957 17.9307 21.5192 17.9307 26.9759V34.5127C17.9307 39.9694 22.3542 44.3929 27.8109 44.3929C33.2676 44.3929 37.6911 39.9694 37.6911 34.5127V26.9759Z" fill="#86C8F9"/>
<path d="M60.6803 26.9759C60.6803 21.5192 56.2568 17.0957 50.8001 17.0957C45.3434 17.0957 40.9199 21.5192 40.9199 26.9759V34.5127C40.9199 39.9694 45.3434 44.3929 50.8001 44.3929C56.2568 44.3929 60.6803 39.9694 60.6803 34.5127V26.9759Z" fill="#86C8F9"/>
<path d="M93.8704 3.92188H68.2832V42.6194H93.8704V3.92188Z" fill="#86C8F9"/>
<path d="M1.84462 31.4775C1.14794 31.4775 0.514594 31.9842 0.197921 32.7442C-0.118753 33.5043 -0.0554178 34.4543 0.387925 35.151L13.3715 49.3379C13.3715 49.3379 14.0682 50.2246 14.8282 50.2879H97.1633C98.1767 50.2879 99 49.2746 99 47.9446V22.9274C99 21.6607 98.1767 20.584 97.1633 20.584H85.2564C84.243 20.584 83.4197 21.5973 83.4197 22.9274V29.3242C83.4197 30.5275 82.6597 31.5409 81.7096 31.5409H36.6154" fill="#0072C6"/>
<path d="M91.7824 0H65.4985C64.6752 0 63.9785 0.696681 63.9785 1.52003V5.38345C63.9785 6.2068 64.6752 6.90348 65.4985 6.90348H93.8725V2.09004C93.8725 0.95002 92.9225 0 91.7824 0Z" fill="#0072C6"/>
</svg>
