<svg width="48" height="68" viewBox="0 0 48 68" fill="none" xmlns="http://www.w3.org/2000/svg">
<path d="M38.2282 20.7346C32.9426 20.7346 28.6426 16.266 28.6426 10.7755C28.6426 5.28504 32.9452 0.816406 38.2282 0.816406C43.5112 0.816406 47.8139 5.28504 47.8139 10.7755C47.8139 16.266 43.5138 20.7346 38.2282 20.7346ZM38.2282 2.89122C34.0864 2.89122 30.7174 6.42878 30.7174 10.7755C30.7174 15.1222 34.0864 18.6598 38.2282 18.6598C42.3701 18.6598 45.739 15.1222 45.739 10.7755C45.739 6.42878 42.3701 2.89122 38.2282 2.89122Z" fill="#86C8F9"/>
<path d="M9.58564 20.7346C4.30005 20.7346 0 16.266 0 10.7755C0 5.28504 4.30005 0.816406 9.58564 0.816406C14.8712 0.816406 19.1713 5.28504 19.1713 10.7755C19.1713 16.266 14.8712 20.7346 9.58564 20.7346ZM9.58564 2.89122C5.44379 2.89122 2.07481 6.42878 2.07481 10.7755C2.07481 15.1222 5.44379 18.6598 9.58564 18.6598C13.7275 18.6598 17.0965 15.1222 17.0965 10.7755C17.0965 6.42878 13.7275 2.89122 9.58564 2.89122Z" fill="#86C8F9"/>
<path d="M23.7894 43.7238C23.2162 43.7238 22.752 43.2595 22.752 42.6864V33.9358C22.752 33.3627 23.2162 32.8984 23.7894 32.8984C24.3625 32.8984 24.8268 33.3627 24.8268 33.9358V42.6864C24.8268 43.2595 24.3625 43.7238 23.7894 43.7238Z" fill="#86C8F9"/>
<path d="M24.0182 42.5879C13.9787 42.5879 13.7116 51.0453 12.918 51.284H35.1159C34.3223 51.0479 34.3223 42.5879 24.0156 42.5879H24.0182Z" fill="#0072C6"/>
<path d="M3.79461 50.5332H44.2353C44.8889 50.5332 45.4206 51.0649 45.4206 51.7184V66.0424C45.4206 66.696 44.8889 67.2277 44.2353 67.2277H3.79461C3.14105 67.2277 2.60938 66.696 2.60938 66.0424V51.7184C2.60938 51.0649 3.14105 50.5332 3.79461 50.5332Z" fill="#86C8F9"/>
<path d="M34.5767 57.8477H13.4551V59.9199H34.5767V57.8477Z" fill="#0072C6"/>
<path d="M40.2387 1.18524C40.2387 0.534264 39.7044 0 39.0534 0H9.32395C9.00495 0 8.71706 0.129676 8.5018 0.334564H8.46809C8.46809 0.334564 8.46809 0.350125 8.4629 0.37606C8.2632 0.588728 8.13612 0.874015 8.13612 1.18783V6.642C8.13612 6.642 8.13612 6.65496 8.13612 6.66015C8.07647 16.4014 9.93861 33.9569 24.164 33.9336C38.5581 34.1307 40.345 16.4896 40.2309 6.69387C40.2309 6.67571 40.2361 6.65756 40.2361 6.6394V1.18524H40.2387Z" fill="#0072C6"/>
</svg>
