<svg width="67" height="74" viewBox="0 0 67 74" fill="none" xmlns="http://www.w3.org/2000/svg">
<path d="M36.4864 68.6272V49.25H30.5119V68.6272H26.9395L33.493 73.9119L40.0588 68.6272H36.4864Z" fill="#0072C6"/>
<path d="M6.75062 58.2303L20.449 44.5319L16.236 40.3066L2.53764 54.0173L0 51.4797L0.899262 59.8563L9.27595 60.7679L6.75062 58.2303Z" fill="#0072C6"/>
<path d="M60.2491 58.2303L46.5508 44.5319L50.7638 40.3066L64.4621 54.0173L66.9997 51.4797L66.1005 59.8563L57.7238 60.7679L60.2491 58.2303Z" fill="#0072C6"/>
<path d="M33.4944 52.1585C51.997 52.1585 66.9888 37.1544 66.9888 18.6641H0C0 37.1667 15.0041 52.1585 33.4944 52.1585Z" fill="#86C8F9"/>
<path d="M33.4928 37.3255C43.8 37.3255 52.1556 28.9699 52.1556 18.6628C52.1556 8.3556 43.8 0 33.4928 0C23.1857 0 14.8301 8.3556 14.8301 18.6628C14.8301 28.9699 23.1857 37.3255 33.4928 37.3255Z" fill="#0072C6"/>
</svg>
