<svg width="80" height="56" viewBox="0 0 80 56" fill="none" xmlns="http://www.w3.org/2000/svg">
<path d="M43.3674 0C39.343 0.0399773 35.7184 0.359796 32.8934 0.719592C32.8934 0.719592 15.2833 1.5791 13.3444 20.4218C13.0912 20.8015 12.7848 21.2613 12.5316 21.6411L7.54772 24.2463C4.85591 25.6521 2.85705 28.1707 2.01752 31.189C1.35123 33.5943 0.631642 37.039 0.0453072 41.8963C-0.381118 45.4076 2.25739 48.5125 5.6488 48.5125H72.1311C76.4753 48.5125 80 44.9878 80 40.6436V10.6273C80 4.7573 75.2427 0 69.3727 0H43.3674Z" fill="#0072C6"/>
<path d="M59.5586 49.146C59.5586 52.4774 62.2637 55.1825 65.5952 55.1825C68.9266 55.1825 71.6318 52.4774 71.6318 49.146C71.6318 45.8145 68.9266 43.1094 65.5952 43.1094C62.2637 43.1094 59.5586 45.8145 59.5586 49.146Z" fill="#86C8F9"/>
<path d="M42.1691 7.22251H42.0958H42.1025C38.0914 7.28914 34.6001 7.69558 32.2547 8.05538C32.2547 8.05538 32.0815 8.08203 31.7817 8.15532C31.6417 8.18863 31.5018 8.22195 31.3686 8.26193C28.8833 8.96153 21.9939 11.72 21.6074 20.8948H70.593V10.5739C70.593 8.715 69.0872 7.21585 67.2349 7.21585C59.4127 7.21585 42.7021 7.20919 42.1624 7.21585L42.1691 7.22251Z" fill="#86C8F9"/>
<path d="M13.0176 49.146C13.0176 52.4774 15.7227 55.1825 19.0542 55.1825C22.3856 55.1825 25.0907 52.4774 25.0907 49.146C25.0907 45.8145 22.3856 43.1094 19.0542 43.1094C15.7227 43.1094 13.0176 45.8145 13.0176 49.146Z" fill="#86C8F9"/>
<path d="M49.459 5.16406V21.9812" stroke="#0072C6" stroke-width="1.99887" stroke-miterlimit="10"/>
<path d="M49.7372 25.627L44.8066 35.9478H48.3446L47.0387 43.85L54.108 32.5097H50.1436L49.7372 25.627Z" fill="white"/>
</svg>
