<svg width="88" height="78" viewBox="0 0 88 78" fill="none" xmlns="http://www.w3.org/2000/svg">
<path d="M87.022 37.7005C86.4466 37.2002 85.5794 37.2669 85.0791 37.8423L82.2523 41.1026L81.9104 36.283C81.1767 26.0099 76.4737 16.6124 68.6772 9.82482C60.8723 3.03726 50.9161 -0.298154 40.6514 0.435637C26.676 1.43626 14.3267 9.85817 8.423 22.416C8.02275 23.2665 7.64752 24.1504 7.30564 25.0426C7.03047 25.7514 7.38902 26.5436 8.0978 26.8187C8.80657 27.0939 9.59873 26.7354 9.8739 26.0266C10.1908 25.2011 10.541 24.3839 10.9079 23.5917C16.3946 11.9345 27.8685 4.11293 40.8515 3.17901C50.3741 2.50359 59.6216 5.59719 66.8761 11.9011C74.1223 18.205 78.4917 26.9355 79.1754 36.4748L79.5006 41.0443L76.5154 38.4593C75.9401 37.959 75.0729 38.0257 74.5725 38.6011C74.0722 39.1764 74.1389 40.0437 74.7143 40.544L81.3851 46.3226L87.1637 39.6517C87.664 39.0764 87.5973 38.2092 87.022 37.7089V37.7005Z" fill="#86C8F9"/>
<path d="M79.5095 52.459C78.8091 52.1672 78.0003 52.5007 77.7084 53.2011C72.3884 65.9341 60.4226 74.2976 46.489 75.0398C26.7517 76.0487 9.84113 60.8309 8.79881 41.0352L8.54032 36.1072L11.6506 38.9089C12.2176 39.4176 13.0848 39.3675 13.5935 38.8088C14.1021 38.2418 14.0521 37.3746 13.4934 36.866L6.83926 30.8789L0.852195 37.5247C0.343545 38.0917 0.393576 38.9589 0.952257 39.4676C1.21909 39.7011 1.54429 39.8178 1.8695 39.8178C2.24473 39.8178 2.61996 39.6677 2.89513 39.3592L5.7886 36.1489L6.05544 41.1687C7.14778 61.7898 24.2251 77.8332 44.5794 77.8332C45.2632 77.8332 45.947 77.8165 46.6391 77.7748C61.4066 76.991 74.5981 67.7602 80.2517 54.2518C80.5435 53.5514 80.2183 52.7425 79.5095 52.4507V52.459Z" fill="#86C8F9"/>
<path d="M57.0627 34.5406L43.6793 14.2363L30.0125 34.3489C23.917 45.9227 31.33 60.4985 43.3541 60.5819C55.3783 60.6653 62.9997 46.1979 57.071 34.5406H57.0627ZM42.2368 55.487C42.2368 54.7949 42.7954 54.2363 43.4875 54.2363C48.7491 54.2363 53.0352 49.9586 53.0352 44.697C53.0352 44.0049 53.5938 43.4462 54.2859 43.4462C54.978 43.4462 55.5367 44.0049 55.5367 44.697C55.5367 51.3344 50.1333 56.7378 43.4875 56.7378C42.7954 56.7378 42.2368 56.1791 42.2368 55.487Z" fill="#86C8F9"/>
<g style="mix-blend-mode:multiply" opacity="0.88">
<path d="M87.022 37.7005C86.4466 37.2002 85.5794 37.2669 85.0791 37.8423L82.2523 41.1026L81.9104 36.283C81.1767 26.0099 76.4737 16.6124 68.6772 9.82482C60.8723 3.03726 50.9161 -0.298154 40.6514 0.435637C26.676 1.43626 14.3267 9.85817 8.423 22.416C8.02275 23.2665 7.64752 24.1504 7.30564 25.0426C7.03047 25.7514 7.38902 26.5436 8.0978 26.8187C8.80657 27.0939 9.59873 26.7354 9.8739 26.0266C10.1908 25.2011 10.541 24.3839 10.9079 23.5917C16.3946 11.9345 27.8685 4.11293 40.8515 3.17901C50.3741 2.50359 59.6216 5.59719 66.8761 11.9011C74.1223 18.205 78.4917 26.9355 79.1754 36.4748L79.5006 41.0443L76.5154 38.4593C75.9401 37.959 75.0729 38.0257 74.5725 38.6011C74.0722 39.1764 74.1389 40.0437 74.7143 40.544L81.3851 46.3226L87.1637 39.6517C87.664 39.0764 87.5973 38.2092 87.022 37.7089V37.7005Z" fill="#86C8F9"/>
<path d="M79.5095 52.459C78.8091 52.1672 78.0003 52.5007 77.7084 53.2011C72.3884 65.9341 60.4226 74.2976 46.489 75.0398C26.7517 76.0487 9.84113 60.8309 8.79881 41.0352L8.54032 36.1072L11.6506 38.9089C12.2176 39.4176 13.0848 39.3675 13.5935 38.8088C14.1021 38.2418 14.0521 37.3746 13.4934 36.866L6.83926 30.8789L0.852195 37.5247C0.343545 38.0917 0.393576 38.9589 0.952257 39.4676C1.21909 39.7011 1.54429 39.8178 1.8695 39.8178C2.24473 39.8178 2.61996 39.6677 2.89513 39.3592L5.7886 36.1489L6.05544 41.1687C7.14778 61.7898 24.2251 77.8332 44.5794 77.8332C45.2632 77.8332 45.947 77.8165 46.6391 77.7748C61.4066 76.991 74.5981 67.7602 80.2517 54.2518C80.5435 53.5514 80.2183 52.7425 79.5095 52.4507V52.459Z" fill="#86C8F9"/>
<path d="M57.0627 34.5406L43.6793 14.2363L30.0125 34.3489C23.917 45.9227 31.33 60.4985 43.3541 60.5819C55.3783 60.6653 62.9997 46.1979 57.071 34.5406H57.0627ZM42.2368 55.487C42.2368 54.7949 42.7954 54.2363 43.4875 54.2363C48.7491 54.2363 53.0352 49.9586 53.0352 44.697C53.0352 44.0049 53.5938 43.4462 54.2859 43.4462C54.978 43.4462 55.5367 44.0049 55.5367 44.697C55.5367 51.3344 50.1333 56.7378 43.4875 56.7378C42.7954 56.7378 42.2368 56.1791 42.2368 55.487Z" fill="#0072C6"/>
</g>
</svg>
