<svg width="70" height="65" viewBox="0 0 70 65" fill="none" xmlns="http://www.w3.org/2000/svg">
<path d="M1.80113 55.581H68.1989C69.1924 55.581 70 54.7734 70 53.7799V49.4746H0V53.7799C0 54.7734 0.807603 55.581 1.80113 55.581Z" fill="#86C8F9"/>
<path d="M0 11.598V49.4798H70V11.598C70 10.6045 69.1924 9.79688 68.1989 9.79688H1.80113C0.807603 9.79688 0 10.6045 0 11.598Z" fill="#0072C6"/>
<path d="M48.7925 64.7658H21.2004C20.4625 64.7658 19.9222 64.057 20.1313 63.3424C20.7472 61.1984 22.7226 59.6355 25.0583 59.6355H28.6431C29.1196 59.6355 29.5379 59.3334 29.6948 58.886L30.6128 56.225L30.8393 55.5801H39.1594L39.386 56.225L40.304 58.886C40.4609 59.3334 40.8792 59.6355 41.3556 59.6355H44.9346C46.3523 59.6355 47.6363 60.2107 48.5601 61.1345C49.1644 61.7388 49.6176 62.4941 49.8616 63.3366C50.0649 64.0454 49.5304 64.76 48.7925 64.76V64.7658Z" fill="#86C8F9"/>
<path d="M47.247 0H16.9473C15.8082 0 14.8848 0.92345 14.8848 2.06258V39.9734C14.8848 41.1126 15.8082 42.036 16.9473 42.036H47.247C48.3861 42.036 49.3096 41.1126 49.3096 39.9734V2.06258C49.3096 0.92345 48.3861 0 47.247 0Z" fill="#86C8F9"/>
<path d="M21.6895 34.9609H42.507" stroke="#0072C6" stroke-width="1.16202" stroke-linecap="round" stroke-linejoin="round"/>
<path d="M21.6895 28.1621H42.507" stroke="#0072C6" stroke-width="1.16202" stroke-linecap="round" stroke-linejoin="round"/>
<path d="M21.6895 21.3691H42.507" stroke="#0072C6" stroke-width="1.16202" stroke-linecap="round" stroke-linejoin="round"/>
<path d="M21.6895 14.5723H42.507" stroke="#0072C6" stroke-width="1.16202" stroke-linecap="round" stroke-linejoin="round"/>
<path d="M21.6895 7.78125H42.507" stroke="#0072C6" stroke-width="1.16202" stroke-linecap="round" stroke-linejoin="round"/>
<path d="M49.3084 29.9859C53.2649 29.9859 56.4722 26.7785 56.4722 22.822C56.4722 18.8656 53.2649 15.6582 49.3084 15.6582C45.3519 15.6582 42.1445 18.8656 42.1445 22.822C42.1445 26.7785 45.3519 29.9859 49.3084 29.9859Z" stroke="white" stroke-width="3" stroke-miterlimit="10" stroke-linecap="round"/>
<path d="M54.375 27.8887L62.7299 36.2436" stroke="white" stroke-width="3" stroke-miterlimit="10" stroke-linecap="round"/>
</svg>
