<svg width="68" height="73" viewBox="0 0 68 73" fill="none" xmlns="http://www.w3.org/2000/svg">
<path d="M66.8138 10.5145L59.115 0L51.2532 10.4152C47.7468 16.4087 52.0111 23.9566 58.9279 23.9998C65.8448 24.043 70.229 16.5511 66.8185 10.5145H66.8138Z" fill="#86C8F9"/>
<path d="M49.5072 33.6673L26.8386 3L3.6899 33.3776C-6.63452 50.8586 5.92144 72.8735 26.2878 72.9995C46.6542 73.1254 59.5632 51.2742 49.5213 33.6673H49.5072Z" fill="#0072C6"/>
<path d="M29.4217 52.506H26.056V45.3317H19.2803V52.506H15.9146V35.7217H19.2803V42.4531H26.056V35.7217H29.4217V52.506ZM32.0346 52.9931C32.1822 52.8603 32.566 52.5134 33.186 51.9524L33.6953 51.5317C34.4482 50.9265 35.0165 50.4172 35.4003 50.0039C35.7841 49.5905 35.976 49.1772 35.976 48.7639C35.976 48.38 35.8653 48.07 35.6439 47.8339C35.4372 47.5829 35.1641 47.4574 34.8246 47.4574C34.5294 47.4574 34.2415 47.5534 33.961 47.7453C33.6806 47.9372 33.4813 48.1881 33.3632 48.4981L31.636 47.7231C31.9017 47.0884 32.3298 46.5717 32.9203 46.1731C33.5108 45.7598 34.1456 45.5531 34.8246 45.5531C35.7694 45.5531 36.537 45.8558 37.1275 46.461C37.7179 47.0515 38.0132 47.8191 38.0132 48.7639C38.0132 49.561 37.7622 50.2843 37.2603 50.9339C36.7584 51.5834 36.0646 52.255 35.1789 52.9489H38.1239V54.7424H32.256L32.0346 52.9931Z" fill="white"/>
</svg>
