<svg width="60" height="56" viewBox="0 0 60 56" fill="none" xmlns="http://www.w3.org/2000/svg">
<path d="M58.91 39.1068V39.0108C58.91 38.6891 58.8812 38.3673 58.8283 38.0552V29.8535C58.8283 13.7527 46.084 0.316927 29.9976 0C13.916 0.316927 1.16687 13.7527 1.16687 29.8535V38.0552C1.11885 38.3673 1.09004 38.6891 1.09004 39.0108V39.1068C0.456183 39.3037 0 39.8896 0 40.5858V47.9376C0 48.6387 0.456183 49.2197 1.09004 49.4214V49.5126C1.09004 49.8391 1.11885 50.1561 1.16687 50.4682V50.6843H1.19568C1.7479 53.6038 4.30732 55.8127 7.38535 55.8127H8.88836C10.6555 55.8127 12.0816 54.3866 12.0816 52.6194V35.9088C12.0816 34.1417 10.6507 32.7155 8.88836 32.7155H7.38535C6.58824 32.7155 5.82953 32.8692 5.12845 33.1429V29.7959C5.12845 15.8896 16.12 4.28331 29.9976 3.96639C43.8751 4.28331 54.8667 15.8944 54.8667 29.7959V33.1429C54.1609 32.8692 53.407 32.7155 52.6098 32.7155H51.1068C49.3397 32.7155 47.9136 34.1465 47.9136 35.9088V52.6194C47.9136 54.3866 49.3445 55.8127 51.1068 55.8127H52.6098C55.6879 55.8127 58.2473 53.6038 58.7995 50.6843H58.8283V50.4682C58.8764 50.1561 58.91 49.8391 58.91 49.5126V49.4214C59.5438 49.2197 60 48.6387 60 47.9376V40.5858C60 39.8896 59.5438 39.3037 58.91 39.1068Z" fill="#0072C6"/>
<path d="M44.7699 27.1198C44.4337 23.1582 42.5754 19.5615 39.531 16.9877C36.4865 14.4139 32.6306 13.1846 28.6738 13.5159C23.4445 13.9577 18.9163 17.0357 16.5682 21.756C15.3581 24.1906 14.8395 26.9085 15.0652 29.6216C15.3869 33.4103 17.1204 36.9013 19.9535 39.4559L20.112 39.5999L20.0112 39.7872C19.9583 39.8833 19.8815 40.0081 19.7807 40.1618L18.3401 42.4715C17.9079 43.1486 18.1096 43.6864 18.2633 43.9505C18.6186 44.5411 19.3533 44.7764 20.5154 44.69L20.6402 44.6804C21.8455 44.5795 22.9259 44.3586 23.8431 44.0177L24.0928 43.9265C24.2753 43.8688 24.4481 43.8016 24.645 43.7248C25.202 43.4895 25.7206 43.2254 26.2825 42.8989L26.3785 42.846L26.4938 42.8653C28.0208 43.235 29.5958 43.3502 31.1804 43.2206C36.4049 42.7788 40.9283 39.7008 43.2765 34.9853C44.4817 32.5555 45.0052 29.8376 44.7747 27.1246L44.7699 27.1198ZM24.1552 30.2554C23.2284 30.2554 22.4794 29.5063 22.4794 28.5795C22.4794 27.6528 23.2284 26.9037 24.1552 26.9037C25.082 26.9037 25.8311 27.6528 25.8311 28.5795C25.8311 29.5063 25.082 30.2554 24.1552 30.2554ZM29.9175 30.2554C28.9908 30.2554 28.2417 29.5063 28.2417 28.5795C28.2417 27.6528 28.9908 26.9037 29.9175 26.9037C30.8443 26.9037 31.5934 27.6528 31.5934 28.5795C31.5934 29.5063 30.8443 30.2554 29.9175 30.2554ZM35.6798 30.2554C34.7531 30.2554 34.004 29.5063 34.004 28.5795C34.004 27.6528 34.7531 26.9037 35.6798 26.9037C36.6066 26.9037 37.3557 27.6528 37.3557 28.5795C37.3557 29.5063 36.6066 30.2554 35.6798 30.2554Z" fill="#86C8F9"/>
</svg>
