<svg width="132" height="132" viewBox="0 0 132 132" fill="none" xmlns="http://www.w3.org/2000/svg">
<path fill-rule="evenodd" clip-rule="evenodd" d="M65.978 33.5352C77.5503 33.5352 86.9693 42.9542 86.9693 54.5265V97.3288H45.0283V54.5265C45.0283 42.9542 54.4473 33.5352 65.978 33.5352Z" fill="#0072C6"/>
<path d="M55.0267 77.4137H59.1533V79.0849H53.0727V69.3405H55.0267V77.4137ZM68.6831 79.0849H66.472L62.3454 72.593V79.0849H60.3914V69.3405H62.6025L66.7291 75.8454V69.3405H68.6831V79.0849ZM79.6072 74.8298C79.6072 75.7125 79.4229 76.4838 79.0544 77.1438C78.6944 77.7951 78.1716 78.3007 77.486 78.6607C76.8004 79.0121 75.9862 79.1878 75.0435 79.1878C74.0922 79.1878 73.2395 78.9778 72.4853 78.5578C71.7397 78.1293 71.1569 77.538 70.737 76.7838C70.317 76.0296 70.107 75.1726 70.107 74.2127C70.107 73.2529 70.317 72.3958 70.737 71.6417C71.1569 70.8875 71.7397 70.3004 72.4853 69.8805C73.2395 69.4605 74.0922 69.2506 75.0435 69.2506C75.9605 69.2506 76.7276 69.4263 77.3446 69.7776C77.9702 70.1204 78.4073 70.459 78.6559 70.7932C78.913 71.1189 79.1101 71.3846 79.2472 71.5902L77.6146 72.503C77.5289 72.3658 77.4046 72.1902 77.2418 71.9759C77.0789 71.7531 76.8047 71.526 76.419 71.2946C76.0419 71.0632 75.5791 70.9475 75.0306 70.9475C74.1222 70.9475 73.398 71.2431 72.8581 71.8345C72.3267 72.4173 72.0611 73.21 72.0611 74.2127C72.0611 75.224 72.3267 76.0253 72.8581 76.6167C73.3894 77.1995 74.1136 77.4908 75.0306 77.4908C75.7677 77.4908 76.3847 77.328 76.8818 77.0023C77.3789 76.6681 77.636 76.1453 77.6531 75.434H75.1592V73.8913H79.6072V74.8298Z" fill="white"/>
<path d="M88.7897 51.8008H43.209V58.1635H88.7897V51.8008Z" fill="#86C8F9"/>
<path fill-rule="evenodd" clip-rule="evenodd" d="M38 90.9785H48.3776H94V97.3412H48.3776H38H38.4168V90.9785H38Z" fill="#86C8F9"/>
<path d="M75.9254 29.5195H56.0732V35.8822H75.9254V29.5195Z" fill="#86C8F9"/>
<path d="M66 0.00128365L60.5564 9.42986L71.4436 9.42986L66 0.00128365ZM66 20.7441L66.9429 20.7441L66.9429 8.487L66 8.487L65.0571 8.487L65.0571 20.7441L66 20.7441Z" fill="#86C8F9"/>
<path d="M66.0088 132.001L71.4524 122.572L60.5652 122.572L66.0088 132.001ZM66.0088 111.258L65.0659 111.258L65.0659 123.515L66.0088 123.515L66.9516 123.515L66.9516 111.258L66.0088 111.258Z" fill="#86C8F9"/>
<path d="M0.00421333 66.0059L9.43279 71.4494L9.43279 60.5623L0.00421333 66.0059ZM20.7471 66.0059V65.063L8.48993 65.063L8.48993 66.0059L8.48993 66.9487L20.7471 66.9487V66.0059Z" fill="#86C8F9"/>
<path d="M132.005 65.9961L122.576 60.5525L122.576 71.4397L132.005 65.9961ZM111.262 65.9961V66.939L123.519 66.939V65.9961V65.0532L111.262 65.0532V65.9961Z" fill="#86C8F9"/>
<path d="M19.3326 19.3345L22.1504 29.8507L29.8488 22.1523L19.3326 19.3345ZM34 34.002L34.6667 33.3353L25.9996 24.6681L25.3329 25.3348L24.6662 26.0015L33.3333 34.6687L34 34.002Z" fill="#86C8F9"/>
<path d="M112.676 112.667L109.858 102.151L102.16 109.85L112.676 112.667ZM98.0088 98L97.3421 98.6667L106.009 107.334L106.676 106.667L107.343 106L98.6755 97.3333L98.0088 98Z" fill="#86C8F9"/>
<path d="M112.671 19.3287L102.155 22.1465L109.854 29.8449L112.671 19.3287ZM98.0039 33.9961L98.6706 34.6628L107.338 25.9957L106.671 25.329L106.004 24.6623L97.3372 33.3294L98.0039 33.9961Z" fill="#86C8F9"/>
<path d="M19.3384 112.673L29.8546 109.855L22.1563 102.157L19.3384 112.673ZM34.0059 98.0059L33.3392 97.3392L24.672 106.006L25.3387 106.673L26.0055 107.34L34.6726 98.6726L34.0059 98.0059Z" fill="#86C8F9"/>
</svg>
