<svg width="63" height="81" viewBox="0 0 63 81" fill="none" xmlns="http://www.w3.org/2000/svg">
<g clip-path="url(#clip0_2153_11972)">
<path d="M31.2594 25.9797C36.5889 25.9797 40.9094 21.6592 40.9094 16.3297C40.9094 11.0001 36.5889 6.67969 31.2594 6.67969C25.9298 6.67969 21.6094 11.0001 21.6094 16.3297C21.6094 21.6592 25.9298 25.9797 31.2594 25.9797Z" fill="#86C8F9"/>
<path d="M33.6299 4.08H28.8799L31.2599 0L33.6299 4.08Z" fill="#86C8F9"/>
<path d="M24.27 5.9893L20.91 9.3393L19.71 4.7793L24.27 5.9893Z" fill="#86C8F9"/>
<path d="M18.9997 13.9609V18.7009L14.9297 16.3309L18.9997 13.9609Z" fill="#86C8F9"/>
<path d="M20.91 23.3203L24.27 26.6703L19.71 27.8803L20.91 23.3203Z" fill="#86C8F9"/>
<path d="M28.8799 28.5801H33.6299L31.2599 32.6601L28.8799 28.5801Z" fill="#86C8F9"/>
<path d="M38.2393 26.6703L41.5993 23.3203L42.7993 27.8803L38.2393 26.6703Z" fill="#86C8F9"/>
<path d="M43.5098 18.7009V13.9609L47.5798 16.3309L43.5098 18.7009Z" fill="#86C8F9"/>
<path d="M41.5993 9.3393L38.2393 5.9893L42.7993 4.7793L41.5993 9.3393Z" fill="#86C8F9"/>
<path d="M60.51 21.9707H2C0.895431 21.9707 0 22.8661 0 23.9707V63.0607C0 64.1653 0.89543 65.0607 2 65.0607H60.51C61.6146 65.0607 62.51 64.1653 62.51 63.0607V23.9707C62.51 22.8661 61.6146 21.9707 60.51 21.9707Z" fill="#1067C8"/>
<path d="M17.8002 26.4609H6.7002C5.59563 26.4609 4.7002 27.3564 4.7002 28.4609V39.5609C4.7002 40.6655 5.59563 41.5609 6.70019 41.5609H17.8002C18.9048 41.5609 19.8002 40.6655 19.8002 39.5609V28.4609C19.8002 27.3564 18.9048 26.4609 17.8002 26.4609Z" fill="#86C8F9"/>
<path d="M36.81 26.4609H25.71C24.6054 26.4609 23.71 27.3564 23.71 28.4609V39.5609C23.71 40.6655 24.6054 41.5609 25.71 41.5609H36.81C37.9145 41.5609 38.81 40.6655 38.81 39.5609V28.4609C38.81 27.3564 37.9145 26.4609 36.81 26.4609Z" fill="#86C8F9"/>
<path d="M55.81 26.4609H44.71C43.6054 26.4609 42.71 27.3564 42.71 28.4609V39.5609C42.71 40.6655 43.6054 41.5609 44.71 41.5609H55.81C56.9145 41.5609 57.81 40.6655 57.81 39.5609V28.4609C57.81 27.3564 56.9145 26.4609 55.81 26.4609Z" fill="#86C8F9"/>
<path d="M17.8002 45.4707H6.7002C5.59563 45.4707 4.7002 46.3661 4.7002 47.4707V58.5707C4.7002 59.6753 5.59563 60.5707 6.70019 60.5707H17.8002C18.9048 60.5707 19.8002 59.6753 19.8002 58.5707V47.4707C19.8002 46.3661 18.9048 45.4707 17.8002 45.4707Z" fill="#86C8F9"/>
<path d="M36.81 45.4707H25.71C24.6054 45.4707 23.71 46.3661 23.71 47.4707V58.5707C23.71 59.6753 24.6054 60.5707 25.71 60.5707H36.81C37.9145 60.5707 38.81 59.6753 38.81 58.5707V47.4707C38.81 46.3661 37.9145 45.4707 36.81 45.4707Z" fill="#86C8F9"/>
<path d="M37.2198 65.0605H25.2998V76.4706H37.2198V65.0605Z" fill="#1067C8"/>
<path d="M15.5004 72.5391H47.0104C51.0024 72.5391 54.3059 75.531 54.7973 79.3912C54.8671 79.939 54.4127 80.3891 53.8604 80.3891H8.65039C8.09811 80.3891 7.6437 79.939 7.71345 79.3912C8.20486 75.531 11.5084 72.5391 15.5004 72.5391Z" fill="#1067C8"/>
<path d="M55.81 45.4707H44.71C43.6054 45.4707 42.71 46.3661 42.71 47.4707V58.5707C42.71 59.6753 43.6054 60.5707 44.71 60.5707H55.81C56.9145 60.5707 57.81 59.6753 57.81 58.5707V47.4707C57.81 46.3661 56.9145 45.4707 55.81 45.4707Z" fill="#86C8F9"/>
</g>
<defs>
<clipPath id="clip0_2153_11972">
<rect width="62.51" height="80.39" fill="white"/>
</clipPath>
</defs>
</svg>
