<svg width="54" height="71" viewBox="0 0 54 71" fill="none" xmlns="http://www.w3.org/2000/svg">
<path d="M49.8095 5.7808C49.8095 2.58788 47.2216 0 44.0287 0H11.2378C8.04491 0 5.45703 2.58788 5.45703 5.7808V62.8762H49.8095V5.7808Z" fill="#0072C6"/>
<path d="M52.3684 62.877H1.63158C0.730485 62.877 0 63.6074 0 64.5085V68.6592C0 69.5603 0.730485 70.2908 1.63158 70.2908H52.3684C53.2695 70.2908 54 69.5603 54 68.6592V64.5085C54 63.6074 53.2695 62.877 52.3684 62.877Z" fill="#86C8F9"/>
<path d="M42.5324 6.9375H12.7309C12.1449 6.9375 11.6699 7.41251 11.6699 7.99846V24.905C11.6699 25.491 12.1449 25.966 12.7309 25.966H42.5324C43.1183 25.966 43.5934 25.491 43.5934 24.905V7.99846C43.5934 7.41251 43.1183 6.9375 42.5324 6.9375Z" fill="#86C8F9"/>
<path d="M32.004 41.1296H29.6097V33.8363C29.6097 32.8341 28.2634 32.5101 27.8061 33.4018L22.4109 43.9355C22.0855 44.5706 22.5471 45.3247 23.2597 45.3247H25.654V52.6181C25.654 53.6203 27.0003 53.9443 27.4577 53.0525L32.8528 42.5189C33.1782 41.8838 32.7166 41.1296 32.004 41.1296Z" fill="white"/>
</svg>
