<svg width="57" height="76" viewBox="0 0 57 76" fill="none" xmlns="http://www.w3.org/2000/svg">
<path d="M57 30.7014C57 23.766 52.4206 17.9791 46.133 16.0059C46.133 15.8292 46.1919 15.6525 46.1919 15.4758C46.1919 6.92069 39.2713 0 30.7161 0C23.442 0 17.3754 5.05063 15.7262 11.8241C15.6378 11.8241 15.5642 11.7946 15.4906 11.7946C6.93542 11.7799 0 18.7006 0 27.2557C0 35.1483 5.93413 41.583 13.5616 42.5402C14.9605 49.6523 21.2185 55.0121 28.743 55.0121C34.9569 55.0121 40.2725 51.3309 42.7316 46.0447C50.6978 45.4115 56.9853 38.8295 56.9853 30.6866L57 30.7014Z" fill="#0072C6"/>
<path d="M31.5853 73.0361C31.5853 74.3466 30.5104 75.4215 29.1999 75.4215C27.8894 75.4215 26.8145 74.3466 26.8145 73.0361V41.7604C26.8145 40.4499 27.8894 39.375 29.1999 39.375C30.5104 39.375 31.5853 40.4499 31.5853 41.7604V73.0361Z" fill="#86C8F9"/>
</svg>
