<svg width="91" height="87" viewBox="0 0 91 87" fill="none" xmlns="http://www.w3.org/2000/svg">
<path d="M86.0377 22.2644C82.6326 17.7456 77.9541 15.0314 72.7944 14.5626C68.6129 5.69152 59.6774 0 49.8262 0C43.2251 0 37.0812 2.06098 32.5227 5.80187C28.1211 9.4139 25.4247 14.2946 24.6598 19.9896C21.2301 19.0094 17.5358 19.7545 14.6914 22.0773C11.8196 24.4247 10.3556 27.9566 10.6778 31.5652C8.49821 31.6968 6.35019 32.6296 4.49756 34.2698C1.72445 36.729 0 40.4644 0 44.0195C0 50.2374 5.02189 55.4896 10.9684 55.4896H72.7458C77.5148 55.4896 82.0329 53.6706 85.4681 50.3656C88.9211 47.0442 90.8834 42.6001 90.9937 37.8489C91.1205 32.2958 89.3145 26.6153 86.0377 22.2644Z" fill="#0072C6"/>
<path d="M35.888 41.3266C34.4347 41.3266 33.1413 41 32.008 40.3466C30.8747 39.68 29.988 38.76 29.348 37.5866C28.7213 36.4133 28.408 35.08 28.408 33.5866C28.408 32.0933 28.7213 30.76 29.348 29.5866C29.988 28.4133 30.868 27.5 31.988 26.8466C33.1213 26.18 34.408 25.8466 35.848 25.8466C36.8747 25.8466 37.8413 26.0466 38.748 26.4466C39.668 26.8333 40.4747 27.3866 41.168 28.1066L39.228 30.2466C38.8813 29.7133 38.3947 29.2866 37.768 28.9666C37.1547 28.6466 36.508 28.4866 35.828 28.4866C34.4813 28.4866 33.4147 28.9466 32.628 29.8666C31.8413 30.7733 31.448 32.0133 31.448 33.5866C31.448 35.16 31.8413 36.4066 32.628 37.3266C33.428 38.2333 34.508 38.6866 35.868 38.6866C36.6013 38.6866 37.2347 38.5333 37.768 38.2266C38.3147 37.9066 38.7547 37.5133 39.088 37.0466L41.168 39.0666C40.448 39.8133 39.6613 40.38 38.808 40.7666C37.9547 41.1533 36.9813 41.34 35.888 41.3266ZM50.3277 38.6866C51.7544 38.6866 52.881 38.2333 53.7077 37.3266C54.5477 36.4066 54.9677 35.16 54.9677 33.5866C54.9677 32.0133 54.5477 30.7733 53.7077 29.8666C52.881 28.9466 51.7544 28.4866 50.3277 28.4866C48.901 28.4866 47.7677 28.9466 46.9277 29.8666C46.101 30.7733 45.6877 32.0133 45.6877 33.5866C45.6877 35.16 46.101 36.4066 46.9277 37.3266C47.7677 38.2333 48.901 38.6866 50.3277 38.6866ZM50.3277 25.8466C51.8077 25.8466 53.1277 26.18 54.2877 26.8466C55.461 27.5 56.3744 28.4133 57.0277 29.5866C57.681 30.76 58.0077 32.0933 58.0077 33.5866C58.0077 35.08 57.681 36.4133 57.0277 37.5866C56.3744 38.76 55.461 39.68 54.2877 40.3466C53.1277 41 51.8077 41.3266 50.3277 41.3266C48.8477 41.3266 47.521 41 46.3477 40.3466C45.1877 39.68 44.281 38.76 43.6277 37.5866C42.9744 36.4133 42.6477 35.08 42.6477 33.5866C42.6477 32.0933 42.9744 30.76 43.6277 29.5866C44.281 28.4133 45.1877 27.5 46.3477 26.8466C47.521 26.18 48.8477 25.8466 50.3277 25.8466ZM60.2188 41.6066C60.3521 41.4866 60.6988 41.1733 61.2588 40.6666L61.7188 40.2866C62.3988 39.74 62.9121 39.28 63.2588 38.9066C63.6055 38.5333 63.7788 38.16 63.7788 37.7866C63.7788 37.44 63.6788 37.16 63.4788 36.9466C63.2921 36.72 63.0455 36.6066 62.7388 36.6066C62.4721 36.6066 62.2121 36.6933 61.9588 36.8666C61.7055 37.04 61.5255 37.2666 61.4188 37.5466L59.8588 36.8466C60.0988 36.2733 60.4855 35.8066 61.0188 35.4466C61.5521 35.0733 62.1255 34.8866 62.7388 34.8866C63.5921 34.8866 64.2855 35.16 64.8188 35.7066C65.3521 36.24 65.6188 36.9333 65.6188 37.7866C65.6188 38.5066 65.3921 39.16 64.9388 39.7466C64.4855 40.3333 63.8588 40.94 63.0588 41.5666H65.7188V43.1866H60.4188L60.2188 41.6066Z" fill="white"/>
<path d="M67.1438 78.0506C67.1383 78.0437 67.1314 78.0369 67.126 78.03L62.1308 71.5503C61.7422 71.0459 61.797 70.3399 62.2357 69.9013C62.2734 69.8636 62.3145 69.8272 62.3577 69.7936C62.9053 69.3714 63.6921 69.4729 64.1143 70.0212L66.8648 73.5894V62.4023C67.2815 62.4147 67.6989 62.4229 68.117 62.4229C68.5358 62.4229 68.9532 62.4147 69.3699 62.4023V73.59L72.1204 70.0219C72.154 69.978 72.1897 69.9376 72.228 69.8999C72.6667 69.4612 73.3733 69.4057 73.8771 69.795C74.4247 70.2172 74.5268 71.0041 74.1046 71.5517L69.1095 78.0314C69.104 78.0383 69.0978 78.0451 69.0923 78.052C69.0766 78.0712 69.0608 78.0904 69.0437 78.1089C69.0307 78.1233 69.017 78.137 69.0033 78.1507C68.9889 78.1651 68.9738 78.1795 68.9587 78.1932C68.9409 78.2089 68.9231 78.2247 68.9046 78.2398C68.897 78.2459 68.8902 78.2528 68.8826 78.2583C68.8765 78.2631 68.8696 78.2665 68.8634 78.2713C68.8436 78.2864 68.823 78.3001 68.8024 78.3138C68.7873 78.3234 68.7723 78.333 68.7572 78.3426C68.738 78.3535 68.7188 78.3645 68.6996 78.3748C68.6811 78.3844 68.6633 78.394 68.6441 78.4022C68.6277 78.4097 68.6112 78.4166 68.5941 78.4235C68.5721 78.4324 68.5502 78.4413 68.5276 78.4488C68.5132 78.4536 68.4988 78.4577 68.4844 78.4625C68.4597 78.4701 68.4351 78.4776 68.4097 78.4831C68.396 78.4865 68.3823 78.4893 68.3686 78.492C68.3432 78.4975 68.3172 78.5023 68.2918 78.5057C68.2767 78.5078 68.2623 78.5091 68.2473 78.5105C68.2226 78.5132 68.1986 78.5153 68.1739 78.5167C68.1568 78.5174 68.139 78.5174 68.1218 78.5174C68.0999 78.5174 68.078 78.5174 68.056 78.5167C68.0362 78.516 68.0163 78.5139 67.9957 78.5119C67.9765 78.5098 67.9573 78.5084 67.9381 78.5057C67.9162 78.503 67.895 78.4982 67.8737 78.4941C67.8559 78.4906 67.8381 78.4872 67.8209 78.4831C67.7997 78.4776 67.7784 78.4714 67.7572 78.4653C67.7394 78.4598 67.7216 78.4543 67.7044 78.4488C67.6845 78.442 67.6654 78.4344 67.6462 78.4262C67.627 78.4187 67.6078 78.4104 67.5886 78.4015C67.5721 78.394 67.5557 78.3851 67.5392 78.3768C67.518 78.3659 67.4968 78.3542 67.4762 78.3419C67.4625 78.3337 67.4488 78.3248 67.4351 78.3158C67.4131 78.3014 67.3912 78.2871 67.3706 78.2713C67.3652 78.2672 67.359 78.2638 67.3528 78.259C67.3453 78.2535 67.3391 78.2473 67.3323 78.2411C67.3131 78.2254 67.2946 78.2096 67.2761 78.1932C67.261 78.1795 67.2466 78.1657 67.2329 78.152C67.2192 78.1376 67.2048 78.1239 67.1917 78.1089C67.1753 78.0904 67.1589 78.0718 67.1438 78.0527V78.0506Z" fill="#86C8F9"/>
<path d="M21.9074 78.0506C21.902 78.0437 21.8951 78.0369 21.8896 78.03L16.8945 71.5503C16.5058 71.0459 16.5607 70.3399 16.9993 69.9013C17.037 69.8636 17.0782 69.8272 17.1213 69.7936C17.669 69.3714 18.4558 69.4729 18.878 70.0212L21.6285 73.5894V62.4023C22.0452 62.4147 22.4626 62.4229 22.8807 62.4229C23.2995 62.4229 23.7169 62.4147 24.1336 62.4023V73.59L26.8841 70.0219C26.9177 69.978 26.9533 69.9376 26.9917 69.8999C27.4304 69.4612 28.137 69.4057 28.6408 69.795C29.1884 70.2172 29.2905 71.0041 28.8683 71.5517L23.8732 78.0314C23.8677 78.0383 23.8615 78.0451 23.856 78.052C23.8403 78.0712 23.8245 78.0904 23.8074 78.1089C23.7943 78.1233 23.7806 78.137 23.7669 78.1507C23.7525 78.1651 23.7375 78.1795 23.7224 78.1932C23.7046 78.2089 23.6867 78.2247 23.6682 78.2398C23.6607 78.2459 23.6538 78.2528 23.6463 78.2583C23.6401 78.2631 23.6333 78.2665 23.6271 78.2713C23.6072 78.2864 23.5867 78.3001 23.5661 78.3138C23.551 78.3234 23.5359 78.333 23.5209 78.3426C23.5017 78.3535 23.4825 78.3645 23.4633 78.3748C23.4448 78.3844 23.427 78.394 23.4078 78.4022C23.3913 78.4097 23.3749 78.4166 23.3577 78.4235C23.3358 78.4324 23.3139 78.4413 23.2913 78.4488C23.2769 78.4536 23.2625 78.4577 23.2481 78.4625C23.2234 78.4701 23.1987 78.4776 23.1734 78.4831C23.1597 78.4865 23.146 78.4893 23.1322 78.492C23.1069 78.4975 23.0808 78.5023 23.0555 78.5057C23.0404 78.5078 23.026 78.5091 23.0109 78.5105C22.9863 78.5132 22.9623 78.5153 22.9376 78.5167C22.9205 78.5174 22.9026 78.5174 22.8855 78.5174C22.8636 78.5174 22.8416 78.5174 22.8197 78.5167C22.7998 78.516 22.78 78.5139 22.7594 78.5119C22.7402 78.5098 22.721 78.5084 22.7018 78.5057C22.6799 78.503 22.6586 78.4982 22.6374 78.4941C22.6196 78.4906 22.6018 78.4872 22.5846 78.4831C22.5634 78.4776 22.5421 78.4714 22.5209 78.4653C22.5031 78.4598 22.4852 78.4543 22.4681 78.4488C22.4482 78.442 22.429 78.4344 22.4098 78.4262C22.3907 78.4187 22.3715 78.4104 22.3523 78.4015C22.3358 78.394 22.3194 78.3851 22.3029 78.3768C22.2817 78.3659 22.2604 78.3542 22.2399 78.3419C22.2262 78.3337 22.2124 78.3248 22.1987 78.3158C22.1768 78.3014 22.1549 78.2871 22.1343 78.2713C22.1288 78.2672 22.1227 78.2638 22.1165 78.259C22.109 78.2535 22.1028 78.2473 22.0959 78.2411C22.0767 78.2254 22.0582 78.2096 22.0397 78.1932C22.0246 78.1795 22.0103 78.1657 21.9965 78.152C21.9828 78.1376 21.9684 78.1239 21.9554 78.1089C21.939 78.0904 21.9225 78.0718 21.9074 78.0527V78.0506Z" fill="#86C8F9"/>
<path d="M44.5256 85.5623C44.5201 85.5555 44.5133 85.5486 44.5078 85.5418L39.5126 79.062C39.124 78.5576 39.1788 77.8516 39.6175 77.413C39.6552 77.3753 39.6963 77.339 39.7395 77.3054C40.2871 76.8832 41.074 76.9846 41.4962 77.5329L44.2467 81.1011V69.9141C44.6634 69.9264 45.0808 69.9346 45.4989 69.9346C45.9176 69.9346 46.3351 69.9264 46.7518 69.9141V81.1018L49.5023 77.5336C49.5358 77.4897 49.5715 77.4493 49.6099 77.4116C50.0485 76.9729 50.7552 76.9174 51.2589 77.3067C51.8066 77.7289 51.9087 78.5158 51.4865 79.0634L46.4913 85.5431C46.4858 85.55 46.4797 85.5568 46.4742 85.5637C46.4584 85.5829 46.4427 85.6021 46.4255 85.6206C46.4125 85.635 46.3988 85.6487 46.3851 85.6624C46.3707 85.6768 46.3556 85.6912 46.3405 85.7049C46.3227 85.7206 46.3049 85.7364 46.2864 85.7515C46.2789 85.7577 46.272 85.7645 46.2645 85.77C46.2583 85.7748 46.2514 85.7782 46.2453 85.783C46.2254 85.7981 46.2048 85.8118 46.1843 85.8255C46.1692 85.8351 46.1541 85.8447 46.139 85.8543C46.1198 85.8653 46.1006 85.8762 46.0815 85.8865C46.063 85.8961 46.0451 85.9057 46.0259 85.9139C46.0095 85.9215 45.993 85.9283 45.9759 85.9352C45.954 85.9441 45.932 85.953 45.9094 85.9605C45.895 85.9653 45.8806 85.9694 45.8662 85.9742C45.8416 85.9818 45.8169 85.9893 45.7915 85.9948C45.7778 85.9982 45.7641 86.001 45.7504 86.0037C45.7251 86.0092 45.699 86.014 45.6736 86.0174C45.6586 86.0195 45.6442 86.0208 45.6291 86.0222C45.6044 86.025 45.5804 86.027 45.5558 86.0284C45.5386 86.0291 45.5208 86.0291 45.5037 86.0291C45.4817 86.0291 45.4598 86.0291 45.4379 86.0284C45.418 86.0277 45.3981 86.0256 45.3776 86.0236C45.3584 86.0215 45.3392 86.0202 45.32 86.0174C45.298 86.0147 45.2768 86.0099 45.2556 86.0058C45.2377 86.0023 45.2199 85.9989 45.2028 85.9948C45.1815 85.9893 45.1603 85.9831 45.139 85.977C45.1212 85.9715 45.1034 85.966 45.0863 85.9605C45.0664 85.9537 45.0472 85.9461 45.028 85.9379C45.0088 85.9304 44.9896 85.9222 44.9704 85.9132C44.954 85.9057 44.9375 85.8968 44.9211 85.8886C44.8998 85.8776 44.8786 85.866 44.858 85.8536C44.8443 85.8454 44.8306 85.8365 44.8169 85.8276C44.795 85.8132 44.773 85.7988 44.7525 85.783C44.747 85.7789 44.7408 85.7755 44.7347 85.7707C44.7271 85.7652 44.7209 85.759 44.7141 85.7529C44.6949 85.7371 44.6764 85.7213 44.6579 85.7049C44.6428 85.6912 44.6284 85.6775 44.6147 85.6638C44.601 85.6494 44.5866 85.6357 44.5736 85.6206C44.5571 85.6021 44.5407 85.5836 44.5256 85.5644V85.5623Z" fill="#86C8F9"/>
</svg>
