<svg width="98" height="73" viewBox="0 0 98 73" fill="none" xmlns="http://www.w3.org/2000/svg">
<path d="M78.1771 43.6106C77.5401 33.4859 69.1292 25.464 58.8411 25.464C56.5862 25.464 54.4214 25.853 52.4089 26.5633C49.2407 19.2235 41.946 14.0879 33.4449 14.0879C22.0406 14.0879 12.801 23.3331 12.801 34.7318C12.801 36.2257 12.9645 37.6801 13.2633 39.0838C5.77125 40.7243 0.162109 47.3932 0.162109 55.3813C0.162109 64.5533 7.56393 71.9946 16.719 72.0622H75.8377C83.7525 72.0622 90.1621 65.6469 90.1621 57.7377C90.1621 50.6234 84.9758 44.7268 78.1828 43.605L78.1771 43.6106Z" fill="#0072C6"/>
<path d="M88.3057 36.4707C93.2762 36.4707 97.3057 32.4413 97.3057 27.4707C97.3057 22.5001 93.2762 18.4707 88.3057 18.4707C83.3351 18.4707 79.3057 22.5001 79.3057 27.4707C79.3057 32.4413 83.3351 36.4707 88.3057 36.4707Z" fill="#86C8F9"/>
<path d="M78.6551 9.91758C81.3215 9.91758 83.483 7.75604 83.483 5.08965C83.483 2.42326 81.3215 0.261719 78.6551 0.261719C75.9887 0.261719 73.8271 2.42326 73.8271 5.08965C73.8271 7.75604 75.9887 9.91758 78.6551 9.91758Z" fill="#86C8F9"/>
<path d="M39.0297 35.4985V48.0876H36.881V41.5176H34.9527V39.7821H36.881V35.4985H39.0297ZM35.7516 36.6693V38.4047H33.3274C33.3458 39.6444 33.5845 40.7554 34.0437 41.738C34.512 42.7113 35.2649 43.4275 36.3025 43.8866L35.0629 45.5808C33.759 44.9748 32.8224 43.8958 32.2531 42.344C31.7021 44.0244 30.7564 45.1859 29.4157 45.8287L28.1623 44.1346C29.1999 43.6571 29.9483 42.9087 30.4074 41.8895C30.8757 40.8702 31.1191 39.7086 31.1374 38.4047H28.6995V36.6693H35.7516ZM46.8259 36.4489V38.143H43.0106V39.0108H46.5504V40.6636H43.0106V41.5727C43.9564 41.5635 44.7598 41.5359 45.421 41.49C46.0913 41.4441 46.757 41.3661 47.4181 41.2559L47.6385 42.8949C46.8764 43.051 46.0913 43.152 45.2832 43.198C44.4752 43.2347 43.3595 43.2531 41.9363 43.2531H40.8481V36.4489H46.8259ZM50.3932 35.5261V39.121H51.9634V40.8702H50.3932V44.8095H48.2446V35.5261H50.3932ZM44.3329 43.9555V46.1593H50.7789V47.8672H42.1704V43.9555H44.3329ZM57.0324 44.9197V42.2614H59.1811V44.9197H63.8366V46.6551H52.5009V44.9197H57.0324ZM59.2638 36.1321V36.9998C59.2638 37.5783 59.4015 38.143 59.677 38.694C59.9616 39.2449 60.4253 39.7316 61.0681 40.154C61.7109 40.5672 62.5373 40.8519 63.5474 41.008L62.6658 42.8123C61.564 42.6103 60.6273 42.2614 59.856 41.7655C59.0939 41.2605 58.5062 40.6407 58.093 39.9061C57.6798 40.6407 57.0875 41.2605 56.3162 41.7655C55.5541 42.2705 54.6266 42.6195 53.5339 42.8123L52.6524 41.008C53.6625 40.8519 54.4889 40.5626 55.1317 40.1402C55.7744 39.7086 56.2382 39.2174 56.5228 38.6664C56.8075 38.1155 56.9498 37.56 56.9498 36.9998V36.1321H59.2638ZM34.0015 61.264H38.4228V63.0546H31.9079V52.6142H34.0015V61.264ZM48.6333 63.0546H46.2643L41.843 56.0989V63.0546H39.7494V52.6142H42.1184L46.5398 59.5836V52.6142H48.6333V63.0546ZM60.3377 58.4955C60.3377 59.4413 60.1402 60.2677 59.7454 60.9748C59.3597 61.6726 58.7996 62.2144 58.065 62.6C57.3304 62.9765 56.4581 63.1648 55.448 63.1648C54.4288 63.1648 53.5151 62.9398 52.7071 62.4898C51.9082 62.0307 51.2838 61.3971 50.8339 60.5891C50.384 59.781 50.159 58.8628 50.159 57.8344C50.159 56.8059 50.384 55.8877 50.8339 55.0797C51.2838 54.2716 51.9082 53.6426 52.7071 53.1927C53.5151 52.7427 54.4288 52.5178 55.448 52.5178C56.4306 52.5178 57.2524 52.706 57.9135 53.0825C58.5838 53.4498 59.0521 53.8125 59.3184 54.1706C59.5939 54.5195 59.8051 54.8042 59.952 55.0246L58.2028 56.0025C58.1109 55.8556 57.9778 55.6673 57.8033 55.4378C57.6289 55.199 57.335 54.9557 56.9218 54.7078C56.5178 54.4598 56.0219 54.3359 55.4343 54.3359C54.4609 54.3359 53.685 54.6527 53.1065 55.2863C52.5372 55.9107 52.2526 56.76 52.2526 57.8344C52.2526 58.9179 52.5372 59.7764 53.1065 60.41C53.6758 61.0344 54.4518 61.3466 55.4343 61.3466C56.224 61.3466 56.8851 61.1722 57.4177 60.8232C57.9502 60.4651 58.2257 59.905 58.2441 59.1429H55.572V57.49H60.3377V58.4955Z" fill="white"/>
</svg>
