<svg width="43" height="42" viewBox="0 0 43 42" fill="none" xmlns="http://www.w3.org/2000/svg">
<path d="M22.2217 0.513232C21.8557 0.218169 21.3337 0.217837 20.9673 0.512432L2.77993 15.1383C2.04429 15.7299 2.4626 16.9176 3.40661 16.9176H39.7339C40.6773 16.9176 41.096 15.7313 40.3616 15.1391L22.2217 0.513232ZM21.5948 13.6784C19.8929 13.6784 18.4654 12.3059 18.4654 10.549C18.4654 8.79213 19.838 7.41958 21.5948 7.41958C23.3517 7.41958 24.7242 8.79213 24.7242 10.549C24.7242 12.3059 23.3517 13.6784 21.5948 13.6784Z" fill="white"/>
<path d="M40.3712 33.6738C40.3712 33.1215 39.9235 32.6738 39.3712 32.6738H3.81827C3.26598 32.6738 2.81827 33.1215 2.81827 33.6738V34.3758C2.81827 34.9216 2.37582 35.364 1.83003 35.364C1.28424 35.364 0.841797 35.8065 0.841797 36.3523V40.6778C0.841797 41.23 1.28951 41.6778 1.8418 41.6778H41.2928C41.8451 41.6778 42.2928 41.23 42.2928 40.6778V36.3248C42.2928 35.7942 41.8626 35.364 41.332 35.364C40.8014 35.364 40.3712 34.9339 40.3712 34.4032V33.6738Z" fill="white"/>
<path d="M9.06456 18.8936H6.28809C5.7358 18.8936 5.28809 19.3413 5.28809 19.8936V29.5328C5.28809 30.0851 5.7358 30.5328 6.28809 30.5328H9.06456C9.61684 30.5328 10.0646 30.0851 10.0646 29.5328V19.8936C10.0646 19.3413 9.61684 18.8936 9.06456 18.8936Z" fill="#CCCCCC"/>
<path d="M16.7511 18.8936H13.9746C13.4223 18.8936 12.9746 19.3413 12.9746 19.8936V29.5328C12.9746 30.0851 13.4223 30.5328 13.9746 30.5328H16.7511C17.3034 30.5328 17.7511 30.0851 17.7511 29.5328V19.8936C17.7511 19.3413 17.3034 18.8936 16.7511 18.8936Z" fill="#CCCCCC"/>
<path d="M29.2149 18.8936H26.4385C25.8862 18.8936 25.4385 19.3413 25.4385 19.8936V29.5328C25.4385 30.0851 25.8862 30.5328 26.4385 30.5328H29.2149C29.7672 30.5328 30.2149 30.0851 30.2149 29.5328V19.8936C30.2149 19.3413 29.7672 18.8936 29.2149 18.8936Z" fill="#CCCCCC"/>
<path d="M36.9015 18.8936H34.125C33.5727 18.8936 33.125 19.3413 33.125 19.8936V29.5328C33.125 30.0851 33.5727 30.5328 34.125 30.5328H36.9015C37.4538 30.5328 37.9015 30.0851 37.9015 29.5328V19.8936C37.9015 19.3413 37.4538 18.8936 36.9015 18.8936Z" fill="#CCCCCC"/>
</svg>
