<svg width="39" height="46" viewBox="0 0 39 46" fill="none" xmlns="http://www.w3.org/2000/svg">
<path d="M27.7537 11.4967C28.4972 6.95621 25.4192 2.67267 20.8787 1.92914C16.3382 1.18561 12.0547 4.26364 11.3111 8.80412C10.5676 13.3446 13.6456 17.6281 18.1861 18.3717C22.7266 19.1152 27.0101 16.0372 27.7537 11.4967Z" fill="white"/>
<path d="M38.4943 33.3269C38.4943 40.2692 30.0174 45.9692 19.4943 45.9692C8.97123 45.9692 0.567383 40.3423 0.567383 33.3269C0.567383 26.3115 6.852 22.2923 15.3289 20.9769C16.7174 20.7576 18.1058 20.6846 19.5674 20.6846C21.0289 20.6846 22.4174 20.8307 23.8058 20.9769C32.2828 22.2923 38.5674 27.2615 38.5674 33.3269H38.4943Z" fill="white"/>
<path d="M24.6097 33.3269L19.4943 41.95L14.3789 33.3269L17.5212 24.9961L15.2558 20.9769C16.6443 20.7576 18.0328 20.6846 19.4943 20.6846C20.9558 20.6846 22.3443 20.8307 23.7328 20.9769L21.4674 24.9961L24.6097 33.3269Z" fill="#CCCCCC"/>
</svg>
