<svg width="51" height="46" viewBox="0 0 51 46" fill="none" xmlns="http://www.w3.org/2000/svg">
<path d="M37.6836 23.3437C37.6836 16.648 32.2251 11.1895 25.5293 11.1895C18.8335 11.1895 13.375 16.648 13.375 23.3437C13.375 30.0395 15.8495 31.7863 19.5613 33.8969C20.3619 35.6436 20.2891 36.9536 20.2891 36.9536H30.7695C30.7695 36.9536 30.6967 35.6436 31.4973 33.8969C35.1363 31.7863 37.6836 27.8561 37.6836 23.3437Z" fill="white"/>
<path d="M30.6961 38.0449H20.5068V42.1934H30.6961V38.0449Z" fill="white"/>
<path d="M25.6017 45.6874C27.1301 45.6874 28.4401 44.6684 28.7312 43.3584H22.5449C22.836 44.6684 24.0733 45.6874 25.6745 45.6874H25.6017Z" fill="white"/>
<path d="M24.5107 7.20524V1.0917C24.5107 0.509461 25.0202 0 25.6024 0C26.1847 0 26.6941 0.509461 26.6941 1.0917V7.20524C26.6941 7.78748 26.1847 8.29694 25.6024 8.29694C25.0202 8.29694 24.5107 7.78748 24.5107 7.20524Z" fill="#CCCCCC"/>
<path d="M15.7764 10.1162L12.7197 4.8032C12.4285 4.29374 12.5741 3.63871 13.0836 3.34759C13.593 3.05647 14.248 3.20203 14.5392 3.71149L17.5959 9.02445C17.8871 9.53391 17.7415 10.1889 17.232 10.4801C17.0865 10.5528 16.8681 10.6256 16.7226 10.6256C16.3587 10.6256 15.9948 10.4073 15.7764 10.1162Z" fill="#CCCCCC"/>
<path d="M9.66322 18.0306L4.35027 14.9738C3.84081 14.6827 3.62247 14.0277 3.98637 13.5182C4.27749 13.0088 4.93251 12.7904 5.44197 13.1543L10.7549 16.2111C11.2644 16.5022 11.4827 17.1572 11.1188 17.6667C10.9005 18.0306 10.5366 18.1762 10.1727 18.1762C9.95435 18.1762 9.80878 18.1762 9.66322 18.0306Z" fill="#CCCCCC"/>
<path d="M1.65713 27.1277C1.07489 27.1277 0.56543 26.6183 0.56543 26.036C0.56543 25.4538 1.07489 24.9443 1.65713 24.9443H7.77067C8.35291 24.9443 8.86237 25.4538 8.86237 26.036C8.86237 26.6183 8.35291 27.1277 7.77067 27.1277H1.65713Z" fill="#CCCCCC"/>
<path d="M43.3603 27.1277C42.778 27.1277 42.2686 26.6183 42.2686 26.036C42.2686 25.4538 42.778 24.9443 43.3603 24.9443H49.4738C50.056 24.9443 50.5655 25.4538 50.5655 26.036C50.5655 26.6183 50.056 27.1277 49.4738 27.1277H43.3603Z" fill="#CCCCCC"/>
<path d="M40.0849 17.6666C39.7938 17.1571 39.9393 16.5021 40.4488 16.211L45.7618 13.1542C46.2712 12.8631 46.9262 13.0087 47.2174 13.5181C47.5085 14.0276 47.3629 14.6826 46.8535 14.9737L41.5405 18.0305C41.3949 18.1033 41.1766 18.1761 41.031 18.1761C40.6671 18.1761 40.3032 17.9577 40.0849 17.6666Z" fill="#CCCCCC"/>
<path d="M33.9714 10.5534C33.4619 10.2623 33.2436 9.60726 33.6075 9.09779L36.6642 3.78484C36.9553 3.27538 37.6104 3.05704 38.1198 3.42094C38.6293 3.71206 38.8476 4.36708 38.4837 4.87654L35.427 10.1895C35.2086 10.5534 34.8447 10.699 34.4808 10.699C34.2625 10.699 34.1169 10.699 33.9714 10.5534Z" fill="#CCCCCC"/>
</svg>
