<svg width="46" height="48" viewBox="0 0 46 48" fill="none" xmlns="http://www.w3.org/2000/svg">
<path d="M36.3426 28.6879C35.0489 28.6879 33.9801 29.7566 33.9801 31.0504C33.9801 29.7566 32.9114 28.6879 31.6176 28.6879C30.3239 28.6879 29.2551 29.7566 29.2551 31.0504C29.2551 29.7566 28.1864 28.6879 26.8926 28.6879C25.5989 28.6879 25.7114 28.9129 25.3176 29.3066V22.3879C25.3176 21.0941 24.2489 20.0254 22.9551 20.0254C21.6614 20.0254 20.5926 21.0941 20.5926 22.3879V37.5191L16.9926 34.7066C16.9926 34.7066 15.4176 33.1316 13.7864 34.7066C12.1551 36.2816 15.0239 39.6004 15.9239 41.0066C16.6551 42.0754 19.3551 45.3941 22.7864 47.7566H37.1301C38.3676 46.4066 38.5926 44.7754 38.5926 43.7629V31.0504C38.5926 29.7566 37.5239 28.6879 36.2301 28.6879H36.3426Z" fill="white"/>
<path d="M40.9551 36.1126L41.0113 36.0563L40.9551 35.9438V36.1126Z" fill="white"/>
<path d="M40.1674 18.6188C39.7174 16.5375 38.8736 14.625 37.8049 12.8812L41.0111 8.71875L36.6799 4.3875L32.5174 7.59375C30.7736 6.46875 28.8611 5.68125 26.7799 5.23125L26.0486 0H19.9174L19.1861 5.23125C17.1049 5.68125 15.1924 6.525 13.4486 7.59375L9.28613 4.3875L4.95488 8.71875L8.16113 12.8812C7.03613 14.625 6.24863 16.5375 5.79863 18.6188L0.567383 19.35V25.4813L5.79863 26.2125C6.24863 28.2938 7.09238 30.2063 8.16113 31.95L4.95488 36.1125L9.28613 40.4438L11.7611 38.5875C10.9736 36.8438 10.6361 34.8187 12.2674 33.1875C14.2361 31.2188 16.8236 31.6125 18.3986 32.9625V27.225C17.1611 25.9875 16.3736 24.3 16.3736 22.3875C16.3736 18.675 19.3549 15.6937 23.0674 15.6937C26.7799 15.6937 29.7611 18.675 29.7611 22.3875C29.7611 26.1 29.1986 25.4813 28.2424 26.6625C28.6361 26.775 29.0299 26.9438 29.3674 27.1688C30.0424 26.775 30.8861 26.4938 31.7299 26.4938C32.5736 26.4938 33.4174 26.7188 34.0924 27.1688C34.7674 26.775 35.6111 26.4938 36.4549 26.4938C37.8049 26.4938 38.9861 27.0562 39.8299 27.9563C39.9986 27.3938 40.2236 26.775 40.3361 26.1562L45.5674 25.425V19.2938L40.3361 18.5625L40.1674 18.6188Z" fill="#CCCCCC"/>
</svg>
