<svg width="41" height="39" viewBox="0 0 41 39" fill="none" xmlns="http://www.w3.org/2000/svg">
<g clip-path="url(#clip0_1931_9364)">
<path d="M36.6449 10.5107H28.1221V15.5303H36.8018V19.0336H28.1221V22.2232H36.8018V25.7264H28.1221V28.916H36.8018V32.4192H28.1221V38.0663H40.5665V14.4323C40.5665 12.2885 38.7887 10.5107 36.6449 10.5107Z" fill="#CCCCCC"/>
<path d="M20.6981 0.157227H4.48895C2.34516 0.157227 0.567383 1.935 0.567383 4.0788V38.0657H24.6197V4.0788C24.6197 1.935 22.8419 0.157227 20.6981 0.157227ZM10.6589 26.4056H6.10987V21.8566H10.6589V26.4056ZM10.6589 18.5102H6.10987V13.9611H10.6589V18.5102ZM10.6589 10.5625H6.10987V6.01344H10.6589V10.5625ZM19.0772 26.4056H14.5282V21.8566H19.0772V26.4056ZM19.0772 18.5102H14.5282V13.9611H19.0772V18.5102ZM19.0772 10.5625H14.5282V6.01344H19.0772V10.5625Z" fill="white"/>
</g>
<defs>
<clipPath id="clip0_1931_9364">
<rect width="40" height="37.9085" fill="white" transform="translate(0.567383 0.157227)"/>
</clipPath>
</defs>
</svg>
