<svg width="46" height="40" viewBox="0 0 46 40" fill="none" xmlns="http://www.w3.org/2000/svg">
<path fill-rule="evenodd" clip-rule="evenodd" d="M17.5967 34.5715C12.9717 34.6563 11.0682 35.8009 9.47852 39.4975H40.226C40.8747 35.538 35.974 33.4608 33.4389 37.8357C32.1332 29.4504 18.5124 29.6242 17.601 34.5757L17.5967 34.5715Z" fill="#CCCCCC"/>
<path fill-rule="evenodd" clip-rule="evenodd" d="M17.7746 16.0927C18.9277 16.5506 21.7892 21.1375 21.9842 30.43C22.6922 30.2901 23.379 30.2392 24.07 30.3706C23.3408 21.8539 21.3738 19.3103 19.7162 15.0583C22.3912 1.60709 11.8354 -1.08062 0.567383 0.33954C5.43408 8.6231 0.529229 15.5882 17.7746 16.0885V16.0927ZM26.5796 30.5402C26.711 26.0338 29.3564 20.1582 31.3022 18.0979C45.4105 22.9561 42.0403 9.47096 45.5674 0.504873C35.9527 4.16761 25.753 0.958477 28.0125 16.5421C32.1882 10.0348 35.2066 7.24533 43.2739 2.86615C34.1383 8.74604 28.5509 15.1855 24.2141 30.3494C25.0662 30.2901 25.8038 30.3198 26.5754 30.5402H26.5796Z" fill="white"/>
</svg>
