<svg width="61" height="35" viewBox="0 0 61 35" fill="none" xmlns="http://www.w3.org/2000/svg">
<path d="M27.7498 17.2128C27.7498 14.1435 25.2616 11.6553 22.1923 11.6553C19.1229 11.6553 16.6348 14.1435 16.6348 17.2128V24.5553C16.6348 27.6246 19.1229 30.1128 22.1923 30.1128C25.2616 30.1128 27.7498 27.6246 27.7498 24.5553V17.2128Z" fill="#CCCCCC"/>
<path d="M39.8025 17.2128C39.8025 14.1435 37.3143 11.6553 34.245 11.6553C31.1757 11.6553 28.6875 14.1435 28.6875 17.2128V24.5553C28.6875 27.6246 31.1757 30.1128 34.245 30.1128C37.3143 30.1128 39.8025 27.6246 39.8025 24.5553V17.2128Z" fill="#CCCCCC"/>
<path d="M57.3899 17.865V11.385H57.7649C58.2599 11.385 58.6649 10.9725 58.6649 10.4625V9.3675C58.6649 8.8575 58.2599 8.445 57.7649 8.445H43.4549C42.9599 8.445 42.5549 8.8575 42.5549 9.3675V10.4625C42.5549 10.9725 42.9599 11.385 43.4549 11.385H43.8299V17.865H41.6624C41.6624 23.25 34.8449 23.055 34.8449 23.055H20.8124C14.0024 23.055 14.0024 20.43 14.0024 20.43H12.1724L9.50988 4.095H10.3499C10.5074 4.095 10.6424 3.9675 10.6424 3.8025V0.2925C10.6424 0.135 10.5074 0 10.3499 0H4.41738C4.25238 0 4.12488 0.135 4.12488 0.2925V3.8025C4.12488 3.9675 4.25238 4.095 4.41738 4.095H5.26488L2.60238 20.43H0.0673828C0.0673828 22.8375 0.442383 24.84 1.07238 26.49C1.29738 27.075 1.55238 27.6225 1.83738 28.1175C6.01488 35.5125 16.1324 34.3425 16.1324 34.3425H48.3674C53.2574 34.3425 56.0924 31.47 57.7574 28.1175C58.0199 27.585 58.2524 27.0375 58.4624 26.49C60.0674 22.245 60.0674 17.865 60.0674 17.865H57.3899ZM10.0874 14.385L7.38738 11.8875L5.67738 10.305H9.45738L10.0874 14.385ZM7.38738 4.095H8.49738L9.19488 8.61L7.38738 5.625L6.45738 4.095H7.38738ZM6.14988 4.53L9.08238 9.36H5.41488L6.15738 4.53H6.14988ZM5.18988 10.7925L9.68238 14.955H4.55238L5.18988 10.7925ZM3.71238 20.43L4.36488 16.1625L7.38738 18.315L10.3574 20.43H3.71238ZM5.31738 15.9H10.3199L10.9349 19.8975L5.31738 15.9ZM49.9349 15.3075C49.9349 15.615 49.6799 15.87 49.3724 15.87H45.8549C45.5474 15.87 45.2924 15.615 45.2924 15.3075V13.4475C45.2924 13.14 45.5474 12.885 45.8549 12.885H49.3724C49.6799 12.885 49.9349 13.14 49.9349 13.4475V15.3075ZM55.9349 15.3075C55.9349 15.615 55.6799 15.87 55.3724 15.87H51.8549C51.5474 15.87 51.2924 15.615 51.2924 15.3075V13.4475C51.2924 13.14 51.5474 12.885 51.8549 12.885H55.3724C55.6799 12.885 55.9349 13.14 55.9349 13.4475V15.3075Z" fill="white"/>
</svg>
