<svg width="56" height="31" viewBox="0 0 56 31" fill="none" xmlns="http://www.w3.org/2000/svg">
<path d="M17.427 8.30315C17.9375 5.15156 15.7964 2.18288 12.6448 1.67243C9.49321 1.16199 6.52454 3.30306 6.01409 6.45466C5.50364 9.60626 7.64472 12.5749 10.7963 13.0854C13.9479 13.5958 16.9166 11.4548 17.427 8.30315Z" fill="#CCCCCC"/>
<path d="M11.6886 30.4468C17.8307 30.4468 22.8098 27.0945 22.8098 22.9592C22.8098 18.824 17.8307 15.4717 11.6886 15.4717C5.54653 15.4717 0.567383 18.824 0.567383 22.9592C0.567383 27.0945 5.54653 30.4468 11.6886 30.4468Z" fill="#CCCCCC"/>
<path d="M45.3792 13.0766C48.5308 12.5661 50.6719 9.59747 50.1614 6.44587C49.651 3.29427 46.6823 1.1532 43.5307 1.66364C40.3791 2.17409 38.238 5.14277 38.7485 8.29436C39.2589 11.446 42.2276 13.587 45.3792 13.0766Z" fill="#CCCCCC"/>
<path d="M44.4454 30.4468C50.5875 30.4468 55.5667 27.0945 55.5667 22.9592C55.5667 18.824 50.5875 15.4717 44.4454 15.4717C38.3034 15.4717 33.3242 18.824 33.3242 22.9592C33.3242 27.0945 38.3034 30.4468 44.4454 30.4468Z" fill="#CCCCCC"/>
<path d="M28.0955 12.2223C31.4707 12.2223 34.2067 9.48628 34.2067 6.11117C34.2067 2.73606 31.4707 0 28.0955 0C24.7204 0 21.9844 2.73606 21.9844 6.11117C21.9844 9.48628 24.7204 12.2223 28.0955 12.2223Z" fill="white"/>
<path d="M28.095 30.4461C34.5716 30.4461 39.8218 26.9213 39.8218 22.5731C39.8218 18.225 34.5716 14.7002 28.095 14.7002C21.6184 14.7002 16.3682 18.225 16.3682 22.5731C16.3682 26.9213 21.6184 30.4461 28.095 30.4461Z" fill="white"/>
</svg>
