<svg width="47" height="49" viewBox="0 0 47 49" fill="none" xmlns="http://www.w3.org/2000/svg">
<path d="M29.6387 27.51C29.7818 27.51 29.925 27.3668 29.925 27.2236C29.925 27.1521 29.925 27.1163 29.8892 27.0805C29.6744 26.7942 28.6723 25.4341 27.3123 23.8594C26.9186 24.2889 26.5607 24.7541 26.2744 25.291C25.9881 25.8278 25.7375 26.3647 25.5586 26.9015C27.4555 27.2952 29.066 27.4742 29.5671 27.51C29.5671 27.51 29.6387 27.51 29.6744 27.51H29.6387Z" fill="#CCCCCC"/>
<path d="M27.3128 23.8592C25.9528 22.3202 24.2706 20.6381 22.5885 19.7076C20.7274 18.6697 18.3653 18.2044 17.2916 20.1013C16.1821 21.9981 17.7569 23.8234 19.6179 24.8971C21.2285 25.8277 23.5548 26.4719 25.5591 26.9014C25.738 26.3645 25.9886 25.7919 26.2749 25.2908C26.5612 24.754 26.9191 24.2887 27.3128 23.8592Z" fill="white"/>
<path d="M0.364892 27.1166C0.293312 27.2598 0.364892 27.4029 0.472262 27.5103C0.508052 27.5103 0.579632 27.5461 0.615422 27.5461C0.973322 27.5461 2.65545 27.3313 4.69548 26.9377C4.51653 26.4008 4.266 25.8282 3.97968 25.3271C3.69336 24.7903 3.33546 24.325 2.94177 23.8955C1.65333 25.3271 0.687002 26.6513 0.400682 27.0808C0.400682 27.0808 0.364892 27.1166 0.329102 27.1524L0.364892 27.1166Z" fill="#CCCCCC"/>
<path d="M4.69512 26.902C6.69936 26.5083 8.98992 25.8641 10.6363 24.8977C12.4615 23.824 14.0363 21.9987 12.9626 20.1019C11.8531 18.205 9.49098 18.6345 7.66569 19.7082C6.05514 20.6387 4.33722 22.3208 2.94141 23.8598C3.3351 24.2893 3.693 24.7546 3.97932 25.2914C4.26564 25.8283 4.51617 26.3651 4.69512 26.902Z" fill="white"/>
<path d="M15.3587 1.06113C15.2872 0.917969 15.1082 0.882179 14.965 0.953759C14.9293 0.953759 14.8935 1.02534 14.8577 1.06113C14.7145 1.38324 14.0345 2.92221 13.3545 4.89066C13.9271 4.99803 14.4998 5.06961 15.1082 5.06961C15.7166 5.06961 16.2893 4.99803 16.8619 4.89066C16.2535 3.06537 15.6093 1.56219 15.3945 1.09692C15.3945 1.09692 15.3945 1.02534 15.3587 0.989549V1.06113Z" fill="#CCCCCC"/>
<path d="M13.3571 4.92676C12.7129 6.85942 12.1045 9.18577 12.1045 11.0826C12.1045 13.1942 12.9277 15.4848 15.1109 15.4848C17.294 15.4848 18.1172 13.1942 18.1172 11.0826C18.1172 9.22156 17.5446 6.89521 16.8646 4.92676C16.2919 5.03413 15.7193 5.10571 15.1109 5.10571C14.5024 5.10571 13.9298 5.03413 13.3571 4.92676Z" fill="white"/>
<path d="M15.3125 13.6396C12.9248 13.6396 11.0146 15.7408 11.0146 18.3673C11.0146 20.9938 12.9248 23.095 15.3125 23.095C17.7002 23.095 19.6104 20.9938 19.6104 18.3673C19.6104 15.7408 17.7002 13.6396 15.3125 13.6396ZM15.3125 20.6936C14.1528 20.6936 13.1977 19.643 13.1977 18.3673C13.1977 17.0916 14.1528 16.041 15.3125 16.041C16.4723 16.041 17.4273 17.0916 17.4273 18.3673C17.4273 19.643 16.4723 20.6936 15.3125 20.6936Z" fill="white"/>
<rect x="13.5928" y="21.376" width="3.00851" height="27.5064" rx="0.859574" fill="white"/>
<path d="M45.6482 30.8311H28.0203C27.6467 30.8311 27.3438 31.134 27.3438 31.5076V43.2387C27.3438 43.6124 27.6467 43.9153 28.0203 43.9153H45.6482C46.0219 43.9153 46.3248 43.6124 46.3248 43.2387V31.5076C46.3248 31.134 46.0219 30.8311 45.6482 30.8311Z" fill="#CCCCCC"/>
<path d="M32.679 32.1943H29.4471C29.0734 32.1943 28.7705 32.4972 28.7705 32.8709V36.1029C28.7705 36.4765 29.0734 36.7794 29.4471 36.7794H32.679C33.0527 36.7794 33.3556 36.4765 33.3556 36.1029V32.8709C33.3556 32.4972 33.0527 32.1943 32.679 32.1943Z" fill="white"/>
<path d="M38.4525 32.1943H35.2205C34.8468 32.1943 34.5439 32.4972 34.5439 32.8709V36.1029C34.5439 36.4765 34.8469 36.7794 35.2205 36.7794H38.4525C38.8261 36.7794 39.129 36.4765 39.129 36.1029V32.8709C39.129 32.4972 38.8261 32.1943 38.4525 32.1943Z" fill="white"/>
<path d="M44.222 32.1943H40.99C40.6164 32.1943 40.3135 32.4972 40.3135 32.8709V36.1029C40.3135 36.4765 40.6164 36.7794 40.99 36.7794H44.222C44.5957 36.7794 44.8986 36.4765 44.8986 36.1029V32.8709C44.8986 32.4972 44.5957 32.1943 44.222 32.1943Z" fill="white"/>
<path d="M32.679 37.9668H29.4471C29.0734 37.9668 28.7705 38.2697 28.7705 38.6434V41.8753C28.7705 42.249 29.0734 42.5519 29.4471 42.5519H32.679C33.0527 42.5519 33.3556 42.249 33.3556 41.8753V38.6434C33.3556 38.2697 33.0527 37.9668 32.679 37.9668Z" fill="white"/>
<path d="M38.4525 37.9668H35.2205C34.8468 37.9668 34.5439 38.2697 34.5439 38.6434V41.8753C34.5439 42.249 34.8469 42.5519 35.2205 42.5519H38.4525C38.8261 42.5519 39.129 42.249 39.129 41.8753V38.6434C39.129 38.2697 38.8261 37.9668 38.4525 37.9668Z" fill="white"/>
<path d="M38.6449 43.915H35.0254V47.3797H38.6449V43.915Z" fill="#CCCCCC"/>
<path d="M32.0506 46.1865H41.6186C42.8189 46.1865 43.8142 47.0773 43.9785 48.2329C44.0047 48.4178 43.8508 48.5702 43.6639 48.5702H30.0053C29.8184 48.5702 29.6645 48.4178 29.6908 48.2329C29.855 47.0773 30.8503 46.1865 32.0506 46.1865Z" fill="#CCCCCC"/>
<path d="M44.222 37.9668H40.99C40.6164 37.9668 40.3135 38.2697 40.3135 38.6434V41.8753C40.3135 42.249 40.6164 42.5519 40.99 42.5519H44.222C44.5957 42.5519 44.8986 42.249 44.8986 41.8753V38.6434C44.8986 38.2697 44.5957 37.9668 44.222 37.9668Z" fill="white"/>
<path d="M34.5846 15.9232C36.8254 15.9232 38.6419 14.1067 38.6419 11.8659C38.6419 9.6251 36.8254 7.80859 34.5846 7.80859C32.3439 7.80859 30.5273 9.6251 30.5273 11.8659C30.5273 14.1067 32.3439 15.9232 34.5846 15.9232Z" fill="white"/>
<path d="M35.5811 6.71541H33.584L34.5846 5L35.5811 6.71541Z" fill="white"/>
<path d="M31.6457 7.5185L30.233 8.92699L29.7285 7.00977L31.6457 7.5185Z" fill="white"/>
<path d="M29.4319 10.8701V12.863L27.7207 11.8666L29.4319 10.8701Z" fill="white"/>
<path d="M30.233 14.8047L31.6457 16.2132L29.7285 16.7219L30.233 14.8047Z" fill="white"/>
<path d="M33.584 17.0166H35.5811L34.5846 18.732L33.584 17.0166Z" fill="white"/>
<path d="M37.5186 16.2132L38.9312 14.8047L39.4358 16.7219L37.5186 16.2132Z" fill="white"/>
<path d="M39.7373 12.863V10.8701L41.4485 11.8666L39.7373 12.863Z" fill="white"/>
<path d="M38.9312 8.92699L37.5186 7.5185L39.4358 7.00977L38.9312 8.92699Z" fill="white"/>
</svg>
