<svg width="46" height="46" viewBox="0 0 46 46" fill="none" xmlns="http://www.w3.org/2000/svg">
<path d="M22.7004 12.6792C26.2184 12.6792 29.0767 9.82085 29.0767 6.30293C29.0767 2.78502 26.2184 0 22.7004 0C19.1825 0 16.3242 2.85831 16.3242 6.37622C16.3242 9.89414 19.1825 12.7524 22.7004 12.7524V12.6792Z" fill="white"/>
<path d="M5.11062 35.9121C2.39889 35.9121 0.200195 38.1108 0.200195 40.8225C0.200195 43.5343 2.39889 45.733 5.11062 45.733C7.82234 45.733 10.021 43.5343 10.021 40.8225C10.021 38.1108 7.82234 35.9121 5.11062 35.9121Z" fill="#CCCCCC"/>
<path d="M22.7005 35.9121C19.9887 35.9121 17.79 38.1108 17.79 40.8225C17.79 43.5343 19.9887 45.733 22.7005 45.733C25.4122 45.733 27.6109 43.5343 27.6109 40.8225C27.6109 38.1108 25.4122 35.9121 22.7005 35.9121Z" fill="#CCCCCC"/>
<path d="M40.2893 35.9121C37.5776 35.9121 35.3789 38.1108 35.3789 40.8225C35.3789 43.5343 37.5776 45.733 40.2893 45.733C43.0011 45.733 45.1998 43.5343 45.1998 40.8225C45.1998 38.1108 43.0011 35.9121 40.2893 35.9121Z" fill="#CCCCCC"/>
<path d="M6.72261 33.5671V29.8294H21.234V33.4939C21.6738 33.4206 22.1868 33.3473 22.6998 33.3473C23.2128 33.3473 23.7259 33.3473 24.1656 33.4939V29.8294H38.677V33.5671C39.19 33.4206 39.7031 33.4206 40.2894 33.4206C40.8757 33.4206 41.1689 33.4206 41.6086 33.5671V28.4368C41.6086 27.6307 40.949 26.9711 40.1428 26.9711H24.1656V23.8929H35.4523V19.4222C35.4523 15.6111 32.8871 12.3864 29.3692 11.4336C27.8301 13.4857 25.4115 14.8049 22.6265 14.8049C19.8415 14.8049 17.4229 13.4857 15.8838 11.4336C12.3659 12.3864 9.80079 15.6111 9.80079 19.4222V23.8929H21.0874V26.9711H5.25681C4.45062 26.9711 3.79102 27.6307 3.79102 28.4368V33.5671C4.23076 33.4939 4.67049 33.4206 5.11023 33.4206C5.54997 33.4206 6.20958 33.4206 6.72261 33.5671Z" fill="white"/>
</svg>
