<svg width="46" height="46" viewBox="0 0 46 46" fill="none" xmlns="http://www.w3.org/2000/svg">
<path d="M10.8837 10.244C13.7374 10.244 16.0057 7.97569 16.0057 5.122C16.0057 2.26831 13.7374 0 10.8837 0C8.03003 0 5.76172 2.26831 5.76172 5.122C5.76172 7.97569 8.03003 10.244 10.8837 10.244Z" fill="white"/>
<path d="M21.2007 15.5857C21.2007 12.6589 19.2983 10.171 16.6641 9.29297C15.347 11.0491 13.2982 12.2198 10.8836 12.2198C8.46892 12.2198 6.42012 11.0491 5.10303 9.29297C2.46886 10.171 0.566406 12.6589 0.566406 15.5857V22.976H21.1276V15.5857H21.2007Z" fill="white"/>
<path d="M35.3232 10.244C38.1769 10.244 40.4452 7.97569 40.4452 5.122C40.4452 2.26831 38.1769 0 35.3232 0C32.4695 0 30.2012 2.26831 30.2012 5.122C30.2012 7.97569 32.4695 10.244 35.3232 10.244Z" fill="white"/>
<path d="M41.1036 9.29297C39.7865 11.0491 37.7377 12.2198 35.323 12.2198C32.9084 12.2198 30.8596 11.0491 29.5425 9.29297C26.9083 10.171 25.0059 12.6589 25.0059 15.5857V22.976H45.567V15.5857C45.567 12.6589 43.6646 10.171 41.0304 9.29297H41.1036Z" fill="white"/>
<path d="M32.9084 25.5367C32.323 24.9513 31.4449 24.9513 30.8596 25.5367C30.2742 26.1221 30.2742 27.0001 30.8596 27.5855L32.4693 29.1953H10.2984C9.4935 29.1953 8.83496 29.8538 8.83496 30.6587C8.83496 31.4636 9.4935 32.1221 10.2984 32.1221H32.4693L30.8596 33.7319C30.2742 34.3173 30.2742 35.1953 30.8596 35.7807C31.1522 36.0734 31.5181 36.2197 31.884 36.2197C32.2498 36.2197 32.6157 36.0734 32.9084 35.7807L37.006 31.6831C37.2986 31.3904 37.445 31.0245 37.445 30.6587C37.445 30.2928 37.2986 29.927 37.006 29.6343L32.9084 25.5367Z" fill="#CCCCCC"/>
<path d="M35.9083 38.6347H13.7374L15.3471 37.0249C15.9325 36.4396 15.9325 35.5615 15.3471 34.9761C14.7618 34.3908 13.8837 34.3908 13.2983 34.9761L9.20075 39.0737C8.90806 39.3664 8.76172 39.7323 8.76172 40.0981C8.76172 40.464 8.90806 40.8299 9.20075 41.1225L13.2983 45.2201C13.591 45.5128 13.9569 45.6592 14.3227 45.6592C14.6886 45.6592 15.0545 45.5128 15.3471 45.2201C15.9325 44.6348 15.9325 43.7567 15.3471 43.1713L13.7374 41.5616H35.9083C36.7132 41.5616 37.3717 40.903 37.3717 40.0981C37.3717 39.2933 36.7132 38.6347 35.9083 38.6347Z" fill="#CCCCCC"/>
</svg>
