<svg width="73" height="66" viewBox="0 0 73 66" fill="none" xmlns="http://www.w3.org/2000/svg">
<path d="M47.0617 4.67383H7.65403C3.92302 4.67383 0.898438 7.69841 0.898438 11.4294V58.5408C0.898438 62.2718 3.92302 65.2964 7.65403 65.2964H47.0617C50.7927 65.2964 53.8173 62.2718 53.8173 58.5408V11.4294C53.8173 7.69841 50.7927 4.67383 47.0617 4.67383Z" fill="#86C8F9"/>
<path d="M39.2987 0.703125H15.417C13.1588 0.703125 11.3281 2.53379 11.3281 4.79204V8.52539C11.3281 10.7836 13.1588 12.6143 15.417 12.6143H39.2987C41.5569 12.6143 43.3876 10.7836 43.3876 8.52539V4.79204C43.3876 2.53379 41.5569 0.703125 39.2987 0.703125Z" fill="#0072C6"/>
<path d="M52.8117 57.8294C44.6338 57.8294 37.9375 51.1923 37.9375 42.9552C37.9375 34.7181 44.5746 28.0811 52.8117 28.0811C61.0487 28.0811 67.6858 34.7181 67.6858 42.9552C67.6858 51.1923 61.0487 57.8294 52.8117 57.8294ZM52.8117 34.0663C47.8931 34.0663 43.8635 38.0959 43.8635 43.0145C43.8635 47.933 47.8931 51.9627 52.8117 51.9627C57.7302 51.9627 61.7599 47.933 61.7599 43.0145C61.7599 38.0959 57.7302 34.0663 52.8117 34.0663Z" fill="#0072C6"/>
<path d="M69.8773 63.044C69.1069 63.044 68.3365 62.7477 67.8032 62.1551L59.092 53.444C57.9068 52.2588 57.9068 50.4217 59.092 49.2366C60.2772 48.0514 62.1143 48.0514 63.2995 49.2366L72.0106 57.9477C73.1958 59.1329 73.1958 60.9699 72.0106 62.1551C71.418 62.7477 70.6476 63.044 69.9365 63.044H69.8773Z" fill="#0072C6"/>
</svg>
