<svg width="72" height="72" viewBox="0 0 72 72" fill="none" xmlns="http://www.w3.org/2000/svg">
<path d="M45.2546 41.279H33.9198V46.5235C33.9198 48.3844 32.3973 49.907 30.5363 49.907C28.6754 49.907 27.1528 48.3844 27.1528 46.5235V40.3485C27.1528 40.3485 27.0682 40.2639 26.9836 40.2639C26.9836 40.2639 26.899 40.2639 26.8144 40.1794C24.9535 38.9951 23.7693 36.8804 23.7693 34.512C23.7693 32.1435 25.2918 29.6058 27.4066 28.5062C28.4216 27.9987 29.5213 27.6603 30.7055 27.6603H45.2546C47.7923 22.6696 53.0368 19.3707 58.7887 19.3707C64.5407 19.3707 60.3959 19.3707 61.1572 19.5399V13.5341C48.7228 11.504 37.9801 6.59787 30.6209 0C23.1771 6.51329 12.4345 11.3348 0 13.4495V37.4725C0 54.8131 13.2803 69.2777 30.5363 71.8999C43.5629 69.9544 54.3056 61.2418 58.8733 49.6532C53.1213 49.6532 47.8769 46.3543 45.3392 41.3636L45.2546 41.279Z" fill="#86C8F9"/>
<path d="M58.7879 21.8237C53.3742 21.8237 48.7219 25.2918 46.9455 30.1134H30.7046C28.3362 30.1134 26.3906 32.0589 26.3906 34.4274C26.3906 36.7958 28.3362 38.7414 30.7046 38.7414H46.9455C48.7219 43.5629 53.3742 47.031 58.7879 47.031C64.2015 47.031 71.3915 41.3636 71.3915 34.4274C71.3915 27.4911 65.7241 21.8237 58.7879 21.8237ZM64.2861 36.4575C63.1865 36.4575 62.256 35.527 62.256 34.4274C62.256 33.3277 63.1865 32.3972 64.2861 32.3972C65.3857 32.3972 66.3162 33.3277 66.3162 34.4274C66.3162 35.527 65.3857 36.4575 64.2861 36.4575Z" fill="#0072C6"/>
</svg>
