<svg width="70" height="68" viewBox="0 0 70 68" fill="none" xmlns="http://www.w3.org/2000/svg">
<g clip-path="url(#clip0_1879_7777)">
<path d="M8.29323 14.2349C12.1993 13.6023 14.8529 9.92295 14.2203 6.01689C13.5876 2.11083 9.90829 -0.542793 6.00223 0.0898499C2.09617 0.722493 -0.557454 4.40184 0.0751892 8.30789C0.707832 12.2139 4.38718 14.8676 8.29323 14.2349Z" fill="#0072C6"/>
<path d="M20.0118 36.2349H10.8706V28.9879L14.9059 31.0467C15.4824 31.4585 16.2235 31.7055 16.8824 31.7055H26.4353C28.3294 31.7055 29.8941 30.1408 29.8941 28.2467C29.8941 26.3526 28.3294 24.7879 26.4353 24.7879H17.9529L8.23529 18.0349C7.32941 17.2114 6.17647 16.7173 4.85882 16.7173C2.14118 16.7173 0 18.9408 0 21.5761V41.2585C0 43.9761 2.22353 46.1173 4.85882 46.1173H15.0706V62.9173C15.0706 65.6349 17.2941 67.7761 19.9294 67.7761C22.5647 67.7761 24.7882 65.5526 24.7882 62.9173V41.2585C24.7882 38.5408 22.5647 36.3996 19.9294 36.3996L20.0118 36.2349Z" fill="#0072C6"/>
<path d="M62.8346 14.3294C66.7876 14.3294 69.9993 11.1176 69.9993 7.16471C69.9993 3.21176 66.7876 0 62.8346 0C58.8817 0 55.6699 3.21176 55.6699 7.16471C55.6699 11.1176 58.8817 14.3294 62.8346 14.3294Z" fill="#0072C6"/>
<path d="M65.1388 16.5529C63.8212 16.5529 62.6682 17.047 61.7623 17.8705L52.0447 24.6235H43.5623C41.6682 24.6235 40.1035 26.1882 40.1035 28.0823C40.1035 29.9764 41.6682 31.5411 43.5623 31.5411H53.1153C53.8565 31.5411 54.5153 31.2941 55.0918 30.8823L59.127 28.8235V36.0705H49.9859C47.2682 36.0705 45.127 38.2941 45.127 40.9294V62.5882C45.127 65.3058 47.3506 67.447 49.9859 67.447C52.6212 67.447 54.8447 65.2235 54.8447 62.5882V45.7882H65.0565C67.7741 45.7882 69.9153 43.5647 69.9153 40.9294V21.247C69.9153 18.5294 67.6918 16.3882 65.0565 16.3882L65.1388 16.5529Z" fill="#0072C6"/>
<path d="M56.3284 35.1646V33.0234H13.752V35.1646H32.1167V67.694H37.9637V35.1646H56.3284Z" fill="#86C8F9"/>
</g>
<defs>
<clipPath id="clip0_1879_7777">
<rect width="70" height="67.6941" fill="white"/>
</clipPath>
</defs>
</svg>
