<svg width="81" height="81" viewBox="0 0 81 81" fill="none" xmlns="http://www.w3.org/2000/svg">
<path d="M80.1992 46.1707V34.2336L72.4505 33.0817C71.6128 29.2074 70.0422 25.6472 68.0526 22.4011L72.7647 16.1184L64.283 7.6367L58.0003 12.3487C54.7542 10.2545 51.194 8.78854 47.3196 7.95084L46.1678 0.202148H34.2306L33.0788 7.95084C29.2045 8.78854 25.6442 10.3592 22.3982 12.3487L16.1154 7.6367L7.63377 16.0137L12.3458 22.2964C10.2516 25.5425 8.78561 29.1027 7.94791 32.977L0.199219 34.1288V46.066L7.94791 47.2179C8.78561 51.0922 10.3563 54.6524 12.3458 57.8985L7.63377 64.1812L16.1154 72.6629L22.3982 67.9508C25.6442 70.0451 29.2045 71.511 33.0788 72.3487L34.2306 80.0974H46.1678L47.3196 72.3487C51.194 71.511 54.7542 69.9404 58.0003 67.9508L64.283 72.6629L72.7647 64.1812L68.0526 57.8985C70.1469 54.6524 71.6128 51.0922 72.4505 47.2179L80.1992 46.066V46.1707ZM40.1992 61.7728C28.262 61.7728 18.6285 52.1393 18.6285 40.2021C18.6285 28.265 28.262 18.6315 40.1992 18.6315C52.1364 18.6315 61.7699 28.265 61.7699 40.2021C61.7699 52.1393 52.1364 61.7728 40.1992 61.7728Z" fill="#86C8F9"/>
<path d="M40.1998 57.0604C45.0165 57.0604 49.4144 54.9662 52.4511 51.7201V45.228C52.4511 42.8196 50.4615 40.8301 48.0532 40.8301H32.2417C29.8333 40.8301 27.8438 42.8196 27.8438 45.228V51.7201C30.8804 54.9662 35.2783 57.0604 40.0951 57.0604H40.1998Z" fill="#0072C6"/>
<path d="M40.2004 39.364C43.1324 39.364 45.436 36.7462 45.436 33.6049C45.436 30.4635 43.1324 27.8457 40.2004 27.8457C37.2685 27.8457 34.9648 30.4635 34.9648 33.6049C34.9648 36.7462 37.2685 39.364 40.2004 39.364Z" fill="#0072C6"/>
</svg>
