<svg width="72" height="66" viewBox="0 0 72 66" fill="none" xmlns="http://www.w3.org/2000/svg">
<path d="M44.914 0.348145H6.17139C2.76303 0.348145 0 3.11117 0 6.51954V58.8907C0 62.299 2.76303 65.062 6.17139 65.062H44.914C48.3224 65.062 51.0854 62.299 51.0854 58.8907V6.51954C51.0854 3.11117 48.3224 0.348145 44.914 0.348145Z" fill="#86C8F9"/>
<path opacity="0.5" d="M41.2284 12.1768H9.85714C9.38375 12.1768 9 12.5605 9 13.0339C9 13.5073 9.38375 13.891 9.85714 13.891H41.2284C41.7018 13.891 42.0855 13.5073 42.0855 13.0339C42.0855 12.5605 41.7018 12.1768 41.2284 12.1768Z" fill="white"/>
<path opacity="0.5" d="M41.2284 22.2051H9.85714C9.38375 22.2051 9 22.5888 9 23.0622C9 23.5356 9.38375 23.9194 9.85714 23.9194H41.2284C41.7018 23.9194 42.0855 23.5356 42.0855 23.0622C42.0855 22.5888 41.7018 22.2051 41.2284 22.2051Z" fill="white"/>
<path opacity="0.5" d="M41.2284 32.2334H9.85714C9.38375 32.2334 9 32.6172 9 33.0905C9 33.5639 9.38375 33.9477 9.85714 33.9477H41.2284C41.7018 33.9477 42.0855 33.5639 42.0855 33.0905C42.0855 32.6172 41.7018 32.2334 41.2284 32.2334Z" fill="white"/>
<path opacity="0.5" d="M41.2284 42.2622H9.85714C9.38375 42.2622 9 42.646 9 43.1193C9 43.5927 9.38375 43.9765 9.85714 43.9765H41.2284C41.7018 43.9765 42.0855 43.5927 42.0855 43.1193C42.0855 42.646 41.7018 42.2622 41.2284 42.2622Z" fill="white"/>
<path opacity="0.5" d="M41.2284 52.2905H9.85714C9.38375 52.2905 9 52.6743 9 53.1477C9 53.621 9.38375 54.0048 9.85714 54.0048H41.2284C41.7018 54.0048 42.0855 53.621 42.0855 53.1477C42.0855 52.6743 41.7018 52.2905 41.2284 52.2905Z" fill="white"/>
<path d="M66.045 25.5811L57.6621 17.1982L38.0119 36.8485L46.3948 45.2314L66.045 25.5811Z" fill="#0072C6"/>
<path d="M65.8256 13.4174L69.8368 17.4285C71.0536 18.6454 71.0086 20.5834 69.8368 21.7552L68.079 23.5129L59.6962 15.13L61.4539 13.3723C62.6707 12.1554 64.6087 12.2005 65.7805 13.3723L65.8256 13.4174Z" fill="#0072C6"/>
<path d="M68.0723 23.5797L59.6895 15.1968L57.6613 17.2249L66.0442 25.6078L68.0723 23.5797Z" fill="white"/>
<path d="M46.3616 45.2207L40.3065 48.5351L36.801 50.4472C35.6537 51.0846 34.2515 50.8934 33.2954 49.9373C32.3393 48.9812 32.1481 47.579 32.7855 46.4317L34.6976 42.9262L38.012 36.8711L46.3616 45.2207Z" fill="white"/>
<path d="M40.3065 48.5352L36.801 50.4473C35.6537 51.0847 34.2515 50.8935 33.2954 49.9374C32.3393 48.9813 32.1481 47.5791 32.7855 46.4318L34.6976 42.9263L40.3065 48.5352Z" fill="#0072C6"/>
</svg>
