<svg width="75" height="71" viewBox="0 0 75 71" fill="none" xmlns="http://www.w3.org/2000/svg">
<path d="M37.4563 20.7989C42.8323 20.7989 47.2389 16.1279 47.2389 10.3994C47.2389 4.67093 42.8323 0 37.4563 0C32.0804 0 27.6738 4.67093 27.6738 10.3994C27.6738 16.1279 32.0804 20.7989 37.4563 20.7989Z" fill="#0072C6"/>
<path d="M45.8523 20.6643C45.1616 20.2366 44.2888 20.3667 43.616 20.8219C41.8505 22.0165 39.7269 22.7379 37.5432 22.7379C35.3691 22.7379 33.2545 22.0824 31.4935 20.8692C30.8051 20.395 29.9052 20.2508 29.1979 20.6965C25.2591 23.1781 22.4183 27.3103 21.804 32.1995C21.6663 33.2954 22.5751 34.1949 23.6797 34.1949H51.4068C52.5113 34.1949 53.42 33.2955 53.2824 32.1996C52.6725 27.3411 49.8636 23.148 45.8523 20.6643Z" fill="#0072C6"/>
<path d="M11.1025 60.1938C14.461 60.1938 17.1835 57.2739 17.1835 53.6721C17.1835 50.0702 14.461 47.1504 11.1025 47.1504C7.74405 47.1504 5.02148 50.0702 5.02148 53.6721C5.02148 57.2739 7.74405 60.1938 11.1025 60.1938Z" fill="#86C8F9"/>
<path d="M16.1804 60.458C16.1465 60.458 16.1135 60.4698 16.0871 60.491C14.6855 61.6172 13.0247 62.3088 11.1045 62.3088C9.63333 62.3088 8.31439 61.9028 7.14767 61.2065C6.46705 60.8003 5.61617 60.678 4.95676 61.1178C2.48399 62.7671 0.712211 65.3567 0.172272 68.4266C-0.0190673 69.5145 0.895431 70.4168 2 70.4168H20.2971C21.4017 70.4168 22.3157 69.5143 22.1197 68.4272C21.4961 64.9682 19.2776 62.0386 16.2478 60.4743C16.227 60.4636 16.2038 60.458 16.1804 60.458Z" fill="#86C8F9"/>
<path d="M37.4541 60.1938C40.8125 60.1938 43.5351 57.2739 43.5351 53.6721C43.5351 50.0702 40.8125 47.1504 37.4541 47.1504C34.0956 47.1504 31.373 50.0702 31.373 53.6721C31.373 57.2739 34.0956 60.1938 37.4541 60.1938Z" fill="#86C8F9"/>
<path d="M42.532 60.458C42.498 60.458 42.4651 60.4698 42.4386 60.491C41.0371 61.6172 39.3762 62.3088 37.456 62.3088C35.9849 62.3088 34.666 61.9028 33.4992 61.2065C32.8186 60.8003 31.9677 60.678 31.3083 61.1178C28.8356 62.7671 27.0638 65.3567 26.5238 68.4266C26.3325 69.5145 27.247 70.4168 28.3516 70.4168H46.6487C47.7532 70.4168 48.6672 69.5143 48.4713 68.4272C47.8477 64.9682 45.6291 62.0386 42.5994 60.4743C42.5785 60.4636 42.5554 60.458 42.532 60.458Z" fill="#86C8F9"/>
<path d="M57.7246 53.6721C57.7246 57.2854 60.4567 60.1938 63.8056 60.1938C67.1546 60.1938 69.8867 57.2854 69.8867 53.6721C69.8867 50.0587 67.1546 47.1504 63.8056 47.1504C60.4567 47.1504 57.7246 50.0587 57.7246 53.6721Z" fill="#86C8F9"/>
<path d="M68.8835 60.458C68.8496 60.458 68.8167 60.4698 68.7902 60.491C67.3887 61.6172 65.7278 62.3088 63.8076 62.3088C62.3365 62.3088 61.0175 61.9028 59.8508 61.2065C59.1702 60.8003 58.3193 60.678 57.6599 61.1178C55.1871 62.7671 53.4153 65.3567 52.8754 68.4266C52.6841 69.5145 53.5986 70.4168 54.7031 70.4168H73.0002C74.1048 70.4168 75.0188 69.5143 74.8228 68.4272C74.1992 64.9682 71.9807 62.0386 68.9509 60.4743C68.9301 60.4636 68.907 60.458 68.8835 60.458Z" fill="#86C8F9"/>
<path d="M58.1042 36.6621H16.7168C15.6122 36.6621 14.7168 37.5575 14.7168 38.6621V39.2449C14.7168 40.3495 15.6122 41.2449 16.7168 41.2449H58.1042C59.2087 41.2449 60.1042 40.3495 60.1042 39.2449V38.6621C60.1042 37.5575 59.2087 36.6621 58.1042 36.6621Z" fill="#0072C6"/>
</svg>
