<svg width="66" height="77" viewBox="0 0 66 77" fill="none" xmlns="http://www.w3.org/2000/svg">
<path d="M41.8417 17.2676H24.3049C20.5211 17.2676 17.4648 20.3238 17.4648 24.1077V48.4118C17.4648 51.9774 20.1572 54.888 23.65 55.2519V69.8053C23.65 73.5891 26.7062 76.6453 30.4901 76.6453H35.7293C39.5132 76.6453 42.5694 73.5891 42.5694 69.8053V55.2519C46.0622 54.888 48.7546 51.9774 48.7546 48.4118V24.1077C48.7546 20.3238 45.6984 17.2676 41.9145 17.2676H41.8417Z" fill="#0072C6"/>
<path d="M33.037 15.5945C37.2575 15.5945 40.6775 12.1745 40.6775 7.954C40.6775 3.73352 37.2575 0.313477 33.037 0.313477C28.8165 0.313477 25.3965 3.73352 25.3965 7.954C25.3965 12.1745 28.8165 15.5945 33.037 15.5945Z" fill="#0072C6"/>
<path d="M60.1066 20.252H51.229C51.7384 21.4162 51.9567 22.726 51.9567 24.1086V48.4127C51.9567 52.6332 49.4826 56.1988 45.7715 57.7997V69.1513C46.863 70.4611 48.4639 71.2615 50.283 71.2615H54.7946C58.0691 71.2615 60.6887 68.6419 60.6887 65.3674V52.8515C63.6721 52.5604 66.0007 50.0136 66.0007 47.0302V26.2188C66.0007 22.9443 63.3811 20.3247 60.1066 20.3247V20.252Z" fill="#86C8F9"/>
<path d="M52.6115 5.69824C48.9732 5.69824 46.0625 8.60892 46.0625 12.2473C46.0625 15.8856 46.3536 14.2847 46.7902 15.2307C48.1727 16.0311 49.337 17.0499 50.2102 18.3597C50.9379 18.6507 51.7383 18.7963 52.6115 18.7963C56.2499 18.7963 59.1605 15.8856 59.1605 12.2473C59.1605 8.60892 56.2499 5.69824 52.6115 5.69824Z" fill="#86C8F9"/>
<path d="M20.2292 57.7264C16.5908 56.1983 14.044 52.56 14.044 48.3395V24.0354C14.044 22.6528 14.3351 21.343 14.7717 20.1787H5.89412C2.61961 20.1787 0 22.7983 0 26.0728V46.8842C0 49.9404 2.32854 52.4144 5.31198 52.7055V65.2214C5.31198 68.4959 7.93159 71.1155 11.2061 71.1155H15.7176C17.5368 71.1155 19.1377 70.3151 20.2292 69.0053V57.6536V57.7264Z" fill="#86C8F9"/>
<path d="M19.3567 15.2307C19.7933 14.3575 20.0844 13.3388 20.0844 12.2473C20.0844 8.60892 17.1737 5.69824 13.5353 5.69824C9.897 5.69824 6.98633 8.60892 6.98633 12.2473C6.98633 15.8856 9.897 18.7963 13.5353 18.7963C17.1737 18.7963 15.209 18.6507 15.9367 18.3597C16.8099 17.0499 17.9741 15.9584 19.3567 15.2307Z" fill="#86C8F9"/>
</svg>
