<svg width="75" height="80" viewBox="0 0 75 80" fill="none" xmlns="http://www.w3.org/2000/svg">
<path d="M33.1822 63.6977L48.7214 63.4757C48.7214 63.4757 48.8694 63.4757 48.9434 63.4757C49.2394 63.4757 55.529 63.9197 62.4846 57.334L73.2141 46.9746C73.2141 46.9746 73.3621 46.8266 73.4361 46.8266C73.954 46.4566 75.434 45.0507 73.806 42.5348C73.3621 41.8689 72.9921 41.7209 72.6961 41.7209C71.2902 41.5729 69.0703 43.2008 68.2563 44.0147C68.2563 44.0147 68.1823 44.0887 68.1083 44.1627L60.7087 50.1564C60.6348 50.2304 57.3049 52.9683 52.8652 53.1903C51.6072 53.6342 50.4973 53.6342 50.2753 53.6342L36.0681 53.8562C35.1061 53.8562 34.3662 53.1163 34.2922 52.1543C34.2922 51.1924 35.0321 50.3784 35.9941 50.3784L50.2013 50.1564C50.7193 50.1564 52.3472 49.9344 53.0872 49.0465C53.2351 48.8985 53.6051 48.3805 53.4571 47.1966C53.3091 46.2346 53.0132 45.5687 52.4952 45.1987C51.7552 44.6807 50.7193 44.6807 50.3493 44.7547C50.2753 44.7547 50.1273 44.7547 50.0533 44.7547L30.2224 45.0507C17.865 45.1987 13.0553 57.186 12.9813 57.334C12.9073 57.556 12.7593 57.778 12.6113 57.926L22.6748 67.9155C23.2668 67.2495 26.6706 63.8457 33.2562 63.7717L33.1822 63.6977Z" fill="#86C8F9"/>
<path d="M7.43046 58.8882L0.548828 65.6958L14.5341 79.2371L21.4157 72.4295L7.43046 58.8882Z" fill="#86C8F9"/>
<path d="M63.565 0.515519C58.3043 -0.760044 52.4591 0.631479 48.309 4.69009C46.0878 6.89334 44.685 9.56042 44.042 12.3435C43.399 9.50244 41.9377 6.83536 39.775 4.63211C35.5664 0.573499 29.7796 -0.818024 24.4605 0.457539C23.1745 5.67575 24.5774 11.4738 28.7275 15.5904C32.3515 19.1851 37.32 20.7506 42.0546 20.1708V38.0867C42.0546 39.1303 42.9314 40 43.9835 40C45.0357 40 45.9124 39.1303 45.9124 38.0867V20.1708C50.6471 20.7506 55.6155 19.2431 59.298 15.6483C63.4481 11.5317 64.851 5.79171 63.5066 0.515519H63.565Z" fill="#0072C6"/>
</svg>
