<svg width="74" height="79" viewBox="0 0 74 79" fill="none" xmlns="http://www.w3.org/2000/svg">
<path d="M43.8379 21.3639C43.8379 25.952 47.3588 29.6799 51.6997 29.6799C56.0406 29.6799 59.5615 25.952 59.5615 21.3639C59.5615 16.7757 56.0406 13.0479 51.6997 13.0479C47.3588 13.0479 43.8379 16.7757 43.8379 21.3639Z" fill="#0072C6"/>
<path d="M57.4873 29.0581C55.8956 30.3963 53.8699 31.2088 51.6994 31.2088C49.529 31.2088 47.5033 30.3963 45.9116 29.0581C41.7637 31.161 38.918 35.4146 38.918 40.3851H64.5291C64.5291 35.4624 61.6835 31.161 57.5355 29.0581H57.4873Z" fill="#0072C6"/>
<path d="M42.2948 21.3636C42.2948 15.9151 46.5393 11.4704 51.7001 11.4704C56.8609 11.4704 53.147 11.566 53.8223 11.7093V4.9227H38.3398L33.3719 0H23.4844V22.7018C23.4844 24.9481 25.3172 26.812 27.6323 26.812H43.8383C42.8736 25.2348 42.2948 23.3709 42.2948 21.3636Z" fill="#86C8F9"/>
<path d="M32.6334 63.372L48.1726 63.15C48.1726 63.15 48.3206 63.15 48.3946 63.15C48.6905 63.15 54.9802 63.594 61.9358 57.0083L72.6652 46.6489C72.6652 46.6489 72.8132 46.5009 72.8872 46.5009C73.4052 46.1309 74.8851 44.725 73.2572 42.2091C72.8132 41.5432 72.4433 41.3952 72.1473 41.3952C70.7413 41.2472 68.5215 42.8751 67.7075 43.6891C67.7075 43.6891 67.6335 43.7631 67.5595 43.8371L60.1599 49.8307C60.0859 49.9047 56.7561 52.6426 52.3163 52.8646C51.0584 53.3085 49.9485 53.3085 49.7265 53.3085L35.5192 53.5305C34.5573 53.5305 33.8173 52.7906 33.7433 51.8286C33.7433 50.8667 34.4833 50.0527 35.4452 50.0527L49.6525 49.8307C50.1705 49.8307 51.7984 49.6087 52.5383 48.7208C52.6863 48.5728 53.0563 48.0548 52.9083 46.8709C52.7603 45.9089 52.4643 45.243 51.9464 44.873C51.2064 44.355 50.1705 44.355 49.8005 44.429C49.7265 44.429 49.5785 44.429 49.5045 44.429L29.6736 44.725C17.3162 44.873 12.5065 56.8604 12.4325 57.0083C12.3585 57.2303 12.2105 57.4523 12.0625 57.6003L22.126 67.5898C22.7179 66.9238 26.1217 63.52 32.7074 63.446L32.6334 63.372Z" fill="#86C8F9"/>
<path d="M6.88163 58.5625L0 65.3701L13.9852 78.9114L20.8669 72.1038L6.88163 58.5625Z" fill="#86C8F9"/>
</svg>
