<svg width="75" height="79" viewBox="0 0 75 79" fill="none" xmlns="http://www.w3.org/2000/svg">
<path d="M33.1822 62.6982L48.7214 62.4762C48.7214 62.4762 48.8694 62.4762 48.9434 62.4762C49.2394 62.4762 55.529 62.9202 62.4846 56.3345L73.2141 45.9751C73.2141 45.9751 73.3621 45.8271 73.4361 45.8271C73.954 45.4571 75.434 44.0512 73.806 41.5353C73.3621 40.8694 72.9921 40.7214 72.6961 40.7214C71.2902 40.5734 69.0703 42.2013 68.2563 43.0152C68.2563 43.0152 68.1823 43.0892 68.1083 43.1632L60.7087 49.1569C60.6348 49.2309 57.3049 51.9688 52.8652 52.1907C51.6072 52.6347 50.4973 52.6347 50.2753 52.6347L36.0681 52.8567C35.1061 52.8567 34.3662 52.1167 34.2922 51.1548C34.2922 50.1929 35.0321 49.3789 35.9941 49.3789L50.2013 49.1569C50.7193 49.1569 52.3472 48.9349 53.0872 48.047C53.2351 47.899 53.6051 47.381 53.4571 46.1971C53.3091 45.2351 53.0132 44.5692 52.4952 44.1992C51.7552 43.6812 50.7193 43.6812 50.3493 43.7552C50.2753 43.7552 50.1273 43.7552 50.0533 43.7552L30.2224 44.0512C17.865 44.1992 13.0553 56.1865 12.9813 56.3345C12.9073 56.5565 12.7593 56.7785 12.6113 56.9265L22.6748 66.916C23.2668 66.25 26.6706 62.8462 33.2562 62.7722L33.1822 62.6982Z" fill="#86C8F9"/>
<path d="M7.43046 57.8887L0.548828 64.6963L14.5341 78.2376L21.4157 71.4299L7.43046 57.8887Z" fill="#86C8F9"/>
<path d="M42.4319 37.4657C42.9499 37.9837 43.6898 38.2797 44.3558 38.2797C45.0217 38.2797 45.7617 37.9837 46.2797 37.4657L62.1148 21.6306C64.4087 19.3367 65.6666 16.2288 65.6666 12.973C65.6666 9.71719 64.4087 6.60936 62.1148 4.31548C59.8209 2.0216 56.7131 0.763672 53.4573 0.763672C50.2015 0.763672 47.0936 2.0216 44.7998 4.31548L44.3558 4.75946L43.9118 4.31548C41.6179 2.0216 38.5101 0.763672 35.2543 0.763672C31.9984 0.763672 28.8906 2.0216 26.5967 4.31548C24.3029 6.60936 23.0449 9.71719 23.0449 12.973C23.0449 16.2288 24.3029 19.3367 26.5967 21.6306L42.4319 37.4657Z" fill="#0072C6"/>
</svg>
