<svg width="80" height="80" viewBox="0 0 80 80" fill="none" xmlns="http://www.w3.org/2000/svg">
<path d="M38.4455 48.3395C38.5765 48.7979 38.9954 49.1139 39.4721 49.1139H40.5306C41.0073 49.1139 41.4262 48.7979 41.5572 48.3395C41.7521 47.6575 41.2399 46.9785 40.5306 46.9785H39.4721C38.7628 46.9785 38.2506 47.6575 38.4455 48.3395Z" fill="#0072C6"/>
<path d="M55.024 48.4279C54.9989 48.4279 54.9739 48.4234 54.9504 48.4147L47.5655 45.6682C46.5568 45.2931 45.4322 45.7834 45.0205 46.7777L43.2044 51.1637C42.8379 52.0487 41.5274 51.8318 41.4658 50.8759C41.4351 50.3998 41.04 50.0295 40.563 50.0295H39.5901C39.1131 50.0295 38.7181 50.3998 38.6874 50.8759C38.6257 51.8318 37.3152 52.0487 36.9487 51.1637L35.1326 46.7777C34.7209 45.7834 33.5963 45.2931 32.5876 45.6682L25.1671 48.4279C22.9579 49.2564 21.4361 51.2099 21.0545 53.4962C20.9766 53.9628 21.1259 54.4336 21.4211 54.8033C25.7886 60.2727 32.5244 63.8331 40.1147 63.8331C47.7214 63.8331 54.47 60.3288 58.8367 54.7745C59.1139 54.4218 59.2608 53.9784 59.1981 53.5342C58.875 51.2439 57.3008 49.2823 55.0981 48.4415C55.0745 48.4325 55.0493 48.4279 55.024 48.4279Z" fill="#0072C6"/>
<path d="M80 11.1344V2C80 0.895433 79.1046 0 78 0H68.8132C67.0314 0 66.139 2.15428 67.399 3.41421L67.4514 3.46662C68.2324 4.24767 68.2324 5.514 67.4514 6.29505L61.6429 12.1035C60.9322 12.8142 59.8081 12.8815 58.9808 12.3108C53.5881 8.59055 47.038 6.4061 40.0381 6.4061C33.0355 6.4061 26.4829 8.59231 21.0889 12.3153C20.2646 12.8842 19.1449 12.8198 18.4334 12.1147L12.5613 6.29502C11.7743 5.51502 11.785 4.23026 12.5685 3.44674C13.8284 2.18681 12.9686 0 11.1868 0H2C0.89543 0 0 0.895431 0 2V11.1868C0 12.9686 2.15428 13.861 3.41421 12.601L3.46662 12.5486C4.24767 11.7676 5.514 11.7676 6.29505 12.5486L12.1035 18.3571C12.8142 19.0678 12.8815 20.1919 12.3108 21.0192C8.59055 26.4119 6.4061 32.962 6.4061 39.9619C6.4061 46.9617 8.59055 53.5118 12.3108 58.9045C12.8815 59.7318 12.8142 60.856 12.1035 61.5667L6.29505 67.3751C5.514 68.1562 4.24767 68.1562 3.46662 67.3751L3.41421 67.3227C2.15428 66.0628 0 66.9551 0 68.7369V77.9237C0 79.0283 0.895431 79.9237 2 79.9237H11.1868C12.9686 79.9237 13.861 77.7695 12.601 76.5095L12.5486 76.4571C11.7676 75.6761 11.7676 74.4097 12.5486 73.6287L18.3571 67.8202C19.0678 67.1095 20.1919 67.0422 21.0192 67.613C26.4119 71.3332 32.962 73.5176 39.9619 73.5176C46.9617 73.5176 53.5118 71.3332 58.9045 67.613C59.7318 67.0422 60.856 67.1095 61.5667 67.8202L67.3751 73.6287C68.1562 74.4097 68.1562 75.6761 67.3751 76.4571L67.3227 76.5095C66.0628 77.7694 66.9551 79.9237 68.7369 79.9237H77.9237C79.0283 79.9237 79.9237 79.0283 79.9237 77.9237V68.7369C79.9237 66.9551 77.7695 66.0628 76.5095 67.3227L76.4571 67.3751C75.6761 68.1562 74.4097 68.1562 73.6287 67.3751L67.8202 61.5667C67.1095 60.856 67.0422 59.7318 67.613 58.9045C71.3332 53.5118 73.5176 46.9617 73.5176 39.9619C73.5176 32.962 71.3332 26.4119 67.613 21.0192C67.0422 20.1919 67.1095 19.0678 67.8202 18.3571L73.6287 12.5486C74.4097 11.7676 75.6761 11.7676 76.4571 12.5486L76.5836 12.6751C77.8329 13.9244 79.9699 13.0587 79.9975 11.2921L80 11.1344ZM39.9619 66.654C25.2431 66.654 13.2698 54.6806 13.2698 39.9619C13.2698 25.2431 25.2431 13.2698 39.9619 13.2698C54.6806 13.2698 66.654 25.2431 66.654 39.9619C66.654 54.6806 54.6806 66.654 39.9619 66.654Z" fill="#86C8F9"/>
<path d="M40.0394 44.3854C45.5991 44.3854 50.1061 39.8784 50.1061 34.3187C50.1061 28.759 45.5991 24.252 40.0394 24.252C34.4797 24.252 29.9727 28.759 29.9727 34.3187C29.9727 39.8784 34.4797 44.3854 40.0394 44.3854Z" fill="#0072C6"/>
</svg>
