<svg width="68" height="67" viewBox="0 0 68 67" fill="none" xmlns="http://www.w3.org/2000/svg">
<path d="M42.5835 25.04C41.5105 25.04 40.6406 25.9099 40.6406 26.9829V64.2966C40.6406 65.3696 41.5105 66.2394 42.5835 66.2394H66.0574C67.1304 66.2394 68.0002 65.3696 68.0002 64.2966V26.9829C68.0002 25.9099 67.1304 25.04 66.0574 25.04H42.5835ZM52.5604 44.8569C52.5604 45.9299 51.6906 46.7997 50.6176 46.7997H48.1834C47.1104 46.7997 46.2405 45.9299 46.2405 44.8569V42.4227C46.2405 41.3497 47.1104 40.4798 48.1834 40.4798H50.6176C51.6906 40.4798 52.5604 41.3497 52.5604 42.4227V44.8569ZM52.5604 35.097C52.5604 36.17 51.6906 37.0399 50.6176 37.0399H48.1834C47.1104 37.0399 46.2405 36.17 46.2405 35.097V32.6628C46.2405 31.5898 47.1104 30.72 48.1834 30.72H50.6176C51.6906 30.72 52.5604 31.5898 52.5604 32.6628V35.097ZM62.4003 44.8569C62.4003 45.9299 61.5305 46.7997 60.4575 46.7997H58.0232C56.9502 46.7997 56.0804 45.9299 56.0804 44.8569V42.4227C56.0804 41.3497 56.9502 40.4798 58.0232 40.4798H60.4575C61.5305 40.4798 62.4003 41.3497 62.4003 42.4227V44.8569ZM62.4003 35.097C62.4003 36.17 61.5305 37.0399 60.4575 37.0399H58.0232C56.9502 37.0399 56.0804 36.17 56.0804 35.097V32.6628C56.0804 31.5898 56.9502 30.72 58.0232 30.72H60.4575C61.5305 30.72 62.4003 31.5898 62.4003 32.6628V35.097Z" fill="#86C8F9"/>
<path d="M30.9595 7.43987C30.9154 7.43987 30.8795 7.40405 30.8795 7.35987V2.90281C30.8795 1.8298 30.0097 0.959961 28.9367 0.959961H7.54277C6.46976 0.959961 5.59992 1.8298 5.59992 2.90281V5.49702C5.59992 6.57002 4.73008 7.43987 3.65707 7.43987H1.94285C0.869843 7.43987 0 8.30971 0 9.38271V64.2962C0 65.3692 0.869842 66.239 1.94285 66.239H9.49698C10.57 66.239 11.4398 65.3692 11.4398 64.2962V53.7821C11.4398 52.7091 12.3097 51.8392 13.3827 51.8392H23.1768C24.2498 51.8392 25.1196 52.7091 25.1196 53.7821V64.2962C25.1196 65.3692 25.9895 66.239 27.0625 66.239H34.6166C35.6896 66.239 36.5595 65.3692 36.5595 64.2962V9.38271C36.5595 8.30971 35.6896 7.43987 34.6166 7.43987H30.9595ZM11.5998 41.4965C11.5998 42.5695 10.73 43.4393 9.65698 43.4393H7.22277C6.14977 43.4393 5.27992 42.5695 5.27992 41.4965V39.0623C5.27992 37.9893 6.14976 37.1194 7.22277 37.1194H9.65698C10.73 37.1194 11.5998 37.9893 11.5998 39.0623V41.4965ZM11.5998 29.8967C11.5998 30.9697 10.73 31.8395 9.65698 31.8395H7.22277C6.14977 31.8395 5.27992 30.9697 5.27992 29.8967V27.4625C5.27992 26.3894 6.14976 25.5196 7.22277 25.5196H9.65698C10.73 25.5196 11.5998 26.3894 11.5998 27.4625V29.8967ZM11.5998 18.2968C11.5998 19.3698 10.73 20.2397 9.65698 20.2397H7.22277C6.14977 20.2397 5.27992 19.3698 5.27992 18.2968V15.8626C5.27992 14.7896 6.14976 13.9198 7.22277 13.9198H9.65698C10.73 13.9198 11.5998 14.7896 11.5998 15.8626V18.2968ZM21.3597 41.4965C21.3597 42.5695 20.4898 43.4393 19.4168 43.4393H16.9826C15.9096 43.4393 15.0398 42.5695 15.0398 41.4965V39.0623C15.0398 37.9893 15.9096 37.1194 16.9826 37.1194H19.4168C20.4898 37.1194 21.3597 37.9893 21.3597 39.0623V41.4965ZM21.3597 29.8967C21.3597 30.9697 20.4898 31.8395 19.4168 31.8395H16.9826C15.9096 31.8395 15.0398 30.9697 15.0398 29.8967V27.4625C15.0398 26.3894 15.9096 25.5196 16.9826 25.5196H19.4168C20.4898 25.5196 21.3597 26.3894 21.3597 27.4625V29.8967ZM21.3597 18.2968C21.3597 19.3698 20.4898 20.2397 19.4168 20.2397H16.9826C15.9096 20.2397 15.0398 19.3698 15.0398 18.2968V15.8626C15.0398 14.7896 15.9096 13.9198 16.9826 13.9198H19.4168C20.4898 13.9198 21.3597 14.7896 21.3597 15.8626V18.2968ZM31.1995 41.4965C31.1995 42.5695 30.3297 43.4393 29.2567 43.4393H26.8225C25.7495 43.4393 24.8796 42.5695 24.8796 41.4965V39.0623C24.8796 37.9893 25.7495 37.1194 26.8225 37.1194H29.2567C30.3297 37.1194 31.1995 37.9893 31.1995 39.0623V41.4965ZM31.1995 29.8967C31.1995 30.9697 30.3297 31.8395 29.2567 31.8395H26.8225C25.7495 31.8395 24.8796 30.9697 24.8796 29.8967V27.4625C24.8796 26.3894 25.7495 25.5196 26.8225 25.5196H29.2567C30.3297 25.5196 31.1995 26.3894 31.1995 27.4625V29.8967ZM31.1995 18.2968C31.1995 19.3698 30.3297 20.2397 29.2567 20.2397H26.8225C25.7495 20.2397 24.8796 19.3698 24.8796 18.2968V15.8626C24.8796 14.7896 25.7495 13.9198 26.8225 13.9198H29.2567C30.3297 13.9198 31.1995 14.7896 31.1995 15.8626V18.2968Z" fill="#0072C6"/>
</svg>
