<svg width="82" height="64" viewBox="0 0 82 64" fill="none" xmlns="http://www.w3.org/2000/svg">
<path d="M1.73438 29.2605L15.2081 4.62891L28.4712 28.9447" stroke="#0072C6" stroke-width="1.89474" stroke-linecap="round" stroke-linejoin="round"/>
<path d="M1 28.5234C1.42545 35.3835 7.70085 40.8311 15.359 40.8311C23.0171 40.8311 29.1861 35.3835 29.7179 28.5234H1Z" fill="#0072C6"/>
<path d="M53.3164 29.2605L66.7901 4.62891L80.1585 28.9447" stroke="#0072C6" stroke-width="1.89474" stroke-linecap="round" stroke-linejoin="round"/>
<path d="M52.2812 28.5234C52.7067 35.3835 58.9821 40.8311 66.6402 40.8311C74.2983 40.8311 80.4674 35.3835 80.9992 28.5234H52.3876H52.2812Z" fill="#0072C6"/>
<path d="M37.7363 4.10218C37.7363 2.10218 39.3153 0.417969 41.4205 0.417969C43.5258 0.417969 44.9995 1.99692 44.9995 4.10218C44.9995 6.20744 43.4205 7.68113 41.4205 7.68113C39.4205 7.68113 37.7363 6.10218 37.7363 4.10218Z" fill="#0072C6"/>
<rect x="39.9492" y="5.68164" width="3.15789" height="47.3684" fill="#0072C6"/>
<rect x="8.36719" y="5.68164" width="3.15789" height="65.2632" rx="1.57895" transform="rotate(-90 8.36719 5.68164)" fill="#0072C6"/>
<path d="M26.1582 59.2605V52.7342C26.1582 51.8921 26.895 51.1553 27.7372 51.1553H54.895C55.7372 51.1553 56.474 51.8921 56.474 52.7342V59.4711" fill="#86C8F9"/>
<path d="M59.3163 57.0498H23.3163C22.735 57.0498 22.2637 57.5211 22.2637 58.1024V62.6288C22.2637 63.2101 22.735 63.6814 23.3163 63.6814H59.3163C59.8977 63.6814 60.3689 63.2101 60.3689 62.6288V58.1024C60.3689 57.5211 59.8977 57.0498 59.3163 57.0498Z" fill="#86C8F9"/>
</svg>
