<svg width="66" height="67" viewBox="0 0 66 67" fill="none" xmlns="http://www.w3.org/2000/svg">
<path d="M31.6395 37.6172H36.5828C37.9501 37.6172 39.107 38.7741 39.107 40.1414V63.3855C39.107 64.7528 37.9501 65.9097 36.5828 65.9097H31.6395C30.2722 65.9097 29.1152 64.7528 29.1152 63.3855V40.1414C29.1152 38.7741 30.2722 37.6172 31.6395 37.6172Z" fill="#0072C6"/>
<path d="M44.786 44.9795H49.7293C51.0966 44.9795 52.2535 46.1364 52.2535 47.5037V63.3854C52.2535 64.7527 51.0966 65.9096 49.7293 65.9096H44.786C43.4187 65.9096 42.2617 64.7527 42.2617 63.3854V47.5037C42.2617 46.1364 43.4187 44.9795 44.786 44.9795Z" fill="#0072C6"/>
<path d="M57.9324 29.9395H62.8757C64.243 29.9395 65.4 31.0964 65.4 32.4637V63.4908C65.4 64.8581 64.243 66.0151 62.8757 66.0151H57.9324C56.5651 66.0151 55.4082 64.8581 55.4082 63.4908V32.4637C55.4082 31.0964 56.5651 29.9395 57.9324 29.9395Z" fill="#0072C6"/>
<path d="M57.4061 19.6321H8.28864C7.1317 19.6321 6.18511 18.6855 6.18511 17.5286C6.18511 16.3716 7.1317 15.425 8.28864 15.425H57.4061V12.2697C57.4061 10.7973 56.2492 9.64031 54.7767 9.64031H26.379L17.8597 1.121C17.3338 0.595119 16.7028 0.384766 15.9665 0.384766H3.02981C1.55733 0.384766 0.400391 1.54171 0.400391 3.01418V48.0298C0.400391 49.5023 1.55733 50.6592 3.02981 50.6592H25.6428V40.1415C25.6428 36.7759 28.3774 34.0413 31.743 34.0413H36.6863C40.052 34.0413 42.7866 36.7759 42.7866 40.1415V41.9295C43.5228 41.614 44.2591 41.5088 44.9953 41.5088H49.9386C50.6748 41.5088 51.5163 41.614 52.1473 41.9295V32.4636C52.1473 29.3083 54.5664 26.7841 57.6165 26.4686V19.6321H57.4061Z" fill="#86C8F9"/>
</svg>
