<svg width="483" height="483" viewBox="0 0 483 483" fill="none" xmlns="http://www.w3.org/2000/svg">
<path d="M241.431 0C116.281 0 13.3809 95.22 1.21094 217.15L241.431 241.42V0Z" fill="#0072C6"/>
<path d="M241.43 0V241.43L473.41 174.37C444.34 73.66 351.49 0 241.43 0Z" fill="#87C8F8"/>
<path d="M459.5 345.119C474.47 313.699 482.85 278.549 482.85 241.429C482.85 218.159 479.55 195.659 473.4 174.369L241.42 241.429L459.49 345.119H459.5Z" fill="#6CE2CE"/>
<path d="M320.28 469.67C381.68 448.46 431.84 403.19 459.5 345.12L241.43 241.43L320.28 469.67Z" fill="#E0AFE8"/>
<path d="M1.21 217.15C0.41 225.13 0 233.23 0 241.42C0 374.76 108.09 482.85 241.43 482.85C269.04 482.85 295.57 478.2 320.28 469.67L241.43 241.43L1.21 217.15Z" fill="#C4C4C4"/>
<path d="M241.43 402.85C330.58 402.85 402.85 330.58 402.85 241.43C402.85 152.28 330.58 80.0098 241.43 80.0098C152.28 80.0098 80.0098 152.28 80.0098 241.43C80.0098 330.58 152.28 402.85 241.43 402.85Z" fill="white"/>
</svg>
