<svg width="140" height="124" viewBox="0 0 140 124" fill="none" xmlns="http://www.w3.org/2000/svg">
<path d="M138.362 62.1317C139.602 61.2021 137.3 59.6971 137.211 59.1216C137.123 58.4133 137.654 52.747 137.477 52.6585C136.769 52.3486 136.503 54.3407 135.485 53.1897C134.777 52.3486 134.6 51.2862 134.157 50.3123C133.847 49.6926 133.449 49.0285 132.917 48.5858C132.298 48.0989 131.811 48.4973 131.235 48.1874C130.837 47.9661 130.881 47.3464 130.748 47.0365C130.483 46.3282 129.597 46.9037 129.199 46.2397C128.668 45.3986 129.332 42.5654 128.756 42.2113C128.402 41.99 126.631 41.7244 126.366 41.8129C124.905 42.4769 124.374 41.2374 124.772 39.8209C125.348 37.8731 122.47 37.3419 122.382 35.5711C122.249 33.5348 119.548 32.561 117.866 31.7199C116.892 31.2329 115.919 30.746 114.9 30.3918C113.572 29.9934 113.971 28.6211 113.484 27.5144C112.82 26.0093 113.484 24.0173 112.554 22.6893C111.536 21.317 111.138 21.1399 110.872 19.3692C110.518 16.9787 109.854 12.5962 106.578 13.4373C103.391 14.2784 104.763 8.52361 104.01 6.4873C103.568 5.29207 102.55 4.5838 102.196 3.3443C102.018 2.72455 101.841 0.157028 100.735 0.909578C99.5838 1.7064 99.3624 2.72455 99.2296 4.00832C99.0968 5.38061 98.0786 6.00034 98.2557 7.41691C98.4328 8.83347 97.813 9.32043 97.5917 10.5599C97.3261 12.2421 97.8573 13.9685 97.6802 15.6507C97.3704 18.351 96.9277 22.5565 94.4487 24.4157C91.0843 26.8947 89.9777 21.8039 87.2773 21.6268C85.6837 21.494 85.2853 20.7858 84.1343 19.6791C82.8948 18.4838 81.3012 19.1921 80.283 18.351C79.2649 17.4657 78.9993 16.1819 77.7155 15.2966C75.9006 14.0571 79.3977 13.5259 78.6894 11.5338C77.9811 9.54178 78.8222 10.1615 80.5044 9.2319C81.2126 8.83349 81.2569 8.43507 81.1684 7.72679C81.0798 6.92997 81.8767 7.15132 82.1423 6.57584C82.585 5.64621 80.2387 4.67231 79.8846 6.08888C79.4862 7.63824 78.8222 5.42488 78.5123 5.02647C78.2024 4.62806 76.8302 6.31024 76.2104 6.2217C75.3693 6.0889 74.1298 5.02645 73.2002 4.76084C71.9164 4.4067 70.5441 4.09685 69.2161 3.91978C68.1537 3.78697 67.0027 1.61784 66.0731 1.97199C64.7451 2.5032 67.8438 3.96404 67.4896 4.71659C67.1355 5.51341 65.5419 5.64622 64.8336 5.77902C63.8154 5.91183 62.6645 5.51341 61.7348 5.69048C61.425 5.73475 61.7348 6.26597 61.7348 6.44304C61.7348 6.79718 60.5839 6.92997 60.3183 7.28411C59.61 8.258 58.4591 10.0287 58.2377 11.1797C57.9721 12.552 56.0686 12.729 57.0867 14.3227C57.6622 15.208 58.7247 17.1558 56.5556 15.9163C55.8915 15.5622 55.4489 14.8096 54.6963 14.6768C53.5454 14.4112 54.0766 15.6507 53.6782 16.1819C52.9699 17.2001 52.5272 14.1456 52.3501 14.0128C51.1992 13.3488 50.9778 13.1275 49.9597 12.1978C48.4988 10.8698 47.9676 11.3125 46.5953 12.1978C46.1084 12.5077 45.4001 12.1978 45.0902 12.7733C44.7803 13.2603 45.4001 14.544 44.4705 14.3669C43.6294 14.2341 41.5931 13.3488 41.9472 14.9867C42.08 15.5179 40.7962 16.6246 40.2208 16.6246C39.0255 16.6246 39.4682 19.2807 39.5568 19.9004C39.6896 20.9628 37.1663 18.8822 36.7236 19.9004C36.3252 20.9186 38.5829 22.2909 37.3876 23.309C36.3252 24.2386 35.8826 23.8845 35.4399 22.6007C34.9087 21.0071 35.0414 20.2988 33.3593 21.8924C31.5 23.6632 32.6068 24.2829 32.5625 26.3635C32.5625 26.9832 30.4819 28.3556 30.0392 28.754C28.9768 29.8164 27.8701 31.5871 26.4535 32.2068C23.6647 33.3578 20.4331 32.5167 17.9099 34.4645C17.6 34.6858 15.4309 36.5451 15.2095 35.4826C14.8997 34.1989 12.1551 35.6597 11.6681 36.0138C10.2073 37.0762 8.96779 38.6256 6.97575 38.7584C6.26747 38.7584 5.07224 41.326 4.9837 41.2817C4.76237 41.1046 4.76236 39.024 4.67382 39.0683C2.54898 40.0422 3.25726 42.5212 3.56713 44.0706C4.00981 46.1954 0.999612 47.4791 2.1063 49.9581C2.72605 51.3747 5.47064 53.4996 4.58528 55.3146C4.09834 56.3327 2.90312 53.2782 2.54898 53.5881C2.37191 53.7652 4.14261 56.1999 3.34579 56.0671C2.41617 55.9343 2.19485 54.1193 1.30949 54.0751C0.911083 54.0751 3.47859 58.9445 3.69993 59.3429C4.23114 60.3611 4.36395 61.2907 4.67382 62.3531C5.16077 63.9467 6.62161 65.0534 7.19709 66.6471C7.68403 68.0194 7.4627 69.5245 7.94964 70.941C8.43659 72.3133 9.10061 73.5971 9.80889 74.8366C10.3844 75.8105 10.6057 76.1204 10.2073 77.2271C9.67607 78.7322 10.2073 81.2997 9.27767 82.4506C8.70219 83.1589 6.84294 82.7605 7.10855 83.9115C7.41842 85.4166 8.96778 84.8854 9.67607 85.8593C11.7566 88.6924 14.457 88.1612 17.6885 88.1612C20.9201 88.1612 19.3707 86.6561 20.3889 86.3019C22.0268 85.6822 22.2923 85.9478 23.4433 84.5312C25.2583 82.2293 32.3411 84.3099 34.8644 83.9115C37.6975 83.4245 37.9631 80.9013 40.3979 80.0159C41.6816 79.5732 42.567 78.8649 43.7179 78.2452C45.2673 77.4484 47.1708 77.9796 48.853 77.8911C52.2616 77.6697 55.0505 75.412 58.5033 75.1907C59.8756 75.1022 61.6463 74.6153 63.0186 74.7923C64.3024 74.9251 64.7008 76.563 65.9846 76.8287C68.198 77.2713 71.341 76.7844 73.0674 78.6436C73.9085 79.5732 71.8722 80.5471 72.9789 81.2554C74.3512 82.0965 76.1662 82.9376 76.3875 84.7968C76.476 85.815 75.9891 87.143 77.14 87.8513C78.0696 88.4268 79.442 85.7707 79.9289 85.328C80.8143 84.6197 82.4522 84.8854 82.6292 83.5131C82.7178 82.6277 84.0458 79.3076 85.4624 80.5028C86.2592 81.1668 85.1525 82.2293 84.8426 82.8933C84.2671 84.0443 84.2671 86.8774 82.9833 87.4529C80.4601 88.5596 84.4442 89.3564 85.0197 88.0727C85.5066 87.0102 85.2853 84.4427 86.9674 86.6118C88.1627 88.2054 86.0378 89.0908 86.5247 90.3303C86.7904 90.9943 89.0923 89.9761 89.9334 90.6401C91.35 91.7911 92.0582 93.6504 91.7484 95.4211C91.2171 98.2099 94.4929 100.645 97.1047 100.645C99.7165 100.645 100.425 101.309 101.886 101.928C103.125 102.46 104.188 103.655 105.604 103.124C106.312 102.858 106.976 102.415 107.463 101.84C107.906 101.353 108.172 99.8921 108.88 99.8036C110.739 99.4937 109.19 101.486 109.278 101.884C109.854 103.832 110.474 100.777 110.828 100.999C111.757 101.619 113.174 104.407 114.325 104.673C113.838 104.584 115.697 102.592 116.007 102.504C117.424 101.973 118.265 100.645 119.593 99.9806C121.363 99.0953 123.754 99.051 125.702 98.9625C127.251 98.874 126.985 95.5539 127.118 94.4029C127.251 93.2077 127.207 91.7911 127.827 90.7287C128.579 89.4449 129.686 88.6039 129.907 87.0102C130.173 84.7526 131.456 82.3621 132.784 80.5471C133.271 79.8389 133.803 79.7946 134.467 79.2634C135.573 78.4223 135.396 77.0942 136.016 75.9875C136.769 74.5267 137.123 73.5085 137.388 71.8706C137.521 70.9853 138.407 69.3917 138.141 68.5063C137.831 67.3553 137.61 66.1159 138.495 65.142C139.292 64.2566 138.052 62.5302 138.628 62.0875C138.052 62.5302 139.248 61.6448 138.628 62.0875L138.362 62.1317ZM63.5056 3.6099C63.3728 2.72454 58.0164 3.74271 59.1674 4.67233C59.9199 5.24781 63.6384 4.53952 63.5056 3.6099ZM80.3273 92.101C81.1684 92.8535 83.913 92.6322 84.3557 91.5698C84.7984 90.5073 79.5747 91.437 80.3273 92.101ZM114.104 112.863C113.351 112.951 108.349 111.092 108.26 111.313C107.862 112.464 109.677 115.076 109.987 116.183C110.474 117.998 109.367 118.75 110.828 120.477C111.492 121.273 114.635 124.549 115.52 122.557C115.83 121.805 116.892 121.937 116.981 121.273C117.114 120.211 116.848 119.635 117.999 120.344C120.08 121.583 118.884 117.599 119.637 116.935C121.054 115.74 120.434 113.969 119.947 112.11C119.416 110.074 115.52 112.685 114.148 112.863C112.111 113.084 116.184 112.641 114.148 112.863H114.104Z" fill="#9CD0F2"/>
<path d="M138.628 62.0875C138.052 62.5302 139.292 64.2566 138.495 65.142C137.61 66.1159 137.831 67.3553 138.141 68.5063C138.407 69.3917 137.521 70.9853 137.388 71.8706C137.123 73.5085 136.769 74.5267 136.016 75.9876C135.396 77.0942 135.573 78.4223 134.467 79.2634C133.803 79.7946 133.271 79.8389 132.784 80.5471C131.456 82.3621 130.173 84.7526 129.907 87.0102C129.686 88.6039 128.579 89.4449 127.827 90.7287C127.207 91.7911 127.251 93.2077 127.118 94.4029C126.985 95.5539 127.251 98.874 125.702 98.9625C123.754 99.051 121.363 99.0953 119.593 99.9806C118.265 100.645 117.424 101.973 116.007 102.504C115.697 102.592 113.838 104.584 114.325 104.673C113.174 104.407 111.757 101.619 110.828 100.999C110.474 100.777 109.854 103.832 109.278 101.884C109.19 101.486 110.739 99.4937 108.88 99.8036C108.172 99.8921 107.906 101.353 107.463 101.84C106.976 102.415 106.312 102.858 105.604 103.124C104.188 103.655 103.125 102.46 101.886 101.928C100.425 101.309 99.7165 100.645 97.1047 100.645C94.4929 100.645 91.2171 98.2099 91.7484 95.4211C92.0582 93.6504 91.35 91.7911 89.9334 90.6401C89.0923 89.9761 86.7904 90.9943 86.5248 90.3303C86.0378 89.0908 88.1627 88.2054 86.9674 86.6118C85.2853 84.4427 85.5066 87.0102 85.0197 88.0727C84.4442 89.3564 80.4601 88.5596 82.9833 87.4529C84.2671 86.8774 84.2671 84.0443 84.8426 82.8933C85.1525 82.2293 86.2592 81.1668 85.4624 80.5028C84.0458 79.3076 82.7178 82.6277 82.6292 83.5131C82.4522 84.8854 80.8143 84.6197 79.9289 85.328C79.442 85.7707 78.0696 88.4268 77.14 87.8513C75.9891 87.143 76.476 85.815 76.3875 84.7968C76.1662 82.9376 74.3511 82.0965 72.9789 81.2554C71.8722 80.5471 73.9085 79.5732 73.0674 78.6436C71.341 76.7844 68.198 77.2713 65.9846 76.8286C64.7008 76.563 64.3024 74.9251 63.0186 74.7923C61.6463 74.6153 59.8756 75.1022 58.5033 75.1907C55.0505 75.4121 52.2616 77.6697 48.853 77.8911C47.1708 77.9796 45.2673 77.4484 43.7179 78.2452C42.567 78.8649 41.6816 79.5732 40.3978 80.0159C37.9631 80.9013 37.6975 83.4245 34.8644 83.9115C32.3411 84.3099 25.2583 82.2293 23.4433 84.5312C22.2923 85.9478 22.0268 85.6822 20.3889 86.3019C19.3707 86.6561 20.9201 88.1612 17.6885 88.1612C14.457 88.1612 11.7566 88.6924 9.67607 85.8593C8.96778 84.8854 7.41842 85.4166 7.10855 83.9115C6.84294 82.7605 8.70219 83.1589 9.27767 82.4506C10.2073 81.2997 9.67607 78.7322 10.2073 77.2271C10.6057 76.1204 10.3844 75.8105 9.80889 74.8366C9.10061 73.5971 8.43659 72.3133 7.94964 70.941C7.4627 69.5245 7.68403 68.0194 7.19709 66.6471C6.62161 65.0534 5.16077 63.9467 4.67382 62.3531C4.36395 61.2907 4.23114 60.3611 3.69993 59.3429C3.47859 58.9445 0.911083 54.0751 1.30949 54.0751C2.19485 54.1193 2.41617 55.9343 3.34579 56.0671C4.14261 56.1999 2.37191 53.7652 2.54898 53.5881C2.90312 53.2782 4.09834 56.3327 4.58528 55.3146C5.47064 53.4996 2.72605 51.3747 2.1063 49.9581C0.999612 47.4791 4.00981 46.1954 3.56713 44.0706C3.25726 42.5212 2.54898 40.0422 4.67382 39.0683C4.76236 39.024 4.76237 41.1046 4.9837 41.2817C5.07224 41.326 6.26747 38.7584 6.97575 38.7584C8.96779 38.6256 10.2073 37.0762 11.6681 36.0138C12.1551 35.6597 14.8997 34.1989 15.2095 35.4826C15.4309 36.5451 17.6 34.6858 17.9099 34.4644C20.4331 32.5167 23.6647 33.3578 26.4535 32.2068C27.8701 31.5871 28.9768 29.8164 30.0392 28.754C30.4819 28.3556 32.5625 26.9832 32.5625 26.3635C32.6068 24.2829 31.5 23.6632 33.3593 21.8924C35.0414 20.2988 34.9087 21.0071 35.4399 22.6007C35.8826 23.8845 36.3252 24.2386 37.3876 23.309C38.5829 22.2909 36.3252 20.9186 36.7236 19.9004C37.1663 18.8822 39.6896 20.9628 39.5568 19.9004C39.4682 19.2807 39.0255 16.6246 40.2208 16.6246C40.7962 16.6246 42.08 15.5179 41.9472 14.9867C41.5931 13.3488 43.6294 14.2341 44.4705 14.3669C45.4001 14.544 44.7803 13.2603 45.0902 12.7733C45.4001 12.1978 46.1084 12.5077 46.5953 12.1978C47.9676 11.3125 48.4988 10.8698 49.9597 12.1978C50.9778 13.1275 51.1992 13.3488 52.3501 14.0128C52.5272 14.1456 52.9699 17.2001 53.6782 16.1819C54.0766 15.6507 53.5454 14.4112 54.6963 14.6768C55.4489 14.8096 55.8915 15.5622 56.5556 15.9163C58.7247 17.1558 57.6622 15.208 57.0867 14.3227C56.0686 12.729 57.9721 12.552 58.2377 11.1797C58.4591 10.0287 59.61 8.258 60.3183 7.28411C60.5839 6.92997 61.7348 6.79718 61.7348 6.44304C61.7348 6.26597 61.425 5.73475 61.7348 5.69048C62.6645 5.51341 63.8154 5.91183 64.8336 5.77902C65.5419 5.64622 67.1355 5.51341 67.4896 4.71659C67.8438 3.96404 64.7451 2.5032 66.0731 1.97199C67.0027 1.61785 68.1537 3.78697 69.2161 3.91978C70.5441 4.09685 71.9164 4.4067 73.2002 4.76084C74.1298 5.02645 75.3693 6.0889 76.2104 6.2217C76.8302 6.31024 78.2024 4.62806 78.5123 5.02647C78.8222 5.42488 79.4862 7.63824 79.8846 6.08888C80.2387 4.67231 82.585 5.64621 82.1423 6.57584C81.8767 7.15132 81.0798 6.92997 81.1684 7.72679C81.2569 8.43507 81.2126 8.83349 80.5044 9.2319C78.8222 10.1615 77.9811 9.54178 78.6894 11.5338C79.3977 13.5259 75.9006 14.0571 77.7155 15.2966C78.9993 16.1819 79.2649 17.4657 80.283 18.351C81.3012 19.1921 82.8948 18.4838 84.1343 19.6791C85.2853 20.7858 85.6837 21.494 87.2773 21.6268C89.9777 21.8039 91.0843 26.8947 94.4487 24.4157C96.9277 22.5565 97.3704 18.351 97.6802 15.6507C97.8573 13.9685 97.3261 12.2421 97.5917 10.5599C97.813 9.32043 98.4328 8.83347 98.2557 7.41691C98.0786 6.00034 99.0968 5.38061 99.2296 4.00832C99.3624 2.72455 99.5838 1.7064 100.735 0.909578C101.841 0.157028 102.018 2.72455 102.196 3.3443C102.55 4.5838 103.568 5.29207 104.01 6.4873C104.763 8.52361 103.391 14.2784 106.578 13.4373C109.854 12.5962 110.518 16.9787 110.872 19.3692C111.138 21.1399 111.536 21.317 112.554 22.6893C113.484 24.0173 112.82 26.0093 113.484 27.5144C113.971 28.6211 113.572 29.9934 114.9 30.3918C115.919 30.746 116.892 31.2329 117.866 31.7199C119.548 32.561 122.249 33.5348 122.382 35.5711C122.47 37.3418 125.348 37.8731 124.772 39.8209C124.374 41.2374 124.905 42.4769 126.366 41.8129C126.631 41.7244 128.402 41.99 128.756 42.2113C129.332 42.5654 128.668 45.3986 129.199 46.2397C129.597 46.9037 130.483 46.3282 130.748 47.0365C130.881 47.3464 130.837 47.9661 131.235 48.1874C131.811 48.4973 132.298 48.0989 132.917 48.5859C133.449 49.0285 133.847 49.6926 134.157 50.3123C134.6 51.2862 134.777 52.3486 135.485 53.1897C136.503 54.3407 136.769 52.3486 137.477 52.6585C137.654 52.747 137.123 58.4133 137.211 59.1216C137.3 59.6971 139.602 61.2021 138.362 62.1317L138.628 62.0875ZM138.628 62.0875C138.052 62.5302 139.248 61.6448 138.628 62.0875ZM114.148 112.863C115.52 112.685 119.416 110.074 119.947 112.11C120.434 113.969 121.054 115.74 119.637 116.935C118.884 117.599 120.08 121.583 117.999 120.344C116.848 119.635 117.114 120.211 116.981 121.273C116.892 121.937 115.83 121.805 115.52 122.557C114.635 124.549 111.492 121.273 110.828 120.477C109.367 118.75 110.474 117.998 109.987 116.183C109.677 115.076 107.862 112.464 108.26 111.313C108.349 111.092 113.351 112.951 114.104 112.863H114.148ZM114.148 112.863C112.111 113.084 116.184 112.641 114.148 112.863ZM63.5056 3.6099C63.3728 2.72454 58.0164 3.74271 59.1674 4.67233C59.9199 5.24781 63.6384 4.53952 63.5056 3.6099ZM80.3273 92.101C81.1684 92.8535 83.913 92.6322 84.3557 91.5698C84.7984 90.5073 79.5747 91.437 80.3273 92.101Z" stroke="#56AEE4" stroke-miterlimit="10"/>
</svg>
