<svg width="204" height="140" viewBox="0 0 204 140" fill="none" xmlns="http://www.w3.org/2000/svg">
<path d="M202.705 25.3622C202.838 23.0603 200.005 24.831 198.987 24.9195C197.482 25.0966 197.393 25.5835 196.331 26.3804C195.667 26.8673 193.807 26.646 193.011 26.6017C190.797 26.5132 189.558 24.5654 189.779 22.3963C189.868 21.5552 185.264 19.3861 184.334 19.2975C183.404 19.209 179.996 18.3236 179.465 17.6154C179.022 16.9513 179.553 16.066 179.199 15.3134C178.756 14.251 178.004 13.2771 177.694 12.1262C177.517 11.4622 176.986 10.9752 176.587 10.3997C175.79 9.24877 175.879 7.8322 175.171 6.72551C174.905 6.28283 174.108 5.92869 174.02 5.39748C173.887 4.24652 173.798 3.93665 172.736 3.22836C169.15 0.882178 164.015 0.26243 159.766 1.01498C158.216 1.28059 156.667 0.793645 155.295 1.9446C152.594 4.15799 155.294 3.80384 155.781 5.61882C156.313 7.74367 154.586 8.00928 153.524 9.51438C152.594 10.8867 151.222 13.1443 150.823 14.738C150.381 16.5972 148.212 17.1727 146.529 18.1023C144.715 19.0762 143.519 17.394 142.103 16.8185C141.306 18.4122 140.509 20.0501 139.668 21.6437C139.358 22.2192 139.314 22.6619 139.225 23.3259C139.137 24.0784 137.986 24.344 138.296 25.0966C138.915 26.646 140.155 26.2033 141.35 25.982C142.368 25.8049 144.537 27.0444 145.201 26.6902C146.22 26.1148 146.485 24.5211 148.123 25.4065C149.451 26.1148 150.823 27.7527 151.93 28.7708C155.427 32.0024 149.584 30.5858 148.167 30.9399C146.662 31.3383 145.069 31.5597 143.608 32.0024C141.35 32.6664 140.996 34.3928 139.447 35.7651C138.428 36.6947 136.614 36.2963 135.33 36.6505C133.515 37.1817 132.275 38.6868 130.283 38.7753C129.132 38.8196 122.182 36.739 124.44 40.7674C126.521 44.4858 123.156 44.0432 121.12 46.3008C118.508 49.2225 115.631 48.7798 112.178 48.4699C108.061 48.1158 105.936 50.5505 102.439 52.0114C101.111 52.5868 100.845 51.2145 99.7386 50.9047C98.986 50.6833 98.1892 50.9932 97.4366 50.8604C96.5513 50.6833 95.8873 49.975 95.0019 49.798C93.4526 49.5324 92.7 49.4881 91.2392 48.7355C89.9111 48.0715 88.3618 48.0273 86.8567 47.8945C84.1563 47.7174 81.456 47.7616 78.7557 47.6288C77.3834 47.5846 76.0554 47.6288 74.6388 47.6288C73.355 47.6288 73.1779 46.7435 72.4697 45.8139C71.4515 44.5301 71.54 42.7151 70.3448 41.6084C69.9021 41.21 69.3709 40.9444 68.7954 40.8559C67.8216 40.6788 67.6002 39.4836 66.6263 39.3508C65.5639 39.1737 65.1212 37.8899 63.7047 37.8014C62.2438 37.7571 60.7387 37.5358 59.3222 37.2259C58.3925 37.0046 56.2677 36.6505 56.2677 35.3224C56.2677 34.747 56.8432 34.3485 57.1088 33.8616C57.5072 33.0648 57.5515 31.7367 57.64 30.8957C57.8171 29.8332 56.0021 27.7969 55.4709 26.7788C54.497 25.0081 52.7263 25.3179 51.2212 24.4326C50.2473 23.8571 48.388 22.7061 47.8126 21.6437C47.5027 21.0682 47.4142 20.4042 47.2371 19.7845C46.4403 19.6959 45.6435 19.6517 45.068 19.0319C44.8466 19.7845 43.917 20.36 43.917 21.201C43.917 22.7947 43.0317 22.7947 41.8364 23.1488C40.774 23.503 40.3313 24.5654 40.2871 25.5835C40.2871 26.3361 41.1724 27.6199 40.774 28.2839C39.6231 30.1431 37.0555 29.2578 35.3734 29.2135C34.8864 29.2135 32.8058 28.2839 32.496 28.5495C32.009 29.0364 31.7877 30.5415 31.5221 31.2055C31.3007 31.8253 29.53 35.0568 30.194 35.6323C31.3893 36.6947 30.5039 37.3145 29.2644 37.1817C27.7593 37.0046 27.6265 36.3406 26.0771 36.9161C24.7934 37.403 22.0931 37.2259 23.0669 38.9524C23.5982 39.882 23.1997 40.9444 23.5539 41.874C23.908 42.8479 24.6606 43.7333 24.8376 44.7957C24.9705 45.5483 23.9966 46.168 23.5539 46.6549C22.8899 47.4075 23.5096 49.5324 22.8013 49.8422C21.4733 50.4177 17.8434 51.5687 17.1793 52.8524C15.9398 55.3314 13.7265 53.3394 12 54.6674C11.1589 55.3314 10.2293 55.9512 9.38822 56.6152C8.41433 57.412 7.70604 55.5528 6.64362 56.0397C5.71399 56.4381 4.87291 56.7923 4.07609 57.412C2.65953 58.6072 2.39392 57.5891 1.77417 59.5811C1.4643 60.555 1.11016 62.3257 1.86271 63.2996C2.57099 64.185 5.00572 63.9194 5.18279 65.4245C5.22705 65.9114 5.89106 69.9398 5.75826 69.9398C6.68788 70.6923 7.88313 71.2678 8.67994 72.1974C9.25542 72.8172 8.9898 73.791 9.74235 74.4993C10.672 75.3404 12.6198 76.0044 13.2838 76.093C14.3462 76.2258 14.5233 75.6945 15.3644 76.6242C16.5153 72.9057 23.9966 75.1191 23.0669 77.6423C22.58 79.0146 21.252 80.6968 20.0567 81.4936C19.1271 82.0691 18.3746 81.228 18.109 82.5118C17.8876 83.6185 18.8615 84.4153 19.437 85.2564C19.8797 85.8761 20.4109 86.8058 19.4812 87.2927C18.5516 87.7796 18.1975 86.8943 17.4007 86.9385C16.294 86.9385 17.5335 90.657 17.9319 91.0997C18.5959 91.808 25.2361 95.3494 24.4835 96.6774C25.5459 96.5889 26.4313 95.7036 27.2724 95.7036C28.5561 95.7036 29.4415 96.8102 30.4154 97.5185C32.6287 99.1564 34.8864 100.971 37.2769 102.344C39.8444 103.805 42.5447 104.114 45.2893 104.823C46.1304 105.044 46.9272 104.955 47.7683 105.044C47.9454 104.823 48.9193 103.982 49.1849 103.982C50.3358 103.982 49.8046 106.815 50.1145 107.434C51.0441 106.106 51.2655 104.911 52.8148 104.159C54.5413 103.362 54.8069 104.247 56.5333 104.513C57.9499 104.734 58.6139 104.203 59.8977 105.398C61.7126 104.601 62.111 103.716 63.4391 102.344C63.7489 102.034 64.4572 102.211 64.8556 101.857C65.5196 101.326 66.1394 100.75 66.8919 100.307C68.0872 99.6434 69.9907 100.927 70.876 100.175C72.5139 98.8023 72.7353 100.352 73.6206 101.591C74.0633 102.211 74.1076 102.654 74.9044 102.963C75.9668 103.406 76.0111 102.831 77.0292 102.698C79.0655 102.432 78.3573 104.424 78.977 105.487C79.6853 106.593 80.8363 105.31 80.8363 107.434C80.8363 109.559 81.3675 111.02 79.9952 112.348C78.9327 113.411 77.4277 115.093 77.2063 116.686C77.1178 117.173 76.985 119.121 77.8261 118.678C78.1802 118.501 81.4117 118.457 80.8805 119.254C80.4378 119.962 80.9691 121.954 81.943 121.999C84.4662 122.22 82.2528 124.256 82.8283 125.496C83.0054 125.938 84.1563 125.717 84.5105 125.85C85.263 126.071 84.9531 126.602 85.086 127.134C85.5286 128.816 87.4764 127.311 88.406 127.266C89.2914 127.222 89.5127 128.816 90.3538 128.993C91.4605 129.258 90.885 126.735 90.4866 126.337C88.9372 124.787 94.0723 123.592 94.8691 123.814C95.6659 124.035 95.5331 123.327 96.1972 123.238C96.8169 123.15 97.3924 123.681 98.0121 123.681C99.2516 123.725 100.58 123.504 101.332 122.618C101.819 122.087 103.147 120.759 103.855 121.6C104.785 122.751 106.025 122.485 107.264 123.017C108.326 123.504 107.087 124.433 107.485 125.097C108.061 126.027 109.61 127.178 110.717 127.311C111.204 127.399 113.063 128.55 113.462 127.311C114.037 125.54 115.454 127.975 116.073 128.019C116.693 128.019 118.862 126.16 118.375 128.373C118.154 129.347 117.401 131.782 119.349 132.003C120.19 132.092 119.615 130.1 119.925 129.701C120.854 128.417 123.112 127.93 124.484 127.443C126.299 126.824 128.026 125.938 129.619 124.876C130.593 124.212 130.859 123.371 132.054 123.681C134.312 124.345 137.366 122.884 139.801 122.751C141.085 122.707 141.97 121.335 142.767 120.449C143.696 119.431 146.131 119.033 146.131 117.35C146.131 115.668 148.344 116.819 148.433 115.89C148.433 115.757 150.514 113.632 150.691 113.543C152.284 112.835 151.266 111.994 151.709 110.71C151.93 110.179 152.594 110.4 152.152 109.648C151.842 109.072 151.178 108.63 152.107 108.32C153.48 107.833 154.719 107.479 155.295 105.974C155.56 105.265 155.56 104.778 156.136 104.247C156.667 103.76 157.685 103.495 158.083 102.875C158.482 102.211 158.482 101.237 158.349 100.529C158.216 99.6434 158.969 99.9532 159.057 99.422C159.102 99.0236 158.526 99.0236 158.792 98.4039C159.102 97.6956 160.562 97.43 160.695 96.943C160.872 96.4118 159.146 96.6332 158.924 96.766C158.393 97.2086 157.818 96.0134 157.331 95.8806C156.711 95.7478 156.534 96.5889 155.737 96.0577C154.763 95.3937 156.623 95.0395 157.021 94.8182C158.438 94.0657 160.518 93.4902 158.393 92.1179C157.685 91.6752 156.932 91.7637 156.313 91.1883C156.18 91.0555 153.966 89.329 154.011 89.4618C153.878 88.5764 161.846 91.9851 158.305 88.4879C157.552 87.7354 155.826 86.8943 155.914 85.6991C156.003 84.5481 154.586 83.043 154.099 81.9363C153.435 80.4312 153.037 79.9443 151.532 79.236C150.248 78.6605 150.159 77.5095 151.001 76.4028C151.532 75.7388 152.329 75.606 152.904 75.0305C153.302 74.6321 153.214 74.1009 153.524 73.7468C153.745 73.5254 154.453 73.7468 154.808 73.5254C155.604 72.9942 155.604 71.799 156.711 71.6662C157.951 71.5334 162.909 70.5595 161.359 68.7888C160.252 67.5493 158.836 68.4789 157.508 67.7706C155.914 66.9296 156.047 65.8229 154.409 67.4165C153.612 68.2133 152.506 69.7627 151.222 69.7627C149.894 69.7627 149.363 67.9477 149.761 66.9296C150.602 64.8933 144.582 67.0181 144.892 63.7423C145.246 60.1566 147.725 62.7684 149.584 61.5289C150.735 60.7764 150.381 59.0942 151.974 58.8286C154.055 58.5187 154.896 56.6152 156.534 55.5528C157.552 54.8888 159.677 54.269 160.385 55.7298C160.917 56.748 159.411 57.9875 158.792 58.6072C157.596 59.8467 158.039 60.4222 157.685 61.883C157.641 62.0601 156.711 62.9012 156.977 63.2111C157.552 63.7866 159.19 62.7241 159.588 62.4585C161.315 61.3518 163.086 60.2009 164.989 59.3155C165.786 58.9171 166.538 58.6958 167.468 58.74C167.778 57.9432 168.044 57.412 168.796 57.0579C171.319 55.8626 173.931 54.933 175.481 52.5426C176.499 50.9932 176.897 51.5244 178.269 52.0999C178.756 52.3212 181.944 52.7639 181.191 51.5687C180.306 50.0636 182.254 50.5505 183.139 50.0636C183.582 49.8422 185.397 48.3814 185.574 48.0273C186.149 46.9206 186.326 45.1056 187.92 46.4336C188.894 47.2304 189.513 46.6992 190.576 47.1419C191.683 46.2566 191.461 45.2827 191.284 43.8661C191.107 42.361 190.797 40.8559 190.797 39.3508C190.797 38.3769 192.701 36.739 193.719 36.6505C194.206 36.6505 197.216 38.3769 197.216 36.7833C197.216 35.1896 198.19 35.7208 198.588 35.1896C199.164 34.3485 199.208 33.7288 200.049 33.0205C201.289 31.9581 201.156 30.0103 201.864 28.5937C202.085 28.1953 203.059 27.5313 203.015 27.0886C202.926 26.2918 202.484 25.7606 202.528 24.8753C202.44 26.6902 202.617 23.0603 202.528 24.8753L202.705 25.3622ZM153.878 119.697C153.745 120.139 154.011 126.647 155.649 125.496C157.065 124.522 157.951 121.644 158.57 120.139C158.924 119.298 160.828 115.58 159.588 114.827C157.198 113.455 154.321 118.059 153.834 119.697C152.727 123.681 154.94 115.713 153.834 119.697H153.878ZM118.331 133.243C113.506 133.243 113.993 140.945 119.172 138.865C120.81 138.201 121.076 136.518 121.961 135.102C123.687 132.313 120.057 133.243 118.331 133.243Z" fill="#9CD0F2"/>
<path d="M202.528 24.8753C202.484 25.7606 202.927 26.2918 203.015 27.0886C203.059 27.5313 202.085 28.1953 201.864 28.5937C201.156 30.0103 201.289 31.9581 200.049 33.0205C199.208 33.7288 199.164 34.3485 198.588 35.1896C198.19 35.7208 197.216 35.1896 197.216 36.7833C197.216 38.3769 194.206 36.6505 193.719 36.6505C192.701 36.739 190.797 38.3769 190.797 39.3508C190.797 40.8559 191.107 42.361 191.284 43.8661C191.461 45.2827 191.683 46.2566 190.576 47.1419C189.513 46.6992 188.894 47.2304 187.92 46.4336C186.326 45.1056 186.149 46.9206 185.574 48.0273C185.397 48.3814 183.582 49.8422 183.139 50.0636C182.254 50.5505 180.306 50.0636 181.191 51.5687C181.944 52.7639 178.756 52.3212 178.269 52.0999C176.897 51.5244 176.499 50.9932 175.481 52.5426C173.931 54.933 171.319 55.8626 168.796 57.0579C168.044 57.412 167.778 57.9432 167.468 58.74C166.539 58.6958 165.786 58.9171 164.989 59.3155C163.086 60.2009 161.315 61.3518 159.588 62.4585C159.19 62.7241 157.552 63.7866 156.977 63.2111C156.711 62.9012 157.641 62.0601 157.685 61.883C158.039 60.4222 157.596 59.8467 158.792 58.6072C159.411 57.9875 160.917 56.748 160.385 55.7298C159.677 54.269 157.552 54.8888 156.534 55.5528C154.896 56.6152 154.055 58.5187 151.974 58.8286C150.381 59.0942 150.735 60.7764 149.584 61.5289C147.725 62.7684 145.246 60.1566 144.892 63.7423C144.582 67.0181 150.602 64.8933 149.761 66.9296C149.363 67.9477 149.894 69.7627 151.222 69.7627C152.506 69.7627 153.612 68.2133 154.409 67.4165C156.047 65.8229 155.914 66.9296 157.508 67.7706C158.836 68.4789 160.252 67.5493 161.359 68.7888C162.909 70.5595 157.951 71.5334 156.711 71.6662C155.604 71.799 155.604 72.9942 154.808 73.5254C154.453 73.7468 153.745 73.5254 153.524 73.7468C153.214 74.1009 153.302 74.6321 152.904 75.0305C152.329 75.606 151.532 75.7388 151.001 76.4028C150.159 77.5095 150.248 78.6605 151.532 79.236C153.037 79.9443 153.435 80.4312 154.099 81.9363C154.586 83.043 156.003 84.5481 155.914 85.699C155.826 86.8943 157.552 87.7354 158.305 88.4879C161.846 91.9851 153.878 88.5764 154.011 89.4618C153.966 89.329 156.18 91.0554 156.313 91.1883C156.932 91.7637 157.685 91.6752 158.393 92.1179C160.518 93.4902 158.438 94.0657 157.021 94.8182C156.623 95.0395 154.763 95.3937 155.737 96.0577C156.534 96.5889 156.711 95.7478 157.331 95.8806C157.818 96.0134 158.393 97.2086 158.924 96.766C159.146 96.6332 160.872 96.4118 160.695 96.9431C160.562 97.43 159.102 97.6956 158.792 98.4039C158.526 99.0236 159.102 99.0236 159.057 99.422C158.969 99.9532 158.216 99.6434 158.349 100.529C158.482 101.237 158.482 102.211 158.083 102.875C157.685 103.495 156.667 103.76 156.136 104.247C155.56 104.778 155.56 105.265 155.295 105.974C154.719 107.479 153.48 107.833 152.107 108.32C151.178 108.63 151.842 109.072 152.152 109.648C152.594 110.4 151.93 110.179 151.709 110.71C151.266 111.994 152.284 112.835 150.691 113.543C150.514 113.632 148.433 115.757 148.433 115.89C148.344 116.819 146.131 115.668 146.131 117.35C146.131 119.033 143.696 119.431 142.767 120.449C141.97 121.335 141.085 122.707 139.801 122.751C137.366 122.884 134.312 124.345 132.054 123.681C130.859 123.371 130.593 124.212 129.619 124.876C128.026 125.938 126.299 126.824 124.484 127.443C123.112 127.93 120.854 128.417 119.925 129.701C119.615 130.1 120.19 132.092 119.349 132.003C117.401 131.782 118.154 129.347 118.375 128.373C118.862 126.16 116.693 128.019 116.073 128.019C115.454 127.975 114.037 125.54 113.462 127.311C113.063 128.55 111.204 127.399 110.717 127.311C109.61 127.178 108.061 126.027 107.485 125.097C107.087 124.433 108.327 123.504 107.264 123.017C106.025 122.485 104.785 122.751 103.855 121.6C103.147 120.759 101.819 122.087 101.332 122.618C100.58 123.504 99.2516 123.725 98.0121 123.681C97.3924 123.681 96.8169 123.15 96.1972 123.238C95.5331 123.327 95.6659 124.035 94.8691 123.814C94.0723 123.592 88.9372 124.787 90.4866 126.337C90.885 126.735 91.4605 129.258 90.3538 128.993C89.5127 128.816 89.2914 127.222 88.406 127.266C87.4764 127.311 85.5286 128.816 85.086 127.134C84.9531 126.602 85.263 126.071 84.5105 125.85C84.1563 125.717 83.0054 125.938 82.8283 125.496C82.2528 124.256 84.4662 122.22 81.943 121.999C80.9691 121.954 80.4378 119.962 80.8805 119.254C81.4117 118.457 78.1802 118.501 77.8261 118.678C76.985 119.121 77.1178 117.173 77.2063 116.686C77.4276 115.093 78.9327 113.411 79.9952 112.348C81.3675 111.02 80.8363 109.559 80.8363 107.434C80.8363 105.31 79.6853 106.593 78.977 105.487C78.3573 104.424 79.0655 102.432 77.0292 102.698C76.0111 102.831 75.9668 103.406 74.9044 102.963C74.1076 102.654 74.0633 102.211 73.6206 101.591C72.7353 100.352 72.5139 98.8023 70.876 100.175C69.9907 100.927 68.0872 99.6434 66.8919 100.307C66.1394 100.75 65.5196 101.326 64.8556 101.857C64.4572 102.211 63.7489 102.034 63.4391 102.344C62.111 103.716 61.7126 104.601 59.8977 105.398C58.6139 104.203 57.9499 104.734 56.5333 104.513C54.8069 104.247 54.5413 103.362 52.8148 104.159C51.2655 104.911 51.0441 106.106 50.1145 107.434C49.8046 106.815 50.3358 103.982 49.1849 103.982C48.9193 103.982 47.9454 104.823 47.7683 105.044C46.9272 104.955 46.1304 105.044 45.2893 104.823C42.5447 104.114 39.8444 103.805 37.2769 102.344C34.8864 100.971 32.6287 99.1564 30.4154 97.5185C29.4415 96.8102 28.5561 95.7036 27.2724 95.7036C26.4313 95.7036 25.5459 96.5889 24.4835 96.6774C25.2361 95.3494 18.5959 91.808 17.9319 91.0997C17.5335 90.657 16.294 86.9385 17.4007 86.9385C18.1975 86.8943 18.5516 87.7796 19.4812 87.2927C20.4109 86.8058 19.8797 85.8761 19.437 85.2564C18.8615 84.4153 17.8876 83.6185 18.109 82.5118C18.3746 81.228 19.1271 82.0691 20.0567 81.4936C21.252 80.6968 22.58 79.0146 23.0669 77.6423C23.9966 75.1191 16.5153 72.9057 15.3644 76.6242C14.5233 75.6946 14.3462 76.2258 13.2838 76.093C12.6198 76.0044 10.672 75.3404 9.74235 74.4993C8.9898 73.791 9.25542 72.8172 8.67994 72.1974C7.88313 71.2678 6.68788 70.6923 5.75826 69.9398C5.89106 69.9398 5.22705 65.9114 5.18279 65.4245C5.00572 63.9194 2.57099 64.185 1.86271 63.2996C1.11016 62.3257 1.4643 60.555 1.77417 59.5811C2.39392 57.5891 2.65953 58.6072 4.07609 57.412C4.87291 56.7923 5.71399 56.4381 6.64362 56.0397C7.70604 55.5528 8.41433 57.412 9.38822 56.6152C10.2293 55.9512 11.1589 55.3314 12 54.6674C13.7265 53.3394 15.9398 55.3314 17.1793 52.8524C17.8434 51.5687 21.4733 50.4177 22.8013 49.8422C23.5096 49.5324 22.8899 47.4075 23.5539 46.6549C23.9966 46.168 24.9705 45.5483 24.8376 44.7957C24.6606 43.7333 23.908 42.8479 23.5539 41.874C23.1997 40.9444 23.5982 39.882 23.0669 38.9524C22.0931 37.2259 24.7934 37.403 26.0771 36.9161C27.6265 36.3406 27.7593 37.0046 29.2644 37.1817C30.5039 37.3145 31.3893 36.6947 30.194 35.6323C29.53 35.0568 31.3007 31.8253 31.5221 31.2055C31.7877 30.5415 32.009 29.0364 32.496 28.5495C32.8058 28.2839 34.8864 29.2135 35.3734 29.2135C37.0555 29.2578 39.6231 30.1431 40.774 28.2839C41.1724 27.6199 40.2871 26.3361 40.2871 25.5835C40.3313 24.5654 40.774 23.503 41.8364 23.1488C43.0316 22.7947 43.917 22.7947 43.917 21.201C43.917 20.36 44.8466 19.7845 45.068 19.0319C45.6435 19.6517 46.4403 19.6959 47.2371 19.7845C47.4142 20.4042 47.5027 21.0682 47.8126 21.6437C48.388 22.7061 50.2473 23.8571 51.2212 24.4326C52.7263 25.3179 54.497 25.0081 55.4709 26.7788C56.0021 27.7969 57.8171 29.8332 57.64 30.8957C57.5515 31.7368 57.5072 33.0648 57.1088 33.8616C56.8432 34.3485 56.2677 34.747 56.2677 35.3224C56.2677 36.6505 58.3925 37.0046 59.3222 37.2259C60.7387 37.5358 62.2438 37.7571 63.7047 37.8014C65.1212 37.8899 65.5639 39.1737 66.6263 39.3508C67.6002 39.4836 67.8216 40.6788 68.7954 40.8559C69.3709 40.9444 69.9021 41.21 70.3448 41.6084C71.54 42.7151 71.4515 44.5301 72.4697 45.8139C73.1779 46.7435 73.355 47.6288 74.6388 47.6288C76.0554 47.6288 77.3834 47.5846 78.7557 47.6288C81.456 47.7616 84.1563 47.7174 86.8567 47.8945C88.3618 48.0273 89.9111 48.0715 91.2392 48.7355C92.7 49.4881 93.4526 49.5324 95.0019 49.798C95.8873 49.975 96.5513 50.6833 97.4366 50.8604C98.1892 50.9932 98.986 50.6833 99.7386 50.9047C100.845 51.2145 101.111 52.5868 102.439 52.0114C105.936 50.5505 108.061 48.1158 112.178 48.4699C115.631 48.7798 118.508 49.2225 121.12 46.3008C123.156 44.0432 126.521 44.4858 124.44 40.7674C122.182 36.739 129.132 38.8196 130.283 38.7753C132.275 38.6868 133.515 37.1817 135.33 36.6505C136.614 36.2963 138.429 36.6947 139.447 35.7651C140.996 34.3928 141.35 32.6664 143.608 32.0024C145.069 31.5597 146.662 31.3383 148.167 30.9399C149.584 30.5858 155.427 32.0024 151.93 28.7708C150.823 27.7527 149.451 26.1148 148.123 25.4065C146.485 24.5211 146.22 26.1148 145.201 26.6902C144.537 27.0444 142.368 25.8049 141.35 25.982C140.155 26.2033 138.915 26.646 138.296 25.0966C137.986 24.344 139.137 24.0784 139.225 23.3259C139.314 22.6619 139.358 22.2192 139.668 21.6437C140.509 20.0501 141.306 18.4122 142.103 16.8185C143.519 17.394 144.715 19.0762 146.529 18.1023C148.212 17.1727 150.381 16.5972 150.823 14.738C151.222 13.1443 152.594 10.8867 153.524 9.51438C154.586 8.00928 156.313 7.74367 155.781 5.61882C155.294 3.80384 152.594 4.15799 155.295 1.9446C156.667 0.793645 158.216 1.28059 159.766 1.01498C164.015 0.26243 169.15 0.882178 172.736 3.22836C173.798 3.93665 173.887 4.24652 174.02 5.39748C174.108 5.92869 174.905 6.28283 175.171 6.72551C175.879 7.8322 175.79 9.24877 176.587 10.3997C176.986 10.9752 177.517 11.4622 177.694 12.1262C178.004 13.2771 178.756 14.251 179.199 15.3134C179.553 16.066 179.022 16.9513 179.465 17.6154C179.996 18.3236 183.404 19.209 184.334 19.2975C185.264 19.3861 189.868 21.5552 189.779 22.3963C189.558 24.5654 190.797 26.5132 193.011 26.6017C193.807 26.646 195.667 26.8673 196.331 26.3804C197.393 25.5835 197.482 25.0966 198.987 24.9195C200.005 24.831 202.838 23.0603 202.705 25.3622L202.528 24.8753ZM202.528 24.8753C202.44 26.6902 202.617 23.0603 202.528 24.8753ZM153.834 119.697C154.321 118.059 157.198 113.455 159.588 114.827C160.828 115.58 158.924 119.298 158.57 120.139C157.951 121.644 157.065 124.522 155.649 125.496C154.011 126.647 153.745 120.139 153.878 119.697H153.834ZM153.834 119.697C152.727 123.681 154.94 115.713 153.834 119.697ZM118.331 133.243C113.506 133.243 113.993 140.945 119.172 138.865C120.81 138.201 121.076 136.518 121.961 135.102C123.687 132.313 120.057 133.243 118.331 133.243Z" stroke="#56AEE4" stroke-miterlimit="10"/>
</svg>
