<svg width="156" height="57" viewBox="0 0 156 57" fill="none" xmlns="http://www.w3.org/2000/svg">
<path d="M11.4831 23.8859C11.3061 24.3729 12.3685 26.3649 13.0768 25.7894C13.785 25.1697 12.1029 22.3366 11.4831 23.8859ZM44.0199 29.9506C44.0199 29.0652 41.4523 29.5079 42.2049 30.7474C43.0017 32.0312 44.0199 30.836 44.0199 29.9506ZM6.5694 15.298C6.34806 16.3162 7.45476 19.1936 8.64999 17.9983C9.84521 16.8031 6.74647 14.3241 6.5694 15.298ZM81.7802 32.3411C84.3034 32.5181 80.8948 42.6112 84.3477 39.0255C85.9414 37.4318 84.4362 36.4137 84.2149 34.643C84.0821 33.5363 83.5951 29.5965 85.5429 29.8621C87.8006 30.1719 85.7643 32.3411 87.1366 33.3592C88.9516 34.6872 87.8006 36.8564 90.6337 35.7939C94.1751 34.4659 90.8108 33.6691 91.342 31.1901C91.6519 29.7293 91.342 29.4194 90.191 28.4898C89.6598 28.0028 88.3761 26.542 89.7927 26.2321C91.9618 25.7452 97.7608 21.4069 92.4044 22.2923C91.1207 22.5136 88.4204 23.0448 88.022 24.5499C87.4465 26.5863 84.5691 24.0187 84.1264 23.1776C82.0458 19.0165 88.8188 18.2197 91.342 18.2197C92.9799 18.2197 94.8835 19.1493 96.4328 18.9722C97.2296 18.8837 102.055 15.2537 100.992 14.634C100.284 14.2356 97.8494 16.3162 97.3182 16.6703C95.9901 17.5114 93.9096 17.0687 92.493 16.8031C91.1207 16.5375 88.863 15.298 87.4907 15.6964C86.7824 15.9177 86.384 16.5818 85.8528 16.9802C85.2774 17.4228 84.4805 17.3786 83.9493 17.9098C83.1082 18.8394 83.1082 20.3445 82.7984 21.4955C82.5327 22.5579 81.7359 23.2662 81.4261 24.4171C80.6292 27.2503 76.7337 31.9869 81.7359 32.3411C80.2308 32.2525 83.241 32.4296 81.7359 32.3411H81.7802ZM36.273 34.9528C36.2288 34.2003 36.3616 30.836 37.424 30.6146C38.3536 30.4375 39.5488 30.2162 38.5749 28.7997C38.1323 28.1356 37.4683 27.3388 36.937 26.6748C36.3616 25.9222 33.5727 25.5681 34.3695 26.9404C34.8122 27.7372 37.0256 27.4716 36.3615 28.9767C36.3173 29.1095 34.0154 28.4455 33.7498 28.2684C33.3514 28.0471 33.3513 27.4716 33.13 27.1175C32.8201 26.542 32.2446 26.719 31.7134 26.4534C30.651 25.878 30.8281 24.1958 29.6771 23.7089C28.7475 23.3105 27.0211 23.3547 28.0392 21.7611C28.836 20.5216 28.7918 20.433 27.5965 19.3706C26.844 18.7066 26.9325 17.5557 25.8701 17.2901C25.516 17.2015 24.9848 17.113 24.9848 16.626C24.9848 15.785 23.7453 15.5193 23.3026 14.9438C22.7271 14.1913 22.5058 14.5012 21.7532 14.3241C21.0449 14.147 20.558 13.2617 19.894 12.9518C18.4332 12.3321 17.8134 13.0403 16.6182 11.491C15.7771 10.3843 15.5115 9.45467 14.4048 8.56931C13.1653 7.63969 11.7045 6.84287 10.642 5.69192C9.80095 4.76229 9.7124 3.65559 8.4729 3.08011C6.9678 2.37183 5.3299 2.94732 3.8248 2.37184C3.07225 2.10623 2.09838 0.955278 1.30156 0.911011C-0.0264692 0.911011 1.30155 3.52278 1.56716 3.87692C3.11653 6.22311 5.72831 7.46262 7.23341 9.8088C8.73851 12.155 11.0404 12.5091 11.8815 15.2537C12.2357 16.3604 12.457 17.5556 12.9882 18.5738C13.3866 19.3263 14.1834 19.4149 14.7589 19.9461C17.1051 22.1152 17.9462 24.9041 19.0971 27.7372C19.9825 29.9063 22.8599 32.0312 24.4978 33.7576C26.4456 35.7939 29.1459 36.8564 30.5625 39.3354C31.1822 40.442 31.138 39.8223 31.9348 39.5124C32.9529 39.114 34.1482 39.8223 35.1663 39.9108C36.4501 40.0436 36.4058 35.6611 36.3615 34.9528C36.273 33.5363 36.4501 36.3251 36.3615 34.9528H36.273ZM112.369 19.0165C114.583 19.2378 114.096 15.6964 112.104 15.8735C111.218 15.962 110.598 11.1811 109.005 14.811C108.164 16.7146 108.916 19.7248 110.244 21.2299C111.794 23.0448 110.687 18.8394 112.369 19.0165C114.538 19.2378 110.156 18.7951 112.369 19.0165ZM104.224 31.4557C104.622 33.0493 107.5 33.9347 108.297 32.5624C109.093 31.1458 103.737 29.5965 104.224 31.4557ZM96.3443 48.2774C94.972 48.0561 93.6882 48.543 92.4044 48.8972C90.8993 49.2956 89.8812 48.9857 88.4203 48.6316C87.7563 48.4988 81.5589 48.9857 83.1968 50.0481C85.4102 51.509 89.8369 50.845 92.1388 50.0481C93.0684 49.7383 99.7529 48.7201 96.3443 48.2331C93.6439 47.8347 99.0446 48.6316 96.3443 48.2331V48.2774ZM117.637 30.0391C115.911 29.5079 113.697 29.5079 112.015 30.1719C111.617 30.349 110.908 30.6589 111.085 31.2344C111.484 32.4739 113.741 32.0312 114.627 31.9426C116.707 31.8541 118.124 33.4035 119.939 33.4035C121.754 33.4035 118.257 30.2162 117.637 29.9949C115.069 29.198 120.249 30.7917 117.637 29.9949V30.0391ZM65.1355 47.1707C65.0027 45.5771 54.0686 47.3035 61.5941 44.4704C64.1174 43.5408 62.2581 43.1424 60.576 43.408C57.433 43.9835 55.8393 43.9392 52.8291 42.921C51.5896 42.5226 51.5454 43.7179 50.0845 43.5408C48.2696 43.2752 46.0119 42.6111 44.5068 41.5045C43.0902 40.4863 40.7883 40.0879 39.0619 40.1322C38.2208 40.1322 37.1141 40.3092 36.6272 41.1061C36.4058 41.5045 34.9007 42.1685 34.9007 42.4783C34.945 44.9573 37.5568 42.6554 38.2651 44.4704C38.8406 45.9755 41.6294 46.0198 43.0017 46.1968C44.6396 46.4182 45.4364 45.4886 46.8973 45.6656C49.5091 45.9755 51.1912 47.7905 53.5817 48.4988C55.5737 49.1185 57.9642 49.2956 60.0448 48.9414C61.3285 48.7201 62.4352 49.4284 63.6305 49.4726C64.5601 49.5169 64.6043 48.6316 65.534 49.1185C66.2422 49.4726 66.9505 49.8711 67.7473 49.6055C67.9687 49.5169 69.4738 48.7644 68.6769 48.3659C68.0129 48.0118 65.1355 48.1446 65.0913 47.1265C65.0027 45.9312 65.1798 48.3217 65.0913 47.1265L65.1355 47.1707ZM143.578 25.4796C142.604 25.5681 142.161 26.6305 141.719 27.3388C141.099 28.2684 139.992 28.2241 139.151 28.8882C137.956 29.8178 135.034 33.1379 133.706 30.8802C131.493 27.0732 133.441 22.8678 128.173 21.7168C127.199 21.4955 126.181 21.3627 125.163 21.5397C123.879 21.7168 124.056 22.735 123.082 23.2219C122.374 23.576 121.134 23.4875 121.001 24.4614C120.736 26.055 122.551 25.0812 123.436 25.4796C124.454 25.9223 124.189 27.3831 124.941 28.0028C125.827 28.7111 127.464 28.357 128.483 28.1799C129.102 28.0914 130.43 27.6044 130.873 28.3127C131.67 29.5079 128.837 28.7554 128.527 28.8882C127.464 29.2866 127.332 29.4636 126.136 29.3308C124.012 29.1095 125.03 29.9506 125.959 30.836C127.597 32.3853 127.287 35.7054 129.324 32.5624C129.855 31.7656 134.193 35.2627 134.857 35.4398C137.557 36.1924 140.214 36.3694 142.825 37.5646C143.888 38.0073 145.083 38.5828 145.836 39.4682C146.677 40.442 146.19 41.7701 147.075 42.744C150.262 46.1968 145.172 45.2229 143.888 47.4806C142.737 49.5169 147.606 48.4988 148.359 48.4102C149.421 48.2774 150.484 48.0118 151.546 48.0118C152.609 48.0118 154.202 50.1809 155.132 50.8007V29.5522C155.132 29.021 144.906 25.391 143.578 25.4796C144.817 25.391 142.073 25.5681 143.578 25.4796ZM100.417 50.7122C99.443 51.3762 98.7347 52.7042 97.7165 51.5532C96.6541 51.9959 95.2819 53.2797 95.5475 54.5634C96.1672 57.8835 100.727 52.2615 101.479 51.8188C101.169 51.3762 100.815 51.022 100.417 50.7122C100.771 50.9778 100.107 50.9335 100.417 50.7122ZM72.7496 25.0812C75.4056 23.4432 73.5022 19.7248 75.6713 18.5295C76.7337 17.9541 81.4261 17.5556 79.434 15.6079C78.7257 14.8996 76.955 14.4569 76.8665 13.3502C76.7337 11.8008 76.0254 11.4467 75.2286 10.1629C74.299 8.61357 75.8926 9.05626 75.7598 8.21518C75.5827 7.10849 74.6974 6.57727 76.0254 5.91325C74.5203 5.1607 72.2626 5.07215 70.6247 5.64763C68.5442 6.35591 70.0493 8.5693 68.4114 9.41038C67.0833 10.1187 67.1719 11.0926 66.4636 12.4206C66.0652 13.1289 66.5964 14.147 66.1094 14.7225C65.5782 15.3423 63.9846 15.3423 63.2763 15.6964C61.5941 16.5375 60.576 14.5012 58.5839 15.3865C57.9199 15.6964 57.3887 16.2719 56.6804 16.4932C55.4409 16.8916 54.0686 16.4047 52.8291 16.6703C51.4126 16.9802 49.2877 15.9177 48.8008 14.3684C47.9154 11.6238 45.525 15.5193 45.5692 17.0687C45.5692 17.9541 46.4988 18.5295 46.853 19.3264C47.2514 20.3888 47.1629 21.7168 47.7383 22.6464C48.9336 24.5057 50.3059 24.1958 50.7043 26.6748C50.8371 27.6044 52.2094 31.6328 53.8473 30.4818C55.618 29.2423 56.1935 32.3853 58.2298 31.8541C60.1333 31.3672 61.24 31.1901 63.1435 31.7656C64.8699 32.2968 65.2683 34.0675 67.0833 33.5363C69.0754 33.0051 70.8461 32.6066 71.2888 30.4375C71.5544 28.9767 71.2887 25.878 72.7496 24.9484C70.9346 26.055 74.5203 23.8417 72.7496 24.9484V25.0812ZM80.1865 52.9698C80.8063 53.8994 82.9754 54.4306 83.9493 55.0061C84.6576 55.4045 87.4465 55.6701 86.1184 54.165C85.2773 53.2354 83.6395 52.9255 82.4885 52.7485C82.3114 52.7485 79.7881 52.4386 80.1865 53.014C79.5225 51.9959 80.8063 53.8994 80.1865 53.014V52.9698ZM75.2286 48.1003C74.2547 50.3137 70.4477 46.7723 70.3591 49.694C70.2706 52.4828 75.3171 50.9777 76.4238 50.6679C76.9107 50.5351 81.7802 50.3137 79.7881 48.8086C79.1684 48.3217 75.6712 46.9494 75.1843 48.0561C74.7859 48.9414 75.5827 47.1707 75.1843 48.0561L75.2286 48.1003Z" fill="#9CD0F2"/>
<path d="M81.7359 32.3411C76.7337 31.9869 80.6292 27.2503 81.4261 24.4171C81.7359 23.2662 82.5327 22.5579 82.7984 21.4955C83.1082 20.3445 83.1082 18.8394 83.9493 17.9098C84.4805 17.3786 85.2774 17.4229 85.8528 16.9802C86.384 16.5818 86.7824 15.9177 87.4907 15.6964C88.863 15.298 91.1207 16.5375 92.493 16.8031C93.9096 17.0687 95.9901 17.5114 97.3182 16.6703C97.8494 16.3162 100.284 14.2356 100.992 14.634C102.055 15.2537 97.2296 18.8837 96.4328 18.9722C94.8835 19.1493 92.9799 18.2197 91.342 18.2197C88.8188 18.2197 82.0458 19.0165 84.1264 23.1776C84.5691 24.0187 87.4465 26.5862 88.022 24.5499C88.4204 23.0448 91.1207 22.5136 92.4044 22.2923C97.7608 21.4069 91.9618 25.7452 89.7927 26.2321C88.3761 26.542 89.6598 28.0028 90.191 28.4898C91.342 29.4194 91.6519 29.7293 91.342 31.1901C90.8108 33.6691 94.1751 34.4659 90.6337 35.7939C87.8006 36.8564 88.9516 34.6872 87.1366 33.3592C85.7643 32.3411 87.8006 30.1719 85.5429 29.8621C83.5951 29.5965 84.0821 33.5363 84.2149 34.643C84.4362 36.4137 85.9414 37.4318 84.3477 39.0255C80.8948 42.6112 84.3034 32.5181 81.7802 32.3411H81.7359ZM81.7359 32.3411C80.2308 32.2525 83.241 32.4296 81.7359 32.3411ZM36.3615 34.9528C36.4058 35.6611 36.4501 40.0436 35.1663 39.9108C34.1482 39.8223 32.9529 39.114 31.9348 39.5124C31.138 39.8223 31.1822 40.442 30.5625 39.3354C29.1459 36.8564 26.4456 35.7939 24.4978 33.7576C22.8599 32.0312 19.9825 29.9063 19.0971 27.7372C17.9462 24.9041 17.1051 22.1152 14.7589 19.9461C14.1834 19.4149 13.3866 19.3263 12.9882 18.5738C12.457 17.5556 12.2357 16.3604 11.8815 15.2537C11.0404 12.5091 8.73852 12.155 7.23341 9.8088C5.72831 7.46262 3.11653 6.22311 1.56716 3.87692C1.30155 3.52278 -0.0264691 0.911011 1.30156 0.911011C2.09838 0.955278 3.07225 2.10623 3.8248 2.37184C5.3299 2.94732 6.9678 2.37183 8.4729 3.08011C9.7124 3.65559 9.80095 4.76229 10.642 5.69191C11.7045 6.84287 13.1653 7.63969 14.4048 8.56931C15.5115 9.45467 15.7771 10.3843 16.6182 11.491C17.8134 13.0403 18.4332 12.3321 19.894 12.9518C20.558 13.2617 21.0449 14.147 21.7532 14.3241C22.5058 14.5012 22.7271 14.1913 23.3026 14.9438C23.7453 15.5193 24.9848 15.785 24.9848 16.626C24.9848 17.113 25.516 17.2015 25.8701 17.2901C26.9325 17.5557 26.844 18.7066 27.5965 19.3706C28.7918 20.433 28.836 20.5216 28.0392 21.7611C27.0211 23.3547 28.7475 23.3105 29.6771 23.7089C30.8281 24.1958 30.651 25.878 31.7134 26.4534C32.2446 26.719 32.8201 26.542 33.13 27.1175C33.3513 27.4716 33.3514 28.0471 33.7498 28.2684C34.0154 28.4455 36.3173 29.1095 36.3615 28.9767C37.0256 27.4716 34.8122 27.7372 34.3695 26.9404C33.5727 25.5681 36.3616 25.9222 36.937 26.6748C37.4683 27.3388 38.1323 28.1356 38.5749 28.7996C39.5488 30.2162 38.3536 30.4375 37.424 30.6146C36.3616 30.836 36.2288 34.2003 36.273 34.9528H36.3615ZM36.3615 34.9528C36.273 33.5363 36.4501 36.3251 36.3615 34.9528ZM112.369 19.0165C114.583 19.2378 114.096 15.6964 112.104 15.8735C111.218 15.962 110.598 11.1811 109.005 14.811C108.164 16.7146 108.916 19.7248 110.244 21.2299C111.794 23.0448 110.687 18.8394 112.369 19.0165ZM112.369 19.0165C110.156 18.7951 114.538 19.2378 112.369 19.0165ZM96.3443 48.2331C99.7529 48.7201 93.0684 49.7383 92.1388 50.0481C89.8369 50.845 85.4102 51.509 83.1968 50.0481C81.5589 48.9857 87.7563 48.4988 88.4203 48.6316C89.8812 48.9857 90.8993 49.2956 92.4044 48.8972C93.6882 48.543 94.972 48.0561 96.3443 48.2774V48.2331ZM96.3443 48.2331C93.6439 47.8347 99.0446 48.6316 96.3443 48.2331ZM117.637 29.9949C118.257 30.2162 121.754 33.4035 119.939 33.4035C118.124 33.4035 116.707 31.8541 114.627 31.9426C113.741 32.0312 111.484 32.4739 111.085 31.2344C110.908 30.6589 111.617 30.349 112.015 30.1719C113.697 29.5079 115.911 29.5079 117.637 30.0391V29.9949ZM117.637 29.9949C115.069 29.198 120.249 30.7917 117.637 29.9949ZM65.0913 47.1265C65.1355 48.1446 68.0129 48.0118 68.677 48.3659C69.4738 48.7644 67.9687 49.5169 67.7473 49.6055C66.9505 49.8711 66.2422 49.4726 65.534 49.1185C64.6043 48.6316 64.5601 49.5169 63.6305 49.4726C62.4352 49.4284 61.3285 48.7201 60.0448 48.9414C57.9642 49.2956 55.5737 49.1185 53.5817 48.4988C51.1912 47.7905 49.5091 45.9755 46.8973 45.6656C45.4364 45.4886 44.6396 46.4182 43.0017 46.1968C41.6294 46.0198 38.8406 45.9755 38.2651 44.4704C37.5568 42.6554 34.945 44.9573 34.9007 42.4783C34.9007 42.1685 36.4058 41.5045 36.6272 41.1061C37.1141 40.3092 38.2208 40.1322 39.0619 40.1322C40.7883 40.0879 43.0902 40.4863 44.5068 41.5045C46.0119 42.6111 48.2695 43.2752 50.0845 43.5408C51.5454 43.7179 51.5896 42.5226 52.8291 42.921C55.8393 43.9392 57.433 43.9835 60.576 43.408C62.2581 43.1424 64.1174 43.5408 61.5941 44.4704C54.0686 47.3035 65.0027 45.5771 65.1355 47.1707L65.0913 47.1265ZM65.0913 47.1265C65.0027 45.9312 65.1798 48.3217 65.0913 47.1265ZM143.578 25.4796C142.604 25.5681 142.161 26.6305 141.719 27.3388C141.099 28.2684 139.992 28.2241 139.151 28.8882C137.956 29.8178 135.034 33.1379 133.706 30.8802C131.493 27.0732 133.441 22.8678 128.173 21.7168C127.199 21.4955 126.181 21.3627 125.163 21.5397C123.879 21.7168 124.056 22.735 123.082 23.2219C122.374 23.576 121.134 23.4875 121.001 24.4614C120.736 26.055 122.551 25.0812 123.436 25.4796C124.454 25.9223 124.189 27.3831 124.941 28.0028C125.827 28.7111 127.464 28.357 128.483 28.1799C129.102 28.0914 130.43 27.6044 130.873 28.3127C131.67 29.5079 128.837 28.7554 128.527 28.8882C127.464 29.2866 127.332 29.4636 126.136 29.3308C124.012 29.1095 125.03 29.9506 125.959 30.836C127.597 32.3853 127.287 35.7054 129.324 32.5624C129.855 31.7656 134.193 35.2627 134.857 35.4398C137.557 36.1924 140.214 36.3694 142.825 37.5646C143.888 38.0073 145.083 38.5828 145.836 39.4682C146.677 40.442 146.19 41.7701 147.075 42.744C150.262 46.1968 145.172 45.2229 143.888 47.4806C142.737 49.5169 147.606 48.4988 148.359 48.4102C149.421 48.2774 150.484 48.0118 151.546 48.0118C152.609 48.0118 154.202 50.1809 155.132 50.8007V29.5522C155.132 29.021 144.906 25.391 143.578 25.4796ZM143.578 25.4796C142.073 25.5681 144.817 25.391 143.578 25.4796ZM100.417 50.7122C99.443 51.3762 98.7347 52.7042 97.7165 51.5532C96.6541 51.9959 95.2819 53.2797 95.5475 54.5634C96.1672 57.8835 100.727 52.2615 101.479 51.8188C101.169 51.3762 100.815 51.022 100.417 50.7122ZM100.417 50.7122C100.107 50.9335 100.771 50.9778 100.417 50.7122ZM72.7496 24.9484C71.2887 25.878 71.5544 28.9767 71.2888 30.4375C70.8461 32.6066 69.0754 33.0051 67.0833 33.5363C65.2683 34.0675 64.8699 32.2968 63.1435 31.7656C61.24 31.1901 60.1333 31.3672 58.2298 31.8541C56.1935 32.3853 55.618 29.2423 53.8473 30.4818C52.2094 31.6328 50.8371 27.6044 50.7043 26.6748C50.3059 24.1958 48.9336 24.5057 47.7383 22.6464C47.1629 21.7168 47.2514 20.3888 46.853 19.3264C46.4988 18.5295 45.5692 17.9541 45.5692 17.0687C45.525 15.5193 47.9154 11.6238 48.8008 14.3684C49.2877 15.9177 51.4126 16.9802 52.8291 16.6703C54.0686 16.4047 55.4409 16.8916 56.6804 16.4932C57.3887 16.2719 57.9199 15.6964 58.5839 15.3865C60.576 14.5012 61.5941 16.5375 63.2763 15.6964C63.9846 15.3423 65.5782 15.3423 66.1094 14.7225C66.5964 14.147 66.0652 13.1289 66.4636 12.4206C67.1718 11.0926 67.0833 10.1187 68.4114 9.41038C70.0493 8.5693 68.5442 6.35591 70.6247 5.64763C72.2626 5.07215 74.5203 5.1607 76.0254 5.91325C74.6974 6.57727 75.5827 7.10849 75.7598 8.21518C75.8926 9.05626 74.299 8.61357 75.2286 10.1629C76.0254 11.4467 76.7337 11.8008 76.8665 13.3502C76.955 14.4569 78.7257 14.8996 79.434 15.6079C81.4261 17.5556 76.7337 17.9541 75.6713 18.5295C73.5021 19.7248 75.4056 23.4432 72.7496 25.0812V24.9484ZM72.7496 24.9484C70.9346 26.055 74.5203 23.8417 72.7496 24.9484ZM80.1865 53.014C79.7881 52.4386 82.3114 52.7485 82.4885 52.7485C83.6395 52.9255 85.2773 53.2354 86.1184 54.165C87.4465 55.6701 84.6576 55.4045 83.9493 55.0061C82.9754 54.4306 80.8063 53.8994 80.1865 52.9698V53.014ZM80.1865 53.014C79.5225 51.9959 80.8063 53.8994 80.1865 53.014ZM75.1843 48.0561C75.6712 46.9494 79.1684 48.3217 79.7881 48.8086C81.7802 50.3137 76.9107 50.5351 76.4238 50.6679C75.3171 50.9777 70.2706 52.4828 70.3591 49.694C70.4477 46.7723 74.2547 50.3137 75.2286 48.1003L75.1843 48.0561ZM75.1843 48.0561C74.7859 48.9414 75.5827 47.1707 75.1843 48.0561ZM11.4831 23.8859C11.3061 24.3729 12.3685 26.3649 13.0768 25.7894C13.785 25.1697 12.1029 22.3366 11.4831 23.8859ZM44.0199 29.9506C44.0199 29.0652 41.4523 29.5079 42.2049 30.7474C43.0017 32.0312 44.0199 30.836 44.0199 29.9506ZM6.5694 15.298C6.34806 16.3162 7.45476 19.1936 8.64999 17.9983C9.84521 16.8031 6.74647 14.3241 6.5694 15.298ZM104.224 31.4557C104.622 33.0493 107.5 33.9347 108.297 32.5624C109.093 31.1458 103.737 29.5965 104.224 31.4557Z" stroke="#56AEE4" stroke-miterlimit="10"/>
</svg>
