<svg width="14" height="17" viewBox="0 0 14 17" fill="none" xmlns="http://www.w3.org/2000/svg">
<path d="M3.98202 1.87235C3.22947 2.6249 1.90144 2.80196 2.21131 3.90865C2.47692 4.83827 3.62788 5.05962 3.76068 5.7679C3.98202 6.83032 2.87534 6.38766 2.38839 6.609C1.37024 7.09594 2.38843 9.08797 2.6983 9.66345C3.58365 11.0357 0.750522 12.895 1.59161 13.7361C2.25562 14.4001 1.50305 16.038 2.56548 16.1265C3.53936 16.1708 4.51325 15.9052 5.44287 15.6396C7.39065 15.0198 8.8515 12.6294 10.7107 12.3638C12.8356 12.0097 13.5439 12.5851 12.747 9.97333C11.8617 7.273 12.57 5.23668 10.755 2.80196C10.3566 2.27075 9.95816 1.73954 9.51548 1.25259C8.49732 0.057364 8.89573 0.80992 7.74477 1.11979C6.59381 1.3854 4.95595 0.898461 4.02633 1.87235C3.71646 2.18222 4.55754 1.34114 4.02633 1.87235H3.98202Z" fill="#9CD0F2"/>
<path d="M4.02633 1.87235C4.95595 0.898461 6.59381 1.3854 7.74477 1.11979C8.89573 0.80992 8.49732 0.057364 9.51548 1.25259C9.95816 1.73954 10.3566 2.27075 10.755 2.80196C12.57 5.23668 11.8617 7.273 12.747 9.97333C13.5439 12.5851 12.8356 12.0097 10.7107 12.3638C8.8515 12.6294 7.39065 15.0198 5.44287 15.6396C4.51325 15.9052 3.53936 16.1708 2.56548 16.1265C1.50305 16.038 2.25562 14.4001 1.59161 13.7361C0.750522 12.895 3.58365 11.0357 2.6983 9.66345C2.38843 9.08797 1.37024 7.09594 2.38839 6.609C2.87534 6.38766 3.98202 6.83032 3.76068 5.7679C3.62788 5.05962 2.47692 4.83827 2.21131 3.90865C1.90144 2.80196 3.22947 2.6249 3.98202 1.87235H4.02633ZM4.02633 1.87235C3.71646 2.18222 4.55754 1.34114 4.02633 1.87235Z" stroke="#56AEE4" stroke-miterlimit="10"/>
</svg>
