<svg width="344" height="211" viewBox="0 0 344 211" fill="none" xmlns="http://www.w3.org/2000/svg">
<path d="M128.935 85.5213C129.954 82.8652 126.147 82.2455 124.42 81.3601C121.897 80.0764 121.056 77.199 119.772 74.8528C118.134 71.9754 115.522 70.2489 113.265 67.947C112.689 67.3715 112.689 66.3534 112.158 65.9107C111.273 65.1582 109.635 65.2467 108.616 65.6451C107.598 66.0435 107.82 67.2387 106.757 67.8142C105.739 68.3897 104.234 69.5406 103.216 68.434C102.109 67.1502 101.135 66.0435 99.8073 64.9368C98.8334 64.14 98.9219 62.4136 97.8595 61.8823C97.4168 61.661 91.6177 63.2989 91.6177 62.1922V11.6828C91.6177 10.6204 91.8833 10.6646 90.7766 10.4433C89.0945 10.0892 87.5451 9.2038 85.9515 8.67259C84.0922 8.09711 82.7199 8.40698 80.8607 8.67259C77.7619 9.071 75.3715 7.52163 72.3613 7.6987C68.4215 7.92004 65.367 5.39678 61.4271 5.44105C59.745 5.44105 58.0628 5.66239 56.4692 6.0608C54.9641 6.41494 55.274 5.97226 54.0787 5.39678C53.8131 5.26398 52.795 5.52959 52.7064 5.08691C52.5736 4.51143 52.7507 4.15728 52.3965 3.5818C51.6883 2.51938 49.2536 3.1834 48.2797 3.36047C47.3501 3.53754 45.3137 4.20155 44.9596 2.82926C44.4727 1.05855 43.7644 2.51939 42.7905 3.22767C42.1265 3.71461 39.6917 3.3162 40.7984 2.65219C42.3035 1.72257 41.9937 1.23562 40.3115 0.748676C37.1685 -0.136678 35.7519 3.5818 32.6532 3.80314C31.1038 3.93595 29.4659 3.40474 28.0051 3.98022C26.1015 4.73277 29.156 5.48532 28.0936 6.50347C27.2083 7.38883 26.8983 5.70665 26.0573 5.92799C24.862 6.23787 24.1538 7.07895 22.7372 7.16749C21.8518 7.21176 20.7452 6.90188 19.9926 7.38883C18.7531 8.18565 17.7792 9.38087 16.7611 10.399C16.2298 10.9302 16.584 11.9484 16.3184 12.6124C15.6986 13.9404 14.5477 14.7815 13.1754 15.2242C12.2458 15.4898 6.31391 15.4013 6.22538 16.1981C6.13684 16.8178 5.56135 18.1901 6.04829 18.6771C7.15499 19.7838 9.01421 19.828 10.3422 20.4035C11.7145 20.979 12.777 22.13 13.6181 23.2809C14.105 23.9449 14.6805 25.8042 15.3888 26.2026C16.6725 26.9551 21.6748 24.8746 21.542 27.1765C21.4534 28.6373 21.7633 29.3013 23.4012 29.2571C24.198 29.2571 26.8098 30.1867 24.8621 30.2752C23.1356 30.3638 22.1617 30.4523 20.7451 31.4704C19.1958 32.5771 19.2843 31.4704 17.8235 31.2934C16.8939 31.1606 14.6362 32.0017 13.928 31.4704C13.0869 30.8507 15.1674 29.3013 14.0165 28.6816C12.113 27.6634 8.83714 29.5669 8.35019 31.3819C8.17312 32.0902 6.18109 31.2491 5.42854 31.6918C4.23331 32.4443 1.53301 32.9313 0.868998 34.3036C0.249251 35.6759 6.26961 36.0743 6.13681 36.517C6.04827 36.8268 4.67601 37.3581 4.89735 37.7122C5.34002 38.3762 6.93363 39.9256 7.68618 40.324C10.2094 41.652 13.0869 39.5714 15.5216 40.4568C17.071 41.0323 17.3366 41.1208 18.6203 40.0141C19.727 39.0845 21.2764 37.9778 22.8258 38.1106C26.4114 38.4647 22.5159 40.4125 22.9143 40.8995C23.7996 41.8291 24.5964 43.5555 23.8439 44.795C22.4273 47.0527 20.0369 44.7065 18.8417 45.7689C17.9563 46.5657 18.4432 48.2922 16.8939 48.6906C15.7872 49.0004 14.769 47.6282 13.7951 47.3183C10.5193 46.3444 12.9541 50.9482 10.8735 51.2138C8.43876 51.5237 8.61584 53.9584 6.40246 54.6667C4.49895 55.2865 10.1652 58.2967 10.2095 58.4737C10.5636 59.182 9.7225 59.9788 9.41263 60.5986C8.96995 61.3954 10.3423 61.5282 10.8292 61.9266C12.8655 63.5645 13.3968 66.3091 16.3627 65.0696C17.248 64.7155 18.576 64.8925 18.8859 63.8301C19.1515 62.989 19.3286 62.9005 19.9484 63.6973C21.7191 65.955 20.4353 67.3273 20.6124 69.8063C20.7452 71.3999 23.0914 71.3999 24.1095 70.2932C25.4376 68.8766 27.3853 68.6996 28.8904 70.3817C32.5204 74.3658 29.9528 68.0798 32.2105 68.9652C32.9188 69.2308 32.3433 70.3375 33.6713 70.3817C34.1583 70.3817 37.4341 69.3193 37.4341 69.4521C37.4784 70.4703 35.7076 71.6655 35.442 72.7722C35.2207 73.7461 35.8405 75.6496 35.2207 76.4907C34.6452 77.2432 33.5828 77.9515 32.9188 78.7926C31.8563 80.1206 30.484 80.1206 29.156 81.006C27.7837 81.8913 25.8359 85.0786 24.198 84.8573C23.1356 84.7245 21.9847 84.3703 20.878 84.5474C19.727 84.7687 18.9745 86.6722 18.1776 87.5133C15.6544 89.9923 19.9926 88.3102 21.0108 87.3805C21.3207 87.1149 21.4092 86.4066 21.6748 86.1853C22.1175 85.8312 22.6487 86.8493 23.0914 86.8936C24.685 87.0707 25.5703 85.2114 27.2968 85.3885C28.8019 85.5656 32.299 84.2375 32.6974 82.7324C33.2286 80.7404 36.9472 79.4566 38.7179 78.8369C39.6475 78.527 39.4704 77.0219 40.3557 76.9776C42.1707 76.8448 43.3659 74.897 44.871 74.1002C46.0663 73.5247 47.0402 74.0117 47.2172 72.3738C47.3943 70.7359 49.5191 71.2228 49.5191 69.4964C49.5191 67.7699 44.5612 69.098 48.2797 66.3534C49.2093 65.6451 50.4045 65.8664 51.2456 64.9811C51.8211 64.4056 51.644 63.7859 51.9982 63.1218C52.4408 62.325 53.459 61.9266 54.0787 61.2626C54.5657 60.7314 54.7427 59.8903 55.2739 59.4476C55.7166 59.0492 56.4692 59.0935 56.9561 58.6951C57.3545 58.3852 58.9482 56.4817 59.3908 57.4113C59.8778 58.4737 61.8698 57.5884 62.0912 58.8279C62.3568 60.1116 59.3023 58.8279 58.6826 59.0492C57.3103 59.5804 53.7688 65.291 56.1593 65.5566C58.0185 65.7779 54.5657 67.1502 54.4329 67.3273C53.9902 67.8142 55.274 68.0798 55.3625 68.1241C56.4249 68.3454 57.3103 68.0355 58.2399 67.5043C60.0991 66.4419 61.7813 64.7155 63.9061 64.14C64.5701 63.9629 68.2886 64.6712 67.846 63.6973C67.4475 62.812 67.9345 63.0333 68.0673 62.4136C68.0673 62.1479 66.8721 61.3954 66.695 61.1741C66.2523 60.5986 65.9424 59.8018 66.7835 59.5804C67.4918 59.3591 67.4476 58.1639 68.2444 58.2524C69.0855 58.3409 69.4396 59.0049 70.3249 58.9164C71.5202 58.7836 71.3874 59.5804 72.14 60.1559C72.6269 60.5101 73.2909 59.8903 73.8664 59.9788C74.4418 60.1116 75.4158 60.9085 74.3533 61.1298C73.7336 61.2626 72.4055 61.1298 72.2727 62.0151C72.1399 62.6792 72.8482 62.989 73.3352 62.5906C74.0877 61.9266 75.1059 61.2183 76.0355 62.0594C77.4963 63.3874 77.4963 61.1298 78.5588 61.4839C79.0457 61.6167 78.7358 62.8562 79.8425 63.1218C81.2148 63.476 82.6757 63.7416 84.0922 63.7416C85.2875 63.7416 89.7142 62.7234 90.5553 63.6973C92.0604 65.468 93.654 66.0435 95.5575 64.4056C96.133 63.8744 97.1954 63.5645 97.5053 64.7155C97.8152 65.955 94.7607 66.3977 97.2397 67.1502C99.6744 67.8585 101.401 68.8766 103.127 70.6473C103.88 71.3999 107.2 74.233 107.023 71.6655C106.89 69.762 108.395 71.2671 109.546 71.6655C109.856 71.754 111.361 73.3477 111.45 72.5066C111.582 71.3999 110.122 69.3193 110.653 68.3897C110.874 67.9913 112.069 69.6735 112.158 69.8063C112.955 71.0015 112.822 72.905 112.379 74.233C112.025 75.2955 110.343 74.8528 109.945 74.056C109.546 73.2591 109.148 72.9935 108.13 73.6133C105.606 75.0741 110.83 77.4646 111.007 78.2614C111.095 78.7041 111.007 79.2353 111.184 79.6779C111.361 80.0764 111.937 80.1649 112.158 80.6076C112.468 81.1831 113.22 82.7767 113.353 81.006C113.442 79.6337 112.733 78.7483 112.424 77.5531C112.025 76.0923 113.707 75.3397 113.663 76.8005C113.619 78.2614 113.663 78.9254 115.035 77.7744C116.496 76.4907 115.788 76.3136 115.611 74.5872C115.389 72.5066 117.514 75.8709 117.691 76.4021C118.09 77.7744 116.585 77.6859 116.585 78.7041C116.585 79.7222 114.637 79.0139 114.504 80.342C114.504 80.7846 114.371 83.0423 115.08 83.1308C115.611 83.1751 115.832 81.8913 116.098 81.6257C116.098 81.6257 116.806 82.4225 117.514 81.7143C118.665 80.6518 118.532 81.8028 119.329 82.6439C119.816 83.1308 122.605 84.3261 121.41 82.821C120.923 82.2012 118.311 81.7585 119.683 80.4305C120.613 79.5452 121.897 81.4929 122.251 82.1127C123.313 83.9276 122.251 84.0605 121.056 85.2999C120.347 86.0968 119.152 84.2818 118.577 83.9719C117.16 83.2636 118.09 85.4328 118.267 85.8312C118.931 87.1592 117.736 88.1774 118.267 89.3283C119.108 91.2318 119.595 89.284 119.816 88.6643C120.259 87.4691 121.985 90.7449 122.339 88.5758C122.561 87.292 123.048 86.4509 124.154 88.0888C124.641 88.8414 125.04 87.1592 125.704 87.2477C126.988 87.4691 125.438 89.5939 126.102 89.8595C126.943 90.2137 127.253 88.8856 127.386 90.2137C127.961 89.8153 130.263 88.6643 130.175 87.8232C130.086 86.9379 128.581 86.5394 128.98 85.5213C128.493 86.805 129.467 84.2375 128.98 85.5213H128.935Z" fill="#9CD0F2"/>
<path d="M128.98 85.5213C128.581 86.5394 130.086 86.9379 130.175 87.8232C130.263 88.6643 127.961 89.8153 127.386 90.2137C127.253 88.8856 126.943 90.2137 126.102 89.8595C125.438 89.5939 126.988 87.4691 125.704 87.2477C125.04 87.1592 124.641 88.8414 124.154 88.0888C123.048 86.4509 122.561 87.292 122.339 88.5758C121.985 90.7449 120.259 87.4691 119.816 88.6643C119.595 89.284 119.108 91.2318 118.267 89.3283C117.736 88.1774 118.931 87.1592 118.267 85.8312C118.09 85.4328 117.16 83.2636 118.577 83.9719C119.152 84.2818 120.347 86.0968 121.056 85.2999C122.251 84.0605 123.313 83.9276 122.251 82.1127C121.897 81.4929 120.613 79.5451 119.683 80.4305C118.311 81.7585 120.923 82.2012 121.41 82.821C122.605 84.3261 119.816 83.1308 119.329 82.6439C118.532 81.8028 118.665 80.6518 117.514 81.7143C116.806 82.4225 116.098 81.6257 116.098 81.6257C115.832 81.8913 115.611 83.1751 115.08 83.1308C114.371 83.0423 114.504 80.7846 114.504 80.342C114.637 79.0139 116.585 79.7222 116.585 78.7041C116.585 77.6859 118.09 77.7744 117.691 76.4021C117.514 75.8709 115.389 72.5066 115.611 74.5872C115.788 76.3136 116.496 76.4907 115.035 77.7744C113.663 78.9254 113.619 78.2614 113.663 76.8005C113.707 75.3397 112.025 76.0923 112.424 77.5531C112.733 78.7483 113.442 79.6337 113.353 81.006C113.22 82.7767 112.468 81.1831 112.158 80.6076C111.937 80.1649 111.361 80.0764 111.184 79.6779C111.007 79.2353 111.095 78.7041 111.007 78.2614C110.83 77.4646 105.606 75.0741 108.13 73.6133C109.148 72.9935 109.546 73.2591 109.945 74.056C110.343 74.8528 112.025 75.2955 112.379 74.233C112.822 72.905 112.955 71.0015 112.158 69.8063C112.069 69.6735 110.874 67.9913 110.653 68.3897C110.122 69.3193 111.582 71.3999 111.45 72.5066C111.361 73.3477 109.856 71.754 109.546 71.6655C108.395 71.2671 106.89 69.762 107.023 71.6655C107.2 74.233 103.88 71.3999 103.127 70.6473C101.401 68.8766 99.6744 67.8585 97.2397 67.1502C94.7607 66.3976 97.8152 65.955 97.5053 64.7155C97.1954 63.5645 96.133 63.8744 95.5575 64.4056C93.654 66.0435 92.0604 65.468 90.5553 63.6973C89.7142 62.7234 85.2875 63.7416 84.0922 63.7416C82.6757 63.7416 81.2148 63.476 79.8425 63.1218C78.7358 62.8562 79.0457 61.6167 78.5588 61.4839C77.4963 61.1298 77.4963 63.3874 76.0355 62.0594C75.1059 61.2183 74.0877 61.9266 73.3352 62.5906C72.8482 62.989 72.1399 62.6792 72.2727 62.0151C72.4055 61.1298 73.7336 61.2626 74.3533 61.1298C75.4158 60.9085 74.4418 60.1116 73.8664 59.9788C73.2909 59.8903 72.6269 60.5101 72.14 60.1559C71.3874 59.5804 71.5202 58.7836 70.3249 58.9164C69.4396 59.0049 69.0855 58.3409 68.2444 58.2524C67.4476 58.1639 67.4918 59.3591 66.7835 59.5804C65.9424 59.8018 66.2523 60.5986 66.695 61.1741C66.8721 61.3954 68.0673 62.1479 68.0673 62.4136C67.9345 63.0333 67.4476 62.812 67.846 63.6973C68.2886 64.6712 64.5701 63.9629 63.9061 64.14C61.7813 64.7155 60.0991 66.4419 58.2399 67.5043C57.3103 68.0355 56.4249 68.3454 55.3625 68.1241C55.274 68.0798 53.9902 67.8142 54.4329 67.3273C54.5657 67.1502 58.0185 65.7779 56.1593 65.5566C53.7688 65.291 57.3103 59.5804 58.6826 59.0492C59.3023 58.8279 62.3568 60.1116 62.0912 58.8279C61.8698 57.5884 59.8778 58.4737 59.3908 57.4113C58.9482 56.4817 57.3545 58.3852 56.9561 58.6951C56.4692 59.0935 55.7166 59.0492 55.2739 59.4476C54.7427 59.8903 54.5657 60.7314 54.0787 61.2626C53.459 61.9266 52.4408 62.325 51.9982 63.1218C51.644 63.7859 51.8211 64.4056 51.2456 64.9811C50.4045 65.8664 49.2093 65.6451 48.2797 66.3534C44.5612 69.098 49.5191 67.7699 49.5191 69.4964C49.5191 71.2228 47.3943 70.7359 47.2172 72.3738C47.0402 74.0117 46.0663 73.5248 44.871 74.1002C43.3659 74.897 42.1707 76.8448 40.3557 76.9776C39.4704 77.0219 39.6475 78.527 38.7179 78.8369C36.9472 79.4566 33.2286 80.7404 32.6974 82.7324C32.299 84.2375 28.8019 85.5656 27.2968 85.3885C25.5703 85.2114 24.685 87.0707 23.0914 86.8936C22.6487 86.8493 22.1175 85.8312 21.6748 86.1853C21.4092 86.4066 21.3207 87.1149 21.0108 87.3805C19.9926 88.3102 15.6544 89.9923 18.1776 87.5133C18.9745 86.6722 19.727 84.7687 20.878 84.5474C21.9847 84.3703 23.1356 84.7245 24.198 84.8573C25.8359 85.0786 27.7837 81.8913 29.156 81.006C30.484 80.1206 31.8563 80.1206 32.9188 78.7926C33.5828 77.9515 34.6452 77.2432 35.2207 76.4907C35.8405 75.6496 35.2207 73.7461 35.442 72.7722C35.7077 71.6655 37.4784 70.4703 37.4341 69.4521C37.4341 69.3193 34.1583 70.3817 33.6713 70.3817C32.3433 70.3375 32.9188 69.2308 32.2105 68.9652C29.9528 68.0798 32.5204 74.3658 28.8904 70.3817C27.3853 68.6996 25.4376 68.8766 24.1095 70.2932C23.0914 71.3999 20.7452 71.3999 20.6124 69.8063C20.4353 67.3273 21.7191 65.955 19.9484 63.6973C19.3286 62.9005 19.1515 62.989 18.8859 63.8301C18.576 64.8925 17.248 64.7155 16.3627 65.0696C13.3968 66.3091 12.8655 63.5645 10.8292 61.9266C10.3423 61.5282 8.96995 61.3954 9.41263 60.5986C9.7225 59.9788 10.5636 59.182 10.2095 58.4737C10.1652 58.2967 4.49895 55.2865 6.40246 54.6667C8.61584 53.9584 8.43876 51.5237 10.8735 51.2138C12.9541 50.9482 10.5193 46.3444 13.7951 47.3183C14.769 47.6282 15.7872 49.0004 16.8939 48.6906C18.4432 48.2922 17.9563 46.5657 18.8417 45.7689C20.0369 44.7065 22.4273 47.0527 23.8439 44.795C24.5964 43.5555 23.7996 41.8291 22.9143 40.8995C22.5159 40.4125 26.4114 38.4647 22.8258 38.1106C21.2764 37.9778 19.727 39.0845 18.6203 40.0141C17.3366 41.1208 17.071 41.0323 15.5216 40.4568C13.0869 39.5714 10.2094 41.652 7.68618 40.324C6.93363 39.9256 5.34002 38.3762 4.89735 37.7122C4.67601 37.358 6.04827 36.8268 6.13681 36.517C6.26961 36.0743 0.249251 35.6759 0.868998 34.3036C1.53301 32.9313 4.23331 32.4443 5.42854 31.6918C6.18109 31.2491 8.17312 32.0902 8.35019 31.3819C8.83714 29.5669 12.113 27.6634 14.0165 28.6816C15.1674 29.3013 13.0869 30.8507 13.928 31.4704C14.6362 32.0017 16.8939 31.1606 17.8235 31.2934C19.2843 31.4704 19.1958 32.5771 20.7451 31.4704C22.1617 30.4523 23.1356 30.3638 24.8621 30.2752C26.8098 30.1867 24.198 29.2571 23.4012 29.2571C21.7633 29.3013 21.4534 28.6373 21.542 27.1765C21.6748 24.8746 16.6725 26.9551 15.3888 26.2026C14.6805 25.8042 14.105 23.9449 13.6181 23.2809C12.777 22.13 11.7145 20.979 10.3422 20.4035C9.01421 19.828 7.15499 19.7838 6.04829 18.6771C5.56135 18.1901 6.13684 16.8178 6.22538 16.1981C6.31391 15.4013 12.2458 15.4898 13.1754 15.2242C14.5477 14.7815 15.6986 13.9404 16.3184 12.6124C16.584 11.9484 16.2298 10.9302 16.7611 10.399C17.7792 9.38087 18.7531 8.18565 19.9926 7.38883C20.7452 6.90188 21.8518 7.21176 22.7372 7.16749C24.1538 7.07895 24.862 6.23787 26.0573 5.92799C26.8983 5.70665 27.2083 7.38883 28.0936 6.50347C29.156 5.48532 26.1015 4.73277 28.0051 3.98022C29.4659 3.40474 31.1038 3.93595 32.6532 3.80314C35.7519 3.5818 37.1685 -0.136678 40.3115 0.748676C41.9937 1.23562 42.3035 1.72257 40.7984 2.65219C39.6917 3.3162 42.1265 3.71461 42.7905 3.22767C43.7644 2.51939 44.4727 1.05855 44.9596 2.82926C45.3137 4.20155 47.3501 3.53754 48.2797 3.36047C49.2536 3.1834 51.6883 2.51938 52.3965 3.5818C52.7507 4.15728 52.5736 4.51143 52.7064 5.08691C52.795 5.52959 53.8131 5.26398 54.0787 5.39678C55.274 5.97226 54.9641 6.41494 56.4692 6.0608C58.0628 5.66239 59.745 5.44105 61.4271 5.44105C65.367 5.39678 68.4215 7.92004 72.3613 7.6987C75.3715 7.52163 77.7619 9.071 80.8607 8.67259C82.7199 8.40698 84.0922 8.09711 85.9515 8.67259C87.5451 9.2038 89.0945 10.0892 90.7766 10.4433C91.8833 10.6646 91.6177 10.6204 91.6177 11.6828V62.1922C91.6177 63.2989 97.4168 61.661 97.8595 61.8823C98.9219 62.4136 98.8334 64.14 99.8073 64.9368C101.135 66.0435 102.109 67.1502 103.216 68.434C104.234 69.5407 105.739 68.3897 106.757 67.8142C107.82 67.2387 107.598 66.0435 108.616 65.6451C109.635 65.2467 111.273 65.1582 112.158 65.9107C112.689 66.3534 112.689 67.3715 113.265 67.947C115.522 70.2489 118.134 71.9754 119.772 74.8528C121.056 77.199 121.897 80.0764 124.42 81.3601C126.147 82.2455 129.954 82.8652 128.935 85.5213H128.98ZM128.98 85.5213C128.493 86.805 129.467 84.2375 128.98 85.5213Z" stroke="#56AEE4" stroke-miterlimit="10"/>
<path d="M340.047 123.547C340.047 123.149 335.31 121.998 334.912 122.131C333.185 122.618 332.123 125.716 331.592 127.177C330.308 130.719 328.272 132.578 324.642 132.622C322.605 132.622 320.569 132.622 318.533 132.666C317.382 132.666 315.788 132.357 314.77 133.021C313.619 133.729 312.601 134.658 311.627 135.544C310.653 136.385 311.848 136.695 311.051 137.669C309.148 139.971 304.544 139.439 301.932 139.794C302.862 142.937 294.274 146.744 291.795 147.319C289.98 147.762 285.952 147.319 286.793 144.486C287.058 143.645 287.899 143.379 288.652 143.822C289.626 144.397 289.36 144.973 290.6 144.087C289.139 142.671 290.865 137.846 288.785 137.137C287.501 136.695 286.571 137.979 285.509 138.333C284.535 138.687 286.306 135.411 286.439 135.19C288.165 132.135 283.738 127.266 281.569 130.453C281.171 131.029 281.171 131.693 280.507 132.047C279.799 132.489 278.913 132.445 278.293 132.976C277.098 133.994 276.877 136.651 276.788 138.067C276.7 139.838 277.718 141.874 276.877 143.512C276.346 144.53 274.442 146.389 273.158 145.77C269.794 144.176 272.76 137.137 273.335 134.791C273.601 133.596 272.317 133.375 272.539 132.844C273.026 131.56 274.663 130.542 275.77 129.878C277.629 128.815 279.666 128.638 281.746 128.461C282.499 128.372 283.251 128.328 284.004 128.195C284.801 128.018 284.712 127.487 285.288 127.266C284.314 126.513 283.871 125.849 282.986 126.469C282.233 127 281.968 126.248 281.481 125.761C279.71 123.946 276.921 126.203 274.973 126.513C273.999 126.646 272.981 126.248 272.45 125.362C271.786 124.344 271.609 124.698 270.635 124.123C269.75 123.636 271.875 121.245 269.794 122.396C267.846 123.503 265.987 125.407 263.729 125.849C262.667 126.071 262.401 125.451 261.472 125.052C260.409 124.61 259.391 125.451 258.373 125.052C256.425 124.388 259.125 122.485 259.789 122.042C261.737 120.847 264.659 121.024 266.297 119.696C265.057 119.253 263.685 118.634 262.357 118.678C260.985 118.722 260.542 120.271 259.081 119.032C258.063 118.147 256.646 118.412 255.805 117.438C254.389 115.756 253.105 117.881 251.511 117.128C249.519 116.199 249.697 116.022 248.9 114.251C248.28 112.879 247.439 113.897 247.35 114.782C247.262 115.358 247.218 115.225 246.686 115.225C241.33 115.225 235.929 115.269 230.573 115.314C211.316 115.402 192.016 115.535 172.759 115.623C166.65 115.623 160.586 115.668 154.477 115.712C155.141 116.686 156.779 123.105 154.344 123.105C151.909 123.105 153.99 121.555 154.255 120.98C154.919 119.43 152.75 119.43 152.795 118.058C151.068 118.545 149.209 118.235 147.482 118.058C148.014 119.342 148.014 120.714 148.722 121.998C149.209 122.883 149.873 125.495 150.758 125.938C152.883 127.044 150.36 126.735 150.183 127.266C149.784 128.638 149.961 130.674 149.873 132.135C149.696 135.101 149.873 137.802 148.81 140.59C148.058 142.671 148.81 143.423 149.519 145.283C150.404 147.629 149.12 149.577 149.519 151.834C149.829 153.428 150.537 154.667 150.67 156.35C150.802 157.988 152.219 158.519 153.104 159.803C154.034 161.175 155.274 161.662 155.539 163.3C155.76 164.761 157.708 164.539 157.443 166.221C156.867 169.586 161.604 169.984 161.825 173.083C161.958 174.721 162.799 174.057 164.171 174.632C165.898 175.296 167.049 176.491 168.997 176.536C171.343 176.536 173.113 182.512 173.468 182.468C175.592 182.202 177.717 181.892 179.842 181.626C181.79 181.361 182.542 182.556 184.357 183.264C186.615 184.15 189.005 184.814 191.263 185.611C194.672 186.85 198.036 186.407 201.666 186.407C202.02 186.407 202.817 186.54 203.171 186.407C203.614 186.186 203.879 184.991 204.366 184.991C205.34 184.991 208.97 184.415 209.634 185.035C210.697 186.098 211.803 187.16 212.954 188.09C213.53 188.577 214.15 188.842 214.681 189.418C215.566 190.392 215.301 191.277 215.876 192.339C216.54 193.534 219.196 194.818 220.436 195.172C221.321 195.438 221.808 191.985 223.313 192.074C225.128 192.162 227.43 193.003 228.669 194.376C230.219 196.102 230.44 198.492 232.521 200.042C233.804 200.971 232.786 204.159 234.557 204.734C236.283 205.31 238.895 205.929 240.4 206.859C240.489 205.442 238.762 204.292 238.939 203.185C239.072 202.344 240.223 202.167 240.268 201.193C240.312 199.998 239.559 199.688 240.843 198.935C241.463 198.581 242.702 198.05 242.702 197.209C242.702 195.881 244.473 196.589 245.225 196.412C246.067 196.191 246.819 195.571 247.35 194.951C247.704 194.553 247.97 193.048 248.236 192.915C248.988 192.605 249.962 193.446 250.626 192.738C251.467 191.808 251.157 191.454 252.574 191.985C253.725 192.428 253.149 191.233 254.079 191.41C255.141 191.631 255.451 192.87 256.691 192.959C257.842 193.048 257.488 191.985 258.152 191.852C259.214 191.587 260.144 193.756 261.118 194.021C261.826 194.243 262.888 194.199 263.641 194.11C264.482 194.021 264.216 192.782 264.526 192.738C265.013 192.649 266.385 194.553 266.872 194.818C268.909 195.836 267.315 193.8 266.651 193.269C266.341 193.048 265.721 190.923 265.943 190.701C267.182 189.506 269.041 190.126 270.502 190.082C271.255 190.082 271.919 187.957 272.494 189.639C272.981 191.011 273.557 190.569 274.973 190.17C276.478 189.772 277.851 189.506 279.179 190.569C280.33 191.454 280.595 194.066 282.543 192.384C284.535 190.657 285.243 190.746 286.97 192.738C288.077 194.021 289.936 195.217 289.316 197.076C288.873 198.404 289.272 199.511 289.582 200.883C289.803 201.768 290.556 202.034 290.998 202.742C291.441 203.495 291.22 204.292 291.352 205.088C291.485 205.929 293.3 206.682 293.787 207.612C294.318 208.586 294.407 209.471 295.735 209.692C297.019 209.914 297.284 207.567 297.683 206.682C298.435 205.133 298.214 203.805 297.816 202.167C296.31 196.058 291.264 190.48 295.292 184.238C296.045 183.087 296.974 181.582 298.258 181.007C298.834 180.741 299.675 180.741 300.162 180.298C300.604 179.9 300.737 179.015 301.136 178.528C302.242 177.111 302.995 177.333 304.544 177.067C305.252 176.934 305.164 176.359 305.474 175.827C305.961 174.942 307.023 174.367 307.953 174.101C309.325 173.658 310.564 173.703 309.458 172.109C308.528 170.737 309.237 170.25 310.387 170.825C311.583 171.401 312.911 170.382 313.619 169.453C314.593 168.125 310.786 168.656 311.671 167.726C312.424 166.93 312.999 166.133 311.538 165.336C311.184 165.159 309.945 165.203 310.078 164.583C310.166 163.964 311.051 163.698 311.051 163.078C311.051 161.618 308.573 161.44 308.395 160.334C308.307 159.67 310.343 159.67 310.432 158.474C310.476 157.456 310.122 156.04 310.564 155.11C310.653 154.889 311.494 154.092 311.804 154.667C311.981 155.022 311.184 155.996 311.096 156.305C310.476 158.032 312.247 158.961 312.424 160.599C312.424 160.909 311.937 163.964 312.601 163.344C313.708 162.282 314.416 160.334 314.681 158.873C314.947 157.412 314.062 157.501 313.796 156.35C313.398 154.446 314.726 156.217 315.257 156.438C316.364 156.837 317.913 154.181 318.311 153.472C318.665 152.808 318.533 150.683 318.666 150.639C319.861 150.064 321.72 150.329 323.048 149.975C324.907 149.488 326.501 148.16 323.579 148.603C322.96 148.691 318.444 149.267 321.056 148.116C322.296 147.585 323.756 147.319 325.084 147.142C325.483 147.142 327.652 145.681 327.076 145.46C328.36 145.947 328.582 146.876 330.131 145.902C331.902 144.84 329.201 143.645 328.891 143.114C328.626 142.627 330.042 142.228 329.688 141.564C329.201 140.679 330.308 139.085 330.883 138.51C332.477 136.916 334.381 136.828 335.753 134.924C336.771 133.508 337.391 134.304 338.719 134.747C340.268 135.323 341.818 133.286 343.013 132.534C340.622 129.346 340.534 126.823 340.18 123.149C340.091 122.131 340.268 124.079 340.18 123.149L340.047 123.547Z" fill="#9CD0F2"/>
<path d="M340.18 123.149C340.534 126.823 340.622 129.346 343.013 132.534C341.818 133.286 340.268 135.323 338.719 134.747C337.391 134.304 336.771 133.508 335.753 134.924C334.381 136.828 332.477 136.916 330.883 138.51C330.308 139.085 329.201 140.679 329.688 141.564C330.042 142.228 328.626 142.627 328.891 143.114C329.201 143.645 331.902 144.84 330.131 145.902C328.582 146.876 328.36 145.947 327.076 145.46C327.652 145.681 325.483 147.142 325.084 147.142C323.756 147.319 322.296 147.585 321.056 148.116C318.444 149.267 322.96 148.691 323.579 148.603C326.501 148.16 324.907 149.488 323.048 149.975C321.72 150.329 319.861 150.064 318.666 150.639C318.533 150.683 318.665 152.808 318.311 153.472C317.913 154.181 316.364 156.837 315.257 156.438C314.726 156.217 313.398 154.446 313.796 156.35C314.062 157.501 314.947 157.412 314.681 158.873C314.416 160.334 313.708 162.282 312.601 163.344C311.937 163.964 312.424 160.909 312.424 160.599C312.247 158.961 310.476 158.032 311.096 156.305C311.184 155.996 311.981 155.022 311.804 154.667C311.494 154.092 310.653 154.889 310.565 155.11C310.122 156.04 310.476 157.456 310.432 158.474C310.343 159.67 308.307 159.67 308.395 160.334C308.573 161.44 311.051 161.618 311.051 163.078C311.051 163.698 310.166 163.964 310.078 164.583C309.945 165.203 311.184 165.159 311.538 165.336C312.999 166.133 312.424 166.93 311.671 167.726C310.786 168.656 314.593 168.125 313.619 169.453C312.911 170.382 311.583 171.401 310.387 170.825C309.237 170.25 308.528 170.737 309.458 172.109C310.565 173.703 309.325 173.658 307.953 174.101C307.023 174.367 305.961 174.942 305.474 175.827C305.164 176.359 305.252 176.934 304.544 177.067C302.995 177.333 302.242 177.111 301.136 178.528C300.737 179.015 300.604 179.9 300.162 180.298C299.675 180.741 298.834 180.741 298.258 181.007C296.974 181.582 296.045 183.087 295.292 184.238C291.264 190.48 296.31 196.058 297.816 202.167C298.214 203.805 298.435 205.133 297.683 206.682C297.284 207.567 297.019 209.914 295.735 209.692C294.407 209.471 294.318 208.586 293.787 207.612C293.3 206.682 291.485 205.929 291.352 205.088C291.22 204.292 291.441 203.495 290.998 202.742C290.556 202.034 289.803 201.768 289.582 200.883C289.272 199.511 288.873 198.404 289.316 197.076C289.936 195.217 288.077 194.021 286.97 192.738C285.243 190.746 284.535 190.657 282.543 192.384C280.595 194.066 280.33 191.454 279.179 190.569C277.851 189.506 276.478 189.772 274.973 190.17C273.557 190.569 272.981 191.011 272.494 189.639C271.919 187.957 271.255 190.082 270.502 190.082C269.041 190.126 267.182 189.506 265.943 190.701C265.721 190.923 266.341 193.048 266.651 193.269C267.315 193.8 268.909 195.836 266.872 194.818C266.385 194.553 265.013 192.649 264.526 192.738C264.216 192.782 264.482 194.021 263.641 194.11C262.888 194.199 261.826 194.243 261.118 194.021C260.144 193.756 259.214 191.587 258.152 191.852C257.488 191.985 257.842 193.048 256.691 192.959C255.451 192.87 255.141 191.631 254.079 191.41C253.149 191.233 253.725 192.428 252.574 191.985C251.157 191.454 251.467 191.808 250.626 192.738C249.962 193.446 248.988 192.605 248.236 192.915C247.97 193.048 247.704 194.553 247.35 194.951C246.819 195.571 246.067 196.191 245.225 196.412C244.473 196.589 242.702 195.881 242.702 197.209C242.702 198.05 241.463 198.581 240.843 198.935C239.559 199.688 240.312 199.998 240.268 201.193C240.223 202.167 239.072 202.344 238.939 203.185C238.762 204.292 240.489 205.442 240.4 206.859C238.895 205.929 236.283 205.31 234.557 204.734C232.786 204.159 233.804 200.971 232.521 200.042C230.44 198.492 230.219 196.102 228.669 194.376C227.43 193.003 225.128 192.162 223.313 192.074C221.808 191.985 221.321 195.438 220.436 195.172C219.196 194.818 216.54 193.534 215.876 192.339C215.301 191.277 215.566 190.391 214.681 189.418C214.15 188.842 213.53 188.577 212.954 188.09C211.803 187.16 210.697 186.098 209.634 185.035C208.97 184.415 205.34 184.991 204.366 184.991C203.879 184.991 203.614 186.186 203.171 186.407C202.817 186.54 202.02 186.407 201.666 186.407C198.036 186.407 194.672 186.85 191.263 185.611C189.005 184.814 186.615 184.15 184.357 183.264C182.542 182.556 181.79 181.361 179.842 181.626C177.717 181.892 175.592 182.202 173.468 182.468C173.113 182.512 171.343 176.536 168.997 176.536C167.049 176.491 165.898 175.296 164.171 174.632C162.799 174.057 161.958 174.721 161.825 173.083C161.604 169.984 156.867 169.586 157.443 166.221C157.708 164.539 155.76 164.761 155.539 163.3C155.274 161.662 154.034 161.175 153.104 159.803C152.219 158.519 150.802 157.988 150.67 156.35C150.537 154.667 149.829 153.428 149.519 151.834C149.12 149.577 150.404 147.629 149.519 145.283C148.81 143.423 148.058 142.671 148.81 140.59C149.873 137.802 149.696 135.101 149.873 132.135C149.961 130.674 149.784 128.638 150.183 127.266C150.36 126.735 152.883 127.044 150.758 125.938C149.873 125.495 149.209 122.883 148.722 121.998C148.014 120.714 148.014 119.342 147.482 118.058C149.209 118.235 151.068 118.545 152.795 118.058C152.75 119.43 154.919 119.43 154.255 120.98C153.99 121.555 151.909 123.105 154.344 123.105C156.779 123.105 155.141 116.686 154.477 115.712C160.586 115.668 166.65 115.623 172.759 115.623C192.016 115.535 211.316 115.402 230.573 115.314C235.929 115.269 241.33 115.225 246.686 115.225C247.218 115.225 247.262 115.358 247.35 114.782C247.439 113.897 248.28 112.879 248.9 114.251C249.697 116.022 249.519 116.199 251.511 117.128C253.105 117.881 254.389 115.756 255.805 117.438C256.646 118.412 258.063 118.147 259.081 119.032C260.542 120.271 260.985 118.722 262.357 118.678C263.685 118.634 265.057 119.253 266.297 119.696C264.659 121.024 261.737 120.847 259.79 122.042C259.125 122.485 256.425 124.388 258.373 125.052C259.391 125.451 260.409 124.61 261.472 125.052C262.401 125.451 262.667 126.071 263.729 125.849C265.987 125.407 267.846 123.503 269.794 122.396C271.875 121.245 269.75 123.636 270.635 124.123C271.609 124.698 271.786 124.344 272.45 125.362C272.981 126.248 273.999 126.646 274.973 126.513C276.921 126.203 279.71 123.946 281.481 125.761C281.968 126.248 282.233 127 282.986 126.469C283.871 125.849 284.314 126.513 285.288 127.266C284.712 127.487 284.801 128.018 284.004 128.195C283.251 128.328 282.499 128.372 281.746 128.461C279.666 128.638 277.629 128.815 275.77 129.878C274.663 130.542 273.026 131.56 272.539 132.844C272.317 133.375 273.601 133.596 273.335 134.791C272.76 137.137 269.794 144.176 273.158 145.77C274.442 146.389 276.346 144.53 276.877 143.512C277.718 141.874 276.7 139.838 276.788 138.067C276.877 136.651 277.098 133.994 278.293 132.976C278.913 132.445 279.799 132.489 280.507 132.047C281.171 131.693 281.171 131.029 281.569 130.453C283.738 127.266 288.165 132.135 286.439 135.19C286.306 135.411 284.535 138.687 285.509 138.333C286.571 137.979 287.501 136.695 288.785 137.137C290.865 137.846 289.139 142.671 290.6 144.087C289.36 144.973 289.626 144.397 288.652 143.822C287.899 143.379 287.058 143.645 286.793 144.486C285.952 147.319 289.98 147.762 291.795 147.319C294.274 146.744 302.862 142.937 301.932 139.794C304.544 139.439 309.148 139.971 311.051 137.669C311.848 136.695 310.653 136.385 311.627 135.544C312.601 134.658 313.619 133.729 314.77 133.021C315.788 132.357 317.382 132.666 318.533 132.666C320.569 132.622 322.605 132.622 324.642 132.622C328.272 132.578 330.308 130.719 331.592 127.177C332.123 125.716 333.185 122.618 334.912 122.131C335.31 121.998 340.047 123.149 340.047 123.547L340.18 123.149ZM340.18 123.149C340.091 122.131 340.268 124.079 340.18 123.149Z" stroke="#56AEE4" stroke-miterlimit="10"/>
</svg>
