<svg width="12" height="9" viewBox="0 0 12 9" fill="none" xmlns="http://www.w3.org/2000/svg">
<path d="M10.365 1.17939C10.0994 1.00232 9.78949 0.913796 9.47962 0.869529C8.63853 0.780993 6.86776 0.603923 5.31839 0.869529C3.76902 1.13513 2.92795 1.75487 2.35248 2.46315C1.29005 3.61411 -0.65777 5.38483 1.42281 6.97846C3.50339 8.5721 1.59992 7.11128 1.68846 7.15554C2.79515 7.77529 3.59195 8.04089 5.53973 6.40299C6.60215 5.47337 7.17765 4.4552 7.6646 4.01252C8.15154 3.56985 8.63853 3.43705 8.8156 3.43705C9.92229 3.34851 12.7111 2.72877 10.4092 1.26794L10.365 1.17939Z" fill="#9CD0F2" stroke="#56AEE4" stroke-miterlimit="10"/>
</svg>
