<svg width="36" height="52" viewBox="0 0 36 52" fill="none" xmlns="http://www.w3.org/2000/svg">
<path d="M7.56439 27.9401C6.4577 26.8777 5.04113 28.1615 3.93444 28.5156C3.40323 28.6927 1.76532 30.9946 1.45545 31.8357C1.18984 32.6325 3.66883 33.6507 3.75737 32.9424C4.15578 30.4191 5.79368 32.544 6.81184 33.3408C7.07745 32.4997 8.80388 32.3226 9.42363 31.7029C10.6189 30.5077 8.27267 28.6484 7.52012 27.8959C6.28063 26.7006 8.89242 29.2239 7.52012 27.8959L7.56439 27.9401ZM34.8333 40.2908C34.8775 39.3169 33.7266 38.6972 32.9298 38.4758C31.5575 38.0332 31.8231 38.6972 30.8049 39.0513C29.2556 39.6711 29.654 37.2806 29.7425 36.7051C29.7425 36.5281 28.5473 35.0672 28.503 34.4032C28.4145 33.4736 27.9275 32.4554 27.3963 31.7029C26.7323 30.7733 25.6256 30.7733 24.9173 29.9322C24.209 29.1354 24.032 27.9844 23.8106 27.0105C23.4565 25.3283 22.3498 25.9038 21.4644 24.7971C20.6676 23.779 19.4724 24.2217 18.41 24.3102C17.3475 24.3987 19.4281 22.2296 19.6052 22.1411C21.0218 21.2115 22.217 17.8914 22.217 16.2535C22.217 14.6156 17.8345 15.6337 17.259 15.678C16.5065 15.7665 15.3555 16.3863 14.7358 15.678C14.116 14.9697 16.2851 13.8187 16.6835 13.2875C17.3033 12.5793 17.3475 11.7382 17.8788 10.9856C18.4542 10.1445 17.5246 9.43625 16.9934 10.4987C15.5768 13.3318 11.7256 9.65759 10.7959 13.2433C10.5303 14.2614 10.7074 14.7484 9.82204 15.4567C9.20229 15.9879 9.3351 17.4487 8.84815 17.6258C7.82999 17.9799 7.65293 15.678 6.28063 16.7404C5.0854 17.7143 8.18414 18.6882 8.71535 18.7325C9.73351 18.8653 5.88222 21.5213 8.2284 22.2739C11.3271 23.2478 6.4577 24.1331 6.4577 25.107C6.4577 26.0809 8.18414 24.6643 8.40547 24.5315C9.4679 23.8232 9.02522 24.9742 9.20229 25.6825C9.86631 28.4714 12.2568 23.6904 12.1682 23.6462C12.3453 23.6462 12.5666 26.258 12.5224 26.5678C12.4338 27.5417 11.1058 28.4271 11.2386 29.401C11.4157 30.7733 15.5326 29.5338 16.0638 28.9583C17.0819 27.8959 17.746 29.0911 16.9491 29.9765C15.8424 31.216 17.0819 31.8357 18.1001 32.2784C18.9855 32.6768 18.1001 34.0491 18.1444 34.8459C18.1444 36.3953 17.923 36.8822 16.2851 36.8822C15.3998 36.8822 15.0456 36.3953 14.3816 36.2625C13.3192 36.0411 13.6291 37.5462 13.1864 38.0774C11.5042 40.0695 16.8606 40.0695 13.0536 42.0173C12.6109 42.2386 10.0434 42.7255 10.7959 43.6552C11.5927 44.5848 12.2125 43.965 13.0978 43.8765C13.452 43.8765 14.9571 44.4963 15.3998 44.6291C16.0638 44.8061 16.6835 45.2045 17.3918 45.1603C17.8345 45.1603 18.8526 44.5848 19.2511 44.8061C19.738 45.116 17.923 46.1342 17.7902 46.1784C16.6835 46.3998 15.4883 45.8243 14.5144 46.5326C13.0536 47.5507 11.3714 49.1001 10.5746 50.6937C9.51217 52.8186 13.4077 49.8084 14.2488 50.1183C14.9571 50.3839 15.6211 51.2249 16.1523 50.2068C16.7278 49.1444 16.9491 49.41 17.9673 49.0558C19.1625 48.6574 20.3577 49.1886 21.553 48.5246C22.5711 47.9049 22.881 48.2147 23.9434 48.7017C24.9616 49.1444 28.4587 48.259 29.6097 47.9491C30.8049 47.595 35.5416 44.9389 31.7788 45.5144C30.0966 45.78 32.2658 43.301 32.5756 43.0354C33.461 42.3271 34.7005 41.5746 34.789 40.2908C34.7005 41.7959 34.8775 38.7857 34.789 40.2908H34.8333ZM4.90833 15.2796C6.23636 15.2353 7.78573 12.9334 7.16598 12.2694C6.50197 11.6054 3.93444 15.2796 4.90833 15.2796ZM24.1648 4.47827C25.0059 3.63719 26.024 0.405648 24.696 0.759789C23.4122 1.11393 23.7664 4.87668 24.1648 4.47827Z" fill="#9CD0F2"/>
<path d="M7.52012 27.8959C8.27267 28.6484 10.6189 30.5077 9.42363 31.7029C8.80388 32.3226 7.07744 32.4997 6.81184 33.3408C5.79368 32.544 4.15578 30.4191 3.75737 32.9424C3.66883 33.6507 1.18984 32.6325 1.45545 31.8357C1.76532 30.9946 3.40323 28.6927 3.93444 28.5156C5.04113 28.1615 6.4577 26.8777 7.56439 27.9401L7.52012 27.8959ZM7.52012 27.8959C6.28063 26.7006 8.89242 29.2239 7.52012 27.8959ZM34.789 40.2908C34.7005 41.5746 33.461 42.3271 32.5756 43.0354C32.2658 43.301 30.0966 45.78 31.7788 45.5144C35.5416 44.9389 30.8049 47.595 29.6097 47.9491C28.4587 48.259 24.9616 49.1444 23.9434 48.7017C22.881 48.2147 22.5711 47.9049 21.553 48.5246C20.3578 49.1886 19.1625 48.6574 17.9673 49.0558C16.9491 49.41 16.7278 49.1444 16.1523 50.2068C15.6211 51.2249 14.9571 50.3839 14.2488 50.1183C13.4077 49.8084 9.51217 52.8186 10.5746 50.6937C11.3714 49.1001 13.0536 47.5507 14.5144 46.5326C15.4883 45.8243 16.6835 46.3998 17.7902 46.1784C17.923 46.1342 19.738 45.116 19.2511 44.8061C18.8526 44.5848 17.8345 45.1603 17.3918 45.1603C16.6835 45.2045 16.0638 44.8061 15.3998 44.6291C14.9571 44.4963 13.452 43.8765 13.0978 43.8765C12.2125 43.965 11.5927 44.5848 10.7959 43.6552C10.0434 42.7255 12.6109 42.2386 13.0536 42.0173C16.8606 40.0695 11.5042 40.0695 13.1864 38.0774C13.6291 37.5462 13.3192 36.0411 14.3816 36.2625C15.0456 36.3953 15.3998 36.8822 16.2851 36.8822C17.923 36.8822 18.1444 36.3953 18.1444 34.8459C18.1001 34.0491 18.9855 32.6768 18.1001 32.2784C17.0819 31.8357 15.8424 31.216 16.9491 29.9765C17.746 29.0911 17.0819 27.8959 16.0638 28.9583C15.5326 29.5338 11.4157 30.7733 11.2386 29.401C11.1058 28.4271 12.4338 27.5417 12.5224 26.5678C12.5666 26.258 12.3453 23.6462 12.1682 23.6462C12.2568 23.6904 9.86631 28.4714 9.20229 25.6825C9.02522 24.9742 9.4679 23.8232 8.40547 24.5315C8.18414 24.6643 6.4577 26.0809 6.4577 25.107C6.4577 24.1331 11.3271 23.2478 8.2284 22.2739C5.88222 21.5213 9.73351 18.8653 8.71535 18.7325C8.18414 18.6882 5.0854 17.7143 6.28063 16.7404C7.65293 15.678 7.82999 17.9799 8.84815 17.6258C9.3351 17.4487 9.20229 15.9879 9.82204 15.4567C10.7074 14.7484 10.5303 14.2614 10.7959 13.2433C11.7256 9.65758 15.5768 13.3318 16.9934 10.4987C17.5246 9.43625 18.4542 10.1445 17.8788 10.9856C17.3475 11.7382 17.3033 12.5793 16.6835 13.2875C16.2851 13.8187 14.116 14.9697 14.7358 15.678C15.3555 16.3863 16.5065 15.7665 17.259 15.678C17.8345 15.6337 22.217 14.6156 22.217 16.2535C22.217 17.8914 21.0218 21.2115 19.6052 22.1411C19.4281 22.2296 17.3475 24.3987 18.41 24.3102C19.4724 24.2217 20.6676 23.779 21.4644 24.7971C22.3498 25.9038 23.4565 25.3283 23.8106 27.0105C24.032 27.9844 24.209 29.1354 24.9173 29.9322C25.6256 30.7733 26.7323 30.7733 27.3963 31.7029C27.9275 32.4554 28.4145 33.4736 28.503 34.4032C28.5473 35.0672 29.7425 36.5281 29.7425 36.7051C29.654 37.2806 29.2556 39.6711 30.8049 39.0513C31.8231 38.6972 31.5575 38.0332 32.9298 38.4758C33.7266 38.6972 34.8775 39.3169 34.8333 40.2908H34.789ZM34.789 40.2908C34.7005 41.7959 34.8775 38.7857 34.789 40.2908ZM4.90833 15.2796C6.23636 15.2353 7.78573 12.9334 7.16598 12.2694C6.50197 11.6054 3.93444 15.2796 4.90833 15.2796ZM24.1648 4.47827C25.0059 3.63719 26.024 0.405648 24.696 0.759789C23.4122 1.11393 23.7664 4.87668 24.1648 4.47827Z" stroke="#56AEE4" stroke-miterlimit="10"/>
</svg>
