<svg width="27" height="54" viewBox="0 0 27 54" fill="none" xmlns="http://www.w3.org/2000/svg">
<path d="M19.8939 7.44349C18.4773 7.22216 16.2197 5.6728 16.7951 4.1677C17.2821 2.88394 15.5114 2.97247 14.7146 2.75113C14.0948 2.57406 13.0324 1.33458 12.5455 1.37884C11.6601 1.46738 10.5977 2.44126 10.1993 3.19381C9.97793 3.59222 7.67601 3.76928 7.23333 3.76928C6.79065 3.72501 6.34796 3.59223 5.94956 3.37089C5.10847 3.10528 5.28554 3.76928 4.62153 3.90208C4.04605 4.03488 3.51485 3.54796 2.98364 3.59223C2.45243 3.63649 2.054 4.34476 1.61133 4.56609C3.07216 6.204 4.35594 10.5865 6.87919 10.498C7.85308 10.498 9.40245 9.16995 9.66805 11.0292C9.80085 11.826 11.5716 13.7738 10.155 14.2165C5.86102 15.5445 10.4206 16.2528 11.7044 18.0235C13.4751 20.5025 14.7588 23.8668 17.0608 25.9917C18.5216 27.3197 19.8054 27.5853 19.8054 29.8872C19.8054 32.1891 19.4069 33.65 20.3366 35.5535C21.1334 37.2799 21.4433 37.9882 19.7168 39.1834C18.6101 39.9802 18.3888 40.7771 17.592 41.8395C16.9722 42.6363 14.449 41.751 14.4047 42.3707C14.4047 43.2561 15.8655 44.3185 15.4671 45.1596C15.113 45.9121 12.9438 45.0268 12.3684 44.9382C11.483 44.8054 10.4206 46.3548 9.53525 46.7975C10.7305 48.3911 11.6158 47.5943 10.4649 49.4978C9.84512 50.5159 10.7305 53.7032 11.7486 52.1981C13.1209 50.2061 15.8655 49.6749 16.3082 47.3287C16.6181 45.7351 18.2117 46.6204 19.3627 46.3105C21.0891 45.8236 23.1697 44.5398 24.4535 43.2561C26.9767 40.7771 25.87 35.7748 25.1617 32.7646C24.7191 30.8168 23.878 27.7624 22.063 26.6999C19.9824 25.4604 18.3445 23.9111 16.5738 22.2289C14.8916 20.591 12.5455 15.8986 14.626 13.7738C15.0687 13.3311 15.5999 13.0655 15.9983 12.6671C16.6623 12.0916 16.2197 11.2505 16.6181 10.5422C17.0165 9.78968 17.8576 10.011 18.4773 9.74542C19.4512 9.34701 19.7611 8.32886 20.6022 7.93045C20.4251 7.66485 20.2038 7.48777 19.8939 7.39924C18.9643 7.26643 20.0709 7.39924 19.8939 7.39924V7.44349Z" fill="#9CD0F2"/>
<path d="M19.8939 7.39924C20.2038 7.48777 20.4251 7.66485 20.6022 7.93045C19.7611 8.32886 19.4512 9.34701 18.4773 9.74542C17.8576 10.011 17.0165 9.78968 16.6181 10.5422C16.2197 11.2505 16.6623 12.0916 15.9983 12.6671C15.5999 13.0655 15.0687 13.3311 14.626 13.7738C12.5455 15.8986 14.8916 20.591 16.5738 22.2289C18.3445 23.9111 19.9824 25.4604 22.063 26.6999C23.878 27.7624 24.7191 30.8168 25.1617 32.7646C25.87 35.7748 26.9767 40.7771 24.4535 43.2561C23.1697 44.5398 21.0891 45.8236 19.3627 46.3105C18.2117 46.6204 16.6181 45.7351 16.3082 47.3287C15.8655 49.6749 13.1209 50.2061 11.7486 52.1981C10.7305 53.7032 9.84512 50.5159 10.4649 49.4978C11.6158 47.5943 10.7305 48.3911 9.53525 46.7975C10.4206 46.3548 11.483 44.8054 12.3684 44.9382C12.9438 45.0268 15.113 45.9121 15.4671 45.1596C15.8655 44.3185 14.4047 43.2561 14.4047 42.3707C14.449 41.751 16.9722 42.6363 17.592 41.8395C18.3888 40.7771 18.6101 39.9802 19.7168 39.1834C21.4433 37.9882 21.1334 37.2799 20.3366 35.5535C19.4069 33.65 19.8054 32.1891 19.8054 29.8872C19.8054 27.5853 18.5216 27.3197 17.0608 25.9917C14.7588 23.8668 13.4751 20.5025 11.7044 18.0235C10.4206 16.2528 5.86102 15.5445 10.155 14.2165C11.5716 13.7738 9.80086 11.826 9.66805 11.0292C9.40245 9.16995 7.85308 10.498 6.87919 10.498C4.35594 10.5865 3.07216 6.204 1.61133 4.56609C2.054 4.34476 2.45243 3.63649 2.98364 3.59223C3.51485 3.54796 4.04605 4.03488 4.62153 3.90208C5.28554 3.76928 5.10847 3.10528 5.94956 3.37089C6.34796 3.59223 6.79065 3.72501 7.23333 3.76928C7.67601 3.76928 9.97793 3.59222 10.1993 3.19381C10.5977 2.44126 11.6601 1.46738 12.5455 1.37884C13.0324 1.33458 14.0948 2.57406 14.7146 2.75113C15.5114 2.97247 17.2821 2.88394 16.7951 4.1677C16.2197 5.6728 18.4773 7.22216 19.8939 7.44349V7.39924ZM19.8939 7.39924C18.9643 7.26643 20.0709 7.39924 19.8939 7.39924Z" stroke="#56AEE4" stroke-miterlimit="10"/>
</svg>
