<svg width="1175" height="563" viewBox="0 0 1175 563" fill="none" xmlns="http://www.w3.org/2000/svg">
<rect width="440" height="58" rx="10" fill="#A9DBFF"/>
<rect x="460" width="382" height="58" rx="10" fill="#9EE9DC"/>
<rect x="862" width="313" height="58" rx="10" fill="#CCCCCC"/>
<path d="M189.898 19.818V20.808C189.898 21.6293 190.184 22.4287 190.756 23.206C191.328 23.9833 192.134 24.658 193.176 25.23C194.217 25.7873 195.405 26.1613 196.74 26.352L195.794 28.266C194.166 28.0167 192.721 27.5107 191.46 26.748C190.213 25.9853 189.267 25.0467 188.622 23.932C187.991 25.0467 187.052 25.9853 185.806 26.748C184.559 27.5107 183.107 28.0167 181.45 28.266L180.504 26.352C181.838 26.1613 183.026 25.7873 184.068 25.23C185.109 24.6727 185.916 24.0053 186.488 23.228C187.06 22.4507 187.346 21.644 187.346 20.808V19.818H189.898ZM197.466 29.982V31.962H189.766V38.782H187.346V31.962H179.756V29.982H197.466ZM206.552 34.382V29.872H208.972V34.382H216.716V36.362H198.984V34.382H206.552ZM209.038 20.346V21.798C209.038 22.7807 209.339 23.734 209.94 24.658C210.542 25.582 211.378 26.374 212.448 27.034C213.519 27.6793 214.714 28.112 216.034 28.332L215 30.378C213.358 30.0553 211.898 29.4467 210.622 28.552C209.361 27.6427 208.408 26.55 207.762 25.274C207.117 26.55 206.149 27.6427 204.858 28.552C203.582 29.4467 202.13 30.0553 200.502 30.378L199.512 28.332C200.832 28.112 202.02 27.672 203.076 27.012C204.147 26.352 204.983 25.56 205.584 24.636C206.186 23.712 206.486 22.766 206.486 21.798V20.346H209.038ZM229.333 20.368V22.766C229.333 23.8953 229.648 24.944 230.279 25.912C230.924 26.8653 231.863 27.584 233.095 28.068L231.819 29.894C230.983 29.5567 230.257 29.0947 229.641 28.508C229.04 27.9213 228.563 27.232 228.211 26.44C227.83 27.364 227.316 28.178 226.671 28.882C226.026 29.5713 225.256 30.1067 224.361 30.488L223.085 28.618C224.346 28.0607 225.314 27.2467 225.989 26.176C226.664 25.0907 227.001 23.954 227.001 22.766V20.368H229.333ZM239.871 19.202V31.214H237.561V26.11H235.669V30.598H233.403V19.576H235.669V24.152H237.561V19.202H239.871ZM233.293 31.544C235.346 31.544 236.967 31.8667 238.155 32.512C239.358 33.1573 239.959 34.0373 239.959 35.152C239.959 36.2813 239.358 37.1613 238.155 37.792C236.967 38.4373 235.346 38.76 233.293 38.76C231.24 38.76 229.619 38.4373 228.431 37.792C227.243 37.1613 226.649 36.2813 226.649 35.152C226.649 34.0373 227.243 33.1573 228.431 32.512C229.634 31.8667 231.254 31.544 233.293 31.544ZM233.293 33.392C231.944 33.392 230.895 33.546 230.147 33.854C229.414 34.1473 229.047 34.58 229.047 35.152C229.047 35.724 229.414 36.164 230.147 36.472C230.895 36.78 231.944 36.934 233.293 36.934C234.642 36.934 235.684 36.78 236.417 36.472C237.165 36.164 237.539 35.724 237.539 35.152C237.539 34.58 237.172 34.1473 236.439 33.854C235.706 33.546 234.657 33.392 233.293 33.392ZM249.486 20.368V22.634C249.486 23.9687 249.882 25.186 250.674 26.286C251.48 27.386 252.624 28.1853 254.106 28.684L252.874 30.576C251.818 30.224 250.901 29.696 250.124 28.992C249.361 28.2733 248.76 27.43 248.32 26.462C247.894 27.518 247.278 28.442 246.472 29.234C245.68 30.0113 244.719 30.598 243.59 30.994L242.292 29.102C243.832 28.574 245.012 27.7233 245.834 26.55C246.655 25.3767 247.066 24.064 247.066 22.612V20.368H249.486ZM257.824 19.18V24.988H260.552V26.99H257.824V33.546H255.404V19.18H257.824ZM247.836 32.182V36.45H258.594V38.386H245.416V32.182H247.836Z" fill="#222222"/>
<path d="M620.898 19.818V20.808C620.898 21.6293 621.184 22.4287 621.756 23.206C622.328 23.9833 623.134 24.658 624.176 25.23C625.217 25.7873 626.405 26.1613 627.74 26.352L626.794 28.266C625.166 28.0167 623.721 27.5107 622.46 26.748C621.213 25.9853 620.267 25.0467 619.622 23.932C618.991 25.0467 618.052 25.9853 616.806 26.748C615.559 27.5107 614.107 28.0167 612.45 28.266L611.504 26.352C612.838 26.1613 614.026 25.7873 615.068 25.23C616.109 24.6727 616.916 24.0053 617.488 23.228C618.06 22.4507 618.346 21.644 618.346 20.808V19.818H620.898ZM628.466 29.982V31.962H620.766V38.782H618.346V31.962H610.756V29.982H628.466ZM637.552 34.382V29.872H639.972V34.382H647.716V36.362H629.984V34.382H637.552ZM640.038 20.346V21.798C640.038 22.7807 640.339 23.734 640.94 24.658C641.542 25.582 642.378 26.374 643.448 27.034C644.519 27.6793 645.714 28.112 647.034 28.332L646 30.378C644.358 30.0553 642.898 29.4467 641.622 28.552C640.361 27.6427 639.408 26.55 638.762 25.274C638.117 26.55 637.149 27.6427 635.858 28.552C634.582 29.4467 633.13 30.0553 631.502 30.378L630.512 28.332C631.832 28.112 633.02 27.672 634.076 27.012C635.147 26.352 635.983 25.56 636.584 24.636C637.186 23.712 637.486 22.766 637.486 21.798V20.346H640.038ZM672.015 30.18V32.16H667.703V38.76H665.239V32.16H660.971V38.76H658.485V32.16H654.283V30.18H672.015ZM663.083 19.928C664.462 19.928 665.679 20.104 666.735 20.456C667.791 20.808 668.612 21.3067 669.199 21.952C669.786 22.5973 670.079 23.36 670.079 24.24C670.079 25.12 669.786 25.89 669.199 26.55C668.612 27.1953 667.791 27.694 666.735 28.046C665.679 28.398 664.462 28.574 663.083 28.574C661.704 28.574 660.487 28.398 659.431 28.046C658.39 27.694 657.576 27.1953 656.989 26.55C656.402 25.89 656.109 25.12 656.109 24.24C656.109 23.36 656.402 22.5973 656.989 21.952C657.576 21.3067 658.39 20.808 659.431 20.456C660.487 20.104 661.704 19.928 663.083 19.928ZM663.083 21.842C661.704 21.842 660.612 22.0547 659.805 22.48C658.998 22.9053 658.595 23.492 658.595 24.24C658.595 25.0027 658.998 25.5967 659.805 26.022C660.612 26.4327 661.704 26.638 663.083 26.638C664.476 26.638 665.576 26.4327 666.383 26.022C667.204 25.5967 667.615 25.0027 667.615 24.24C667.615 23.492 667.204 22.9053 666.383 22.48C665.562 22.0547 664.462 21.842 663.083 21.842ZM681.124 29.388V27.914H675.756V19.73H689.11V21.578H678.154V22.876H688.648V24.68H678.154V26.066H689.242V27.914H683.544V29.388H691.178V31.302H673.49V29.388H681.124ZM682.334 32.424C684.49 32.424 686.154 32.6953 687.328 33.238C688.501 33.766 689.088 34.5507 689.088 35.592C689.088 36.6187 688.501 37.4033 687.328 37.946C686.154 38.4887 684.49 38.76 682.334 38.76C680.163 38.76 678.491 38.4887 677.318 37.946C676.144 37.4033 675.558 36.6187 675.558 35.592C675.558 34.5507 676.144 33.766 677.318 33.238C678.491 32.6953 680.163 32.424 682.334 32.424ZM682.334 34.184C679.444 34.184 678 34.6533 678 35.592C678 36.516 679.444 36.978 682.334 36.978C685.223 36.978 686.668 36.516 686.668 35.592C686.668 34.6533 685.223 34.184 682.334 34.184Z" fill="#222222"/>
<path d="M983.398 19.818V20.808C983.398 21.6293 983.684 22.4287 984.256 23.206C984.828 23.9833 985.634 24.658 986.676 25.23C987.717 25.7873 988.905 26.1613 990.24 26.352L989.294 28.266C987.666 28.0167 986.221 27.5107 984.96 26.748C983.713 25.9853 982.767 25.0467 982.122 23.932C981.491 25.0467 980.552 25.9853 979.306 26.748C978.059 27.5107 976.607 28.0167 974.95 28.266L974.004 26.352C975.338 26.1613 976.526 25.7873 977.568 25.23C978.609 24.6727 979.416 24.0053 979.988 23.228C980.56 22.4507 980.846 21.644 980.846 20.808V19.818H983.398ZM990.966 29.982V31.962H983.266V38.782H980.846V31.962H973.256V29.982H990.966ZM1000.05 34.382V29.872H1002.47V34.382H1010.22V36.362H992.484V34.382H1000.05ZM1002.54 20.346V21.798C1002.54 22.7807 1002.84 23.734 1003.44 24.658C1004.04 25.582 1004.88 26.374 1005.95 27.034C1007.02 27.6793 1008.21 28.112 1009.53 28.332L1008.5 30.378C1006.86 30.0553 1005.4 29.4467 1004.12 28.552C1002.86 27.6427 1001.91 26.55 1001.26 25.274C1000.62 26.55 999.649 27.6427 998.358 28.552C997.082 29.4467 995.63 30.0553 994.002 30.378L993.012 28.332C994.332 28.112 995.52 27.672 996.576 27.012C997.647 26.352 998.483 25.56 999.084 24.636C999.686 23.712 999.986 22.766 999.986 21.798V20.346H1002.54ZM1032.16 19.18V23.954H1034.8V25.956H1032.16V30.708H1029.74V19.18H1032.16ZM1032.16 31.5V35.746H1021.62V36.978H1032.87V38.606H1019.23V34.228H1029.79V33.106H1019.2V31.5H1032.16ZM1016.59 28.75C1018.68 28.75 1020.32 28.7353 1021.49 28.706V27.694C1020.41 27.5767 1019.55 27.3053 1018.92 26.88C1018.3 26.44 1017.99 25.8753 1017.99 25.186C1017.99 24.394 1018.41 23.7707 1019.25 23.316C1020.1 22.8467 1021.23 22.612 1022.66 22.612C1024.11 22.612 1025.25 22.8393 1026.09 23.294C1026.94 23.7487 1027.37 24.3793 1027.37 25.186C1027.37 25.8753 1027.06 26.44 1026.44 26.88C1025.84 27.3053 1024.99 27.5767 1023.89 27.694V28.618C1025.69 28.53 1027.32 28.3907 1028.77 28.2L1028.95 29.674C1027.12 29.9967 1025.22 30.2093 1023.25 30.312C1021.3 30.4 1019.17 30.444 1016.85 30.444L1016.59 28.75ZM1021.49 20.5V19.004H1023.89V20.5H1028.25V22.15H1017.09V20.5H1021.49ZM1022.66 24.13C1021.91 24.13 1021.32 24.2253 1020.9 24.416C1020.49 24.592 1020.28 24.8487 1020.28 25.186C1020.28 25.5233 1020.49 25.7873 1020.9 25.978C1021.32 26.154 1021.91 26.242 1022.66 26.242C1023.42 26.242 1024.01 26.154 1024.44 25.978C1024.86 25.7873 1025.08 25.5233 1025.08 25.186C1025.08 24.8487 1024.86 24.592 1024.44 24.416C1024.01 24.2253 1023.42 24.13 1022.66 24.13ZM1040.13 28.64V26.132C1039.39 25.8093 1038.83 25.406 1038.43 24.922C1038.04 24.4233 1037.84 23.8587 1037.84 23.228C1037.84 22.0693 1038.47 21.16 1039.73 20.5C1040.99 19.84 1042.7 19.51 1044.86 19.51C1047.01 19.51 1048.72 19.84 1049.98 20.5C1051.24 21.16 1051.87 22.0693 1051.87 23.228C1051.87 23.8587 1051.67 24.4233 1051.26 24.922C1050.86 25.4207 1050.29 25.8313 1049.54 26.154V28.64H1053.7V30.532H1036.01V28.64H1040.13ZM1044.83 31.72C1046.95 31.72 1048.6 32.028 1049.78 32.644C1050.99 33.26 1051.59 34.1253 1051.59 35.24C1051.59 36.3693 1050.99 37.242 1049.78 37.858C1048.6 38.474 1046.95 38.782 1044.83 38.782C1042.71 38.782 1041.04 38.474 1039.84 37.858C1038.65 37.242 1038.06 36.3693 1038.06 35.24C1038.06 34.1253 1038.65 33.26 1039.84 32.644C1041.04 32.028 1042.71 31.72 1044.83 31.72ZM1044.83 33.568C1043.43 33.568 1042.35 33.7147 1041.6 34.008C1040.87 34.2867 1040.5 34.6973 1040.5 35.24C1040.5 35.7973 1040.87 36.2227 1041.6 36.516C1042.35 36.7947 1043.43 36.934 1044.83 36.934C1046.24 36.934 1047.31 36.7947 1048.05 36.516C1048.78 36.2227 1049.15 35.7973 1049.15 35.24C1049.15 34.6973 1048.78 34.2867 1048.05 34.008C1047.31 33.7147 1046.24 33.568 1044.83 33.568ZM1044.86 21.358C1043.42 21.358 1042.3 21.5193 1041.51 21.842C1040.72 22.1647 1040.32 22.6267 1040.32 23.228C1040.32 23.8293 1040.72 24.2913 1041.51 24.614C1042.3 24.9367 1043.42 25.098 1044.86 25.098C1046.28 25.098 1047.39 24.9367 1048.18 24.614C1048.97 24.2913 1049.37 23.8293 1049.37 23.228C1049.37 22.6267 1048.97 22.1647 1048.18 21.842C1047.39 21.5193 1046.28 21.358 1044.86 21.358ZM1047.14 28.64V26.77C1046.48 26.8727 1045.72 26.924 1044.86 26.924C1043.96 26.924 1043.18 26.8727 1042.52 26.77V28.64H1047.14Z" fill="#222222"/>
<line x1="190" y1="187" x2="583" y2="187" stroke="#3FA0E6" stroke-width="2"/>
<path d="M572 176L583 187L572 198" stroke="#3FA0E6" stroke-width="2"/>
<line x1="65" y1="442" x2="181" y2="442" stroke="#3FA0E6" stroke-width="2"/>
<line x1="86" y1="317" x2="86" y2="433" stroke="#3FA0E6" stroke-width="2"/>
<path d="M170 431L181 442L170 453" stroke="#3FA0E6" stroke-width="2"/>
<line x1="391" y1="442" x2="583" y2="442" stroke="#3CBCB6" stroke-width="2"/>
<path d="M572 431L583 442L572 453" stroke="#3CBCB6" stroke-width="2"/>
<line x1="793" y1="442" x2="985" y2="442" stroke="#3CBCB6" stroke-width="2"/>
<path d="M974 431L985 442L974 453" stroke="#3CBCB6" stroke-width="2"/>
<line x1="793" y1="187" x2="985" y2="187" stroke="#3FA0E6" stroke-width="2"/>
<path d="M974 176L985 187L974 198" stroke="#3FA0E6" stroke-width="2"/>
<circle cx="889" cy="188" r="47" fill="#3FA0E6"/>
<circle cx="387" cy="188" r="47" fill="#3FA0E6"/>
<path d="M487 442.001L455.18 410.181L487 378.361L518.82 410.181L487 442.001Z" fill="#3CBCB6"/>
<path d="M455.18 410.181C472.754 392.608 501.246 392.608 518.82 410.181C536.393 427.755 536.393 456.247 518.82 473.821C501.246 491.394 472.754 491.394 455.18 473.821C437.607 456.247 437.607 427.755 455.18 410.181Z" fill="#3CBCB6"/>
<path d="M889 442.001L857.18 410.181L889 378.361L920.82 410.181L889 442.001Z" fill="#3CBCB6"/>
<path d="M857.18 410.181C874.754 392.608 903.246 392.608 920.82 410.181C938.393 427.755 938.393 456.247 920.82 473.821C903.246 491.394 874.754 491.394 857.18 473.821C839.607 456.247 839.607 427.755 857.18 410.181Z" fill="#3CBCB6"/>
<circle cx="85" cy="442" r="47" fill="#3FA0E6"/>
<circle cx="286" cy="444" r="84.4218" fill="white" stroke="#DEDEDE" stroke-width="1.15646"/>
<path d="M264.015 402.083H284.26M256.623 419.192H291.654M256.623 431.23H291.654M254 439.138H318M288.257 439.135V418.719C288.257 412.271 283.013 407.028 276.566 407.028H271.752C265.305 407.028 260.061 412.271 260.061 418.719V439.135M280.608 402.906V407.548M267.713 402.906V407.548M297.884 432.859V439.134M312.885 432.859V439.134M274.114 401.57V399.335C274.114 397.229 275.833 395.51 277.94 395.51H301.451C303.557 395.51 305.276 397.229 305.276 399.335V412.745M316.795 424.135C316.795 430.425 311.695 435.525 305.404 435.525C299.114 435.525 294.014 430.425 294.014 424.135C294.014 417.844 299.114 412.744 305.404 412.744C311.695 412.744 316.795 417.844 316.795 424.135Z" stroke="#222222" stroke-width="2" stroke-miterlimit="10" stroke-linecap="round"/>
<path d="M259.373 461.91C260.069 461.91 260.693 462.078 261.245 462.414C261.809 462.738 262.247 463.194 262.559 463.782C262.871 464.37 263.027 465.036 263.027 465.78C263.027 466.524 262.871 467.19 262.559 467.778C262.247 468.366 261.809 468.822 261.245 469.146C260.693 469.47 260.069 469.632 259.373 469.632C258.677 469.632 258.047 469.47 257.483 469.146C256.931 468.822 256.499 468.366 256.187 467.778C255.875 467.19 255.719 466.524 255.719 465.78C255.719 465.036 255.875 464.37 256.187 463.782C256.499 463.194 256.931 462.738 257.483 462.414C258.047 462.078 258.677 461.91 259.373 461.91ZM259.373 463.584C258.821 463.584 258.371 463.782 258.023 464.178C257.687 464.574 257.519 465.108 257.519 465.78C257.519 466.44 257.693 466.974 258.041 467.382C258.389 467.778 258.833 467.976 259.373 467.976C259.925 467.976 260.375 467.778 260.723 467.382C261.071 466.974 261.245 466.44 261.245 465.78C261.245 465.12 261.071 464.592 260.723 464.196C260.375 463.788 259.925 463.584 259.373 463.584ZM269.219 460.938V470.478H267.347V466.518H265.817V470.406H263.963V461.226H265.817V464.898H267.347V460.938H269.219ZM269.219 471.27V476.958H267.257V472.854H258.311V471.27H269.219ZM283.962 460.938V467.544H286.158V469.2H283.962V476.958H281.982V460.938H283.962ZM271.2 472.512C272.928 472.512 274.278 472.5 275.25 472.476V470.964C274.374 470.82 273.678 470.49 273.162 469.974C272.646 469.458 272.388 468.822 272.388 468.066C272.388 467.478 272.55 466.956 272.874 466.5C273.198 466.044 273.648 465.696 274.224 465.456C274.812 465.204 275.484 465.078 276.24 465.078C276.996 465.078 277.662 465.204 278.238 465.456C278.826 465.696 279.282 466.044 279.606 466.5C279.942 466.956 280.11 467.478 280.11 468.066C280.11 468.822 279.846 469.458 279.318 469.974C278.802 470.49 278.106 470.82 277.23 470.964V472.386C278.442 472.338 279.732 472.224 281.1 472.044L281.262 473.466C279.762 473.754 278.244 473.94 276.708 474.024C275.184 474.096 273.438 474.132 271.47 474.132L271.2 472.512ZM275.25 462.756V460.992H277.23V462.756H280.974V464.322H271.488V462.756H275.25ZM276.24 466.572C275.64 466.572 275.16 466.704 274.8 466.968C274.44 467.232 274.26 467.598 274.26 468.066C274.26 468.534 274.44 468.9 274.8 469.164C275.16 469.428 275.64 469.56 276.24 469.56C276.852 469.56 277.338 469.428 277.698 469.164C278.058 468.9 278.238 468.534 278.238 468.066C278.238 467.598 278.058 467.232 277.698 466.968C277.338 466.704 276.852 466.572 276.24 466.572ZM295.41 461.442V462.252C295.41 462.924 295.644 463.578 296.112 464.214C296.58 464.85 297.24 465.402 298.092 465.87C298.944 466.326 299.916 466.632 301.008 466.788L300.234 468.354C298.902 468.15 297.72 467.736 296.688 467.112C295.668 466.488 294.894 465.72 294.366 464.808C293.85 465.72 293.082 466.488 292.062 467.112C291.042 467.736 289.854 468.15 288.498 468.354L287.724 466.788C288.816 466.632 289.788 466.326 290.64 465.87C291.492 465.414 292.152 464.868 292.62 464.232C293.088 463.596 293.322 462.936 293.322 462.252V461.442H295.41ZM301.602 469.758V471.378H295.302V476.958H293.322V471.378H287.112V469.758H301.602ZM309.036 473.358V469.668H311.016V473.358H317.352V474.978H302.844V473.358H309.036ZM311.07 461.874V463.062C311.07 463.866 311.316 464.646 311.808 465.402C312.3 466.158 312.984 466.806 313.86 467.346C314.736 467.874 315.714 468.228 316.794 468.408L315.948 470.082C314.604 469.818 313.41 469.32 312.366 468.588C311.334 467.844 310.554 466.95 310.026 465.906C309.498 466.95 308.706 467.844 307.65 468.588C306.606 469.32 305.418 469.818 304.086 470.082L303.276 468.408C304.356 468.228 305.328 467.868 306.192 467.328C307.068 466.788 307.752 466.14 308.244 465.384C308.736 464.628 308.982 463.854 308.982 463.062V461.874H311.07ZM276.653 483.406V484.882H274.475V487.312H276.563V488.806H264.899V487.312H266.987V484.882H264.791V483.406H276.653ZM277.985 489.814V491.38H263.513V489.814H277.985ZM276.185 492.46V496.276H267.167V497.356H276.635V498.814H265.241V494.926H274.241V493.9H265.187V492.46H276.185ZM272.513 487.312V484.882H268.967V487.312H272.513ZM292.836 482.92V494.818H290.946V489.166H289.344V494.458H287.49V483.208H289.344V487.564H290.946V482.92H292.836ZM284.16 493.738V497.05H293.268V498.634H282.18V493.738H284.16ZM285.96 484.27V489.094H281.82V490.984C282.828 490.972 283.698 490.942 284.43 490.894C285.162 490.834 285.912 490.732 286.68 490.588L286.842 492.154C285.942 492.322 285.06 492.436 284.196 492.496C283.332 492.556 282.264 492.586 280.992 492.586H279.93V487.636H284.034V485.818H279.894V484.27H285.96ZM307.758 484.162V485.746H298.74V487.708H307.398V489.256H298.74V491.308H307.902V492.892H296.742V484.162H307.758ZM309.486 495.412V497.014H294.978V495.412H309.486Z" fill="#222222"/>
<circle cx="85" cy="188" r="82.5" fill="white" stroke="#A9DBFF" stroke-width="5"/>
<path d="M55.0789 216.442V217.252C55.0789 217.924 55.3129 218.578 55.7809 219.214C56.2489 219.85 56.9089 220.402 57.7609 220.87C58.6129 221.326 59.5849 221.632 60.6769 221.788L59.9029 223.354C58.5709 223.15 57.3889 222.736 56.3569 222.112C55.3369 221.488 54.5629 220.72 54.0349 219.808C53.5189 220.72 52.7509 221.488 51.7309 222.112C50.7109 222.736 49.5229 223.15 48.1669 223.354L47.3929 221.788C48.4849 221.632 49.4569 221.326 50.3089 220.87C51.1609 220.414 51.8209 219.868 52.2889 219.232C52.7569 218.596 52.9909 217.936 52.9909 217.252V216.442H55.0789ZM61.2709 224.758V226.378H54.9709V231.958H52.9909V226.378H46.7809V224.758H61.2709ZM68.7054 228.358V224.668H70.6854V228.358H77.0214V229.978H62.5134V228.358H68.7054ZM70.7394 216.874V218.062C70.7394 218.866 70.9854 219.646 71.4774 220.402C71.9694 221.158 72.6534 221.806 73.5294 222.346C74.4054 222.874 75.3834 223.228 76.4634 223.408L75.6174 225.082C74.2734 224.818 73.0794 224.32 72.0354 223.588C71.0034 222.844 70.2234 221.95 69.6954 220.906C69.1674 221.95 68.3754 222.844 67.3194 223.588C66.2754 224.32 65.0874 224.818 63.7554 225.082L62.9454 223.408C64.0254 223.228 64.9974 222.868 65.8614 222.328C66.7374 221.788 67.4214 221.14 67.9134 220.384C68.4054 219.628 68.6514 218.854 68.6514 218.062V216.874H70.7394ZM91.3858 216.406V217.882H89.2078V220.312H91.2958V221.806H79.6318V220.312H81.7198V217.882H79.5238V216.406H91.3858ZM92.7178 222.814V224.38H78.2458V222.814H92.7178ZM90.9178 225.46V229.276H81.8998V230.356H91.3678V231.814H79.9738V227.926H88.9738V226.9H79.9198V225.46H90.9178ZM87.2458 220.312V217.882H83.6998V220.312H87.2458ZM107.568 215.92V227.818H105.678V222.166H104.076V227.458H102.222V216.208H104.076V220.564H105.678V215.92H107.568ZM98.8922 226.738V230.05H108V231.634H96.9122V226.738H98.8922ZM100.692 217.27V222.094H96.5522V223.984C97.5602 223.972 98.4302 223.942 99.1622 223.894C99.8942 223.834 100.644 223.732 101.412 223.588L101.574 225.154C100.674 225.322 99.7922 225.436 98.9282 225.496C98.0642 225.556 96.9962 225.586 95.7242 225.586H94.6622V220.636H98.7662V218.818H94.6262V217.27H100.692ZM122.491 217.162V218.746H113.473V220.708H122.131V222.256H113.473V224.308H122.635V225.892H111.475V217.162H122.491ZM124.219 228.412V230.014H109.711V228.412H124.219Z" fill="#222222"/>
<path d="M115 201C115.552 201 116 200.552 116 200C116 199.448 115.552 199 115 199V200V201ZM79.3119 199C78.7596 199 78.3119 199.448 78.3119 200C78.3119 200.552 78.7596 201 79.3119 201V200V199ZM66.2754 189.781C65.7231 189.781 65.2754 190.229 65.2754 190.781C65.2754 191.333 65.7231 191.781 66.2754 191.781V190.781V189.781ZM69.4956 191.781C70.0479 191.781 70.4956 191.333 70.4956 190.781C70.4956 190.229 70.0479 189.781 69.4956 189.781V190.781V191.781ZM66.3211 194.39C65.7688 194.39 65.3211 194.838 65.3211 195.39C65.3211 195.943 65.7688 196.39 66.3211 196.39V195.39V194.39ZM69.5413 196.39C70.0936 196.39 70.5413 195.943 70.5413 195.39C70.5413 194.838 70.0936 194.39 69.5413 194.39V195.39V196.39ZM59.8534 189.781C59.3011 189.781 58.8534 190.229 58.8534 190.781C58.8534 191.333 59.3011 191.781 59.8534 191.781V190.781V189.781ZM63.0736 191.781C63.6259 191.781 64.0736 191.333 64.0736 190.781C64.0736 190.229 63.6259 189.781 63.0736 189.781V190.781V191.781ZM59.8991 194.39C59.3468 194.39 58.8991 194.838 58.8991 195.39C58.8991 195.943 59.3468 196.39 59.8991 196.39V195.39V194.39ZM63.1193 196.39C63.6716 196.39 64.1193 195.943 64.1193 195.39C64.1193 194.838 63.6716 194.39 63.1193 194.39V195.39V196.39ZM72.6974 189.781C72.1451 189.781 71.6974 190.229 71.6974 190.781C71.6974 191.333 72.1451 191.781 72.6974 191.781V190.781V189.781ZM75.9176 191.781C76.4699 191.781 76.9176 191.333 76.9176 190.781C76.9176 190.229 76.4699 189.781 75.9176 189.781V190.781V191.781ZM72.7431 194.39C72.1908 194.39 71.7431 194.838 71.7431 195.39C71.7431 195.943 72.1908 196.39 72.7431 196.39V195.39V194.39ZM75.9633 196.39C76.5156 196.39 76.9633 195.943 76.9633 195.39C76.9633 194.838 76.5156 194.39 75.9633 194.39V195.39V196.39ZM57.7523 186.172C57.7523 186.724 58.2 187.172 58.7523 187.172C59.3046 187.172 59.7523 186.724 59.7523 186.172H58.7523H57.7523ZM70.5963 186.172C70.5963 186.724 71.044 187.172 71.5963 187.172C72.1486 187.172 72.5963 186.724 72.5963 186.172H71.5963H70.5963ZM64.1743 164.887C64.1743 165.439 64.622 165.887 65.1743 165.887C65.7266 165.887 66.1743 165.439 66.1743 164.887H65.1743H64.1743ZM107.294 170.003C107.294 170.555 107.741 171.003 108.294 171.003C108.846 171.003 109.294 170.555 109.294 170.003H108.294H107.294ZM98.0271 157.93C97.4748 157.93 97.0271 158.377 97.0271 158.93C97.0271 159.482 97.4748 159.93 98.0271 159.93V158.93V157.93ZM99.9537 168.148C99.9537 168.701 100.401 169.148 100.954 169.148C101.506 169.148 101.954 168.701 101.954 168.148H100.954H99.9537ZM58.7523 169.5C58.2 169.5 57.7523 169.948 57.7523 170.5C57.7523 171.052 58.2 171.5 58.7523 171.5V170.5V169.5ZM71.5963 171.5C72.1486 171.5 72.5963 171.052 72.5963 170.5C72.5963 169.948 72.1486 169.5 71.5963 169.5V170.5V171.5ZM92.6147 199.999C92.6147 200.552 93.0624 200.999 93.6147 200.999C94.167 200.999 94.6147 200.552 94.6147 199.999H93.6147H92.6147ZM107.294 199.999C107.294 200.552 107.741 200.999 108.294 200.999C108.846 200.999 109.294 200.552 109.294 199.999H108.294H107.294ZM76.6422 146.992V145.992C76.0899 145.992 75.6422 146.44 75.6422 146.992H76.6422ZM94.0734 146.992H95.0734C95.0734 146.44 94.6257 145.992 94.0734 145.992V146.992ZM94.0734 151.602V152.602C94.6257 152.602 95.0734 152.154 95.0734 151.602H94.0734ZM76.6422 151.602H75.6422C75.6422 152.154 76.0899 152.602 76.6422 152.602V151.602ZM92.8667 151.507C92.8146 150.957 92.3267 150.554 91.7768 150.606C91.227 150.658 90.8236 151.146 90.8757 151.696L91.8712 151.602L92.8667 151.507ZM92.6188 170.087C92.6709 170.637 93.1589 171.041 93.7087 170.988C94.2585 170.936 94.662 170.448 94.6099 169.899L93.6143 169.993L92.6188 170.087ZM78.2614 146.893C78.2067 147.443 78.6079 147.933 79.1575 147.987C79.7071 148.042 80.1969 147.641 80.2516 147.091L79.2565 146.992L78.2614 146.893ZM79.8529 141V140C79.3389 140 78.9087 140.39 78.8578 140.901L79.8529 141ZM90.862 141L91.8575 140.905C91.8083 140.392 91.3774 140 90.862 140V141ZM90.4079 146.746C90.4605 147.296 90.9489 147.699 91.4987 147.647C92.0484 147.594 92.4514 147.105 92.3988 146.556L91.4033 146.651L90.4079 146.746ZM74.4179 185.381C74.363 185.931 74.764 186.421 75.3136 186.476C75.8631 186.53 76.3531 186.129 76.408 185.58L75.413 185.481L74.4179 185.381ZM79.7934 151.692C79.8483 151.142 79.4473 150.652 78.8977 150.597C78.3482 150.543 77.8582 150.944 77.8033 151.493L78.7983 151.593L79.7934 151.692ZM115 200V199H56.5505V200V201H115V200ZM56.5505 200V199C56.8045 199 57 199.203 57 199.447H56H55C55 200.299 55.6909 201 56.5505 201V200ZM56 199.447H57V186.716H56H55V199.447H56ZM56 186.716H57C57 186.959 56.8045 187.163 56.5505 187.163V186.163V185.163C55.6909 185.163 55 185.864 55 186.716H56ZM56.5505 186.163V187.163H79.3119V186.163V185.163H56.5505V186.163ZM79.3119 186.163V187.163C79.0579 187.163 78.8624 186.959 78.8624 186.716H79.8624H80.8624C80.8624 185.864 80.1715 185.163 79.3119 185.163V186.163ZM79.8624 186.716H78.8624V199.447H79.8624H80.8624V186.716H79.8624ZM79.8624 199.447H78.8624C78.8624 199.203 79.0579 199 79.3119 199V200V201C80.1715 201 80.8624 200.299 80.8624 199.447H79.8624ZM79.3024 200V199H78.3024V200V201H79.3024V200ZM66.2754 190.781V191.781H69.4956V190.781V189.781H66.2754V190.781ZM66.3211 195.39V196.39H69.5413V195.39V194.39H66.3211V195.39ZM59.8534 190.781V191.781H63.0736V190.781V189.781H59.8534V190.781ZM59.8991 195.39V196.39H63.1193V195.39V194.39H59.8991V195.39ZM72.6974 190.781V191.781H75.9176V190.781V189.781H72.6974V190.781ZM72.7431 195.39V196.39H75.9633V195.39V194.39H72.7431V195.39ZM58.7523 186.172H59.7523V167.909H58.7523H57.7523V186.172H58.7523ZM58.7523 167.909H59.7523C59.7523 166.835 60.6211 165.969 61.6789 165.969V164.969V163.969C59.5074 163.969 57.7523 165.739 57.7523 167.909H58.7523ZM61.6789 164.969V165.969H68.6697V164.969V163.969H61.6789V164.969ZM68.6697 164.969V165.969C69.7276 165.969 70.5963 166.835 70.5963 167.909H71.5963H72.5963C72.5963 165.739 70.8412 163.969 68.6697 163.969V164.969ZM71.5963 167.909H70.5963V186.172H71.5963H72.5963V167.909H71.5963ZM65.1743 164.887H66.1743V161.881H65.1743H64.1743V164.887H65.1743ZM65.1743 161.881H66.1743C66.1743 160.806 67.0431 159.94 68.1009 159.94V158.94V157.94C65.9294 157.94 64.1743 159.711 64.1743 161.881H65.1743ZM68.1009 158.94V159.94H105.367V158.94V157.94H68.1009V158.94ZM105.367 158.94V159.94C106.425 159.94 107.294 160.806 107.294 161.881H108.294H109.294C109.294 159.711 107.538 157.94 105.367 157.94V158.94ZM108.294 161.881H107.294V170.003H108.294H109.294V161.881H108.294ZM98.0271 158.93V159.93C99.085 159.93 99.9537 160.796 99.9537 161.87H100.954H101.954C101.954 159.7 100.199 157.93 98.0271 157.93V158.93ZM100.954 161.87H99.9537V168.148H100.954H101.954V161.87H100.954ZM58.7523 170.5V171.5H71.5963V170.5V169.5H58.7523V170.5ZM93.6147 194.183L94.1507 193.339C90.5664 191.063 88.1927 187.052 88.1927 182.484H87.1927H86.1927C86.1927 187.762 88.9382 192.398 93.0787 195.027L93.6147 194.183ZM87.1927 182.484H88.1927C88.1927 175.399 93.9146 169.656 100.954 169.656V168.656V167.656C92.801 167.656 86.1927 174.303 86.1927 182.484H87.1927ZM100.954 168.656V169.656C107.994 169.656 113.716 175.399 113.716 182.484H114.716H115.716C115.716 174.303 109.107 167.656 100.954 167.656V168.656ZM114.716 182.484H113.716C113.716 187.052 111.342 191.063 107.758 193.339L108.294 194.183L108.83 195.027C112.97 192.398 115.716 187.762 115.716 182.484H114.716ZM93.6147 199.999H94.6147V194.183H93.6147H92.6147V199.999H93.6147ZM93.6147 194.183V195.183H108.294V194.183V193.183H93.6147V194.183ZM108.294 194.183H107.294V199.999H108.294H109.294V194.183H108.294ZM76.6422 146.992V147.992H94.0734V146.992V145.992H76.6422V146.992ZM94.0734 146.992H93.0734V151.602H94.0734H95.0734V146.992H94.0734ZM94.0734 151.602V150.602H76.6422V151.602V152.602H94.0734V151.602ZM76.6422 151.602H77.6422V146.992H76.6422H75.6422V151.602H76.6422ZM91.8712 151.602L90.8757 151.696L92.6188 170.087L93.6143 169.993L94.6099 169.899L92.8667 151.507L91.8712 151.602ZM79.2565 146.992L80.2516 147.091L80.8479 141.099L79.8529 141L78.8578 140.901L78.2614 146.893L79.2565 146.992ZM79.8529 141V142H90.862V141V140H79.8529V141ZM90.862 141L89.8666 141.095L90.4079 146.746L91.4033 146.651L92.3988 146.556L91.8575 140.905L90.862 141ZM75.413 185.481L76.408 185.58L79.7934 151.692L78.7983 151.593L77.8033 151.493L74.4179 185.381L75.413 185.481Z" fill="#222222"/>
<circle cx="688" cy="188" r="84.4218" fill="white" stroke="#DEDEDE" stroke-width="1.15646"/>
<path d="M712.336 170.598V185.413H700.455C697.909 189.753 693.18 192.687 687.773 192.687C682.366 192.687 677.638 189.753 675.092 185.413H663.211V170.598H675.092C676.135 168.828 677.517 167.301 679.19 166.088H696.357C698.006 167.276 699.412 168.828 700.455 170.598H712.336Z" stroke="#222222" stroke-width="2" stroke-linecap="round" stroke-linejoin="round"/>
<path d="M712.336 168.319V187.693H717.597V168.319H712.336Z" stroke="#222222" stroke-width="2" stroke-linecap="round" stroke-linejoin="round"/>
<path d="M657.974 168.319V187.693H663.211V168.319H657.974Z" stroke="#222222" stroke-width="2" stroke-linecap="round" stroke-linejoin="round"/>
<path d="M679.093 166.087H696.478V159.079H679.093V166.087Z" stroke="#222222" stroke-width="2" stroke-linecap="round" stroke-linejoin="round"/>
<path d="M682.584 145.042C682.075 144.557 681.444 144.266 680.717 144.266H668.593C667.138 144.266 665.95 145.454 665.95 146.909C665.95 148.363 667.138 149.576 668.593 149.576H679.626L685.445 153.358H690.585L696.38 149.576H707.413C708.892 149.576 710.08 148.388 710.08 146.909C710.08 145.429 708.892 144.266 707.413 144.266H695.289C694.562 144.266 693.907 144.557 693.422 145.042L690.028 147.539H686.148L682.632 145.042H682.584Z" stroke="#222222" stroke-width="2" stroke-linecap="round" stroke-linejoin="round"/>
<path d="M685.42 159.081H690.148V153.335H685.42V159.081Z" stroke="#222222" stroke-width="2" stroke-linecap="round" stroke-linejoin="round"/>
<path d="M658.853 217.504V219.088H657.341V226.306C658.277 226.234 658.973 226.168 659.429 226.108L659.537 227.548C657.077 227.968 653.831 228.178 649.799 228.178L649.583 226.54H651.491V219.088H649.979V217.504H658.853ZM662.237 215.938V222.13H664.667V223.768H662.237V231.958H660.239V215.938H662.237ZM655.433 226.432V219.088H653.417V226.504L655.433 226.432ZM678.725 215.902V231.976H676.727V215.902H678.725ZM670.157 217.072C670.961 217.072 671.675 217.306 672.299 217.774C672.935 218.23 673.427 218.89 673.775 219.754C674.135 220.606 674.315 221.602 674.315 222.742C674.315 223.882 674.135 224.884 673.775 225.748C673.427 226.612 672.935 227.278 672.299 227.746C671.675 228.202 670.961 228.43 670.157 228.43C669.353 228.43 668.633 228.202 667.997 227.746C667.373 227.278 666.881 226.612 666.521 225.748C666.173 224.884 665.999 223.882 665.999 222.742C665.999 221.602 666.173 220.606 666.521 219.754C666.881 218.89 667.373 218.23 667.997 217.774C668.633 217.306 669.353 217.072 670.157 217.072ZM670.157 218.872C669.485 218.872 668.939 219.22 668.519 219.916C668.111 220.6 667.907 221.542 667.907 222.742C667.907 223.954 668.111 224.908 668.519 225.604C668.939 226.3 669.485 226.648 670.157 226.648C670.829 226.648 671.369 226.3 671.777 225.604C672.197 224.908 672.407 223.954 672.407 222.742C672.407 221.542 672.197 220.6 671.777 219.916C671.369 219.22 670.829 218.872 670.157 218.872ZM695.754 228.376V230.014H681.246V228.376H695.754ZM694.494 217.378V218.98H692.208V224.074H694.458V225.658H682.488V224.074H684.72V218.98H682.416V217.378H694.494ZM690.246 224.074V218.98H686.7V224.074H690.246ZM709.452 215.902V222.094H711.882V223.732H709.452V231.976H707.49V215.902H709.452ZM704.934 217.342V223.354H699.606V226.558C700.95 226.546 702.138 226.504 703.17 226.432C704.202 226.36 705.24 226.234 706.284 226.054L706.464 227.656C705.3 227.86 704.142 228.004 702.99 228.088C701.838 228.16 700.494 228.196 698.958 228.196H697.644V221.77H702.972V218.926H697.608V217.342H704.934ZM725.941 215.938V227.512H723.961V215.938H725.941ZM717.391 226.36V230.05H726.373V231.634H715.429V226.36H717.391ZM717.265 216.982C718.069 216.982 718.795 217.156 719.443 217.504C720.103 217.84 720.619 218.32 720.991 218.944C721.363 219.556 721.549 220.246 721.549 221.014C721.549 221.77 721.363 222.454 720.991 223.066C720.619 223.678 720.103 224.158 719.443 224.506C718.795 224.854 718.069 225.028 717.265 225.028C716.473 225.028 715.747 224.854 715.087 224.506C714.439 224.158 713.923 223.678 713.539 223.066C713.167 222.454 712.981 221.77 712.981 221.014C712.981 220.246 713.167 219.556 713.539 218.944C713.923 218.32 714.439 217.84 715.087 217.504C715.747 217.156 716.473 216.982 717.265 216.982ZM717.265 218.692C716.581 218.692 716.017 218.908 715.573 219.34C715.129 219.76 714.907 220.318 714.907 221.014C714.907 221.698 715.129 222.25 715.573 222.67C716.029 223.09 716.593 223.3 717.265 223.3C717.937 223.3 718.495 223.09 718.939 222.67C719.395 222.25 719.623 221.698 719.623 221.014C719.623 220.318 719.401 219.76 718.957 219.34C718.513 218.908 717.949 218.692 717.265 218.692Z" fill="#222222"/>
<path d="M371.351 181.04V195.28H369.591V181.04H371.351ZM367.143 182.528C367.143 184.811 366.637 186.805 365.623 188.512C364.61 190.219 362.925 191.643 360.567 192.784L359.655 191.392C361.469 190.517 362.829 189.472 363.735 188.256C364.642 187.04 365.175 185.605 365.335 183.952H360.359V182.528H367.143ZM381.176 186.528V181.312H382.808V194.608H381.176V187.952H379.336V186.528H381.176ZM376.184 183.536V181.52H377.864V183.536H380.216V184.96H377.864V185.392C377.864 186.555 378.104 187.637 378.584 188.64C379.074 189.632 379.789 190.379 380.728 190.88L379.752 192.192C379.122 191.851 378.578 191.387 378.12 190.8C377.672 190.203 377.314 189.52 377.048 188.752C376.792 189.595 376.434 190.341 375.976 190.992C375.517 191.643 374.968 192.155 374.328 192.528L373.336 191.2C374.274 190.645 374.984 189.84 375.464 188.784C375.944 187.728 376.184 186.597 376.184 185.392V184.96H373.816V183.536H376.184ZM385.72 181.04V195.28H384.04V181.04H385.72ZM394.92 181.504V182.224C394.92 182.821 395.128 183.403 395.544 183.968C395.96 184.533 396.547 185.024 397.304 185.44C398.061 185.845 398.925 186.117 399.896 186.256L399.208 187.648C398.024 187.467 396.973 187.099 396.056 186.544C395.149 185.989 394.461 185.307 393.992 184.496C393.533 185.307 392.851 185.989 391.944 186.544C391.037 187.099 389.981 187.467 388.776 187.648L388.088 186.256C389.059 186.117 389.923 185.845 390.68 185.44C391.437 185.035 392.024 184.549 392.44 183.984C392.856 183.419 393.064 182.832 393.064 182.224V181.504H394.92ZM400.424 188.896V190.336H394.824V195.296H393.064V190.336H387.544V188.896H400.424ZM407.032 192.096V188.816H408.792V192.096H414.424V193.536H401.528V192.096H407.032ZM408.84 181.888V182.944C408.84 183.659 409.059 184.352 409.496 185.024C409.934 185.696 410.542 186.272 411.32 186.752C412.099 187.221 412.968 187.536 413.928 187.696L413.176 189.184C411.982 188.949 410.92 188.507 409.992 187.856C409.075 187.195 408.382 186.4 407.912 185.472C407.443 186.4 406.739 187.195 405.8 187.856C404.872 188.507 403.816 188.949 402.632 189.184L401.912 187.696C402.872 187.536 403.736 187.216 404.504 186.736C405.283 186.256 405.891 185.68 406.328 185.008C406.766 184.336 406.984 183.648 406.984 182.944V181.888H408.84Z" fill="white"/>
<path d="M63.1075 288.504V289.224C63.1075 289.821 63.3155 290.403 63.7315 290.968C64.1475 291.533 64.7342 292.024 65.4915 292.44C66.2488 292.845 67.1128 293.117 68.0835 293.256L67.3955 294.648C66.2115 294.467 65.1608 294.099 64.2435 293.544C63.3368 292.989 62.6488 292.307 62.1795 291.496C61.7208 292.307 61.0382 292.989 60.1315 293.544C59.2248 294.099 58.1688 294.467 56.9635 294.648L56.2755 293.256C57.2462 293.117 58.1102 292.845 58.8675 292.44C59.6248 292.035 60.2115 291.549 60.6275 290.984C61.0435 290.419 61.2515 289.832 61.2515 289.224V288.504H63.1075ZM68.6115 295.896V297.336H63.0115V302.296H61.2515V297.336H55.7315V295.896H68.6115ZM75.2199 299.096V295.816H76.9799V299.096H82.6119V300.536H69.7159V299.096H75.2199ZM77.0279 288.888V289.944C77.0279 290.659 77.2465 291.352 77.6839 292.024C78.1212 292.696 78.7292 293.272 79.5079 293.752C80.2865 294.221 81.1559 294.536 82.1159 294.696L81.3639 296.184C80.1692 295.949 79.1079 295.507 78.1799 294.856C77.2625 294.195 76.5692 293.4 76.0999 292.472C75.6305 293.4 74.9265 294.195 73.9879 294.856C73.0599 295.507 72.0039 295.949 70.8199 296.184L70.0999 294.696C71.0599 294.536 71.9239 294.216 72.6919 293.736C73.4705 293.256 74.0785 292.68 74.5159 292.008C74.9532 291.336 75.1719 290.648 75.1719 289.944V288.888H77.0279ZM91.7878 288.904V290.648C91.7878 291.469 92.0171 292.232 92.4758 292.936C92.9451 293.629 93.6278 294.152 94.5238 294.504L93.5958 295.832C92.9878 295.587 92.4598 295.251 92.0118 294.824C91.5744 294.397 91.2278 293.896 90.9718 293.32C90.6944 293.992 90.3211 294.584 89.8518 295.096C89.3824 295.597 88.8224 295.987 88.1718 296.264L87.2438 294.904C88.1611 294.499 88.8651 293.907 89.3558 293.128C89.8464 292.339 90.0918 291.512 90.0918 290.648V288.904H91.7878ZM99.4518 288.056V296.792H97.7718V293.08H96.3958V296.344H94.7478V288.328H96.3958V291.656H97.7718V288.056H99.4518ZM94.6678 297.032C96.1611 297.032 97.3398 297.267 98.2038 297.736C99.0784 298.205 99.5158 298.845 99.5158 299.656C99.5158 300.477 99.0784 301.117 98.2038 301.576C97.3398 302.045 96.1611 302.28 94.6678 302.28C93.1744 302.28 91.9958 302.045 91.1318 301.576C90.2678 301.117 89.8358 300.477 89.8358 299.656C89.8358 298.845 90.2678 298.205 91.1318 297.736C92.0064 297.267 93.1851 297.032 94.6678 297.032ZM94.6678 298.376C93.6864 298.376 92.9238 298.488 92.3798 298.712C91.8464 298.925 91.5798 299.24 91.5798 299.656C91.5798 300.072 91.8464 300.392 92.3798 300.616C92.9238 300.84 93.6864 300.952 94.6678 300.952C95.6491 300.952 96.4064 300.84 96.9398 300.616C97.4838 300.392 97.7558 300.072 97.7558 299.656C97.7558 299.24 97.4891 298.925 96.9558 298.712C96.4224 298.488 95.6598 298.376 94.6678 298.376ZM106.444 288.904V290.552C106.444 291.523 106.732 292.408 107.308 293.208C107.895 294.008 108.727 294.589 109.804 294.952L108.908 296.328C108.14 296.072 107.473 295.688 106.908 295.176C106.353 294.653 105.916 294.04 105.596 293.336C105.287 294.104 104.839 294.776 104.252 295.352C103.676 295.917 102.977 296.344 102.156 296.632L101.212 295.256C102.332 294.872 103.191 294.253 103.788 293.4C104.385 292.547 104.684 291.592 104.684 290.536V288.904H106.444ZM112.508 288.04V292.264H114.492V293.72H112.508V298.488H110.748V288.04H112.508ZM105.244 297.496V300.6H113.068V302.008H103.484V297.496H105.244Z" fill="#999999"/>
<path d="M184.718 544.04V558.28H182.958V544.04H184.718ZM180.51 545.528C180.51 547.811 180.004 549.805 178.99 551.512C177.977 553.219 176.292 554.643 173.934 555.784L173.022 554.392C174.836 553.517 176.196 552.472 177.102 551.256C178.009 550.04 178.542 548.605 178.702 546.952H173.726V545.528H180.51ZM194.543 549.528V544.312H196.175V557.608H194.543V550.952H192.703V549.528H194.543ZM189.551 546.536V544.52H191.231V546.536H193.583V547.96H191.231V548.392C191.231 549.555 191.471 550.637 191.951 551.64C192.441 552.632 193.156 553.379 194.095 553.88L193.119 555.192C192.489 554.851 191.945 554.387 191.487 553.8C191.039 553.203 190.681 552.52 190.415 551.752C190.159 552.595 189.801 553.341 189.343 553.992C188.884 554.643 188.335 555.155 187.695 555.528L186.703 554.2C187.641 553.645 188.351 552.84 188.831 551.784C189.311 550.728 189.551 549.597 189.551 548.392V547.96H187.183V546.536H189.551ZM199.087 544.04V558.28H197.407V544.04H199.087ZM209.607 544.808V546.296C209.607 547.235 209.895 548.088 210.471 548.856C211.047 549.613 211.857 550.163 212.903 550.504L211.991 551.864C211.244 551.608 210.593 551.229 210.039 550.728C209.495 550.227 209.068 549.64 208.759 548.968C208.449 549.747 208.007 550.419 207.431 550.984C206.865 551.549 206.177 551.981 205.367 552.28L204.423 550.888C205.532 550.504 206.38 549.885 206.967 549.032C207.564 548.168 207.863 547.208 207.863 546.152V544.808H209.607ZM215.735 544.056V547.496H217.719V548.952H215.735V552.552H213.975V544.056H215.735ZM211.143 552.904C212.625 552.904 213.788 553.144 214.631 553.624C215.473 554.093 215.895 554.749 215.895 555.592C215.895 556.435 215.473 557.091 214.631 557.56C213.788 558.04 212.625 558.28 211.143 558.28C209.66 558.28 208.492 558.04 207.639 557.56C206.796 557.091 206.375 556.435 206.375 555.592C206.375 554.749 206.796 554.093 207.639 553.624C208.492 553.144 209.66 552.904 211.143 552.904ZM211.143 554.264C210.172 554.264 209.42 554.381 208.887 554.616C208.364 554.84 208.103 555.165 208.103 555.592C208.103 556.019 208.364 556.349 208.887 556.584C209.42 556.808 210.172 556.92 211.143 556.92C212.113 556.92 212.86 556.808 213.383 556.584C213.905 556.349 214.167 556.019 214.167 555.592C214.167 555.165 213.905 554.84 213.383 554.616C212.86 554.381 212.113 554.264 211.143 554.264ZM224.775 545.576V546.984H220.759V549.32H224.535V550.696H220.759V553.48C221.719 553.469 222.519 553.443 223.159 553.4C223.799 553.357 224.45 553.277 225.111 553.16L225.287 554.6C224.519 554.739 223.762 554.829 223.015 554.872C222.279 554.915 221.292 554.936 220.055 554.936H219.095V545.576H224.775ZM230.743 544.04V558.28H229.079V551.064H227.623V557.608H225.975V544.312H227.623V549.624H229.079V544.04H230.743ZM237.143 545.016C237.879 545.016 238.541 545.165 239.127 545.464C239.714 545.752 240.173 546.163 240.503 546.696C240.845 547.219 241.015 547.811 241.015 548.472C241.015 549.133 240.845 549.731 240.503 550.264C240.173 550.787 239.714 551.197 239.127 551.496C238.541 551.784 237.879 551.928 237.143 551.928C236.407 551.928 235.741 551.784 235.143 551.496C234.557 551.197 234.093 550.787 233.751 550.264C233.421 549.741 233.255 549.144 233.255 548.472C233.255 547.811 233.421 547.219 233.751 546.696C234.093 546.163 234.557 545.752 235.143 545.464C235.741 545.165 236.407 545.016 237.143 545.016ZM237.143 546.536C236.503 546.536 235.981 546.712 235.575 547.064C235.17 547.416 234.967 547.885 234.967 548.472C234.967 549.059 235.17 549.533 235.575 549.896C235.991 550.248 236.514 550.424 237.143 550.424C237.773 550.424 238.29 550.248 238.695 549.896C239.101 549.533 239.303 549.059 239.303 548.472C239.303 547.885 239.101 547.416 238.695 547.064C238.29 546.712 237.773 546.536 237.143 546.536ZM244.311 544.024V558.312H242.567V544.024H244.311ZM232.615 553.896C234.407 553.896 236.039 553.869 237.511 553.816C238.983 553.752 240.386 553.619 241.719 553.416L241.847 554.696C240.471 554.963 239.053 555.139 237.591 555.224C236.13 555.299 234.541 555.336 232.823 555.336L232.615 553.896ZM257.615 544.504V545.224C257.615 545.821 257.823 546.403 258.239 546.968C258.655 547.533 259.242 548.024 259.999 548.44C260.757 548.845 261.621 549.117 262.591 549.256L261.903 550.648C260.719 550.467 259.669 550.099 258.751 549.544C257.845 548.989 257.157 548.307 256.687 547.496C256.229 548.307 255.546 548.989 254.639 549.544C253.733 550.099 252.677 550.467 251.471 550.648L250.783 549.256C251.754 549.117 252.618 548.845 253.375 548.44C254.133 548.035 254.719 547.549 255.135 546.984C255.551 546.419 255.759 545.832 255.759 545.224V544.504H257.615ZM263.119 551.896V553.336H257.519V558.296H255.759V553.336H250.239V551.896H263.119ZM269.728 555.096V551.816H271.488V555.096H277.12V556.536H264.224V555.096H269.728ZM271.536 544.888V545.944C271.536 546.659 271.754 547.352 272.192 548.024C272.629 548.696 273.237 549.272 274.016 549.752C274.794 550.221 275.664 550.536 276.624 550.696L275.872 552.184C274.677 551.949 273.616 551.507 272.688 550.856C271.77 550.195 271.077 549.4 270.608 548.472C270.138 549.4 269.434 550.195 268.496 550.856C267.568 551.507 266.512 551.949 265.328 552.184L264.608 550.696C265.568 550.536 266.432 550.216 267.2 549.736C267.978 549.256 268.586 548.68 269.024 548.008C269.461 547.336 269.68 546.648 269.68 545.944V544.888H271.536ZM291.104 550.536V551.816H278.208V550.536H291.104ZM289.536 552.696V555.944H281.456V556.936H289.952V558.152H279.712V554.808H287.808V553.912H279.68V552.696H289.536ZM289.488 544.36V547.576H281.552V548.488H289.76V549.72H279.84V546.44H287.76V545.576H279.808V544.36H289.488ZM299.192 544.92C299.811 544.92 300.365 545.069 300.856 545.368C301.357 545.656 301.747 546.061 302.024 546.584C302.301 547.107 302.44 547.699 302.44 548.36C302.44 549.021 302.301 549.613 302.024 550.136C301.747 550.659 301.357 551.064 300.856 551.352C300.365 551.64 299.811 551.784 299.192 551.784C298.573 551.784 298.013 551.64 297.512 551.352C297.021 551.064 296.637 550.659 296.36 550.136C296.083 549.613 295.944 549.021 295.944 548.36C295.944 547.699 296.083 547.107 296.36 546.584C296.637 546.061 297.021 545.656 297.512 545.368C298.013 545.069 298.573 544.92 299.192 544.92ZM299.192 546.408C298.701 546.408 298.301 546.584 297.992 546.936C297.693 547.288 297.544 547.763 297.544 548.36C297.544 548.947 297.699 549.421 298.008 549.784C298.317 550.136 298.712 550.312 299.192 550.312C299.683 550.312 300.083 550.136 300.392 549.784C300.701 549.421 300.856 548.947 300.856 548.36C300.856 547.773 300.701 547.304 300.392 546.952C300.083 546.589 299.683 546.408 299.192 546.408ZM307.944 544.056V552.536H306.28V549.016H304.92V552.472H303.272V544.312H304.92V547.576H306.28V544.056H307.944ZM307.944 553.24V558.296H306.2V554.648H298.248V553.24H307.944ZM317.48 549.528V544.312H319.112V557.608H317.48V550.952H315.64V549.528H317.48ZM312.488 546.536V544.52H314.168V546.536H316.52V547.96H314.168V548.392C314.168 549.555 314.408 550.637 314.888 551.64C315.379 552.632 316.094 553.379 317.032 553.88L316.056 555.192C315.427 554.851 314.883 554.387 314.424 553.8C313.976 553.203 313.619 552.52 313.352 551.752C313.096 552.595 312.739 553.341 312.28 553.992C311.822 554.643 311.272 555.155 310.632 555.528L309.64 554.2C310.579 553.645 311.288 552.84 311.768 551.784C312.248 550.728 312.488 549.597 312.488 548.392V547.96H310.12V546.536H312.488ZM322.024 544.04V558.28H320.344V544.04H322.024ZM332.544 544.808V546.296C332.544 547.235 332.832 548.088 333.408 548.856C333.984 549.613 334.795 550.163 335.84 550.504L334.928 551.864C334.182 551.608 333.531 551.229 332.976 550.728C332.432 550.227 332.006 549.64 331.696 548.968C331.387 549.747 330.944 550.419 330.368 550.984C329.803 551.549 329.115 551.981 328.304 552.28L327.36 550.888C328.47 550.504 329.318 549.885 329.904 549.032C330.502 548.168 330.8 547.208 330.8 546.152V544.808H332.544ZM338.672 544.056V547.496H340.656V548.952H338.672V552.552H336.912V544.056H338.672ZM334.08 552.904C335.563 552.904 336.726 553.144 337.568 553.624C338.411 554.093 338.832 554.749 338.832 555.592C338.832 556.435 338.411 557.091 337.568 557.56C336.726 558.04 335.563 558.28 334.08 558.28C332.598 558.28 331.43 558.04 330.576 557.56C329.734 557.091 329.312 556.435 329.312 555.592C329.312 554.749 329.734 554.093 330.576 553.624C331.43 553.144 332.598 552.904 334.08 552.904ZM334.08 554.264C333.11 554.264 332.358 554.381 331.824 554.616C331.302 554.84 331.04 555.165 331.04 555.592C331.04 556.019 331.302 556.349 331.824 556.584C332.358 556.808 333.11 556.92 334.08 556.92C335.051 556.92 335.798 556.808 336.32 556.584C336.843 556.349 337.104 556.019 337.104 555.592C337.104 555.165 336.843 554.84 336.32 554.616C335.798 554.381 335.051 554.264 334.08 554.264ZM347.713 545.576V546.984H343.697V549.32H347.473V550.696H343.697V553.48C344.657 553.469 345.457 553.443 346.097 553.4C346.737 553.357 347.387 553.277 348.049 553.16L348.225 554.6C347.457 554.739 346.699 554.829 345.953 554.872C345.217 554.915 344.23 554.936 342.993 554.936H342.033V545.576H347.713ZM353.681 544.04V558.28H352.017V551.064H350.561V557.608H348.913V544.312H350.561V549.624H352.017V544.04H353.681ZM361.057 555.208V552.872H357.041V548.2H365.153V546.408H357.009V545.016H366.897V549.592H358.769V551.464H367.217V552.872H362.801V555.208H368.401V556.632H355.505V555.208H361.057ZM383.241 547.816V544.056H385.001V554.44H383.241V549.24H380.761V547.816H383.241ZM377.481 553.56V556.6H385.353V558.008H375.705V553.56H377.481ZM381.273 545.08V546.488H378.361V546.872C378.361 547.779 378.649 548.627 379.225 549.416C379.811 550.195 380.627 550.76 381.673 551.112L380.809 552.488C380.041 552.221 379.374 551.832 378.809 551.32C378.254 550.808 377.817 550.2 377.497 549.496C377.187 550.264 376.734 550.936 376.137 551.512C375.55 552.088 374.846 552.515 374.025 552.792L373.129 551.4C374.217 551.027 375.065 550.424 375.673 549.592C376.281 548.76 376.585 547.853 376.585 546.872V546.488H373.625V545.08H381.273ZM398.345 544.04V548.824H400.265V550.264H398.345V555.176H396.585V544.04H398.345ZM390.825 554.456V556.6H398.841V558.008H389.049V554.456H390.825ZM387.017 552.328C388.116 552.328 389.305 552.312 390.585 552.28V551.368C389.796 551.261 389.172 551.021 388.713 550.648C388.265 550.275 388.041 549.8 388.041 549.224C388.041 548.541 388.345 548.008 388.953 547.624C389.572 547.229 390.399 547.032 391.433 547.032C392.479 547.032 393.311 547.229 393.929 547.624C394.548 548.008 394.857 548.541 394.857 549.224C394.857 549.789 394.633 550.259 394.185 550.632C393.737 551.005 393.119 551.245 392.329 551.352V552.2C393.833 552.104 395.017 551.987 395.881 551.848L396.025 553.064C394.703 553.309 393.316 553.475 391.865 553.56C390.415 553.635 388.873 553.677 387.241 553.688L387.017 552.328ZM390.585 545.288V543.976H392.329V545.288H395.497V546.568H387.385V545.288H390.585ZM391.433 548.232C390.889 548.232 390.463 548.317 390.153 548.488C389.855 548.659 389.705 548.904 389.705 549.224C389.705 549.544 389.855 549.789 390.153 549.96C390.463 550.131 390.889 550.216 391.433 550.216C391.988 550.216 392.42 550.131 392.729 549.96C393.039 549.789 393.193 549.544 393.193 549.224C393.193 548.904 393.039 548.659 392.729 548.488C392.42 548.317 391.988 548.232 391.433 548.232Z" fill="#999999"/>
<path d="M648.059 544.92C648.678 544.92 649.232 545.069 649.723 545.368C650.224 545.656 650.614 546.061 650.891 546.584C651.168 547.107 651.307 547.699 651.307 548.36C651.307 549.021 651.168 549.613 650.891 550.136C650.614 550.659 650.224 551.064 649.723 551.352C649.232 551.64 648.678 551.784 648.059 551.784C647.44 551.784 646.88 551.64 646.379 551.352C645.888 551.064 645.504 550.659 645.227 550.136C644.95 549.613 644.811 549.021 644.811 548.36C644.811 547.699 644.95 547.107 645.227 546.584C645.504 546.061 645.888 545.656 646.379 545.368C646.88 545.069 647.44 544.92 648.059 544.92ZM648.059 546.408C647.568 546.408 647.168 546.584 646.859 546.936C646.56 547.288 646.411 547.763 646.411 548.36C646.411 548.947 646.566 549.421 646.875 549.784C647.184 550.136 647.579 550.312 648.059 550.312C648.55 550.312 648.95 550.136 649.259 549.784C649.568 549.421 649.723 548.947 649.723 548.36C649.723 547.773 649.568 547.304 649.259 546.952C648.95 546.589 648.55 546.408 648.059 546.408ZM656.811 544.056V552.536H655.147V549.016H653.787V552.472H652.139V544.312H653.787V547.576H655.147V544.056H656.811ZM656.811 553.24V558.296H655.067V554.648H647.115V553.24H656.811ZM669.916 544.056V549.928H671.868V551.4H669.916V558.296H668.156V544.056H669.916ZM658.572 554.344C660.108 554.344 661.308 554.333 662.172 554.312V552.968C661.393 552.84 660.774 552.547 660.316 552.088C659.857 551.629 659.628 551.064 659.628 550.392C659.628 549.869 659.772 549.405 660.06 549C660.348 548.595 660.748 548.285 661.26 548.072C661.782 547.848 662.38 547.736 663.052 547.736C663.724 547.736 664.316 547.848 664.828 548.072C665.35 548.285 665.756 548.595 666.044 549C666.342 549.405 666.492 549.869 666.492 550.392C666.492 551.064 666.257 551.629 665.788 552.088C665.329 552.547 664.71 552.84 663.932 552.968V554.232C665.009 554.189 666.156 554.088 667.372 553.928L667.516 555.192C666.182 555.448 664.833 555.613 663.468 555.688C662.113 555.752 660.561 555.784 658.812 555.784L658.572 554.344ZM662.172 545.672V544.104H663.932V545.672H667.26V547.064H658.828V545.672H662.172ZM663.052 549.064C662.518 549.064 662.092 549.181 661.772 549.416C661.452 549.651 661.292 549.976 661.292 550.392C661.292 550.808 661.452 551.133 661.772 551.368C662.092 551.603 662.518 551.72 663.052 551.72C663.596 551.72 664.028 551.603 664.348 551.368C664.668 551.133 664.828 550.808 664.828 550.392C664.828 549.976 664.668 549.651 664.348 549.416C664.028 549.181 663.596 549.064 663.052 549.064ZM680.092 544.504V545.224C680.092 545.821 680.3 546.403 680.716 546.968C681.132 547.533 681.719 548.024 682.476 548.44C683.233 548.845 684.097 549.117 685.068 549.256L684.38 550.648C683.196 550.467 682.145 550.099 681.228 549.544C680.321 548.989 679.633 548.307 679.164 547.496C678.705 548.307 678.023 548.989 677.116 549.544C676.209 550.099 675.153 550.467 673.948 550.648L673.26 549.256C674.231 549.117 675.095 548.845 675.852 548.44C676.609 548.035 677.196 547.549 677.612 546.984C678.028 546.419 678.236 545.832 678.236 545.224V544.504H680.092ZM685.596 551.896V553.336H679.996V558.296H678.236V553.336H672.716V551.896H685.596ZM692.204 555.096V551.816H693.964V555.096H699.596V556.536H686.7V555.096H692.204ZM694.012 544.888V545.944C694.012 546.659 694.231 547.352 694.668 548.024C695.106 548.696 695.714 549.272 696.492 549.752C697.271 550.221 698.14 550.536 699.1 550.696L698.348 552.184C697.154 551.949 696.092 551.507 695.164 550.856C694.247 550.195 693.554 549.4 693.084 548.472C692.615 549.4 691.911 550.195 690.972 550.856C690.044 551.507 688.988 551.949 687.804 552.184L687.084 550.696C688.044 550.536 688.908 550.216 689.676 549.736C690.455 549.256 691.063 548.68 691.5 548.008C691.938 547.336 692.156 546.648 692.156 545.944V544.888H694.012ZM717.268 551.096V552.488H711.812V555.112H710.02V552.488H704.372V551.096H717.268ZM707.7 553.784V556.584H715.844V558.008H705.924V553.784H707.7ZM710.804 544.344C711.817 544.344 712.703 544.467 713.46 544.712C714.228 544.947 714.82 545.288 715.236 545.736C715.663 546.173 715.876 546.685 715.876 547.272C715.876 547.859 715.663 548.376 715.236 548.824C714.82 549.261 714.228 549.597 713.46 549.832C712.703 550.067 711.817 550.184 710.804 550.184C709.791 550.184 708.9 550.067 708.132 549.832C707.375 549.597 706.783 549.261 706.356 548.824C705.94 548.376 705.732 547.859 705.732 547.272C705.732 546.685 705.94 546.173 706.356 545.736C706.783 545.288 707.38 544.947 708.148 544.712C708.916 544.467 709.801 544.344 710.804 544.344ZM710.804 545.752C709.823 545.752 709.044 545.885 708.468 546.152C707.903 546.419 707.62 546.792 707.62 547.272C707.62 547.741 707.903 548.109 708.468 548.376C709.044 548.643 709.823 548.776 710.804 548.776C711.785 548.776 712.559 548.643 713.124 548.376C713.7 548.109 713.988 547.741 713.988 547.272C713.988 546.792 713.7 546.419 713.124 546.152C712.559 545.885 711.785 545.752 710.804 545.752ZM725.653 549.064V550.952H731.221V552.344H718.357V550.952H723.877V549.064H725.653ZM725.669 544.296V544.792C725.669 545.379 725.866 545.933 726.26 546.456C726.655 546.968 727.22 547.405 727.957 547.768C728.693 548.131 729.541 548.371 730.501 548.488L729.845 549.88C728.671 549.699 727.642 549.357 726.757 548.856C725.882 548.355 725.221 547.731 724.773 546.984C724.314 547.731 723.642 548.36 722.757 548.872C721.882 549.373 720.863 549.709 719.701 549.88L719.045 548.488C720.005 548.371 720.847 548.131 721.573 547.768C722.309 547.395 722.874 546.952 723.269 546.44C723.674 545.917 723.877 545.368 723.877 544.792V544.296H725.669ZM724.773 553.272C726.319 553.272 727.525 553.491 728.389 553.928C729.253 554.365 729.685 554.979 729.685 555.768C729.685 556.579 729.253 557.197 728.389 557.624C727.525 558.061 726.319 558.28 724.773 558.28C723.215 558.28 722.005 558.061 721.141 557.624C720.277 557.197 719.845 556.579 719.845 555.768C719.845 554.979 720.277 554.365 721.141 553.928C722.015 553.491 723.226 553.272 724.773 553.272ZM724.773 554.6C723.749 554.6 722.965 554.701 722.421 554.904C721.887 555.096 721.621 555.384 721.621 555.768C721.621 556.163 721.887 556.461 722.421 556.664C722.954 556.867 723.738 556.968 724.773 556.968C725.807 556.968 726.586 556.867 727.109 556.664C727.642 556.461 727.909 556.163 727.909 555.768C727.909 555.384 727.642 555.096 727.109 554.904C726.575 554.701 725.797 554.6 724.773 554.6Z" fill="#999999"/>
<path d="M1050.06 544.92C1050.68 544.92 1051.23 545.069 1051.72 545.368C1052.22 545.656 1052.61 546.061 1052.89 546.584C1053.17 547.107 1053.31 547.699 1053.31 548.36C1053.31 549.021 1053.17 549.613 1052.89 550.136C1052.61 550.659 1052.22 551.064 1051.72 551.352C1051.23 551.64 1050.68 551.784 1050.06 551.784C1049.44 551.784 1048.88 551.64 1048.38 551.352C1047.89 551.064 1047.5 550.659 1047.23 550.136C1046.95 549.613 1046.81 549.021 1046.81 548.36C1046.81 547.699 1046.95 547.107 1047.23 546.584C1047.5 546.061 1047.89 545.656 1048.38 545.368C1048.88 545.069 1049.44 544.92 1050.06 544.92ZM1050.06 546.408C1049.57 546.408 1049.17 546.584 1048.86 546.936C1048.56 547.288 1048.41 547.763 1048.41 548.36C1048.41 548.947 1048.57 549.421 1048.88 549.784C1049.18 550.136 1049.58 550.312 1050.06 550.312C1050.55 550.312 1050.95 550.136 1051.26 549.784C1051.57 549.421 1051.72 548.947 1051.72 548.36C1051.72 547.773 1051.57 547.304 1051.26 546.952C1050.95 546.589 1050.55 546.408 1050.06 546.408ZM1058.81 544.056V552.536H1057.15V549.016H1055.79V552.472H1054.14V544.312H1055.79V547.576H1057.15V544.056H1058.81ZM1058.81 553.24V558.296H1057.07V554.648H1049.12V553.24H1058.81ZM1071.92 544.056V549.928H1073.87V551.4H1071.92V558.296H1070.16V544.056H1071.92ZM1060.57 554.344C1062.11 554.344 1063.31 554.333 1064.17 554.312V552.968C1063.39 552.84 1062.77 552.547 1062.32 552.088C1061.86 551.629 1061.63 551.064 1061.63 550.392C1061.63 549.869 1061.77 549.405 1062.06 549C1062.35 548.595 1062.75 548.285 1063.26 548.072C1063.78 547.848 1064.38 547.736 1065.05 547.736C1065.72 547.736 1066.32 547.848 1066.83 548.072C1067.35 548.285 1067.76 548.595 1068.04 549C1068.34 549.405 1068.49 549.869 1068.49 550.392C1068.49 551.064 1068.26 551.629 1067.79 552.088C1067.33 552.547 1066.71 552.84 1065.93 552.968V554.232C1067.01 554.189 1068.16 554.088 1069.37 553.928L1069.52 555.192C1068.18 555.448 1066.83 555.613 1065.47 555.688C1064.11 555.752 1062.56 555.784 1060.81 555.784L1060.57 554.344ZM1064.17 545.672V544.104H1065.93V545.672H1069.26V547.064H1060.83V545.672H1064.17ZM1065.05 549.064C1064.52 549.064 1064.09 549.181 1063.77 549.416C1063.45 549.651 1063.29 549.976 1063.29 550.392C1063.29 550.808 1063.45 551.133 1063.77 551.368C1064.09 551.603 1064.52 551.72 1065.05 551.72C1065.6 551.72 1066.03 551.603 1066.35 551.368C1066.67 551.133 1066.83 550.808 1066.83 550.392C1066.83 549.976 1066.67 549.651 1066.35 549.416C1066.03 549.181 1065.6 549.064 1065.05 549.064ZM1082.09 544.504V545.224C1082.09 545.821 1082.3 546.403 1082.72 546.968C1083.13 547.533 1083.72 548.024 1084.48 548.44C1085.23 548.845 1086.1 549.117 1087.07 549.256L1086.38 550.648C1085.2 550.467 1084.15 550.099 1083.23 549.544C1082.32 548.989 1081.63 548.307 1081.16 547.496C1080.71 548.307 1080.02 548.989 1079.12 549.544C1078.21 550.099 1077.15 550.467 1075.95 550.648L1075.26 549.256C1076.23 549.117 1077.09 548.845 1077.85 548.44C1078.61 548.035 1079.2 547.549 1079.61 546.984C1080.03 546.419 1080.24 545.832 1080.24 545.224V544.504H1082.09ZM1087.6 551.896V553.336H1082V558.296H1080.24V553.336H1074.72V551.896H1087.6ZM1094.2 555.096V551.816H1095.96V555.096H1101.6V556.536H1088.7V555.096H1094.2ZM1096.01 544.888V545.944C1096.01 546.659 1096.23 547.352 1096.67 548.024C1097.11 548.696 1097.71 549.272 1098.49 549.752C1099.27 550.221 1100.14 550.536 1101.1 550.696L1100.35 552.184C1099.15 551.949 1098.09 551.507 1097.16 550.856C1096.25 550.195 1095.55 549.4 1095.08 548.472C1094.61 549.4 1093.91 550.195 1092.97 550.856C1092.04 551.507 1090.99 551.949 1089.8 552.184L1089.08 550.696C1090.04 550.536 1090.91 550.216 1091.68 549.736C1092.45 549.256 1093.06 548.68 1093.5 548.008C1093.94 547.336 1094.16 546.648 1094.16 545.944V544.888H1096.01ZM1114.32 545.272V546.68H1113.08V550.904C1113.89 550.84 1114.49 550.781 1114.88 550.728L1115 552.024C1112.81 552.387 1109.99 552.568 1106.53 552.568L1106.34 551.128L1107.94 551.112V546.68H1106.71V545.272H1114.32ZM1117.51 544.056V548.184H1119.49V549.64H1117.51V554.536H1115.75V544.056H1117.51ZM1110.21 553.544V556.6H1118.08V558.008H1108.45V553.544H1110.21ZM1111.4 551.016V546.68H1109.64V551.08L1111.4 551.016ZM1132.52 544.04V558.28H1130.85V550.984H1129.36V557.608H1127.72V544.312H1129.36V549.56H1130.85V544.04H1132.52ZM1126.34 545.576V554.632H1120.8V545.576H1126.34ZM1122.44 546.952V553.256H1124.71V546.952H1122.44Z" fill="#999999"/>
<path d="M656.523 288.04V302.28H654.763V288.04H656.523ZM652.315 289.528C652.315 291.811 651.808 293.805 650.795 295.512C649.782 297.219 648.096 298.643 645.739 299.784L644.827 298.392C646.64 297.517 648 296.472 648.907 295.256C649.814 294.04 650.347 292.605 650.507 290.952H645.531V289.528H652.315ZM666.348 293.528V288.312H667.98V301.608H666.348V294.952H664.508V293.528H666.348ZM661.356 290.536V288.52H663.036V290.536H665.388V291.96H663.036V292.392C663.036 293.555 663.276 294.637 663.756 295.64C664.246 296.632 664.961 297.379 665.9 297.88L664.924 299.192C664.294 298.851 663.75 298.387 663.292 297.8C662.844 297.203 662.486 296.52 662.22 295.752C661.964 296.595 661.606 297.341 661.148 297.992C660.689 298.643 660.14 299.155 659.5 299.528L658.508 298.2C659.446 297.645 660.156 296.84 660.636 295.784C661.116 294.728 661.356 293.597 661.356 292.392V291.96H658.988V290.536H661.356ZM670.892 288.04V302.28H669.212V288.04H670.892ZM680.092 288.504V289.224C680.092 289.821 680.3 290.403 680.716 290.968C681.132 291.533 681.719 292.024 682.476 292.44C683.233 292.845 684.097 293.117 685.068 293.256L684.38 294.648C683.196 294.467 682.145 294.099 681.228 293.544C680.321 292.989 679.633 292.307 679.164 291.496C678.705 292.307 678.023 292.989 677.116 293.544C676.209 294.099 675.153 294.467 673.948 294.648L673.26 293.256C674.231 293.117 675.095 292.845 675.852 292.44C676.609 292.035 677.196 291.549 677.612 290.984C678.028 290.419 678.236 289.832 678.236 289.224V288.504H680.092ZM685.596 295.896V297.336H679.996V302.296H678.236V297.336H672.716V295.896H685.596ZM692.204 299.096V295.816H693.964V299.096H699.596V300.536H686.7V299.096H692.204ZM694.012 288.888V289.944C694.012 290.659 694.231 291.352 694.668 292.024C695.106 292.696 695.714 293.272 696.492 293.752C697.271 294.221 698.14 294.536 699.1 294.696L698.348 296.184C697.154 295.949 696.092 295.507 695.164 294.856C694.247 294.195 693.554 293.4 693.084 292.472C692.615 293.4 691.911 294.195 690.972 294.856C690.044 295.507 688.988 295.949 687.804 296.184L687.084 294.696C688.044 294.536 688.908 294.216 689.676 293.736C690.455 293.256 691.063 292.68 691.5 292.008C691.938 291.336 692.156 290.648 692.156 289.944V288.888H694.012ZM717.268 295.096V296.488H711.812V299.112H710.02V296.488H704.372V295.096H717.268ZM707.7 297.784V300.584H715.844V302.008H705.924V297.784H707.7ZM710.804 288.344C711.817 288.344 712.703 288.467 713.46 288.712C714.228 288.947 714.82 289.288 715.236 289.736C715.663 290.173 715.876 290.685 715.876 291.272C715.876 291.859 715.663 292.376 715.236 292.824C714.82 293.261 714.228 293.597 713.46 293.832C712.703 294.067 711.817 294.184 710.804 294.184C709.791 294.184 708.9 294.067 708.132 293.832C707.375 293.597 706.783 293.261 706.356 292.824C705.94 292.376 705.732 291.859 705.732 291.272C705.732 290.685 705.94 290.173 706.356 289.736C706.783 289.288 707.38 288.947 708.148 288.712C708.916 288.467 709.801 288.344 710.804 288.344ZM710.804 289.752C709.823 289.752 709.044 289.885 708.468 290.152C707.903 290.419 707.62 290.792 707.62 291.272C707.62 291.741 707.903 292.109 708.468 292.376C709.044 292.643 709.823 292.776 710.804 292.776C711.785 292.776 712.559 292.643 713.124 292.376C713.7 292.109 713.988 291.741 713.988 291.272C713.988 290.792 713.7 290.419 713.124 290.152C712.559 289.885 711.785 289.752 710.804 289.752ZM725.653 293.064V294.952H731.221V296.344H718.357V294.952H723.877V293.064H725.653ZM725.669 288.296V288.792C725.669 289.379 725.866 289.933 726.26 290.456C726.655 290.968 727.22 291.405 727.957 291.768C728.693 292.131 729.541 292.371 730.501 292.488L729.845 293.88C728.671 293.699 727.642 293.357 726.757 292.856C725.882 292.355 725.221 291.731 724.773 290.984C724.314 291.731 723.642 292.36 722.757 292.872C721.882 293.373 720.863 293.709 719.701 293.88L719.045 292.488C720.005 292.371 720.847 292.131 721.573 291.768C722.309 291.395 722.874 290.952 723.269 290.44C723.674 289.917 723.877 289.368 723.877 288.792V288.296H725.669ZM724.773 297.272C726.319 297.272 727.525 297.491 728.389 297.928C729.253 298.365 729.685 298.979 729.685 299.768C729.685 300.579 729.253 301.197 728.389 301.624C727.525 302.061 726.319 302.28 724.773 302.28C723.215 302.28 722.005 302.061 721.141 301.624C720.277 301.197 719.845 300.579 719.845 299.768C719.845 298.979 720.277 298.365 721.141 297.928C722.015 297.491 723.226 297.272 724.773 297.272ZM724.773 298.6C723.749 298.6 722.965 298.701 722.421 298.904C721.887 299.096 721.621 299.384 721.621 299.768C721.621 300.163 721.887 300.461 722.421 300.664C722.954 300.867 723.738 300.968 724.773 300.968C725.807 300.968 726.586 300.867 727.109 300.664C727.642 300.461 727.909 300.163 727.909 299.768C727.909 299.384 727.642 299.096 727.109 298.904C726.575 298.701 725.797 298.6 724.773 298.6Z" fill="#999999"/>
<path d="M873.351 181.04V195.28H871.591V181.04H873.351ZM869.143 182.528C869.143 184.811 868.637 186.805 867.623 188.512C866.61 190.219 864.925 191.643 862.567 192.784L861.655 191.392C863.469 190.517 864.829 189.472 865.735 188.256C866.642 187.04 867.175 185.605 867.335 183.952H862.359V182.528H869.143ZM883.176 186.528V181.312H884.808V194.608H883.176V187.952H881.336V186.528H883.176ZM878.184 183.536V181.52H879.864V183.536H882.216V184.96H879.864V185.392C879.864 186.555 880.104 187.637 880.584 188.64C881.074 189.632 881.789 190.379 882.728 190.88L881.752 192.192C881.122 191.851 880.578 191.387 880.12 190.8C879.672 190.203 879.314 189.52 879.048 188.752C878.792 189.595 878.434 190.341 877.976 190.992C877.517 191.643 876.968 192.155 876.328 192.528L875.336 191.2C876.274 190.645 876.984 189.84 877.464 188.784C877.944 187.728 878.184 186.597 878.184 185.392V184.96H875.816V183.536H878.184ZM887.72 181.04V195.28H886.04V181.04H887.72ZM896.92 181.504V182.224C896.92 182.821 897.128 183.403 897.544 183.968C897.96 184.533 898.547 185.024 899.304 185.44C900.061 185.845 900.925 186.117 901.896 186.256L901.208 187.648C900.024 187.467 898.973 187.099 898.056 186.544C897.149 185.989 896.461 185.307 895.992 184.496C895.533 185.307 894.851 185.989 893.944 186.544C893.037 187.099 891.981 187.467 890.776 187.648L890.088 186.256C891.059 186.117 891.923 185.845 892.68 185.44C893.437 185.035 894.024 184.549 894.44 183.984C894.856 183.419 895.064 182.832 895.064 182.224V181.504H896.92ZM902.424 188.896V190.336H896.824V195.296H895.064V190.336H889.544V188.896H902.424ZM909.032 192.096V188.816H910.792V192.096H916.424V193.536H903.528V192.096H909.032ZM910.84 181.888V182.944C910.84 183.659 911.059 184.352 911.496 185.024C911.934 185.696 912.542 186.272 913.32 186.752C914.099 187.221 914.968 187.536 915.928 187.696L915.176 189.184C913.982 188.949 912.92 188.507 911.992 187.856C911.075 187.195 910.382 186.4 909.912 185.472C909.443 186.4 908.739 187.195 907.8 187.856C906.872 188.507 905.816 188.949 904.632 189.184L903.912 187.696C904.872 187.536 905.736 187.216 906.504 186.736C907.283 186.256 907.891 185.68 908.328 185.008C908.766 184.336 908.984 183.648 908.984 182.944V181.888H910.84Z" fill="white"/>
<path d="M69.3513 435.04V449.28H67.5913V435.04H69.3513ZM65.1433 436.528C65.1433 438.811 64.6366 440.805 63.6233 442.512C62.6099 444.219 60.9246 445.643 58.5673 446.784L57.6553 445.392C59.4686 444.517 60.8286 443.472 61.7352 442.256C62.6419 441.04 63.1753 439.605 63.3353 437.952H58.3593V436.528H65.1433ZM79.1756 440.528V435.312H80.8076V448.608H79.1756V441.952H77.3356V440.528H79.1756ZM74.1836 437.536V435.52H75.8636V437.536H78.2156V438.96H75.8636V439.392C75.8636 440.555 76.1036 441.637 76.5836 442.64C77.0743 443.632 77.789 444.379 78.7276 444.88L77.7516 446.192C77.1223 445.851 76.5783 445.387 76.1196 444.8C75.6716 444.203 75.3143 443.52 75.0476 442.752C74.7916 443.595 74.4343 444.341 73.9756 444.992C73.517 445.643 72.9676 446.155 72.3276 446.528L71.3356 445.2C72.2743 444.645 72.9836 443.84 73.4636 442.784C73.9436 441.728 74.1836 440.597 74.1836 439.392V438.96H71.8156V437.536H74.1836ZM83.7196 435.04V449.28H82.0396V435.04H83.7196ZM92.92 435.504V436.224C92.92 436.821 93.128 437.403 93.544 437.968C93.96 438.533 94.5467 439.024 95.304 439.44C96.0613 439.845 96.9253 440.117 97.896 440.256L97.208 441.648C96.024 441.467 94.9733 441.099 94.056 440.544C93.1493 439.989 92.4613 439.307 91.992 438.496C91.5333 439.307 90.8507 439.989 89.944 440.544C89.0373 441.099 87.9813 441.467 86.776 441.648L86.088 440.256C87.0587 440.117 87.9227 439.845 88.68 439.44C89.4373 439.035 90.024 438.549 90.44 437.984C90.856 437.419 91.064 436.832 91.064 436.224V435.504H92.92ZM98.424 442.896V444.336H92.824V449.296H91.064V444.336H85.544V442.896H98.424ZM105.032 446.096V442.816H106.792V446.096H112.424V447.536H99.5284V446.096H105.032ZM106.84 435.888V436.944C106.84 437.659 107.059 438.352 107.496 439.024C107.934 439.696 108.542 440.272 109.32 440.752C110.099 441.221 110.968 441.536 111.928 441.696L111.176 443.184C109.982 442.949 108.92 442.507 107.992 441.856C107.075 441.195 106.382 440.4 105.912 439.472C105.443 440.4 104.739 441.195 103.8 441.856C102.872 442.507 101.816 442.949 100.632 443.184L99.9124 441.696C100.872 441.536 101.736 441.216 102.504 440.736C103.283 440.256 103.891 439.68 104.328 439.008C104.766 438.336 104.984 437.648 104.984 436.944V435.888H106.84Z" fill="white"/>
<path d="M462.887 435.92C463.506 435.92 464.061 436.069 464.551 436.368C465.053 436.656 465.442 437.061 465.719 437.584C465.997 438.107 466.135 438.699 466.135 439.36C466.135 440.021 465.997 440.613 465.719 441.136C465.442 441.659 465.053 442.064 464.551 442.352C464.061 442.64 463.506 442.784 462.887 442.784C462.269 442.784 461.709 442.64 461.207 442.352C460.717 442.064 460.333 441.659 460.055 441.136C459.778 440.613 459.639 440.021 459.639 439.36C459.639 438.699 459.778 438.107 460.055 437.584C460.333 437.061 460.717 436.656 461.207 436.368C461.709 436.069 462.269 435.92 462.887 435.92ZM462.887 437.408C462.397 437.408 461.997 437.584 461.687 437.936C461.389 438.288 461.239 438.763 461.239 439.36C461.239 439.947 461.394 440.421 461.703 440.784C462.013 441.136 462.407 441.312 462.887 441.312C463.378 441.312 463.778 441.136 464.087 440.784C464.397 440.421 464.551 439.947 464.551 439.36C464.551 438.773 464.397 438.304 464.087 437.952C463.778 437.589 463.378 437.408 462.887 437.408ZM471.639 435.056V443.536H469.975V440.016H468.615V443.472H466.967V435.312H468.615V438.576H469.975V435.056H471.639ZM471.639 444.24V449.296H469.895V445.648H461.943V444.24H471.639ZM484.744 435.056V440.928H486.696V442.4H484.744V449.296H482.984V435.056H484.744ZM473.4 445.344C474.936 445.344 476.136 445.333 477 445.312V443.968C476.221 443.84 475.602 443.547 475.144 443.088C474.685 442.629 474.456 442.064 474.456 441.392C474.456 440.869 474.6 440.405 474.888 440C475.176 439.595 475.576 439.285 476.088 439.072C476.61 438.848 477.208 438.736 477.88 438.736C478.552 438.736 479.144 438.848 479.656 439.072C480.178 439.285 480.584 439.595 480.872 440C481.17 440.405 481.32 440.869 481.32 441.392C481.32 442.064 481.085 442.629 480.616 443.088C480.157 443.547 479.538 443.84 478.76 443.968V445.232C479.837 445.189 480.984 445.088 482.2 444.928L482.344 446.192C481.01 446.448 479.661 446.613 478.296 446.688C476.941 446.752 475.389 446.784 473.64 446.784L473.4 445.344ZM477 436.672V435.104H478.76V436.672H482.088V438.064H473.656V436.672H477ZM477.88 440.064C477.346 440.064 476.92 440.181 476.6 440.416C476.28 440.651 476.12 440.976 476.12 441.392C476.12 441.808 476.28 442.133 476.6 442.368C476.92 442.603 477.346 442.72 477.88 442.72C478.424 442.72 478.856 442.603 479.176 442.368C479.496 442.133 479.656 441.808 479.656 441.392C479.656 440.976 479.496 440.651 479.176 440.416C478.856 440.181 478.424 440.064 477.88 440.064ZM494.92 435.504V436.224C494.92 436.821 495.128 437.403 495.544 437.968C495.96 438.533 496.547 439.024 497.304 439.44C498.061 439.845 498.925 440.117 499.896 440.256L499.208 441.648C498.024 441.467 496.973 441.099 496.056 440.544C495.149 439.989 494.461 439.307 493.992 438.496C493.533 439.307 492.851 439.989 491.944 440.544C491.037 441.099 489.981 441.467 488.776 441.648L488.088 440.256C489.059 440.117 489.923 439.845 490.68 439.44C491.437 439.035 492.024 438.549 492.44 437.984C492.856 437.419 493.064 436.832 493.064 436.224V435.504H494.92ZM500.424 442.896V444.336H494.824V449.296H493.064V444.336H487.544V442.896H500.424ZM507.032 446.096V442.816H508.792V446.096H514.424V447.536H501.528V446.096H507.032ZM508.84 435.888V436.944C508.84 437.659 509.059 438.352 509.496 439.024C509.934 439.696 510.542 440.272 511.32 440.752C512.099 441.221 512.968 441.536 513.928 441.696L513.176 443.184C511.982 442.949 510.92 442.507 509.992 441.856C509.075 441.195 508.382 440.4 507.912 439.472C507.443 440.4 506.739 441.195 505.8 441.856C504.872 442.507 503.816 442.949 502.632 443.184L501.912 441.696C502.872 441.536 503.736 441.216 504.504 440.736C505.283 440.256 505.891 439.68 506.328 439.008C506.766 438.336 506.984 437.648 506.984 436.944V435.888H508.84Z" fill="white"/>
<path d="M864.887 435.92C865.506 435.92 866.061 436.069 866.551 436.368C867.053 436.656 867.442 437.061 867.719 437.584C867.997 438.107 868.135 438.699 868.135 439.36C868.135 440.021 867.997 440.613 867.719 441.136C867.442 441.659 867.053 442.064 866.551 442.352C866.061 442.64 865.506 442.784 864.887 442.784C864.269 442.784 863.709 442.64 863.207 442.352C862.717 442.064 862.333 441.659 862.055 441.136C861.778 440.613 861.639 440.021 861.639 439.36C861.639 438.699 861.778 438.107 862.055 437.584C862.333 437.061 862.717 436.656 863.207 436.368C863.709 436.069 864.269 435.92 864.887 435.92ZM864.887 437.408C864.397 437.408 863.997 437.584 863.687 437.936C863.389 438.288 863.239 438.763 863.239 439.36C863.239 439.947 863.394 440.421 863.703 440.784C864.013 441.136 864.407 441.312 864.887 441.312C865.378 441.312 865.778 441.136 866.087 440.784C866.397 440.421 866.551 439.947 866.551 439.36C866.551 438.773 866.397 438.304 866.087 437.952C865.778 437.589 865.378 437.408 864.887 437.408ZM873.639 435.056V443.536H871.975V440.016H870.615V443.472H868.967V435.312H870.615V438.576H871.975V435.056H873.639ZM873.639 444.24V449.296H871.895V445.648H863.943V444.24H873.639ZM886.744 435.056V440.928H888.696V442.4H886.744V449.296H884.984V435.056H886.744ZM875.4 445.344C876.936 445.344 878.136 445.333 879 445.312V443.968C878.221 443.84 877.602 443.547 877.144 443.088C876.685 442.629 876.456 442.064 876.456 441.392C876.456 440.869 876.6 440.405 876.888 440C877.176 439.595 877.576 439.285 878.088 439.072C878.61 438.848 879.208 438.736 879.88 438.736C880.552 438.736 881.144 438.848 881.656 439.072C882.178 439.285 882.584 439.595 882.872 440C883.17 440.405 883.32 440.869 883.32 441.392C883.32 442.064 883.085 442.629 882.616 443.088C882.157 443.547 881.538 443.84 880.76 443.968V445.232C881.837 445.189 882.984 445.088 884.2 444.928L884.344 446.192C883.01 446.448 881.661 446.613 880.296 446.688C878.941 446.752 877.389 446.784 875.64 446.784L875.4 445.344ZM879 436.672V435.104H880.76V436.672H884.088V438.064H875.656V436.672H879ZM879.88 440.064C879.346 440.064 878.92 440.181 878.6 440.416C878.28 440.651 878.12 440.976 878.12 441.392C878.12 441.808 878.28 442.133 878.6 442.368C878.92 442.603 879.346 442.72 879.88 442.72C880.424 442.72 880.856 442.603 881.176 442.368C881.496 442.133 881.656 441.808 881.656 441.392C881.656 440.976 881.496 440.651 881.176 440.416C880.856 440.181 880.424 440.064 879.88 440.064ZM896.92 435.504V436.224C896.92 436.821 897.128 437.403 897.544 437.968C897.96 438.533 898.547 439.024 899.304 439.44C900.061 439.845 900.925 440.117 901.896 440.256L901.208 441.648C900.024 441.467 898.973 441.099 898.056 440.544C897.149 439.989 896.461 439.307 895.992 438.496C895.533 439.307 894.851 439.989 893.944 440.544C893.037 441.099 891.981 441.467 890.776 441.648L890.088 440.256C891.059 440.117 891.923 439.845 892.68 439.44C893.437 439.035 894.024 438.549 894.44 437.984C894.856 437.419 895.064 436.832 895.064 436.224V435.504H896.92ZM902.424 442.896V444.336H896.824V449.296H895.064V444.336H889.544V442.896H902.424ZM909.032 446.096V442.816H910.792V446.096H916.424V447.536H903.528V446.096H909.032ZM910.84 435.888V436.944C910.84 437.659 911.059 438.352 911.496 439.024C911.934 439.696 912.542 440.272 913.32 440.752C914.099 441.221 914.968 441.536 915.928 441.696L915.176 443.184C913.982 442.949 912.92 442.507 911.992 441.856C911.075 441.195 910.382 440.4 909.912 439.472C909.443 440.4 908.739 441.195 907.8 441.856C906.872 442.507 905.816 442.949 904.632 443.184L903.912 441.696C904.872 441.536 905.736 441.216 906.504 440.736C907.283 440.256 907.891 439.68 908.328 439.008C908.766 438.336 908.984 437.648 908.984 436.944V435.888H910.84Z" fill="white"/>
<circle cx="1090" cy="188" r="84.4218" fill="white" stroke="#DEDEDE" stroke-width="1.15646"/>
<path d="M1120 194V155.822C1120 155.033 1119.13 154.554 1118.46 154.978L1106.32 162.706C1105.65 163.13 1104.78 162.651 1104.78 161.862V155.822C1104.78 155.033 1103.91 154.554 1103.25 154.978L1091.1 162.706C1090.44 163.13 1089.56 162.651 1089.56 161.862V155.821C1089.56 155.032 1088.69 154.554 1088.03 154.977L1072.46 164.878C1072.17 165.062 1072 165.38 1072 165.722V194M1082 172.021H1084.82M1082 178.355H1084.82M1082 184.691H1084.82M1094.82 172.021H1097.63M1094.82 178.355H1097.63M1094.82 184.691H1097.63M1107.63 172.021H1110.45M1107.63 178.355H1110.45M1107.63 184.691H1110.45M1060 194V152.168C1060 151.521 1060.52 151 1061.17 151H1065.83C1066.48 151 1067 151.521 1067 152.168V194M1057 194H1123" stroke="#222222" stroke-width="2" stroke-linecap="round"/>
<path d="M1072.72 216.892V218.746C1072.72 219.838 1073.04 220.834 1073.69 221.734C1074.35 222.634 1075.29 223.288 1076.5 223.696L1075.49 225.244C1074.63 224.956 1073.88 224.524 1073.24 223.948C1072.62 223.36 1072.13 222.67 1071.77 221.878C1071.42 222.742 1070.91 223.498 1070.25 224.146C1069.61 224.782 1068.82 225.262 1067.9 225.586L1066.83 224.038C1068.09 223.606 1069.06 222.91 1069.73 221.95C1070.4 220.99 1070.74 219.916 1070.74 218.728V216.892H1072.72ZM1079.54 215.92V220.672H1081.77V222.31H1079.54V227.674H1077.56V215.92H1079.54ZM1071.37 226.558V230.05H1080.17V231.634H1069.39V226.558H1071.37ZM1087.14 216.622C1088.18 216.622 1089.08 216.892 1089.82 217.432C1090.56 217.972 1091.03 218.686 1091.22 219.574H1094.07V215.938H1096.05V224.524H1094.07V221.176H1091.24C1091.06 222.076 1090.59 222.802 1089.84 223.354C1089.09 223.906 1088.19 224.182 1087.14 224.182C1086.35 224.182 1085.63 224.02 1084.98 223.696C1084.34 223.372 1083.84 222.928 1083.48 222.364C1083.12 221.788 1082.94 221.134 1082.94 220.402C1082.94 219.67 1083.12 219.022 1083.48 218.458C1083.84 217.882 1084.34 217.432 1084.98 217.108C1085.63 216.784 1086.35 216.622 1087.14 216.622ZM1087.14 218.26C1086.45 218.26 1085.9 218.458 1085.46 218.854C1085.04 219.238 1084.83 219.754 1084.83 220.402C1084.83 221.038 1085.04 221.554 1085.46 221.95C1085.9 222.334 1086.45 222.526 1087.14 222.526C1087.81 222.526 1088.36 222.334 1088.78 221.95C1089.21 221.554 1089.42 221.038 1089.42 220.402C1089.42 219.754 1089.21 219.238 1088.78 218.854C1088.36 218.458 1087.81 218.26 1087.14 218.26ZM1087.53 225.28V226.972H1094.09V225.28H1096.05V231.76H1085.55V225.28H1087.53ZM1087.53 230.176H1094.09V228.502H1087.53V230.176ZM1107.05 222.094V216.226H1108.88V231.184H1107.05V223.696H1104.98V222.094H1107.05ZM1101.43 218.728V216.46H1103.32V218.728H1105.97V220.33H1103.32V220.816C1103.32 222.124 1103.59 223.342 1104.13 224.47C1104.68 225.586 1105.49 226.426 1106.54 226.99L1105.44 228.466C1104.74 228.082 1104.12 227.56 1103.61 226.9C1103.1 226.228 1102.7 225.46 1102.4 224.596C1102.11 225.544 1101.71 226.384 1101.2 227.116C1100.68 227.848 1100.06 228.424 1099.34 228.844L1098.23 227.35C1099.28 226.726 1100.08 225.82 1100.62 224.632C1101.16 223.444 1101.43 222.172 1101.43 220.816V220.33H1098.77V218.728H1101.43ZM1112.16 215.92V231.94H1110.27V215.92H1112.16Z" fill="#222222"/>
<circle cx="688" cy="444" r="84.4218" fill="white" stroke="#DEDEDE" stroke-width="1.15646"/>
<path d="M705.478 421.084L706.477 421.126L706.478 421.105V421.084H705.478ZM702.402 431.576L701.53 431.087L701.527 431.092L702.402 431.576ZM655.008 431.576L655.883 431.092L655.88 431.085L655.008 431.576ZM654.963 408.919L654.088 408.435L654.086 408.439L654.963 408.919ZM702.448 408.919L703.327 408.443L703.323 408.435L702.448 408.919ZM705.478 419.411H706.478V419.395L706.477 419.378L705.478 419.411ZM729 422.936H730C730 422.689 729.909 422.451 729.744 422.268L729 422.936ZM718.102 410.816L718.845 410.148C718.656 409.937 718.385 409.816 718.102 409.816V410.816ZM706.704 421.936C706.152 421.936 705.704 422.383 705.704 422.936C705.704 423.488 706.152 423.936 706.704 423.936V422.936V421.936ZM728.366 423.936C728.918 423.936 729.366 423.488 729.366 422.936C729.366 422.383 728.918 421.936 728.366 421.936V422.936V423.936ZM714.246 410.637C714.147 410.093 713.626 409.733 713.083 409.833C712.539 409.932 712.179 410.453 712.279 410.996L713.262 410.816L714.246 410.637ZM714.495 423.116C714.594 423.659 715.115 424.019 715.658 423.92C716.202 423.821 716.561 423.3 716.462 422.756L715.478 422.936L714.495 423.116ZM707.017 436.057C707.569 436.057 708.017 435.609 708.017 435.057C708.017 434.504 707.569 434.057 707.017 434.057V435.057V436.057ZM648 435.057H647C647 435.609 647.448 436.057 648 436.057V435.057ZM649 430.037C649 429.485 648.552 429.037 648 429.037C647.448 429.037 647 429.485 647 430.037H648H649ZM681.555 400.004C681.003 400.004 680.555 400.452 680.555 401.004C680.555 401.556 681.003 402.004 681.555 402.004V401.004V400.004ZM693.449 402.004C694.001 402.004 694.449 401.556 694.449 401.004C694.449 400.452 694.001 400.004 693.449 400.004V401.004V402.004ZM678.663 414.032L679.37 413.325C678.979 412.934 678.346 412.934 677.956 413.325L678.663 414.032ZM675 417.695L674.293 416.988L675 417.695ZM682.326 425.067L681.619 424.36C681.613 424.365 681.608 424.371 681.603 424.376L682.326 425.067ZM705.478 421.084L704.478 421.043C704.349 424.145 703.532 427.519 701.53 431.087L702.402 431.576L703.275 432.065C705.434 428.216 706.335 424.535 706.477 421.126L705.478 421.084ZM702.402 431.576L701.527 431.092C700.524 432.906 698.639 434.013 696.659 434.013V435.013V436.013C699.382 436.013 701.929 434.497 703.277 432.06L702.402 431.576ZM696.659 435.013V434.013H660.752V435.013V436.013H696.659V435.013ZM660.752 435.013V434.013C658.772 434.013 656.887 432.906 655.883 431.092L655.008 431.576L654.133 432.06C655.481 434.497 658.028 436.013 660.752 436.013V435.013ZM655.008 431.576L655.88 431.085C650.859 422.17 653.094 414.413 655.84 409.4L654.963 408.919L654.086 408.439C651.134 413.827 648.666 422.35 654.137 432.067L655.008 431.576ZM654.963 408.919L655.838 409.403C656.844 407.586 658.685 406.482 660.706 406.482V405.482V404.482C657.934 404.482 655.434 406.002 654.088 408.435L654.963 408.919ZM660.706 405.482V406.482H696.704V405.482V404.482H660.706V405.482ZM696.704 405.482V406.482C698.725 406.482 700.567 407.586 701.573 409.403L702.448 408.919L703.323 408.435C701.977 406.002 699.477 404.482 696.704 404.482V405.482ZM702.448 408.919L701.568 409.395C703.016 412.071 704.349 415.489 704.478 419.443L705.478 419.411L706.477 419.378C706.335 415.011 704.864 411.285 703.327 408.443L702.448 408.919ZM705.478 419.411H704.478V421.084H705.478H706.478V419.411H705.478ZM729 422.936H728V431.438H729H730V422.936H729ZM729 431.438H728C728 432.876 726.82 434.056 725.383 434.056V435.056V436.056C727.925 436.056 730 433.98 730 431.438H729ZM725.383 435.056V434.056H710.097V435.056V436.056H725.383V435.056ZM710.097 435.056V434.056C708.66 434.056 707.479 432.876 707.479 431.438H706.479H705.479C705.479 433.98 707.555 436.056 710.097 436.056V435.056ZM706.479 431.438H707.479V414.434H706.479H705.479V431.438H706.479ZM706.479 414.434H707.479C707.479 412.997 708.66 411.816 710.097 411.816V410.816V409.816C707.555 409.816 705.479 411.892 705.479 414.434H706.479ZM710.097 410.816V411.816H718.102V410.816V409.816H710.097V410.816ZM718.102 410.816L717.358 411.485L728.257 423.605L729 422.936L729.744 422.268L718.845 410.148L718.102 410.816ZM706.704 422.936V423.936H728.366V422.936V421.936H706.704V422.936ZM713.262 410.816L712.279 410.996L714.495 423.116L715.478 422.936L716.462 422.756L714.246 410.637L713.262 410.816ZM707.017 435.057V434.057H648V435.057V436.057H707.017V435.057ZM648 435.057H649V430.037H648H647V435.057H648ZM673.053 441.932H672.053C672.053 444.652 669.849 446.856 667.129 446.856V447.856V448.856C670.953 448.856 674.053 445.756 674.053 441.932H673.053ZM667.129 447.856V446.856C664.41 446.856 662.205 444.652 662.205 441.932H661.205H660.205C660.205 445.756 663.305 448.856 667.129 448.856V447.856ZM661.205 441.932H662.205C662.205 439.213 664.41 437.008 667.129 437.008V436.008V435.008C663.305 435.008 660.205 438.108 660.205 441.932H661.205ZM667.129 436.008V437.008C669.849 437.008 672.053 439.213 672.053 441.932H673.053H674.053C674.053 438.108 670.953 435.008 667.129 435.008V436.008ZM711.405 441.932H710.405C710.405 444.652 708.2 446.856 705.481 446.856V447.856V448.856C709.305 448.856 712.405 445.756 712.405 441.932H711.405ZM705.481 447.856V446.856C702.761 446.856 700.556 444.652 700.556 441.932H699.556H698.556C698.556 445.756 701.657 448.856 705.481 448.856V447.856ZM699.556 441.932H700.556C700.556 439.213 702.761 437.008 705.481 437.008V436.008V435.008C701.657 435.008 698.556 438.108 698.556 441.932H699.556ZM705.481 436.008V437.008C708.2 437.008 710.405 439.213 710.405 441.932H711.405H712.405C712.405 438.108 709.305 435.008 705.481 435.008V436.008ZM681.555 401.004V402.004H693.449V401.004V400.004H681.555V401.004ZM682.326 417.695L683.033 416.988L679.37 413.325L678.663 414.032L677.956 414.739L681.619 418.402L682.326 417.695ZM678.663 414.032L677.956 413.325L674.293 416.988L675 417.695L675.707 418.402L679.37 414.739L678.663 414.032ZM675 417.695L674.293 416.988C671.867 419.414 671.867 423.348 674.293 425.774L675 425.067L675.707 424.36C674.062 422.715 674.062 420.047 675.707 418.402L675 417.695ZM675 425.067L674.293 425.774C675.472 426.953 677.036 427.604 678.663 427.604V426.604V425.604C677.576 425.604 676.518 425.17 675.707 424.36L675 425.067ZM678.663 426.604V427.604C680.276 427.604 681.9 426.962 683.049 425.757L682.326 425.067L681.603 424.376C680.853 425.162 679.763 425.604 678.663 425.604V426.604ZM682.326 425.067L683.033 425.774C685.459 423.348 685.459 419.414 683.033 416.988L682.326 417.695L681.619 418.402C683.263 420.047 683.263 422.715 681.619 424.36L682.326 425.067Z" fill="#222222"/>
<path d="M664.505 473.072V474.638H660.131V476.168H664.325V477.662H660.131V479.264C661.163 479.252 662.039 479.222 662.759 479.174C663.491 479.114 664.223 479.018 664.955 478.886L665.135 480.488C664.283 480.644 663.431 480.746 662.579 480.794C661.739 480.842 660.653 480.866 659.321 480.866H658.241V473.072H664.505ZM671.219 471.938V481.874H669.347V477.572H667.835V481.316H665.981V472.244H667.835V475.952H669.347V471.938H671.219ZM665.873 482.054C667.577 482.054 668.909 482.312 669.869 482.828C670.829 483.344 671.309 484.064 671.309 484.988C671.309 485.924 670.829 486.65 669.869 487.166C668.909 487.682 667.577 487.94 665.873 487.94C664.169 487.94 662.837 487.682 661.877 487.166C660.917 486.65 660.437 485.924 660.437 484.988C660.437 484.064 660.917 483.344 661.877 482.828C662.837 482.312 664.169 482.054 665.873 482.054ZM665.873 483.566C664.745 483.566 663.881 483.686 663.281 483.926C662.681 484.166 662.381 484.52 662.381 484.988C662.381 485.456 662.681 485.816 663.281 486.068C663.893 486.308 664.757 486.428 665.873 486.428C667.001 486.428 667.859 486.308 668.447 486.068C669.047 485.816 669.347 485.456 669.347 484.988C669.347 484.52 669.047 484.166 668.447 483.926C667.859 483.686 667.001 483.566 665.873 483.566ZM686.286 473.414V475.304C686.286 476.84 686.244 478.172 686.16 479.3C686.088 480.428 685.89 481.748 685.566 483.26L683.604 483.08C683.904 481.784 684.102 480.524 684.198 479.3L674.856 479.786L674.604 478.184L684.288 477.842C684.312 477.254 684.324 476.408 684.324 475.304V475.016H675.036V473.414H686.286ZM687.87 484.286V485.924H673.38V484.286H687.87ZM695.358 484.484V481.856H690.84V476.6H699.966V474.584H690.804V473.018H701.928V478.166H692.784V480.272H702.288V481.856H697.32V484.484H703.62V486.086H689.112V484.484H695.358ZM718.092 471.902V487.976H716.112V471.902H718.092ZM713.196 473.342V479.354H707.724V482.558C709.092 482.546 710.328 482.504 711.432 482.432C712.548 482.348 713.688 482.21 714.852 482.018L715.05 483.62C713.778 483.836 712.53 483.986 711.306 484.07C710.094 484.142 708.696 484.178 707.112 484.178H705.726V477.77H711.198V474.926H705.69V473.342H713.196Z" fill="#222222"/>
<circle cx="1090" cy="444" r="84.4218" fill="white" stroke="#DEDEDE" stroke-width="1.15646"/>
<path d="M1059 446.706H1121M1113.47 414.837V436.856C1113.47 439.098 1111.65 440.912 1109.41 440.912C1107.17 440.912 1105.36 439.098 1105.36 436.856V412.861C1105.36 410.433 1103.39 408.463 1100.96 408.463H1100.14M1116.94 396.295L1114.95 397.622C1114.02 398.242 1113.47 399.285 1113.47 400.403L1113.49 403.828M1080.44 405.566L1083.34 411.94M1063.64 441.491H1102.46V446.706H1063.64V441.491ZM1070.83 396.295H1095.45C1097.45 396.295 1099.07 397.917 1099.07 399.916V441.491H1067.21V399.916C1067.21 397.917 1068.83 396.295 1070.83 396.295ZM1072.14 401.8H1094.15V412.23H1072.14V401.8ZM1111.44 404.697H1116.07V414.547H1111.44V404.697ZM1088.88 428.842C1088.88 432.005 1086.31 434.572 1083.15 434.572C1079.98 434.572 1077.41 432.005 1077.41 428.842C1077.41 425.678 1083.15 419.153 1083.15 419.153C1083.15 419.153 1088.88 425.678 1088.88 428.842Z" stroke="#222222" stroke-width="2" stroke-linecap="round" stroke-linejoin="round"/>
<path d="M1060.08 472.442V473.252C1060.08 473.924 1060.31 474.578 1060.78 475.214C1061.25 475.85 1061.91 476.402 1062.76 476.87C1063.61 477.326 1064.58 477.632 1065.68 477.788L1064.9 479.354C1063.57 479.15 1062.39 478.736 1061.36 478.112C1060.34 477.488 1059.56 476.72 1059.03 475.808C1058.52 476.72 1057.75 477.488 1056.73 478.112C1055.71 478.736 1054.52 479.15 1053.17 479.354L1052.39 477.788C1053.48 477.632 1054.46 477.326 1055.31 476.87C1056.16 476.414 1056.82 475.868 1057.29 475.232C1057.76 474.596 1057.99 473.936 1057.99 473.252V472.442H1060.08ZM1066.27 480.758V482.378H1059.97V487.958H1057.99V482.378H1051.78V480.758H1066.27ZM1073.71 484.358V480.668H1075.69V484.358H1082.02V485.978H1067.51V484.358H1073.71ZM1075.74 472.874V474.062C1075.74 474.866 1075.99 475.646 1076.48 476.402C1076.97 477.158 1077.65 477.806 1078.53 478.346C1079.41 478.874 1080.38 479.228 1081.46 479.408L1080.62 481.082C1079.27 480.818 1078.08 480.32 1077.04 479.588C1076 478.844 1075.22 477.95 1074.7 476.906C1074.17 477.95 1073.38 478.844 1072.32 479.588C1071.28 480.32 1070.09 480.818 1068.76 481.082L1067.95 479.408C1069.03 479.228 1070 478.868 1070.86 478.328C1071.74 477.788 1072.42 477.14 1072.91 476.384C1073.41 475.628 1073.65 474.854 1073.65 474.062V472.874H1075.74ZM1097.72 479.714V481.28H1091.45V482.594C1092.89 482.678 1094.01 482.948 1094.8 483.404C1095.59 483.86 1095.99 484.478 1095.99 485.258C1095.99 486.122 1095.5 486.782 1094.53 487.238C1093.57 487.706 1092.22 487.94 1090.46 487.94C1088.71 487.94 1087.35 487.706 1086.38 487.238C1085.41 486.782 1084.92 486.122 1084.92 485.258C1084.92 484.478 1085.32 483.86 1086.11 483.404C1086.9 482.948 1088.02 482.678 1089.47 482.594V481.28H1083.25V479.714H1097.72ZM1091.47 471.938V473.414H1096.3V474.962H1091.6C1091.74 475.634 1092.28 476.21 1093.22 476.69C1094.17 477.158 1095.43 477.446 1097 477.554L1096.42 479.066C1094.99 478.946 1093.77 478.676 1092.75 478.256C1091.73 477.824 1090.97 477.266 1090.46 476.582C1089.97 477.266 1089.21 477.824 1088.18 478.256C1087.16 478.676 1085.94 478.946 1084.52 479.066L1083.93 477.554C1085.5 477.446 1086.76 477.158 1087.71 476.69C1088.66 476.21 1089.2 475.634 1089.35 474.962H1084.67V473.414H1089.47V471.938H1091.47ZM1090.46 484.016C1088.1 484.016 1086.92 484.43 1086.92 485.258C1086.92 485.666 1087.22 485.972 1087.82 486.176C1088.42 486.38 1089.3 486.482 1090.46 486.482C1091.62 486.482 1092.49 486.38 1093.09 486.176C1093.69 485.972 1093.99 485.666 1093.99 485.258C1093.99 484.43 1092.82 484.016 1090.46 484.016ZM1110.3 476.168V471.938H1112.28V483.62H1110.3V477.77H1107.51V476.168H1110.3ZM1103.82 482.63V486.05H1112.68V487.634H1101.82V482.63H1103.82ZM1108.09 473.09V474.674H1104.81V475.106C1104.81 476.126 1105.13 477.08 1105.78 477.968C1106.44 478.844 1107.36 479.48 1108.54 479.876L1107.56 481.424C1106.7 481.124 1105.95 480.686 1105.31 480.11C1104.69 479.534 1104.2 478.85 1103.84 478.058C1103.49 478.922 1102.98 479.678 1102.31 480.326C1101.65 480.974 1100.86 481.454 1099.93 481.766L1098.92 480.2C1100.15 479.78 1101.1 479.102 1101.79 478.166C1102.47 477.23 1102.81 476.21 1102.81 475.106V474.674H1099.48V473.09H1108.09ZM1120.9 484.358V480.668H1122.88V484.358H1129.22V485.978H1114.71V484.358H1120.9ZM1122.94 472.874V474.062C1122.94 474.866 1123.18 475.646 1123.67 476.402C1124.17 477.158 1124.85 477.806 1125.73 478.346C1126.6 478.874 1127.58 479.228 1128.66 479.408L1127.81 481.082C1126.47 480.818 1125.28 480.32 1124.23 479.588C1123.2 478.844 1122.42 477.95 1121.89 476.906C1121.36 477.95 1120.57 478.844 1119.52 479.588C1118.47 480.32 1117.28 480.818 1115.95 481.082L1115.14 479.408C1116.22 479.228 1117.19 478.868 1118.06 478.328C1118.93 477.788 1119.62 477.14 1120.11 476.384C1120.6 475.628 1120.85 474.854 1120.85 474.062V472.874H1122.94Z" fill="#222222"/>
</svg>
