<svg width="83" height="49" viewBox="0 0 83 49" fill="none" xmlns="http://www.w3.org/2000/svg">
<path d="M58.4776 21.0842L59.4767 21.1258L59.4776 21.105V21.0842H58.4776ZM55.4024 31.576L54.5302 31.0867L54.5274 31.0919L55.4024 31.576ZM8.00829 31.576L8.88335 31.0919L8.87964 31.0853L8.00829 31.576ZM7.96306 8.91906L7.08802 8.43499L7.08604 8.4386L7.96306 8.91906ZM55.4476 8.91906L56.3272 8.44322L56.3227 8.435L55.4476 8.91906ZM58.4776 19.4109H59.4776V19.3946L59.4771 19.3783L58.4776 19.4109ZM82.0005 22.9363H83.0005C83.0005 22.6894 82.9091 22.4512 82.7441 22.2677L82.0005 22.9363ZM71.1016 10.8164L71.8452 10.1478C71.6556 9.93688 71.3853 9.81644 71.1016 9.81644V10.8164ZM59.7038 21.9356C59.1516 21.9356 58.7038 22.3833 58.7038 22.9356C58.7038 23.4879 59.1516 23.9356 59.7038 23.9356V22.9356V21.9356ZM81.3658 23.9356C81.9181 23.9356 82.3658 23.4879 82.3658 22.9356C82.3658 22.3833 81.9181 21.9356 81.3658 21.9356V22.9356V23.9356ZM67.2461 10.6366C67.1468 10.0933 66.6259 9.73342 66.0826 9.83275C65.5393 9.93208 65.1794 10.453 65.2787 10.9963L66.2624 10.8164L67.2461 10.6366ZM67.4947 23.1162C67.594 23.6594 68.115 24.0193 68.6582 23.92C69.2015 23.8207 69.5614 23.2997 69.4621 22.7565L68.4784 22.9363L67.4947 23.1162ZM60.0165 36.0568C60.5688 36.0568 61.0165 35.6091 61.0165 35.0568C61.0165 34.5045 60.5688 34.0568 60.0165 34.0568V35.0568V36.0568ZM1 35.0568H0C0 35.6091 0.447715 36.0568 1 36.0568L1 35.0568ZM2 30.037C2 29.4847 1.55228 29.037 1 29.037C0.447715 29.037 0 29.4847 0 30.037H1H2ZM34.5554 0.00390625C34.0031 0.00390625 33.5554 0.451621 33.5554 1.00391C33.5554 1.55619 34.0031 2.00391 34.5554 2.00391V1.00391V0.00390625ZM46.4492 2.00391C47.0014 2.00391 47.4492 1.55619 47.4492 1.00391C47.4492 0.451621 47.0014 0.00390625 46.4492 0.00390625V1.00391V2.00391ZM31.6629 14.0321L32.37 13.325C31.9795 12.9345 31.3463 12.9345 30.9558 13.325L31.6629 14.0321ZM27.9998 17.6952L27.2927 16.9881L27.9998 17.6952ZM35.326 25.0666L34.6189 24.3595C34.6134 24.365 34.608 24.3706 34.6026 24.3762L35.326 25.0666ZM58.4776 21.0842L57.4785 21.0425C57.3492 24.1454 56.5317 27.5189 54.5303 31.0867L55.4024 31.576L56.2745 32.0652C58.4336 28.2164 59.3347 24.5351 59.4767 21.1258L58.4776 21.0842ZM55.4024 31.576L54.5274 31.0919C53.5238 32.9061 51.6389 34.013 49.659 34.013V35.013V36.013C52.3824 36.013 54.9294 34.4969 56.2774 32.06L55.4024 31.576ZM49.659 35.013V34.013H13.7517V35.013V36.013H49.659V35.013ZM13.7517 35.013V34.013C11.7718 34.013 9.8869 32.9061 8.88332 31.0919L8.00829 31.576L7.13325 32.06C8.48129 34.4969 11.0283 36.013 13.7517 36.013V35.013ZM8.00829 31.576L8.87964 31.0853C3.85909 22.1695 6.09371 14.4127 8.84008 9.39951L7.96306 8.91906L7.08604 8.4386C4.13428 13.8268 1.66566 22.3504 7.13694 32.0666L8.00829 31.576ZM7.96306 8.91906L8.8381 9.40312C9.84358 7.58552 11.6852 6.48208 13.7064 6.48208V5.48208V4.48208C10.934 4.48208 8.43417 6.0016 7.08803 8.435L7.96306 8.91906ZM13.7064 5.48208V6.48208H49.7043V5.48208V4.48208H13.7064V5.48208ZM49.7043 5.48208V6.48208C51.7255 6.48208 53.5671 7.58552 54.5726 9.40312L55.4476 8.91906L56.3227 8.435C54.9765 6.0016 52.4767 4.48208 49.7043 4.48208V5.48208ZM55.4476 8.91906L54.5681 9.39488C56.0157 12.0708 57.3492 15.4892 57.4781 19.4435L58.4776 19.4109L59.4771 19.3783C59.3347 15.0114 57.8643 11.2846 56.3272 8.44324L55.4476 8.91906ZM58.4776 19.4109H57.4776V21.0842H58.4776H59.4776V19.4109H58.4776ZM82.0005 22.9363H81.0005V31.4383H82.0005H83.0005V22.9363H82.0005ZM82.0005 31.4383H81.0005C81.0005 32.8759 79.8202 34.0562 78.3826 34.0562V35.0562V36.0562C80.9247 36.0562 83.0005 33.9804 83.0005 31.4383H82.0005ZM78.3826 35.0562V34.0562H63.0971V35.0562V36.0562H78.3826V35.0562ZM63.0971 35.0562V34.0562C61.6596 34.0562 60.4792 32.8759 60.4792 31.4383H59.4792H58.4792C58.4792 33.9804 60.555 36.0562 63.0971 36.0562V35.0562ZM59.4792 31.4383H60.4792V14.4343H59.4792H58.4792V31.4383H59.4792ZM59.4792 14.4343H60.4792C60.4792 12.9968 61.6596 11.8164 63.0971 11.8164V10.8164V9.81644C60.555 9.81644 58.4792 11.8922 58.4792 14.4343H59.4792ZM63.0971 10.8164V11.8164H71.1016V10.8164V9.81644H63.0971V10.8164ZM71.1016 10.8164L70.3581 11.4851L81.2569 23.605L82.0005 22.9363L82.7441 22.2677L71.8452 10.1478L71.1016 10.8164ZM59.7038 22.9356V23.9356H81.3658V22.9356V21.9356H59.7038V22.9356ZM66.2624 10.8164L65.2787 10.9963L67.4947 23.1162L68.4784 22.9363L69.4621 22.7565L67.2461 10.6366L66.2624 10.8164ZM60.0165 35.0568V34.0568H1V35.0568V36.0568H60.0165V35.0568ZM1 35.0568H2V30.037H1H0V35.0568H1ZM26.0534 41.9321H25.0534C25.0534 44.6517 22.8487 46.8564 20.1291 46.8564V47.8564V48.8564C23.9533 48.8564 27.0534 45.7563 27.0534 41.9321H26.0534ZM20.1291 47.8564V46.8564C17.4095 46.8564 15.2049 44.6517 15.2049 41.9321H14.2049H13.2049C13.2049 45.7563 16.305 48.8564 20.1291 48.8564V47.8564ZM14.2049 41.9321H15.2049C15.2049 39.2125 17.4095 37.0079 20.1291 37.0079V36.0079V35.0079C16.305 35.0079 13.2049 38.108 13.2049 41.9321H14.2049ZM20.1291 36.0079V37.0079C22.8487 37.0079 25.0534 39.2125 25.0534 41.9321H26.0534H27.0534C27.0534 38.108 23.9533 35.0079 20.1291 35.0079V36.0079ZM64.405 41.9321H63.405C63.405 44.6517 61.2003 46.8564 58.4807 46.8564V47.8564V48.8564C62.3049 48.8564 65.405 45.7563 65.405 41.9321H64.405ZM58.4807 47.8564V46.8564C55.7611 46.8564 53.5564 44.6517 53.5564 41.9321H52.5564H51.5564C51.5564 45.7563 54.6565 48.8564 58.4807 48.8564V47.8564ZM52.5564 41.9321H53.5564C53.5564 39.2125 55.7611 37.0079 58.4807 37.0079V36.0079V35.0079C54.6565 35.0079 51.5564 38.108 51.5564 41.9321H52.5564ZM58.4807 36.0079V37.0079C61.2003 37.0079 63.405 39.2125 63.405 41.9321H64.405H65.405C65.405 38.108 62.3049 35.0079 58.4807 35.0079V36.0079ZM34.5554 1.00391V2.00391H46.4492V1.00391V0.00390625H34.5554V1.00391ZM35.326 17.6952L36.0331 16.9881L32.37 13.325L31.6629 14.0321L30.9558 14.7392L34.6189 18.4023L35.326 17.6952ZM31.6629 14.0321L30.9558 13.325L27.2927 16.9881L27.9998 17.6952L28.7069 18.4023L32.37 14.7392L31.6629 14.0321ZM27.9998 17.6952L27.2927 16.9881C24.8671 19.4137 24.8671 23.3482 27.2927 25.7737L27.9998 25.0666L28.7069 24.3595C27.0624 22.715 27.0624 20.0469 28.7069 18.4023L27.9998 17.6952ZM27.9998 25.0666L27.2927 25.7737C28.4717 26.9527 30.0361 27.6042 31.6629 27.6042V26.6042V25.6042C30.5762 25.6042 29.5177 25.1704 28.7069 24.3595L27.9998 25.0666ZM31.6629 26.6042V27.6042C33.276 27.6042 34.8996 26.9616 36.0493 25.7571L35.326 25.0666L34.6026 24.3762C33.8529 25.1615 32.7631 25.6042 31.6629 25.6042V26.6042ZM35.326 25.0666L36.0331 25.7737C38.4587 23.3482 38.4587 19.4137 36.0331 16.9881L35.326 17.6952L34.6189 18.4023C36.2634 20.0469 36.2634 22.715 34.6189 24.3595L35.326 25.0666Z" fill="#222222"/>
</svg>
