<svg width="63" height="51" viewBox="0 0 63 51" fill="none" xmlns="http://www.w3.org/2000/svg">
<path d="M56.3347 27.5982V42.4132H44.4536C41.9077 46.7534 37.1795 49.6873 31.7723 49.6873C26.3652 49.6873 21.637 46.7534 19.0911 42.4132H7.20996V27.5982H19.0911C20.1337 25.8281 21.5158 24.3005 23.1888 23.0882H40.3558C42.0046 24.2763 43.411 25.8281 44.4536 27.5982H56.3347Z" stroke="#222222" stroke-width="2" stroke-linecap="round" stroke-linejoin="round"/>
<path d="M56.3346 25.3192V44.6927H61.5962V25.3192H56.3346Z" stroke="#222222" stroke-width="2" stroke-linecap="round" stroke-linejoin="round"/>
<path d="M1.97266 25.3192V44.6927H7.21004V25.3192H1.97266Z" stroke="#222222" stroke-width="2" stroke-linecap="round" stroke-linejoin="round"/>
<path d="M23.0916 23.0869H40.4768V16.0794H23.0916V23.0869Z" stroke="#222222" stroke-width="2" stroke-linecap="round" stroke-linejoin="round"/>
<path d="M26.5828 2.04153C26.0736 1.55659 25.4432 1.26562 24.7158 1.26562H12.5922C11.1374 1.26562 9.94925 2.45374 9.94925 3.90857C9.94925 5.3634 11.1374 6.57575 12.5922 6.57575H23.6246L29.444 10.3583H34.5844L40.3794 6.57575H51.4119C52.891 6.57575 54.0791 5.38764 54.0791 3.90857C54.0791 2.42949 52.891 1.26562 51.4119 1.26562H39.2883C38.5609 1.26562 37.9062 1.55659 37.4213 2.04153L34.0267 4.53899H30.1471L26.6313 2.04153H26.5828Z" stroke="#222222" stroke-width="2" stroke-linecap="round" stroke-linejoin="round"/>
<path d="M29.4187 16.0814H34.1469V10.3348H29.4187V16.0814Z" stroke="#222222" stroke-width="2" stroke-linecap="round" stroke-linejoin="round"/>
</svg>
