<svg width="61" height="61" viewBox="0 0 61 61" fill="none" xmlns="http://www.w3.org/2000/svg">
<path d="M60 61C60.5523 61 61 60.5523 61 60C61 59.4477 60.5523 59 60 59V60V61ZM24.3119 59C23.7596 59 23.3119 59.4477 23.3119 60C23.3119 60.5523 23.7596 61 24.3119 61V60V59ZM11.2754 49.7811C10.7231 49.7811 10.2754 50.2288 10.2754 50.7811C10.2754 51.3334 10.7231 51.7811 11.2754 51.7811V50.7811V49.7811ZM14.4956 51.7811C15.0479 51.7811 15.4956 51.3334 15.4956 50.7811C15.4956 50.2288 15.0479 49.7811 14.4956 49.7811V50.7811V51.7811ZM11.3211 54.3904C10.7688 54.3904 10.3211 54.8381 10.3211 55.3904C10.3211 55.9427 10.7688 56.3904 11.3211 56.3904V55.3904V54.3904ZM14.5413 56.3904C15.0936 56.3904 15.5413 55.9427 15.5413 55.3904C15.5413 54.8381 15.0936 54.3904 14.5413 54.3904V55.3904V56.3904ZM4.85339 49.7811C4.30111 49.7811 3.85339 50.2288 3.85339 50.7811C3.85339 51.3334 4.30111 51.7811 4.85339 51.7811V50.7811V49.7811ZM8.07357 51.7811C8.62586 51.7811 9.07357 51.3334 9.07357 50.7811C9.07357 50.2288 8.62586 49.7811 8.07357 49.7811V50.7811V51.7811ZM4.89908 54.3904C4.3468 54.3904 3.89908 54.8381 3.89908 55.3904C3.89908 55.9427 4.3468 56.3904 4.89908 56.3904V55.3904V54.3904ZM8.11927 56.3904C8.67155 56.3904 9.11927 55.9427 9.11927 55.3904C9.11927 54.8381 8.67155 54.3904 8.11927 54.3904V55.3904V56.3904ZM17.6974 49.7811C17.1451 49.7811 16.6974 50.2288 16.6974 50.7811C16.6974 51.3334 17.1451 51.7811 17.6974 51.7811V50.7811V49.7811ZM20.9176 51.7811C21.4699 51.7811 21.9176 51.3334 21.9176 50.7811C21.9176 50.2288 21.4699 49.7811 20.9176 49.7811V50.7811V51.7811ZM17.7431 54.3904C17.1908 54.3904 16.7431 54.8381 16.7431 55.3904C16.7431 55.9427 17.1908 56.3904 17.7431 56.3904V55.3904V54.3904ZM20.9633 56.3904C21.5156 56.3904 21.9633 55.9427 21.9633 55.3904C21.9633 54.8381 21.5156 54.3904 20.9633 54.3904V55.3904V56.3904ZM2.75229 46.1717C2.75229 46.724 3.20001 47.1717 3.75229 47.1717C4.30458 47.1717 4.75229 46.724 4.75229 46.1717H3.75229H2.75229ZM15.5963 46.1717C15.5963 46.724 16.044 47.1717 16.5963 47.1717C17.1486 47.1717 17.5963 46.724 17.5963 46.1717H16.5963H15.5963ZM9.17431 24.8866C9.17431 25.4388 9.62203 25.8866 10.1743 25.8866C10.7266 25.8866 11.1743 25.4388 11.1743 24.8866H10.1743H9.17431ZM52.2936 30.0029C52.2936 30.5552 52.7413 31.0029 53.2936 31.0029C53.8459 31.0029 54.2936 30.5552 54.2936 30.0029H53.2936H52.2936ZM43.0271 17.9297C42.4748 17.9297 42.0271 18.3774 42.0271 18.9297C42.0271 19.482 42.4748 19.9297 43.0271 19.9297V18.9297V17.9297ZM44.9537 28.1484C44.9537 28.7007 45.4015 29.1484 45.9537 29.1484C46.506 29.1484 46.9537 28.7007 46.9537 28.1484H45.9537H44.9537ZM3.75229 29.4999C3.20001 29.4999 2.75229 29.9476 2.75229 30.4999C2.75229 31.0522 3.20001 31.4999 3.75229 31.4999V30.4999V29.4999ZM16.5963 31.4999C17.1486 31.4999 17.5963 31.0522 17.5963 30.4999C17.5963 29.9476 17.1486 29.4999 16.5963 29.4999V30.4999V31.4999ZM37.6147 59.9993C37.6147 60.5516 38.0624 60.9993 38.6147 60.9993C39.167 60.9993 39.6147 60.5516 39.6147 59.9993H38.6147H37.6147ZM52.2936 59.9993C52.2936 60.5516 52.7413 60.9993 53.2936 60.9993C53.8459 60.9993 54.2936 60.5516 54.2936 59.9993H53.2936H52.2936ZM21.6422 6.99217V5.99217C21.0899 5.99217 20.6422 6.43988 20.6422 6.99217H21.6422ZM39.0734 6.99217H40.0734C40.0734 6.43988 39.6257 5.99217 39.0734 5.99217V6.99217ZM39.0734 11.6015V12.6015C39.6257 12.6015 40.0734 12.1538 40.0734 11.6015H39.0734ZM21.6422 11.6015H20.6422C20.6422 12.1538 21.0899 12.6015 21.6422 12.6015V11.6015ZM37.8667 11.5072C37.8146 10.9573 37.3267 10.5539 36.7768 10.606C36.227 10.6581 35.8236 11.1461 35.8757 11.6959L36.8712 11.6015L37.8667 11.5072ZM37.6188 30.0872C37.6709 30.637 38.1589 31.0405 38.7087 30.9884C39.2585 30.9363 39.662 30.4483 39.6099 29.8985L38.6143 29.9929L37.6188 30.0872ZM23.2614 6.89314C23.2067 7.44271 23.6079 7.93256 24.1575 7.98725C24.7071 8.04194 25.1969 7.64077 25.2516 7.0912L24.2565 6.99217L23.2614 6.89314ZM24.8529 1V0C24.3389 0 23.9087 0.389563 23.8578 0.900971L24.8529 1ZM35.862 1L36.8575 0.904653C36.8083 0.39165 36.3774 0 35.862 0V1ZM35.4079 6.74642C35.4605 7.29619 35.9489 7.69918 36.4987 7.64652C37.0484 7.59386 37.4514 7.10549 37.3988 6.55573L36.4033 6.65107L35.4079 6.74642ZM19.4179 45.3811C19.363 45.9307 19.764 46.4207 20.3136 46.4756C20.8631 46.5305 21.3531 46.1295 21.408 45.5799L20.413 45.4805L19.4179 45.3811ZM24.7934 11.6919C24.8483 11.1424 24.4473 10.6524 23.8977 10.5975C23.3482 10.5426 22.8582 10.9436 22.8033 11.4931L23.7983 11.5925L24.7934 11.6919ZM60 60V59H1.55046V60V61H60V60ZM1.55046 60V59C1.80453 59 2 59.2034 2 59.4469H1H0C0 60.2988 0.690886 61 1.55046 61V60ZM1 59.4469H2V46.7158H1H0V59.4469H1ZM1 46.7158H2C2 46.9593 1.80453 47.1627 1.55046 47.1627V46.1627V45.1627C0.690878 45.1627 0 45.8639 0 46.7158H1ZM1.55046 46.1627V47.1627H24.3119V46.1627V45.1627H1.55046V46.1627ZM24.3119 46.1627V47.1627C24.0579 47.1627 23.8624 46.9593 23.8624 46.7158H24.8624H25.8624C25.8624 45.8639 25.1715 45.1627 24.3119 45.1627V46.1627ZM24.8624 46.7158H23.8624V59.4469H24.8624H25.8624V46.7158H24.8624ZM24.8624 59.4469H23.8624C23.8624 59.2034 24.0579 59 24.3119 59V60V61C25.1715 61 25.8624 60.2988 25.8624 59.4469H24.8624ZM24.3024 59.9998V58.9998H23.3024V59.9998V60.9998H24.3024V59.9998ZM11.2754 50.7811V51.7811H14.4956V50.7811V49.7811H11.2754V50.7811ZM11.3211 55.3904V56.3904H14.5413V55.3904V54.3904H11.3211V55.3904ZM4.85339 50.7811V51.7811H8.07357V50.7811V49.7811H4.85339V50.7811ZM4.89908 55.3904V56.3904H8.11927V55.3904V54.3904H4.89908V55.3904ZM17.6974 50.7811V51.7811H20.9176V50.7811V49.7811H17.6974V50.7811ZM17.7431 55.3904V56.3904H20.9633V55.3904V54.3904H17.7431V55.3904ZM3.75229 46.1717H4.75229V27.9094H3.75229H2.75229V46.1717H3.75229ZM3.75229 27.9094H4.75229C4.75229 26.8347 5.62105 25.9687 6.6789 25.9687V24.9687V23.9687C4.50739 23.9687 2.75229 25.7392 2.75229 27.9094H3.75229ZM6.6789 24.9687V25.9687H13.6697V24.9687V23.9687H6.6789V24.9687ZM13.6697 24.9687V25.9687C14.7276 25.9687 15.5963 26.8347 15.5963 27.9094H16.5963H17.5963C17.5963 25.7392 15.8412 23.9687 13.6697 23.9687V24.9687ZM16.5963 27.9094H15.5963V46.1717H16.5963H17.5963V27.9094H16.5963ZM10.1743 24.8866H11.1743V21.8813H10.1743H9.17431V24.8866H10.1743ZM10.1743 21.8813H11.1743C11.1743 20.8065 12.0431 19.9405 13.1009 19.9405V18.9405V17.9405C10.9294 17.9405 9.17431 19.711 9.17431 21.8813H10.1743ZM13.1009 18.9405V19.9405H50.367V18.9405V17.9405H13.1009V18.9405ZM50.367 18.9405V19.9405C51.4248 19.9405 52.2936 20.8065 52.2936 21.8813H53.2936H54.2936C54.2936 19.711 52.5385 17.9405 50.367 17.9405V18.9405ZM53.2936 21.8813H52.2936V30.0029H53.2936H54.2936V21.8813H53.2936ZM43.0271 18.9297V19.9297C44.085 19.9297 44.9537 20.7957 44.9537 21.8705H45.9537H46.9537C46.9537 19.7002 45.1986 17.9297 43.0271 17.9297V18.9297ZM45.9537 21.8705H44.9537V28.1484H45.9537H46.9537V21.8705H45.9537ZM3.75229 30.4999V31.4999H16.5963V30.4999V29.4999H3.75229V30.4999ZM38.6147 54.1828L39.1507 53.3386C35.5664 51.063 33.1927 47.0521 33.1927 42.4842H32.1927H31.1927C31.1927 47.7619 33.9382 52.3982 38.0787 55.027L38.6147 54.1828ZM32.1927 42.4842H33.1927C33.1927 35.3989 38.9146 29.6562 45.9541 29.6562V28.6562V27.6562C37.801 27.6562 31.1927 34.3034 31.1927 42.4842H32.1927ZM45.9541 28.6562V29.6562C52.9936 29.6562 58.7156 35.3989 58.7156 42.4842H59.7156H60.7156C60.7156 34.3034 54.1073 27.6562 45.9541 27.6562V28.6562ZM59.7156 42.4842H58.7156C58.7156 47.0521 56.3419 51.063 52.7576 53.3386L53.2936 54.1828L53.8296 55.027C57.9701 52.3982 60.7156 47.7619 60.7156 42.4842H59.7156ZM38.6147 59.9993H39.6147V54.1828H38.6147H37.6147V59.9993H38.6147ZM38.6147 54.1828V55.1828H53.2936V54.1828V53.1828H38.6147V54.1828ZM53.2936 54.1828H52.2936V59.9993H53.2936H54.2936V54.1828H53.2936ZM21.6422 6.99217V7.99217H39.0734V6.99217V5.99217H21.6422V6.99217ZM39.0734 6.99217H38.0734V11.6015H39.0734H40.0734V6.99217H39.0734ZM39.0734 11.6015V10.6015H21.6422V11.6015V12.6015H39.0734V11.6015ZM21.6422 11.6015H22.6422V6.99217H21.6422H20.6422V11.6015H21.6422ZM36.8712 11.6015L35.8757 11.6959L37.6188 30.0872L38.6143 29.9929L39.6099 29.8985L37.8667 11.5072L36.8712 11.6015ZM24.2565 6.99217L25.2516 7.0912L25.8479 1.09903L24.8529 1L23.8578 0.900971L23.2614 6.89314L24.2565 6.99217ZM24.8529 1V2H35.862V1V0H24.8529V1ZM35.862 1L34.8666 1.09535L35.4079 6.74642L36.4033 6.65107L37.3988 6.55573L36.8575 0.904653L35.862 1ZM20.413 45.4805L21.408 45.5799L24.7934 11.6919L23.7983 11.5925L22.8033 11.4931L19.4179 45.3811L20.413 45.4805Z" fill="#222222"/>
</svg>
