<svg width="315" height="978" viewBox="0 0 315 978" fill="none" xmlns="http://www.w3.org/2000/svg">
<rect x="40" width="394" height="40" rx="6" transform="rotate(90 40 0)" fill="#A9DBFF"/>
<rect x="40" y="400" width="324" height="40" rx="6" transform="rotate(90 40 400)" fill="#9EE9DC"/>
<rect x="40" y="730" width="248" height="40" rx="6" transform="rotate(90 40 730)" fill="#CCCCCC"/>
<path d="M20.9278 146.504V147.224C20.9278 147.821 21.1358 148.403 21.5518 148.968C21.9678 149.533 22.5545 150.024 23.3118 150.44C24.0691 150.845 24.9331 151.117 25.9038 151.256L25.2158 152.648C24.0318 152.467 22.9811 152.099 22.0638 151.544C21.1571 150.989 20.4691 150.307 19.9998 149.496C19.5411 150.307 18.8585 150.989 17.9518 151.544C17.0451 152.099 15.9891 152.467 14.7838 152.648L14.0958 151.256C15.0665 151.117 15.9305 150.845 16.6878 150.44C17.4451 150.035 18.0318 149.549 18.4478 148.984C18.8638 148.419 19.0718 147.832 19.0718 147.224V146.504H20.9278ZM26.4318 153.896V155.336H20.8318V160.296H19.0718V155.336H13.5518V153.896H26.4318ZM19.0558 173.096V169.816H20.8158V173.096H26.4478V174.536H13.5518V173.096H19.0558ZM20.8638 162.888V163.944C20.8638 164.659 21.0825 165.352 21.5198 166.024C21.9571 166.696 22.5651 167.272 23.3438 167.752C24.1225 168.221 24.9918 168.536 25.9518 168.696L25.1998 170.184C24.0051 169.949 22.9438 169.507 22.0158 168.856C21.0985 168.195 20.4051 167.4 19.9358 166.472C19.4665 167.4 18.7625 168.195 17.8238 168.856C16.8958 169.507 15.8398 169.949 14.6558 170.184L13.9358 168.696C14.8958 168.536 15.7598 168.216 16.5278 167.736C17.3065 167.256 17.9145 166.68 18.3518 166.008C18.7891 165.336 19.0078 164.648 19.0078 163.944V162.888H20.8638ZM17.9518 184.904V186.648C17.9518 187.469 18.1811 188.232 18.6398 188.936C19.1091 189.629 19.7918 190.152 20.6878 190.504L19.7598 191.832C19.1518 191.587 18.6238 191.251 18.1758 190.824C17.7385 190.397 17.3918 189.896 17.1358 189.32C16.8585 189.992 16.4851 190.584 16.0158 191.096C15.5465 191.597 14.9865 191.987 14.3358 192.264L13.4078 190.904C14.3251 190.499 15.0291 189.907 15.5198 189.128C16.0105 188.339 16.2558 187.512 16.2558 186.648V184.904H17.9518ZM25.6158 184.056V192.792H23.9358V189.08H22.5598V192.344H20.9118V184.328H22.5598V187.656H23.9358V184.056H25.6158ZM20.8318 193.032C22.3251 193.032 23.5038 193.267 24.3678 193.736C25.2425 194.205 25.6798 194.845 25.6798 195.656C25.6798 196.477 25.2425 197.117 24.3678 197.576C23.5038 198.045 22.3251 198.28 20.8318 198.28C19.3385 198.28 18.1598 198.045 17.2958 197.576C16.4318 197.117 15.9998 196.477 15.9998 195.656C15.9998 194.845 16.4318 194.205 17.2958 193.736C18.1705 193.267 19.3491 193.032 20.8318 193.032ZM20.8318 194.376C19.8505 194.376 19.0878 194.488 18.5438 194.712C18.0105 194.925 17.7438 195.24 17.7438 195.656C17.7438 196.072 18.0105 196.392 18.5438 196.616C19.0878 196.84 19.8505 196.952 20.8318 196.952C21.8131 196.952 22.5705 196.84 23.1038 196.616C23.6478 196.392 23.9198 196.072 23.9198 195.656C23.9198 195.24 23.6531 194.925 23.1198 194.712C22.5865 194.488 21.8238 194.376 20.8318 194.376ZM18.6238 200.904V202.552C18.6238 203.523 18.9118 204.408 19.4878 205.208C20.0745 206.008 20.9065 206.589 21.9838 206.952L21.0878 208.328C20.3198 208.072 19.6531 207.688 19.0878 207.176C18.5331 206.653 18.0958 206.04 17.7758 205.336C17.4665 206.104 17.0185 206.776 16.4318 207.352C15.8558 207.917 15.1571 208.344 14.3358 208.632L13.3918 207.256C14.5118 206.872 15.3705 206.253 15.9678 205.4C16.5651 204.547 16.8638 203.592 16.8638 202.536V200.904H18.6238ZM24.6878 200.04V204.264H26.6718V205.72H24.6878V210.488H22.9278V200.04H24.6878ZM17.4238 209.496V212.6H25.2478V214.008H15.6638V209.496H17.4238Z" fill="#222222"/>
<path d="M20.9278 527.504V528.224C20.9278 528.821 21.1358 529.403 21.5518 529.968C21.9678 530.533 22.5545 531.024 23.3118 531.44C24.0691 531.845 24.9331 532.117 25.9038 532.256L25.2158 533.648C24.0318 533.467 22.9811 533.099 22.0638 532.544C21.1571 531.989 20.4691 531.307 19.9998 530.496C19.5411 531.307 18.8585 531.989 17.9518 532.544C17.0451 533.099 15.9891 533.467 14.7838 533.648L14.0958 532.256C15.0665 532.117 15.9305 531.845 16.6878 531.44C17.4451 531.035 18.0318 530.549 18.4478 529.984C18.8638 529.419 19.0718 528.832 19.0718 528.224V527.504H20.9278ZM26.4318 534.896V536.336H20.8318V541.296H19.0718V536.336H13.5518V534.896H26.4318ZM19.0558 554.096V550.816H20.8158V554.096H26.4478V555.536H13.5518V554.096H19.0558ZM20.8638 543.888V544.944C20.8638 545.659 21.0825 546.352 21.5198 547.024C21.9571 547.696 22.5651 548.272 23.3438 548.752C24.1225 549.221 24.9918 549.536 25.9518 549.696L25.1998 551.184C24.0051 550.949 22.9438 550.507 22.0158 549.856C21.0985 549.195 20.4051 548.4 19.9358 547.472C19.4665 548.4 18.7625 549.195 17.8238 549.856C16.8958 550.507 15.8398 550.949 14.6558 551.184L13.9358 549.696C14.8958 549.536 15.7598 549.216 16.5278 548.736C17.3065 548.256 17.9145 547.68 18.3518 547.008C18.7891 546.336 19.0078 545.648 19.0078 544.944V543.888H20.8638ZM26.4478 573.04V574.48H23.3118V579.28H21.5198V574.48H18.4158V579.28H16.6078V574.48H13.5518V573.04H26.4478ZM19.9518 565.584C20.9545 565.584 21.8398 565.712 22.6078 565.968C23.3758 566.224 23.9731 566.587 24.3998 567.056C24.8265 567.525 25.0398 568.08 25.0398 568.72C25.0398 569.36 24.8265 569.92 24.3998 570.4C23.9731 570.869 23.3758 571.232 22.6078 571.488C21.8398 571.744 20.9545 571.872 19.9518 571.872C18.9491 571.872 18.0638 571.744 17.2958 571.488C16.5385 571.232 15.9465 570.869 15.5198 570.4C15.0931 569.92 14.8798 569.36 14.8798 568.72C14.8798 568.08 15.0931 567.525 15.5198 567.056C15.9465 566.587 16.5385 566.224 17.2958 565.968C18.0638 565.712 18.9491 565.584 19.9518 565.584ZM19.9518 566.976C18.9491 566.976 18.1545 567.131 17.5678 567.44C16.9811 567.749 16.6878 568.176 16.6878 568.72C16.6878 569.275 16.9811 569.707 17.5678 570.016C18.1545 570.315 18.9491 570.464 19.9518 570.464C20.9651 570.464 21.7651 570.315 22.3518 570.016C22.9491 569.707 23.2478 569.275 23.2478 568.72C23.2478 568.176 22.9491 567.749 22.3518 567.44C21.7545 567.131 20.9545 566.976 19.9518 566.976ZM19.0878 588.464V587.392H15.1838V581.44H24.8958V582.784H16.9278V583.728H24.5598V585.04H16.9278V586.048H24.9918V587.392H20.8478V588.464H26.3998V589.856H13.5358V588.464H19.0878ZM19.9678 590.672C21.5358 590.672 22.7465 590.869 23.5998 591.264C24.4531 591.648 24.8798 592.219 24.8798 592.976C24.8798 593.723 24.4531 594.293 23.5998 594.688C22.7465 595.083 21.5358 595.28 19.9678 595.28C18.3891 595.28 17.1731 595.083 16.3198 594.688C15.4665 594.293 15.0398 593.723 15.0398 592.976C15.0398 592.219 15.4665 591.648 16.3198 591.264C17.1731 590.869 18.3891 590.672 19.9678 590.672ZM19.9678 591.952C17.8665 591.952 16.8158 592.293 16.8158 592.976C16.8158 593.648 17.8665 593.984 19.9678 593.984C22.0691 593.984 23.1198 593.648 23.1198 592.976C23.1198 592.293 22.0691 591.952 19.9678 591.952Z" fill="#222222"/>
<path d="M20.9278 820.504V821.224C20.9278 821.821 21.1358 822.403 21.5518 822.968C21.9678 823.533 22.5545 824.024 23.3118 824.44C24.0691 824.845 24.9331 825.117 25.9038 825.256L25.2158 826.648C24.0318 826.467 22.9811 826.099 22.0638 825.544C21.1571 824.989 20.4691 824.307 19.9998 823.496C19.5411 824.307 18.8585 824.989 17.9518 825.544C17.0451 826.099 15.9891 826.467 14.7838 826.648L14.0958 825.256C15.0665 825.117 15.9305 824.845 16.6878 824.44C17.4451 824.035 18.0318 823.549 18.4478 822.984C18.8638 822.419 19.0718 821.832 19.0718 821.224V820.504H20.9278ZM26.4318 827.896V829.336H20.8318V834.296H19.0718V829.336H13.5518V827.896H26.4318ZM19.0558 847.096V843.816H20.8158V847.096H26.4478V848.536H13.5518V847.096H19.0558ZM20.8638 836.888V837.944C20.8638 838.659 21.0825 839.352 21.5198 840.024C21.9571 840.696 22.5651 841.272 23.3438 841.752C24.1225 842.221 24.9918 842.536 25.9518 842.696L25.1998 844.184C24.0051 843.949 22.9438 843.507 22.0158 842.856C21.0985 842.195 20.4051 841.4 19.9358 840.472C19.4665 841.4 18.7625 842.195 17.8238 842.856C16.8958 843.507 15.8398 843.949 14.6558 844.184L13.9358 842.696C14.8958 842.536 15.7598 842.216 16.5278 841.736C17.3065 841.256 17.9145 840.68 18.3518 840.008C18.7891 839.336 19.0078 838.648 19.0078 837.944V836.888H20.8638ZM24.7358 858.04V861.512H26.6558V862.968H24.7358V866.424H22.9758V858.04H24.7358ZM24.7358 867V870.088H17.0718V870.984H25.2478V872.168H15.3278V868.984H23.0078V868.168H15.3118V867H24.7358ZM13.4078 865C14.9331 865 16.1225 864.989 16.9758 864.968V864.232C16.1865 864.147 15.5625 863.949 15.1038 863.64C14.6558 863.32 14.4318 862.909 14.4318 862.408C14.4318 861.832 14.7358 861.379 15.3438 861.048C15.9625 860.707 16.7891 860.536 17.8238 860.536C18.8798 860.536 19.7118 860.701 20.3198 861.032C20.9385 861.363 21.2478 861.821 21.2478 862.408C21.2478 862.909 21.0238 863.32 20.5758 863.64C20.1385 863.949 19.5198 864.147 18.7198 864.232V864.904C20.0318 864.84 21.2158 864.739 22.2718 864.6L22.3998 865.672C21.0665 865.907 19.6851 866.061 18.2558 866.136C16.8371 866.2 15.2851 866.232 13.5998 866.232L13.4078 865ZM16.9758 859V857.912H18.7198V859H21.8878V860.2H13.7758V859H16.9758ZM17.8238 861.64C17.2798 861.64 16.8531 861.709 16.5438 861.848C16.2451 861.976 16.0958 862.163 16.0958 862.408C16.0958 862.653 16.2451 862.845 16.5438 862.984C16.8531 863.112 17.2798 863.176 17.8238 863.176C18.3785 863.176 18.8105 863.112 19.1198 862.984C19.4291 862.845 19.5838 862.653 19.5838 862.408C19.5838 862.163 19.4291 861.976 19.1198 861.848C18.8105 861.709 18.3785 861.64 17.8238 861.64ZM16.5438 880.92V879.096C16.0105 878.861 15.5998 878.568 15.3118 878.216C15.0238 877.853 14.8798 877.443 14.8798 876.984C14.8798 876.141 15.3385 875.48 16.2558 875C17.1731 874.52 18.4158 874.28 19.9838 874.28C21.5518 874.28 22.7945 874.52 23.7118 875C24.6291 875.48 25.0878 876.141 25.0878 876.984C25.0878 877.443 24.9385 877.853 24.6398 878.216C24.3518 878.579 23.9358 878.877 23.3918 879.112V880.92H26.4158V882.296H13.5518V880.92H16.5438ZM19.9678 883.16C21.5038 883.16 22.7038 883.384 23.5678 883.832C24.4425 884.28 24.8798 884.909 24.8798 885.72C24.8798 886.541 24.4425 887.176 23.5678 887.624C22.7038 888.072 21.5038 888.296 19.9678 888.296C18.4211 888.296 17.2105 888.072 16.3358 887.624C15.4718 887.176 15.0398 886.541 15.0398 885.72C15.0398 884.909 15.4718 884.28 16.3358 883.832C17.2105 883.384 18.4211 883.16 19.9678 883.16ZM19.9678 884.504C18.9438 884.504 18.1598 884.611 17.6158 884.824C17.0825 885.027 16.8158 885.325 16.8158 885.72C16.8158 886.125 17.0825 886.435 17.6158 886.648C18.1598 886.851 18.9438 886.952 19.9678 886.952C20.9918 886.952 21.7705 886.851 22.3038 886.648C22.8371 886.435 23.1038 886.125 23.1038 885.72C23.1038 885.325 22.8371 885.027 22.3038 884.824C21.7705 884.611 20.9918 884.504 19.9678 884.504ZM19.9838 875.624C18.9385 875.624 18.1278 875.741 17.5518 875.976C16.9758 876.211 16.6878 876.547 16.6878 876.984C16.6878 877.421 16.9758 877.757 17.5518 877.992C18.1278 878.227 18.9385 878.344 19.9838 878.344C21.0185 878.344 21.8238 878.227 22.3998 877.992C22.9758 877.757 23.2638 877.421 23.2638 876.984C23.2638 876.547 22.9758 876.211 22.3998 875.976C21.8238 875.741 21.0185 875.624 19.9838 875.624ZM21.6478 880.92V879.56C21.1678 879.635 20.6131 879.672 19.9838 879.672C19.3331 879.672 18.7678 879.635 18.2878 879.56V880.92H21.6478Z" fill="#222222"/>
<circle cx="121" cy="301" r="42" fill="#3FA0E6"/>
<path d="M107.807 294.66V307.12H106.267V294.66H107.807ZM104.125 295.962C104.125 297.959 103.682 299.705 102.795 301.198C101.909 302.691 100.434 303.937 98.3713 304.936L97.5733 303.718C99.16 302.953 100.35 302.038 101.143 300.974C101.937 299.91 102.403 298.655 102.543 297.208H98.1893V295.962H104.125ZM116.404 299.462V294.898H117.832V306.532H116.404V300.708H114.794V299.462H116.404ZM112.036 296.844V295.08H113.506V296.844H115.564V298.09H113.506V298.468C113.506 299.485 113.716 300.433 114.136 301.31C114.565 302.178 115.19 302.831 116.012 303.27L115.158 304.418C114.607 304.119 114.131 303.713 113.73 303.2C113.338 302.677 113.025 302.08 112.792 301.408C112.568 302.145 112.255 302.799 111.854 303.368C111.452 303.937 110.972 304.385 110.412 304.712L109.544 303.55C110.365 303.065 110.986 302.36 111.406 301.436C111.826 300.512 112.036 299.523 112.036 298.468V298.09H109.964V296.844H112.036ZM120.38 294.66V307.12H118.91V294.66H120.38ZM128.43 295.066V295.696C128.43 296.219 128.612 296.727 128.976 297.222C129.34 297.717 129.853 298.146 130.516 298.51C131.179 298.865 131.935 299.103 132.784 299.224L132.182 300.442C131.146 300.283 130.227 299.961 129.424 299.476C128.631 298.991 128.029 298.393 127.618 297.684C127.217 298.393 126.619 298.991 125.826 299.476C125.033 299.961 124.109 300.283 123.054 300.442L122.452 299.224C123.301 299.103 124.057 298.865 124.72 298.51C125.383 298.155 125.896 297.731 126.26 297.236C126.624 296.741 126.806 296.228 126.806 295.696V295.066H128.43ZM133.246 301.534V302.794H128.346V307.134H126.806V302.794H121.976V301.534H133.246ZM139.028 304.334V301.464H140.568V304.334H145.496V305.594H134.212V304.334H139.028ZM140.61 295.402V296.326C140.61 296.951 140.802 297.558 141.184 298.146C141.567 298.734 142.099 299.238 142.78 299.658C143.462 300.069 144.222 300.344 145.062 300.484L144.404 301.786C143.359 301.581 142.43 301.193 141.618 300.624C140.816 300.045 140.209 299.35 139.798 298.538C139.388 299.35 138.772 300.045 137.95 300.624C137.138 301.193 136.214 301.581 135.178 301.786L134.548 300.484C135.388 300.344 136.144 300.064 136.816 299.644C137.498 299.224 138.03 298.72 138.412 298.132C138.795 297.544 138.986 296.942 138.986 296.326V295.402H140.61Z" fill="white"/>
<circle cx="255" cy="70" r="42" fill="#3FA0E6"/>
<path d="M241.807 63.66V76.12H240.267V63.66H241.807ZM238.125 64.962C238.125 66.9593 237.682 68.7047 236.795 70.198C235.909 71.6913 234.434 72.9373 232.371 73.936L231.573 72.718C233.16 71.9527 234.35 71.038 235.143 69.974C235.937 68.91 236.403 67.6547 236.543 66.208H232.189V64.962H238.125ZM250.404 68.462V63.898H251.832V75.532H250.404V69.708H248.794V68.462H250.404ZM246.036 65.844V64.08H247.506V65.844H249.564V67.09H247.506V67.468C247.506 68.4853 247.716 69.4327 248.136 70.31C248.565 71.178 249.19 71.8313 250.012 72.27L249.158 73.418C248.607 73.1193 248.131 72.7133 247.73 72.2C247.338 71.6773 247.025 71.08 246.792 70.408C246.568 71.1453 246.255 71.7987 245.854 72.368C245.452 72.9373 244.972 73.3853 244.412 73.712L243.544 72.55C244.365 72.0647 244.986 71.36 245.406 70.436C245.826 69.512 246.036 68.5227 246.036 67.468V67.09H243.964V65.844H246.036ZM254.38 63.66V76.12H252.91V63.66H254.38ZM262.43 64.066V64.696C262.43 65.2187 262.612 65.7273 262.976 66.222C263.34 66.7167 263.853 67.146 264.516 67.51C265.179 67.8647 265.935 68.1027 266.784 68.224L266.182 69.442C265.146 69.2833 264.227 68.9613 263.424 68.476C262.631 67.9907 262.029 67.3933 261.618 66.684C261.217 67.3933 260.619 67.9907 259.826 68.476C259.033 68.9613 258.109 69.2833 257.054 69.442L256.452 68.224C257.301 68.1027 258.057 67.8647 258.72 67.51C259.383 67.1553 259.896 66.7307 260.26 66.236C260.624 65.7413 260.806 65.228 260.806 64.696V64.066H262.43ZM267.246 70.534V71.794H262.346V76.134H260.806V71.794H255.976V70.534H267.246ZM273.028 73.334V70.464H274.568V73.334H279.496V74.594H268.212V73.334H273.028ZM274.61 64.402V65.326C274.61 65.9513 274.802 66.558 275.184 67.146C275.567 67.734 276.099 68.238 276.78 68.658C277.462 69.0687 278.222 69.344 279.062 69.484L278.404 70.786C277.359 70.5807 276.43 70.1933 275.618 69.624C274.816 69.0453 274.209 68.35 273.798 67.538C273.388 68.35 272.772 69.0453 271.95 69.624C271.138 70.1933 270.214 70.5807 269.178 70.786L268.548 69.484C269.388 69.344 270.144 69.064 270.816 68.644C271.498 68.224 272.03 67.72 272.412 67.132C272.795 66.544 272.986 65.942 272.986 65.326V64.402H274.61Z" fill="white"/>
<path d="M255.002 399.995L228.001 372.995L255.002 345.994L282.002 372.995L255.002 399.995Z" fill="#3CBCB6"/>
<path d="M228.001 372.995C242.913 358.083 267.09 358.083 282.002 372.995C296.914 387.907 296.914 412.084 282.002 426.996C267.09 441.908 242.913 441.908 228.001 426.996C213.09 412.084 213.09 387.907 228.001 372.995Z" fill="#3CBCB6"/>
<path d="M234.403 394.426C234.945 394.426 235.43 394.557 235.859 394.818C236.298 395.07 236.639 395.425 236.881 395.882C237.124 396.339 237.245 396.857 237.245 397.436C237.245 398.015 237.124 398.533 236.881 398.99C236.639 399.447 236.298 399.802 235.859 400.054C235.43 400.306 234.945 400.432 234.403 400.432C233.862 400.432 233.372 400.306 232.933 400.054C232.504 399.802 232.168 399.447 231.925 398.99C231.683 398.533 231.561 398.015 231.561 397.436C231.561 396.857 231.683 396.339 231.925 395.882C232.168 395.425 232.504 395.07 232.933 394.818C233.372 394.557 233.862 394.426 234.403 394.426ZM234.403 395.728C233.974 395.728 233.624 395.882 233.353 396.19C233.092 396.498 232.961 396.913 232.961 397.436C232.961 397.949 233.097 398.365 233.367 398.682C233.638 398.99 233.983 399.144 234.403 399.144C234.833 399.144 235.183 398.99 235.453 398.682C235.724 398.365 235.859 397.949 235.859 397.436C235.859 396.923 235.724 396.512 235.453 396.204C235.183 395.887 234.833 395.728 234.403 395.728ZM242.061 393.67V401.09H240.605V398.01H239.415V401.034H237.973V393.894H239.415V396.75H240.605V393.67H242.061ZM242.061 401.706V406.13H240.535V402.938H233.577V401.706H242.061ZM253.528 393.67V398.808H255.236V400.096H253.528V406.13H251.988V393.67H253.528ZM243.602 402.672C244.946 402.672 245.996 402.663 246.752 402.644V401.468C246.07 401.356 245.529 401.099 245.128 400.698C244.726 400.297 244.526 399.802 244.526 399.214C244.526 398.757 244.652 398.351 244.904 397.996C245.156 397.641 245.506 397.371 245.954 397.184C246.411 396.988 246.934 396.89 247.522 396.89C248.11 396.89 248.628 396.988 249.076 397.184C249.533 397.371 249.888 397.641 250.14 397.996C250.401 398.351 250.532 398.757 250.532 399.214C250.532 399.802 250.326 400.297 249.916 400.698C249.514 401.099 248.973 401.356 248.292 401.468V402.574C249.234 402.537 250.238 402.448 251.302 402.308L251.428 403.414C250.261 403.638 249.08 403.783 247.886 403.848C246.7 403.904 245.342 403.932 243.812 403.932L243.602 402.672ZM246.752 395.084V393.712H248.292V395.084H251.204V396.302H243.826V395.084H246.752ZM247.522 398.052C247.055 398.052 246.682 398.155 246.402 398.36C246.122 398.565 245.982 398.85 245.982 399.214C245.982 399.578 246.122 399.863 246.402 400.068C246.682 400.273 247.055 400.376 247.522 400.376C247.998 400.376 248.376 400.273 248.656 400.068C248.936 399.863 249.076 399.578 249.076 399.214C249.076 398.85 248.936 398.565 248.656 398.36C248.376 398.155 247.998 398.052 247.522 398.052ZM262.432 394.062V394.692C262.432 395.215 262.614 395.723 262.978 396.218C263.342 396.713 263.855 397.142 264.518 397.506C265.181 397.861 265.937 398.099 266.786 398.22L266.184 399.438C265.148 399.279 264.229 398.957 263.426 398.472C262.633 397.987 262.031 397.389 261.62 396.68C261.219 397.389 260.621 397.987 259.828 398.472C259.035 398.957 258.111 399.279 257.056 399.438L256.454 398.22C257.303 398.099 258.059 397.861 258.722 397.506C259.385 397.151 259.898 396.727 260.262 396.232C260.626 395.737 260.808 395.224 260.808 394.692V394.062H262.432ZM267.248 400.53V401.79H262.348V406.13H260.808V401.79H255.978V400.53H267.248ZM273.03 403.33V400.46H274.57V403.33H279.498V404.59H268.214V403.33H273.03ZM274.612 394.398V395.322C274.612 395.947 274.804 396.554 275.186 397.142C275.569 397.73 276.101 398.234 276.782 398.654C277.464 399.065 278.224 399.34 279.064 399.48L278.406 400.782C277.361 400.577 276.432 400.189 275.62 399.62C274.818 399.041 274.211 398.346 273.8 397.534C273.39 398.346 272.774 399.041 271.952 399.62C271.14 400.189 270.216 400.577 269.18 400.782L268.55 399.48C269.39 399.34 270.146 399.06 270.818 398.64C271.5 398.22 272.032 397.716 272.414 397.128C272.797 396.54 272.988 395.938 272.988 395.322V394.398H274.612Z" fill="white"/>
<path d="M255.004 728.995L228.003 701.995L255.004 674.994L282.004 701.995L255.004 728.995Z" fill="#3CBCB6"/>
<path d="M228.003 701.995C242.915 687.083 267.092 687.083 282.004 701.995C296.916 716.907 296.916 741.084 282.004 755.996C267.092 770.908 242.915 770.908 228.003 755.996C213.091 741.084 213.091 716.907 228.003 701.995Z" fill="#3CBCB6"/>
<path d="M234.405 723.426C234.947 723.426 235.432 723.557 235.861 723.818C236.3 724.07 236.641 724.425 236.883 724.882C237.126 725.339 237.247 725.857 237.247 726.436C237.247 727.015 237.126 727.533 236.883 727.99C236.641 728.447 236.3 728.802 235.861 729.054C235.432 729.306 234.947 729.432 234.405 729.432C233.864 729.432 233.374 729.306 232.935 729.054C232.506 728.802 232.17 728.447 231.927 727.99C231.685 727.533 231.563 727.015 231.563 726.436C231.563 725.857 231.685 725.339 231.927 724.882C232.17 724.425 232.506 724.07 232.935 723.818C233.374 723.557 233.864 723.426 234.405 723.426ZM234.405 724.728C233.976 724.728 233.626 724.882 233.355 725.19C233.094 725.498 232.963 725.913 232.963 726.436C232.963 726.949 233.099 727.365 233.369 727.682C233.64 727.99 233.985 728.144 234.405 728.144C234.835 728.144 235.185 727.99 235.455 727.682C235.726 727.365 235.861 726.949 235.861 726.436C235.861 725.923 235.726 725.512 235.455 725.204C235.185 724.887 234.835 724.728 234.405 724.728ZM242.063 722.67V730.09H240.607V727.01H239.417V730.034H237.975V722.894H239.417V725.75H240.607V722.67H242.063ZM242.063 730.706V735.13H240.537V731.938H233.579V730.706H242.063ZM253.53 722.67V727.808H255.238V729.096H253.53V735.13H251.99V722.67H253.53ZM243.604 731.672C244.948 731.672 245.998 731.663 246.754 731.644V730.468C246.072 730.356 245.531 730.099 245.13 729.698C244.728 729.297 244.528 728.802 244.528 728.214C244.528 727.757 244.654 727.351 244.906 726.996C245.158 726.641 245.508 726.371 245.956 726.184C246.413 725.988 246.936 725.89 247.524 725.89C248.112 725.89 248.63 725.988 249.078 726.184C249.535 726.371 249.89 726.641 250.142 726.996C250.403 727.351 250.534 727.757 250.534 728.214C250.534 728.802 250.328 729.297 249.918 729.698C249.516 730.099 248.975 730.356 248.294 730.468V731.574C249.236 731.537 250.24 731.448 251.304 731.308L251.43 732.414C250.263 732.638 249.082 732.783 247.888 732.848C246.702 732.904 245.344 732.932 243.814 732.932L243.604 731.672ZM246.754 724.084V722.712H248.294V724.084H251.206V725.302H243.828V724.084H246.754ZM247.524 727.052C247.057 727.052 246.684 727.155 246.404 727.36C246.124 727.565 245.984 727.85 245.984 728.214C245.984 728.578 246.124 728.863 246.404 729.068C246.684 729.273 247.057 729.376 247.524 729.376C248 729.376 248.378 729.273 248.658 729.068C248.938 728.863 249.078 728.578 249.078 728.214C249.078 727.85 248.938 727.565 248.658 727.36C248.378 727.155 248 727.052 247.524 727.052ZM262.434 723.062V723.692C262.434 724.215 262.616 724.723 262.98 725.218C263.344 725.713 263.857 726.142 264.52 726.506C265.183 726.861 265.939 727.099 266.788 727.22L266.186 728.438C265.15 728.279 264.231 727.957 263.428 727.472C262.635 726.987 262.033 726.389 261.622 725.68C261.221 726.389 260.623 726.987 259.83 727.472C259.037 727.957 258.113 728.279 257.058 728.438L256.456 727.22C257.305 727.099 258.061 726.861 258.724 726.506C259.387 726.151 259.9 725.727 260.264 725.232C260.628 724.737 260.81 724.224 260.81 723.692V723.062H262.434ZM267.25 729.53V730.79H262.35V735.13H260.81V730.79H255.98V729.53H267.25ZM273.032 732.33V729.46H274.572V732.33H279.5V733.59H268.216V732.33H273.032ZM274.614 723.398V724.322C274.614 724.947 274.806 725.554 275.188 726.142C275.571 726.73 276.103 727.234 276.784 727.654C277.466 728.065 278.226 728.34 279.066 728.48L278.408 729.782C277.363 729.577 276.434 729.189 275.622 728.62C274.82 728.041 274.213 727.346 273.802 726.534C273.392 727.346 272.776 728.041 271.954 728.62C271.142 729.189 270.218 729.577 269.182 729.782L268.552 728.48C269.392 728.34 270.148 728.06 270.82 727.64C271.502 727.22 272.034 726.716 272.416 726.128C272.799 725.54 272.99 724.938 272.99 724.322V723.398H274.614Z" fill="white"/>
<circle cx="121" cy="726" r="42" fill="#3FA0E6"/>
<path d="M107.807 719.66V732.12H106.267V719.66H107.807ZM104.125 720.962C104.125 722.959 103.682 724.705 102.795 726.198C101.909 727.691 100.434 728.937 98.3713 729.936L97.5733 728.718C99.16 727.953 100.35 727.038 101.143 725.974C101.937 724.91 102.403 723.655 102.543 722.208H98.1893V720.962H104.125ZM116.404 724.462V719.898H117.832V731.532H116.404V725.708H114.794V724.462H116.404ZM112.036 721.844V720.08H113.506V721.844H115.564V723.09H113.506V723.468C113.506 724.485 113.716 725.433 114.136 726.31C114.565 727.178 115.19 727.831 116.012 728.27L115.158 729.418C114.607 729.119 114.131 728.713 113.73 728.2C113.338 727.677 113.025 727.08 112.792 726.408C112.568 727.145 112.255 727.799 111.854 728.368C111.452 728.937 110.972 729.385 110.412 729.712L109.544 728.55C110.365 728.065 110.986 727.36 111.406 726.436C111.826 725.512 112.036 724.523 112.036 723.468V723.09H109.964V721.844H112.036ZM120.38 719.66V732.12H118.91V719.66H120.38ZM128.43 720.066V720.696C128.43 721.219 128.612 721.727 128.976 722.222C129.34 722.717 129.853 723.146 130.516 723.51C131.179 723.865 131.935 724.103 132.784 724.224L132.182 725.442C131.146 725.283 130.227 724.961 129.424 724.476C128.631 723.991 128.029 723.393 127.618 722.684C127.217 723.393 126.619 723.991 125.826 724.476C125.033 724.961 124.109 725.283 123.054 725.442L122.452 724.224C123.301 724.103 124.057 723.865 124.72 723.51C125.383 723.155 125.896 722.731 126.26 722.236C126.624 721.741 126.806 721.228 126.806 720.696V720.066H128.43ZM133.246 726.534V727.794H128.346V732.134H126.806V727.794H121.976V726.534H133.246ZM139.028 729.334V726.464H140.568V729.334H145.496V730.594H134.212V729.334H139.028ZM140.61 720.402V721.326C140.61 721.951 140.802 722.558 141.184 723.146C141.567 723.734 142.099 724.238 142.78 724.658C143.462 725.069 144.222 725.344 145.062 725.484L144.404 726.786C143.359 726.581 142.43 726.193 141.618 725.624C140.816 725.045 140.209 724.35 139.798 723.538C139.388 724.35 138.772 725.045 137.95 725.624C137.138 726.193 136.214 726.581 135.178 726.786L134.548 725.484C135.388 725.344 136.144 725.064 136.816 724.644C137.498 724.224 138.03 723.72 138.412 723.132C138.795 722.544 138.986 721.942 138.986 721.326V720.402H140.61Z" fill="white"/>
<circle cx="121" cy="550" r="59.5918" fill="white" stroke="#DEDEDE" stroke-width="0.816326"/>
<path d="M138.178 537.717V548.174H129.791C127.994 551.238 124.657 553.309 120.84 553.309C117.023 553.309 113.685 551.238 111.888 548.174H103.502V537.717H111.888C112.624 536.467 113.6 535.389 114.781 534.533H126.899C128.063 535.372 129.055 536.467 129.791 537.717H138.178Z" stroke="#222222" stroke-width="1.41176" stroke-linecap="round" stroke-linejoin="round"/>
<path d="M138.178 536.108V549.783H141.892V536.108H138.178Z" stroke="#222222" stroke-width="1.41176" stroke-linecap="round" stroke-linejoin="round"/>
<path d="M99.8047 536.108V549.783H103.502V536.108H99.8047Z" stroke="#222222" stroke-width="1.41176" stroke-linecap="round" stroke-linejoin="round"/>
<path d="M114.712 534.532H126.984V529.586H114.712V534.532Z" stroke="#222222" stroke-width="1.41176" stroke-linecap="round" stroke-linejoin="round"/>
<path d="M117.177 519.677C116.817 519.334 116.372 519.129 115.859 519.129H107.301C106.274 519.129 105.435 519.968 105.435 520.995C105.435 522.021 106.274 522.877 107.301 522.877H115.088L119.196 525.547H122.825L126.915 522.877H134.703C135.747 522.877 136.586 522.039 136.586 520.995C136.586 519.95 135.747 519.129 134.703 519.129H126.145C125.632 519.129 125.17 519.334 124.827 519.677L122.431 521.44H119.693L117.211 519.677H117.177Z" stroke="#222222" stroke-width="1.41176" stroke-linecap="round" stroke-linejoin="round"/>
<path d="M119.178 529.587H122.516V525.531H119.178V529.587Z" stroke="#222222" stroke-width="1.41176" stroke-linecap="round" stroke-linejoin="round"/>
<path d="M96.7648 569.465V570.785H95.5048V576.8C96.2848 576.74 96.8648 576.685 97.2448 576.635L97.3348 577.835C95.2848 578.185 92.5798 578.36 89.2198 578.36L89.0398 576.995H90.6298V570.785H89.3698V569.465H96.7648ZM99.5848 568.16V573.32H101.61V574.685H99.5848V581.51H97.9198V568.16H99.5848ZM93.9148 576.905V570.785H92.2348V576.965L93.9148 576.905ZM113.325 568.13V581.525H111.66V568.13H113.325ZM106.185 569.105C106.855 569.105 107.45 569.3 107.97 569.69C108.5 570.07 108.91 570.62 109.2 571.34C109.5 572.05 109.65 572.88 109.65 573.83C109.65 574.78 109.5 575.615 109.2 576.335C108.91 577.055 108.5 577.61 107.97 578C107.45 578.38 106.855 578.57 106.185 578.57C105.515 578.57 104.915 578.38 104.385 578C103.865 577.61 103.455 577.055 103.155 576.335C102.865 575.615 102.72 574.78 102.72 573.83C102.72 572.88 102.865 572.05 103.155 571.34C103.455 570.62 103.865 570.07 104.385 569.69C104.915 569.3 105.515 569.105 106.185 569.105ZM106.185 570.605C105.625 570.605 105.17 570.895 104.82 571.475C104.48 572.045 104.31 572.83 104.31 573.83C104.31 574.84 104.48 575.635 104.82 576.215C105.17 576.795 105.625 577.085 106.185 577.085C106.745 577.085 107.195 576.795 107.535 576.215C107.885 575.635 108.06 574.84 108.06 573.83C108.06 572.83 107.885 572.045 107.535 571.475C107.195 570.895 106.745 570.605 106.185 570.605ZM127.516 578.525V579.89H115.426V578.525H127.516ZM126.466 569.36V570.695H124.561V574.94H126.436V576.26H116.461V574.94H118.321V570.695H116.401V569.36H126.466ZM122.926 574.94V570.695H119.971V574.94H122.926ZM138.931 568.13V573.29H140.956V574.655H138.931V581.525H137.296V568.13H138.931ZM135.166 569.33V574.34H130.726V577.01C131.846 577 132.836 576.965 133.696 576.905C134.556 576.845 135.421 576.74 136.291 576.59L136.441 577.925C135.471 578.095 134.506 578.215 133.546 578.285C132.586 578.345 131.466 578.375 130.186 578.375H129.091V573.02H133.531V570.65H129.061V569.33H135.166ZM152.671 568.16V577.805H151.021V568.16H152.671ZM145.546 576.845V579.92H153.031V581.24H143.911V576.845H145.546ZM145.441 569.03C146.111 569.03 146.716 569.175 147.256 569.465C147.806 569.745 148.236 570.145 148.546 570.665C148.856 571.175 149.011 571.75 149.011 572.39C149.011 573.02 148.856 573.59 148.546 574.1C148.236 574.61 147.806 575.01 147.256 575.3C146.716 575.59 146.111 575.735 145.441 575.735C144.781 575.735 144.176 575.59 143.626 575.3C143.086 575.01 142.656 574.61 142.336 574.1C142.026 573.59 141.871 573.02 141.871 572.39C141.871 571.75 142.026 571.175 142.336 570.665C142.656 570.145 143.086 569.745 143.626 569.465C144.176 569.175 144.781 569.03 145.441 569.03ZM145.441 570.455C144.871 570.455 144.401 570.635 144.031 570.995C143.661 571.345 143.476 571.81 143.476 572.39C143.476 572.96 143.661 573.42 144.031 573.77C144.411 574.12 144.881 574.295 145.441 574.295C146.001 574.295 146.466 574.12 146.836 573.77C147.216 573.42 147.406 572.96 147.406 572.39C147.406 571.81 147.221 571.345 146.851 570.995C146.481 570.635 146.011 570.455 145.441 570.455Z" fill="#222222"/>
<path d="M93.8991 619.719V632.179H92.3591V619.719H93.8991ZM90.2171 621.021C90.2171 623.018 89.7738 624.763 88.8871 626.257C88.0005 627.75 86.5258 628.996 84.4631 629.995L83.6651 628.777C85.2518 628.011 86.4418 627.097 87.2351 626.033C88.0285 624.969 88.4951 623.713 88.6351 622.267H84.2811V621.021H90.2171ZM102.495 624.521V619.957H103.923V631.591H102.495V625.767H100.885V624.521H102.495ZM98.1275 621.903V620.139H99.5975V621.903H101.655V623.149H99.5975V623.527C99.5975 624.544 99.8075 625.491 100.227 626.369C100.657 627.237 101.282 627.89 102.103 628.329L101.249 629.477C100.699 629.178 100.223 628.772 99.8215 628.259C99.4295 627.736 99.1168 627.139 98.8835 626.467C98.6595 627.204 98.3468 627.857 97.9455 628.427C97.5441 628.996 97.0635 629.444 96.5035 629.771L95.6355 628.609C96.4568 628.123 97.0775 627.419 97.4975 626.495C97.9175 625.571 98.1275 624.581 98.1275 623.527V623.149H96.0555V621.903H98.1275ZM106.471 619.719V632.179H105.001V619.719H106.471ZM114.522 620.125V620.755C114.522 621.277 114.704 621.786 115.068 622.281C115.432 622.775 115.945 623.205 116.608 623.569C117.27 623.923 118.026 624.161 118.876 624.283L118.274 625.501C117.238 625.342 116.318 625.02 115.516 624.535C114.722 624.049 114.12 623.452 113.71 622.743C113.308 623.452 112.711 624.049 111.918 624.535C111.124 625.02 110.2 625.342 109.146 625.501L108.544 624.283C109.393 624.161 110.149 623.923 110.812 623.569C111.474 623.214 111.988 622.789 112.352 622.295C112.716 621.8 112.898 621.287 112.898 620.755V620.125H114.522ZM119.338 626.593V627.853H114.438V632.193H112.898V627.853H108.068V626.593H119.338ZM125.12 629.393V626.523H126.66V629.393H131.588V630.653H120.304V629.393H125.12ZM126.702 620.461V621.385C126.702 622.01 126.893 622.617 127.276 623.205C127.659 623.793 128.191 624.297 128.872 624.717C129.553 625.127 130.314 625.403 131.154 625.543L130.496 626.845C129.451 626.639 128.522 626.252 127.71 625.683C126.907 625.104 126.301 624.409 125.89 623.597C125.479 624.409 124.863 625.104 124.042 625.683C123.23 626.252 122.306 626.639 121.27 626.845L120.64 625.543C121.48 625.403 122.236 625.123 122.908 624.703C123.589 624.283 124.121 623.779 124.504 623.191C124.887 622.603 125.078 622.001 125.078 621.385V620.461H126.702ZM147.051 625.893V627.111H142.277V629.407H140.709V627.111H135.767V625.893H147.051ZM138.679 628.245V630.695H145.805V631.941H137.125V628.245H138.679ZM141.395 619.985C142.282 619.985 143.056 620.092 143.719 620.307C144.391 620.512 144.909 620.811 145.273 621.203C145.646 621.585 145.833 622.033 145.833 622.547C145.833 623.06 145.646 623.513 145.273 623.905C144.909 624.287 144.391 624.581 143.719 624.787C143.056 624.992 142.282 625.095 141.395 625.095C140.508 625.095 139.729 624.992 139.057 624.787C138.394 624.581 137.876 624.287 137.503 623.905C137.139 623.513 136.957 623.06 136.957 622.547C136.957 622.033 137.139 621.585 137.503 621.203C137.876 620.811 138.399 620.512 139.071 620.307C139.743 620.092 140.518 619.985 141.395 619.985ZM141.395 621.217C140.536 621.217 139.855 621.333 139.351 621.567C138.856 621.8 138.609 622.127 138.609 622.547C138.609 622.957 138.856 623.279 139.351 623.513C139.855 623.746 140.536 623.863 141.395 623.863C142.254 623.863 142.93 623.746 143.425 623.513C143.929 623.279 144.181 622.957 144.181 622.547C144.181 622.127 143.929 621.8 143.425 621.567C142.93 621.333 142.254 621.217 141.395 621.217ZM154.387 624.115V625.767H159.259V626.985H148.003V625.767H152.833V624.115H154.387ZM154.401 619.943V620.377C154.401 620.89 154.574 621.375 154.919 621.833C155.265 622.281 155.759 622.663 156.403 622.981C157.047 623.298 157.789 623.508 158.629 623.611L158.055 624.829C157.029 624.67 156.128 624.371 155.353 623.933C154.588 623.494 154.009 622.948 153.617 622.295C153.216 622.948 152.628 623.499 151.853 623.947C151.088 624.385 150.197 624.679 149.179 624.829L148.605 623.611C149.445 623.508 150.183 623.298 150.817 622.981C151.461 622.654 151.956 622.267 152.301 621.819C152.656 621.361 152.833 620.881 152.833 620.377V619.943H154.401ZM153.617 627.797C154.971 627.797 156.025 627.988 156.781 628.371C157.537 628.753 157.915 629.29 157.915 629.981C157.915 630.69 157.537 631.231 156.781 631.605C156.025 631.987 154.971 632.179 153.617 632.179C152.255 632.179 151.195 631.987 150.439 631.605C149.683 631.231 149.305 630.69 149.305 629.981C149.305 629.29 149.683 628.753 150.439 628.371C151.205 627.988 152.264 627.797 153.617 627.797ZM153.617 628.959C152.721 628.959 152.035 629.047 151.559 629.225C151.093 629.393 150.859 629.645 150.859 629.981C150.859 630.326 151.093 630.587 151.559 630.765C152.026 630.942 152.712 631.031 153.617 631.031C154.523 631.031 155.204 630.942 155.661 630.765C156.128 630.587 156.361 630.326 156.361 629.981C156.361 629.645 156.128 629.393 155.661 629.225C155.195 629.047 154.513 628.959 153.617 628.959Z" fill="#999999"/>
<circle cx="255" cy="222" r="59.5918" fill="white" stroke="#DEDEDE" stroke-width="0.816326"/>
<path d="M239.482 192.411H253.772M234.264 204.488H258.991M234.264 212.986H258.991M232.412 218.568H277.589M256.594 218.566V204.154C256.594 199.603 252.892 195.902 248.341 195.902H244.943C240.392 195.902 236.691 199.603 236.691 204.154V218.566M251.194 192.992V196.269M242.092 192.992V196.269M263.389 214.135V218.565M273.978 214.135V218.565M246.61 192.049V190.472C246.61 188.985 247.824 187.771 249.311 187.771H265.907C267.393 187.771 268.607 188.985 268.607 190.472V199.938M276.738 207.977C276.738 212.418 273.138 216.017 268.698 216.017C264.257 216.017 260.657 212.418 260.657 207.977C260.657 203.537 264.257 199.937 268.698 199.937C273.138 199.937 276.738 203.537 276.738 207.977Z" stroke="#222222" stroke-width="1.41176" stroke-miterlimit="10" stroke-linecap="round"/>
<path d="M232.894 232.204C233.474 232.204 233.994 232.344 234.454 232.624C234.924 232.894 235.289 233.274 235.549 233.764C235.809 234.254 235.939 234.809 235.939 235.429C235.939 236.049 235.809 236.604 235.549 237.094C235.289 237.584 234.924 237.964 234.454 238.234C233.994 238.504 233.474 238.639 232.894 238.639C232.314 238.639 231.789 238.504 231.319 238.234C230.859 237.964 230.499 237.584 230.239 237.094C229.979 236.604 229.849 236.049 229.849 235.429C229.849 234.809 229.979 234.254 230.239 233.764C230.499 233.274 230.859 232.894 231.319 232.624C231.789 232.344 232.314 232.204 232.894 232.204ZM232.894 233.599C232.434 233.599 232.059 233.764 231.769 234.094C231.489 234.424 231.349 234.869 231.349 235.429C231.349 235.979 231.494 236.424 231.784 236.764C232.074 237.094 232.444 237.259 232.894 237.259C233.354 237.259 233.729 237.094 234.019 236.764C234.309 236.424 234.454 235.979 234.454 235.429C234.454 234.879 234.309 234.439 234.019 234.109C233.729 233.769 233.354 233.599 232.894 233.599ZM241.099 231.394V239.344H239.539V236.044H238.264V239.284H236.719V231.634H238.264V234.694H239.539V231.394H241.099ZM241.099 240.004V244.744H239.464V241.324H232.009V240.004H241.099ZM253.385 231.394V236.899H255.215V238.279H253.385V244.744H251.735V231.394H253.385ZM242.75 241.039C244.19 241.039 245.315 241.029 246.125 241.009V239.749C245.395 239.629 244.815 239.354 244.385 238.924C243.955 238.494 243.74 237.964 243.74 237.334C243.74 236.844 243.875 236.409 244.145 236.029C244.415 235.649 244.79 235.359 245.27 235.159C245.76 234.949 246.32 234.844 246.95 234.844C247.58 234.844 248.135 234.949 248.615 235.159C249.105 235.359 249.485 235.649 249.755 236.029C250.035 236.409 250.175 236.844 250.175 237.334C250.175 237.964 249.955 238.494 249.515 238.924C249.085 239.354 248.505 239.629 247.775 239.749V240.934C248.785 240.894 249.86 240.799 251 240.649L251.135 241.834C249.885 242.074 248.62 242.229 247.34 242.299C246.07 242.359 244.615 242.389 242.975 242.389L242.75 241.039ZM246.125 232.909V231.439H247.775V232.909H250.895V234.214H242.99V232.909H246.125ZM246.95 236.089C246.45 236.089 246.05 236.199 245.75 236.419C245.45 236.639 245.3 236.944 245.3 237.334C245.3 237.724 245.45 238.029 245.75 238.249C246.05 238.469 246.45 238.579 246.95 238.579C247.46 238.579 247.865 238.469 248.165 238.249C248.465 238.029 248.615 237.724 248.615 237.334C248.615 236.944 248.465 236.639 248.165 236.419C247.865 236.199 247.46 236.089 246.95 236.089ZM262.925 231.814V232.489C262.925 233.049 263.12 233.594 263.51 234.124C263.9 234.654 264.45 235.114 265.16 235.504C265.87 235.884 266.68 236.139 267.59 236.269L266.945 237.574C265.835 237.404 264.85 237.059 263.99 236.539C263.14 236.019 262.495 235.379 262.055 234.619C261.625 235.379 260.985 236.019 260.135 236.539C259.285 237.059 258.295 237.404 257.165 237.574L256.52 236.269C257.43 236.139 258.24 235.884 258.95 235.504C259.66 235.124 260.21 234.669 260.6 234.139C260.99 233.609 261.185 233.059 261.185 232.489V231.814H262.925ZM268.085 238.744V240.094H262.835V244.744H261.185V240.094H256.01V238.744H268.085ZM274.28 241.744V238.669H275.93V241.744H281.21V243.094H269.12V241.744H274.28ZM275.975 232.174V233.164C275.975 233.834 276.18 234.484 276.59 235.114C277 235.744 277.57 236.284 278.3 236.734C279.03 237.174 279.845 237.469 280.745 237.619L280.04 239.014C278.92 238.794 277.925 238.379 277.055 237.769C276.195 237.149 275.545 236.404 275.105 235.534C274.665 236.404 274.005 237.149 273.125 237.769C272.255 238.379 271.265 238.794 270.155 239.014L269.48 237.619C270.38 237.469 271.19 237.169 271.91 236.719C272.64 236.269 273.21 235.729 273.62 235.099C274.03 234.469 274.235 233.824 274.235 233.164V232.174H275.975ZM247.294 249.784V251.014H245.479V253.039H247.219V254.284H237.499V253.039H239.239V251.014H237.409V249.784H247.294ZM248.404 255.124V256.429H236.344V255.124H248.404ZM246.904 257.329V260.509H239.389V261.409H247.279V262.624H237.784V259.384H245.284V258.529H237.739V257.329H246.904ZM243.844 253.039V251.014H240.889V253.039H243.844ZM260.78 249.379V259.294H259.205V254.584H257.87V258.994H256.325V249.619H257.87V253.249H259.205V249.379H260.78ZM253.55 258.394V261.154H261.14V262.474H251.9V258.394H253.55ZM255.05 250.504V254.524H251.6V256.099C252.44 256.089 253.165 256.064 253.775 256.024C254.385 255.974 255.01 255.889 255.65 255.769L255.785 257.074C255.035 257.214 254.3 257.309 253.58 257.359C252.86 257.409 251.97 257.434 250.91 257.434H250.025V253.309H253.445V251.794H249.995V250.504H255.05ZM273.215 250.414V251.734H265.7V253.369H272.915V254.659H265.7V256.369H273.335V257.689H264.035V250.414H273.215ZM274.655 259.789V261.124H262.565V259.789H274.655Z" fill="#222222"/>
<path d="M214.05 288.66V301.12H212.51V288.66H214.05ZM210.368 289.962C210.368 291.959 209.924 293.705 209.038 295.198C208.151 296.691 206.676 297.937 204.614 298.936L203.816 297.718C205.402 296.953 206.592 296.038 207.386 294.974C208.179 293.91 208.646 292.655 208.786 291.208H204.432V289.962H210.368ZM222.646 293.462V288.898H224.074V300.532H222.646V294.708H221.036V293.462H222.646ZM218.278 290.844V289.08H219.748V290.844H221.806V292.09H219.748V292.468C219.748 293.485 219.958 294.433 220.378 295.31C220.807 296.178 221.433 296.831 222.254 297.27L221.4 298.418C220.849 298.119 220.373 297.713 219.972 297.2C219.58 296.677 219.267 296.08 219.034 295.408C218.81 296.145 218.497 296.799 218.096 297.368C217.695 297.937 217.214 298.385 216.654 298.712L215.786 297.55C216.607 297.065 217.228 296.36 217.648 295.436C218.068 294.512 218.278 293.523 218.278 292.468V292.09H216.206V290.844H218.278ZM226.622 288.66V301.12H225.152V288.66H226.622ZM235.827 289.332V290.634C235.827 291.455 236.079 292.202 236.583 292.874C237.087 293.537 237.796 294.017 238.711 294.316L237.913 295.506C237.259 295.282 236.69 294.951 236.205 294.512C235.729 294.073 235.355 293.56 235.085 292.972C234.814 293.653 234.427 294.241 233.923 294.736C233.428 295.231 232.826 295.609 232.117 295.87L231.291 294.652C232.261 294.316 233.003 293.775 233.517 293.028C234.039 292.272 234.301 291.432 234.301 290.508V289.332H235.827ZM241.189 288.674V291.684H242.925V292.958H241.189V296.108H239.649V288.674H241.189ZM237.171 296.416C238.468 296.416 239.485 296.626 240.223 297.046C240.96 297.457 241.329 298.031 241.329 298.768C241.329 299.505 240.96 300.079 240.223 300.49C239.485 300.91 238.468 301.12 237.171 301.12C235.873 301.12 234.851 300.91 234.105 300.49C233.367 300.079 232.999 299.505 232.999 298.768C232.999 298.031 233.367 297.457 234.105 297.046C234.851 296.626 235.873 296.416 237.171 296.416ZM237.171 297.606C236.321 297.606 235.663 297.709 235.197 297.914C234.739 298.11 234.511 298.395 234.511 298.768C234.511 299.141 234.739 299.431 235.197 299.636C235.663 299.832 236.321 299.93 237.171 299.93C238.02 299.93 238.673 299.832 239.131 299.636C239.588 299.431 239.817 299.141 239.817 298.768C239.817 298.395 239.588 298.11 239.131 297.914C238.673 297.709 238.02 297.606 237.171 297.606ZM249.099 290.004V291.236H245.585V293.28H248.889V294.484H245.585V296.92C246.425 296.911 247.125 296.887 247.685 296.85C248.245 296.813 248.814 296.743 249.393 296.64L249.547 297.9C248.875 298.021 248.212 298.101 247.559 298.138C246.915 298.175 246.052 298.194 244.969 298.194H244.129V290.004H249.099ZM254.321 288.66V301.12H252.865V294.806H251.591V300.532H250.149V288.898H251.591V293.546H252.865V288.66H254.321ZM259.921 289.514C260.565 289.514 261.144 289.645 261.657 289.906C262.171 290.158 262.572 290.517 262.861 290.984C263.16 291.441 263.309 291.959 263.309 292.538C263.309 293.117 263.16 293.639 262.861 294.106C262.572 294.563 262.171 294.923 261.657 295.184C261.144 295.436 260.565 295.562 259.921 295.562C259.277 295.562 258.694 295.436 258.171 295.184C257.658 294.923 257.252 294.563 256.953 294.106C256.664 293.649 256.519 293.126 256.519 292.538C256.519 291.959 256.664 291.441 256.953 290.984C257.252 290.517 257.658 290.158 258.171 289.906C258.694 289.645 259.277 289.514 259.921 289.514ZM259.921 290.844C259.361 290.844 258.904 290.998 258.549 291.306C258.195 291.614 258.017 292.025 258.017 292.538C258.017 293.051 258.195 293.467 258.549 293.784C258.913 294.092 259.371 294.246 259.921 294.246C260.472 294.246 260.925 294.092 261.279 293.784C261.634 293.467 261.811 293.051 261.811 292.538C261.811 292.025 261.634 291.614 261.279 291.306C260.925 290.998 260.472 290.844 259.921 290.844ZM266.193 288.646V301.148H264.667V288.646H266.193ZM255.959 297.284C257.527 297.284 258.955 297.261 260.243 297.214C261.531 297.158 262.759 297.041 263.925 296.864L264.037 297.984C262.833 298.217 261.592 298.371 260.313 298.446C259.035 298.511 257.644 298.544 256.141 298.544L255.959 297.284ZM277.834 289.066V289.696C277.834 290.219 278.016 290.727 278.38 291.222C278.744 291.717 279.258 292.146 279.92 292.51C280.583 292.865 281.339 293.103 282.188 293.224L281.586 294.442C280.55 294.283 279.631 293.961 278.828 293.476C278.035 292.991 277.433 292.393 277.022 291.684C276.621 292.393 276.024 292.991 275.23 293.476C274.437 293.961 273.513 294.283 272.458 294.442L271.856 293.224C272.706 293.103 273.462 292.865 274.124 292.51C274.787 292.155 275.3 291.731 275.664 291.236C276.028 290.741 276.21 290.228 276.21 289.696V289.066H277.834ZM282.65 295.534V296.794H277.75V301.134H276.21V296.794H271.38V295.534H282.65ZM288.433 298.334V295.464H289.973V298.334H294.901V299.594H283.617V298.334H288.433ZM290.015 289.402V290.326C290.015 290.951 290.206 291.558 290.589 292.146C290.971 292.734 291.503 293.238 292.185 293.658C292.866 294.069 293.627 294.344 294.467 294.484L293.809 295.786C292.763 295.581 291.835 295.193 291.023 294.624C290.22 294.045 289.613 293.35 289.203 292.538C288.792 293.35 288.176 294.045 287.355 294.624C286.543 295.193 285.619 295.581 284.583 295.786L283.953 294.484C284.793 294.344 285.549 294.064 286.221 293.644C286.902 293.224 287.434 292.72 287.817 292.132C288.199 291.544 288.391 290.942 288.391 290.326V289.402H290.015ZM307.137 294.344V295.464H295.853V294.344H307.137ZM305.765 296.234V299.076H298.695V299.944H306.129V301.008H297.169V298.082H304.253V297.298H297.141V296.234H305.765ZM305.723 288.94V291.754H298.779V292.552H305.961V293.63H297.281V290.76H304.211V290.004H297.253V288.94H305.723ZM212.762 307.43C213.303 307.43 213.788 307.561 214.218 307.822C214.656 308.074 214.997 308.429 215.24 308.886C215.482 309.343 215.604 309.861 215.604 310.44C215.604 311.019 215.482 311.537 215.24 311.994C214.997 312.451 214.656 312.806 214.218 313.058C213.788 313.31 213.303 313.436 212.762 313.436C212.22 313.436 211.73 313.31 211.292 313.058C210.862 312.806 210.526 312.451 210.284 311.994C210.041 311.537 209.92 311.019 209.92 310.44C209.92 309.861 210.041 309.343 210.284 308.886C210.526 308.429 210.862 308.074 211.292 307.822C211.73 307.561 212.22 307.43 212.762 307.43ZM212.762 308.732C212.332 308.732 211.982 308.886 211.712 309.194C211.45 309.502 211.32 309.917 211.32 310.44C211.32 310.953 211.455 311.369 211.726 311.686C211.996 311.994 212.342 312.148 212.762 312.148C213.191 312.148 213.541 311.994 213.812 311.686C214.082 311.369 214.218 310.953 214.218 310.44C214.218 309.927 214.082 309.516 213.812 309.208C213.541 308.891 213.191 308.732 212.762 308.732ZM220.42 306.674V314.094H218.964V311.014H217.774V314.038H216.332V306.898H217.774V309.754H218.964V306.674H220.42ZM220.42 314.71V319.134H218.894V315.942H211.936V314.71H220.42ZM228.764 311.462V306.898H230.192V318.532H228.764V312.708H227.154V311.462H228.764ZM224.396 308.844V307.08H225.866V308.844H227.924V310.09H225.866V310.468C225.866 311.485 226.076 312.433 226.496 313.31C226.925 314.178 227.551 314.831 228.372 315.27L227.518 316.418C226.967 316.119 226.491 315.713 226.09 315.2C225.698 314.677 225.385 314.08 225.152 313.408C224.928 314.145 224.615 314.799 224.214 315.368C223.813 315.937 223.332 316.385 222.772 316.712L221.904 315.55C222.725 315.065 223.346 314.36 223.766 313.436C224.186 312.512 224.396 311.523 224.396 310.468V310.09H222.324V308.844H224.396ZM232.74 306.66V319.12H231.27V306.66H232.74ZM241.945 307.332V308.634C241.945 309.455 242.197 310.202 242.701 310.874C243.205 311.537 243.914 312.017 244.829 312.316L244.031 313.506C243.378 313.282 242.808 312.951 242.323 312.512C241.847 312.073 241.474 311.56 241.203 310.972C240.932 311.653 240.545 312.241 240.041 312.736C239.546 313.231 238.944 313.609 238.235 313.87L237.409 312.652C238.38 312.316 239.122 311.775 239.635 311.028C240.158 310.272 240.419 309.432 240.419 308.508V307.332H241.945ZM247.307 306.674V309.684H249.043V310.958H247.307V314.108H245.767V306.674H247.307ZM243.289 314.416C244.586 314.416 245.604 314.626 246.341 315.046C247.078 315.457 247.447 316.031 247.447 316.768C247.447 317.505 247.078 318.079 246.341 318.49C245.604 318.91 244.586 319.12 243.289 319.12C241.992 319.12 240.97 318.91 240.223 318.49C239.486 318.079 239.117 317.505 239.117 316.768C239.117 316.031 239.486 315.457 240.223 315.046C240.97 314.626 241.992 314.416 243.289 314.416ZM243.289 315.606C242.44 315.606 241.782 315.709 241.315 315.914C240.858 316.11 240.629 316.395 240.629 316.768C240.629 317.141 240.858 317.431 241.315 317.636C241.782 317.832 242.44 317.93 243.289 317.93C244.138 317.93 244.792 317.832 245.249 317.636C245.706 317.431 245.935 317.141 245.935 316.768C245.935 316.395 245.706 316.11 245.249 315.914C244.792 315.709 244.138 315.606 243.289 315.606ZM255.217 308.004V309.236H251.703V311.28H255.007V312.484H251.703V314.92C252.543 314.911 253.243 314.887 253.803 314.85C254.363 314.813 254.933 314.743 255.511 314.64L255.665 315.9C254.993 316.021 254.331 316.101 253.677 316.138C253.033 316.175 252.17 316.194 251.087 316.194H250.247V308.004H255.217ZM260.439 306.66V319.12H258.983V312.806H257.709V318.532H256.267V306.898H257.709V311.546H258.983V306.66H260.439ZM266.894 316.432V314.388H263.38V310.3H270.478V308.732H263.352V307.514H272.004V311.518H264.892V313.156H272.284V314.388H268.42V316.432H273.32V317.678H262.036V316.432H266.894ZM286.304 309.964V306.674H287.844V315.76H286.304V311.21H284.134V309.964H286.304ZM281.264 314.99V317.65H288.152V318.882H279.71V314.99H281.264ZM284.582 307.57V308.802H282.034V309.138C282.034 309.931 282.286 310.673 282.79 311.364C283.304 312.045 284.018 312.54 284.932 312.848L284.176 314.052C283.504 313.819 282.921 313.478 282.426 313.03C281.941 312.582 281.558 312.05 281.278 311.434C281.008 312.106 280.611 312.694 280.088 313.198C279.575 313.702 278.959 314.075 278.24 314.318L277.456 313.1C278.408 312.773 279.15 312.246 279.682 311.518C280.214 310.79 280.48 309.997 280.48 309.138V308.802H277.89V307.57H284.582ZM299.521 306.66V310.846H301.201V312.106H299.521V316.404H297.981V306.66H299.521ZM292.941 315.774V317.65H299.955V318.882H291.387V315.774H292.941ZM289.609 313.912C290.57 313.912 291.611 313.898 292.731 313.87V313.072C292.04 312.979 291.494 312.769 291.093 312.442C290.701 312.115 290.505 311.7 290.505 311.196C290.505 310.599 290.771 310.132 291.303 309.796C291.844 309.451 292.567 309.278 293.473 309.278C294.387 309.278 295.115 309.451 295.657 309.796C296.198 310.132 296.469 310.599 296.469 311.196C296.469 311.691 296.273 312.101 295.881 312.428C295.489 312.755 294.947 312.965 294.257 313.058V313.8C295.573 313.716 296.609 313.613 297.365 313.492L297.491 314.556C296.333 314.771 295.12 314.915 293.851 314.99C292.581 315.055 291.233 315.093 289.805 315.102L289.609 313.912ZM292.731 307.752V306.604H294.257V307.752H297.029V308.872H289.931V307.752H292.731ZM293.473 310.328C292.997 310.328 292.623 310.403 292.353 310.552C292.091 310.701 291.961 310.916 291.961 311.196C291.961 311.476 292.091 311.691 292.353 311.84C292.623 311.989 292.997 312.064 293.473 312.064C293.958 312.064 294.336 311.989 294.607 311.84C294.877 311.691 295.013 311.476 295.013 311.196C295.013 310.916 294.877 310.701 294.607 310.552C294.336 310.403 293.958 310.328 293.473 310.328Z" fill="#999999"/>
<circle cx="255" cy="550" r="59.5918" fill="white" stroke="#DEDEDE" stroke-width="0.816327"/>
<path d="M267.336 533.825L268.041 533.854L268.042 533.839V533.825H267.336ZM265.165 541.231L264.55 540.885L264.548 540.889L265.165 541.231ZM231.711 541.231L232.328 540.889L232.326 540.884L231.711 541.231ZM231.679 525.238L231.061 524.896L231.06 524.898L231.679 525.238ZM265.197 525.238L265.818 524.902L265.815 524.896L265.197 525.238ZM267.336 532.644H268.042V532.632L268.042 532.621L267.336 532.644ZM283.94 535.132H284.646C284.646 534.958 284.582 534.79 284.465 534.66L283.94 535.132ZM276.247 526.577L276.772 526.105C276.638 525.956 276.447 525.871 276.247 525.871V526.577ZM268.202 534.426C267.812 534.426 267.496 534.742 267.496 535.132C267.496 535.521 267.812 535.837 268.202 535.837V535.132V534.426ZM283.493 535.837C283.882 535.837 284.198 535.521 284.198 535.132C284.198 534.742 283.882 534.426 283.493 534.426V535.132V535.837ZM273.526 526.45C273.456 526.066 273.088 525.812 272.704 525.883C272.321 525.953 272.067 526.32 272.137 526.704L272.831 526.577L273.526 526.45ZM273.701 535.259C273.771 535.643 274.139 535.897 274.522 535.826C274.906 535.756 275.16 535.389 275.09 535.005L274.395 535.132L273.701 535.259ZM268.422 544.394C268.812 544.394 269.128 544.078 269.128 543.688C269.128 543.298 268.812 542.982 268.422 542.982V543.688V544.394ZM226.764 543.688H226.058C226.058 544.078 226.374 544.394 226.764 544.394V543.688ZM227.47 540.144C227.47 539.754 227.154 539.438 226.764 539.438C226.374 539.438 226.058 539.754 226.058 540.144H226.764H227.47ZM250.45 518.945C250.06 518.945 249.744 519.261 249.744 519.65C249.744 520.04 250.06 520.356 250.45 520.356V519.65V518.945ZM258.845 520.356C259.235 520.356 259.551 520.04 259.551 519.65C259.551 519.261 259.235 518.945 258.845 518.945V519.65V520.356ZM248.408 528.847L248.907 528.348C248.632 528.072 248.185 528.072 247.909 528.348L248.408 528.847ZM245.822 531.432L245.323 530.933L245.822 531.432ZM250.994 536.636L250.495 536.137C250.491 536.141 250.487 536.144 250.483 536.148L250.994 536.636ZM267.336 533.825L266.631 533.795C266.54 535.986 265.963 538.367 264.55 540.885L265.165 541.231L265.781 541.576C267.305 538.859 267.941 536.261 268.041 533.854L267.336 533.825ZM265.165 541.231L264.548 540.889C263.839 542.17 262.509 542.951 261.111 542.951V543.657V544.363C263.034 544.363 264.831 543.292 265.783 541.572L265.165 541.231ZM261.111 543.657V542.951H235.765V543.657V544.363H261.111V543.657ZM235.765 543.657V542.951C234.367 542.951 233.037 542.17 232.328 540.889L231.711 541.231L231.093 541.572C232.045 543.292 233.842 544.363 235.765 544.363V543.657ZM231.711 541.231L232.326 540.884C228.782 534.591 230.359 529.115 232.298 525.577L231.679 525.238L231.06 524.898C228.976 528.702 227.234 534.719 231.096 541.577L231.711 541.231ZM231.679 525.238L232.296 525.579C233.006 524.296 234.306 523.517 235.733 523.517V522.811V522.106C233.776 522.106 232.011 523.178 231.061 524.896L231.679 525.238ZM235.733 522.811V523.517H261.143V522.811V522.106H235.733V522.811ZM261.143 522.811V523.517C262.57 523.517 263.87 524.296 264.58 525.579L265.197 525.238L265.815 524.896C264.865 523.178 263.1 522.106 261.143 522.106V522.811ZM265.197 525.238L264.576 525.573C265.598 527.462 266.54 529.875 266.631 532.667L267.336 532.644L268.042 532.621C267.941 529.538 266.903 526.907 265.818 524.902L265.197 525.238ZM267.336 532.644H266.63V533.825H267.336H268.042V532.644H267.336ZM283.94 535.132H283.235V541.133H283.94H284.646V535.132H283.94ZM283.94 541.133H283.235C283.235 542.148 282.401 542.981 281.387 542.981V543.687V544.393C283.181 544.393 284.646 542.928 284.646 541.133H283.94ZM281.387 543.687V542.981H270.597V543.687V544.393H281.387V543.687ZM270.597 543.687V542.981C269.582 542.981 268.749 542.148 268.749 541.133H268.043H267.337C267.337 542.928 268.802 544.393 270.597 544.393V543.687ZM268.043 541.133H268.749V529.131H268.043H267.337V541.133H268.043ZM268.043 529.131H268.749C268.749 528.116 269.582 527.283 270.597 527.283V526.577V525.871C268.802 525.871 267.337 527.336 267.337 529.131H268.043ZM270.597 526.577V527.283H276.247V526.577V525.871H270.597V526.577ZM276.247 526.577L275.722 527.049L283.416 535.604L283.94 535.132L284.465 534.66L276.772 526.105L276.247 526.577ZM268.202 535.132V535.837H283.493V535.132V534.426H268.202V535.132ZM272.831 526.577L272.137 526.704L273.701 535.259L274.395 535.132L275.09 535.005L273.526 526.45L272.831 526.577ZM268.422 543.688V542.982H226.764V543.688V544.394H268.422V543.688ZM226.764 543.688H227.47V540.144H226.764H226.058V543.688H226.764ZM244.448 548.541H243.743C243.743 550.461 242.186 552.017 240.267 552.017V552.723V553.429C242.966 553.429 245.154 551.24 245.154 548.541H244.448ZM240.267 552.723V552.017C238.347 552.017 236.791 550.461 236.791 548.541H236.085H235.379C235.379 551.24 237.567 553.429 240.267 553.429V552.723ZM236.085 548.541H236.791C236.791 546.621 238.347 545.065 240.267 545.065V544.359V543.653C237.567 543.653 235.379 545.841 235.379 548.541H236.085ZM240.267 544.359V545.065C242.186 545.065 243.743 546.621 243.743 548.541H244.448H245.154C245.154 545.841 242.966 543.653 240.267 543.653V544.359ZM271.52 548.541H270.814C270.814 550.461 269.258 552.017 267.338 552.017V552.723V553.429C270.038 553.429 272.226 551.24 272.226 548.541H271.52ZM267.338 552.723V552.017C265.419 552.017 263.862 550.461 263.862 548.541H263.156H262.451C262.451 551.24 264.639 553.429 267.338 553.429V552.723ZM263.156 548.541H263.862C263.862 546.621 265.419 545.065 267.338 545.065V544.359V543.653C264.639 543.653 262.451 545.841 262.451 548.541H263.156ZM267.338 544.359V545.065C269.258 545.065 270.814 546.621 270.814 548.541H271.52H272.226C272.226 545.841 270.038 543.653 267.338 543.653V544.359ZM250.45 519.65V520.356H258.845V519.65V518.945H250.45V519.65ZM250.994 531.432L251.493 530.933L248.907 528.348L248.408 528.847L247.909 529.346L250.495 531.932L250.994 531.432ZM248.408 528.847L247.909 528.348L245.323 530.933L245.822 531.432L246.321 531.932L248.907 529.346L248.408 528.847ZM245.822 531.432L245.323 530.933C243.611 532.646 243.611 535.423 245.323 537.135L245.822 536.636L246.321 536.137C245.161 534.976 245.161 533.092 246.321 531.932L245.822 531.432ZM245.822 536.636L245.323 537.135C246.155 537.967 247.26 538.427 248.408 538.427V537.721V537.015C247.641 537.015 246.894 536.709 246.321 536.137L245.822 536.636ZM248.408 537.721V538.427C249.547 538.427 250.693 537.973 251.504 537.123L250.994 536.636L250.483 536.148C249.954 536.703 249.185 537.015 248.408 537.015V537.721ZM250.994 536.636L251.493 537.135C253.205 535.423 253.205 532.646 251.493 530.933L250.994 531.432L250.495 531.932C251.655 533.092 251.655 534.976 250.495 536.137L250.994 536.636Z" fill="#222222"/>
<path d="M235.621 569.103V570.408H231.976V571.683H235.471V572.928H231.976V574.263C232.836 574.253 233.566 574.228 234.166 574.188C234.776 574.138 235.386 574.058 235.996 573.948L236.146 575.283C235.436 575.413 234.726 575.498 234.016 575.538C233.316 575.578 232.411 575.598 231.301 575.598H230.401V569.103H235.621ZM241.216 568.158V576.438H239.656V572.853H238.396V575.973H236.851V568.413H238.396V571.503H239.656V568.158H241.216ZM236.761 576.588C238.181 576.588 239.291 576.803 240.091 577.233C240.891 577.663 241.291 578.263 241.291 579.033C241.291 579.813 240.891 580.418 240.091 580.848C239.291 581.278 238.181 581.493 236.761 581.493C235.341 581.493 234.231 581.278 233.431 580.848C232.631 580.418 232.231 579.813 232.231 579.033C232.231 578.263 232.631 577.663 233.431 577.233C234.231 576.803 235.341 576.588 236.761 576.588ZM236.761 577.848C235.821 577.848 235.101 577.948 234.601 578.148C234.101 578.348 233.851 578.643 233.851 579.033C233.851 579.423 234.101 579.723 234.601 579.933C235.111 580.133 235.831 580.233 236.761 580.233C237.701 580.233 238.416 580.133 238.906 579.933C239.406 579.723 239.656 579.423 239.656 579.033C239.656 578.643 239.406 578.348 238.906 578.148C238.416 577.948 237.701 577.848 236.761 577.848ZM253.772 569.388V570.963C253.772 572.243 253.737 573.353 253.667 574.293C253.607 575.233 253.442 576.333 253.172 577.593L251.537 577.443C251.787 576.363 251.952 575.313 252.032 574.293L244.247 574.698L244.037 573.363L252.107 573.078C252.127 572.588 252.137 571.883 252.137 570.963V570.723H244.397V569.388H253.772ZM255.092 578.448V579.813H243.017V578.448H255.092ZM261.332 578.613V576.423H257.567V572.043H265.172V570.363H257.537V569.058H266.807V573.348H259.187V575.103H267.107V576.423H262.967V578.613H268.217V579.948H256.127V578.613H261.332ZM280.278 568.128V581.523H278.628V568.128H280.278ZM276.198 569.328V574.338H271.638V577.008C272.778 576.998 273.808 576.963 274.728 576.903C275.658 576.833 276.608 576.718 277.578 576.558L277.743 577.893C276.683 578.073 275.643 578.198 274.623 578.268C273.613 578.328 272.448 578.358 271.128 578.358H269.973V573.018H274.533V570.648H269.943V569.328H276.198Z" fill="#222222"/>
<path d="M220.493 620.489C221.034 620.489 221.52 620.619 221.949 620.881C222.388 621.133 222.728 621.487 222.971 621.945C223.214 622.402 223.335 622.92 223.335 623.499C223.335 624.077 223.214 624.595 222.971 625.053C222.728 625.51 222.388 625.865 221.949 626.117C221.52 626.369 221.034 626.495 220.493 626.495C219.952 626.495 219.462 626.369 219.023 626.117C218.594 625.865 218.258 625.51 218.015 625.053C217.772 624.595 217.651 624.077 217.651 623.499C217.651 622.92 217.772 622.402 218.015 621.945C218.258 621.487 218.594 621.133 219.023 620.881C219.462 620.619 219.952 620.489 220.493 620.489ZM220.493 621.791C220.064 621.791 219.714 621.945 219.443 622.253C219.182 622.561 219.051 622.976 219.051 623.499C219.051 624.012 219.186 624.427 219.457 624.745C219.728 625.053 220.073 625.207 220.493 625.207C220.922 625.207 221.272 625.053 221.543 624.745C221.814 624.427 221.949 624.012 221.949 623.499C221.949 622.985 221.814 622.575 221.543 622.267C221.272 621.949 220.922 621.791 220.493 621.791ZM228.151 619.733V627.153H226.695V624.073H225.505V627.097H224.063V619.957H225.505V622.813H226.695V619.733H228.151ZM228.151 627.769V632.193H226.625V629.001H219.667V627.769H228.151ZM239.617 619.733V624.871H241.325V626.159H239.617V632.193H238.077V619.733H239.617ZM229.691 628.735C231.035 628.735 232.085 628.725 232.841 628.707V627.531C232.16 627.419 231.619 627.162 231.217 626.761C230.816 626.359 230.615 625.865 230.615 625.277C230.615 624.819 230.741 624.413 230.993 624.059C231.245 623.704 231.595 623.433 232.043 623.247C232.501 623.051 233.023 622.953 233.611 622.953C234.199 622.953 234.717 623.051 235.165 623.247C235.623 623.433 235.977 623.704 236.229 624.059C236.491 624.413 236.621 624.819 236.621 625.277C236.621 625.865 236.416 626.359 236.005 626.761C235.604 627.162 235.063 627.419 234.381 627.531V628.637C235.324 628.599 236.327 628.511 237.391 628.371L237.517 629.477C236.351 629.701 235.17 629.845 233.975 629.911C232.79 629.967 231.432 629.995 229.901 629.995L229.691 628.735ZM232.841 621.147V619.775H234.381V621.147H237.293V622.365H229.915V621.147H232.841ZM233.611 624.115C233.145 624.115 232.771 624.217 232.491 624.423C232.211 624.628 232.071 624.913 232.071 625.277C232.071 625.641 232.211 625.925 232.491 626.131C232.771 626.336 233.145 626.439 233.611 626.439C234.087 626.439 234.465 626.336 234.745 626.131C235.025 625.925 235.165 625.641 235.165 625.277C235.165 624.913 235.025 624.628 234.745 624.423C234.465 624.217 234.087 624.115 233.611 624.115ZM248.522 620.125V620.755C248.522 621.277 248.704 621.786 249.068 622.281C249.432 622.775 249.945 623.205 250.608 623.569C251.27 623.923 252.026 624.161 252.876 624.283L252.274 625.501C251.238 625.342 250.318 625.02 249.516 624.535C248.722 624.049 248.12 623.452 247.71 622.743C247.308 623.452 246.711 624.049 245.918 624.535C245.124 625.02 244.2 625.342 243.146 625.501L242.544 624.283C243.393 624.161 244.149 623.923 244.812 623.569C245.474 623.214 245.988 622.789 246.352 622.295C246.716 621.8 246.898 621.287 246.898 620.755V620.125H248.522ZM253.338 626.593V627.853H248.438V632.193H246.898V627.853H242.068V626.593H253.338ZM259.12 629.393V626.523H260.66V629.393H265.588V630.653H254.304V629.393H259.12ZM260.702 620.461V621.385C260.702 622.01 260.893 622.617 261.276 623.205C261.659 623.793 262.191 624.297 262.872 624.717C263.553 625.127 264.314 625.403 265.154 625.543L264.496 626.845C263.451 626.639 262.522 626.252 261.71 625.683C260.907 625.104 260.301 624.409 259.89 623.597C259.479 624.409 258.863 625.104 258.042 625.683C257.23 626.252 256.306 626.639 255.27 626.845L254.64 625.543C255.48 625.403 256.236 625.123 256.908 624.703C257.589 624.283 258.121 623.779 258.504 623.191C258.887 622.603 259.078 622.001 259.078 621.385V620.461H260.702ZM281.051 625.893V627.111H276.277V629.407H274.709V627.111H269.767V625.893H281.051ZM272.679 628.245V630.695H279.805V631.941H271.125V628.245H272.679ZM275.395 619.985C276.282 619.985 277.056 620.092 277.719 620.307C278.391 620.512 278.909 620.811 279.273 621.203C279.646 621.585 279.833 622.033 279.833 622.547C279.833 623.06 279.646 623.513 279.273 623.905C278.909 624.287 278.391 624.581 277.719 624.787C277.056 624.992 276.282 625.095 275.395 625.095C274.508 625.095 273.729 624.992 273.057 624.787C272.394 624.581 271.876 624.287 271.503 623.905C271.139 623.513 270.957 623.06 270.957 622.547C270.957 622.033 271.139 621.585 271.503 621.203C271.876 620.811 272.399 620.512 273.071 620.307C273.743 620.092 274.518 619.985 275.395 619.985ZM275.395 621.217C274.536 621.217 273.855 621.333 273.351 621.567C272.856 621.8 272.609 622.127 272.609 622.547C272.609 622.957 272.856 623.279 273.351 623.513C273.855 623.746 274.536 623.863 275.395 623.863C276.254 623.863 276.93 623.746 277.425 623.513C277.929 623.279 278.181 622.957 278.181 622.547C278.181 622.127 277.929 621.8 277.425 621.567C276.93 621.333 276.254 621.217 275.395 621.217ZM288.387 624.115V625.767H293.259V626.985H282.003V625.767H286.833V624.115H288.387ZM288.401 619.943V620.377C288.401 620.89 288.574 621.375 288.919 621.833C289.265 622.281 289.759 622.663 290.403 622.981C291.047 623.298 291.789 623.508 292.629 623.611L292.055 624.829C291.029 624.67 290.128 624.371 289.353 623.933C288.588 623.494 288.009 622.948 287.617 622.295C287.216 622.948 286.628 623.499 285.853 623.947C285.088 624.385 284.197 624.679 283.179 624.829L282.605 623.611C283.445 623.508 284.183 623.298 284.817 622.981C285.461 622.654 285.956 622.267 286.301 621.819C286.656 621.361 286.833 620.881 286.833 620.377V619.943H288.401ZM287.617 627.797C288.971 627.797 290.025 627.988 290.781 628.371C291.537 628.753 291.915 629.29 291.915 629.981C291.915 630.69 291.537 631.231 290.781 631.605C290.025 631.987 288.971 632.179 287.617 632.179C286.255 632.179 285.195 631.987 284.439 631.605C283.683 631.231 283.305 630.69 283.305 629.981C283.305 629.29 283.683 628.753 284.439 628.371C285.205 627.988 286.264 627.797 287.617 627.797ZM287.617 628.959C286.721 628.959 286.035 629.047 285.559 629.225C285.093 629.393 284.859 629.645 284.859 629.981C284.859 630.326 285.093 630.587 285.559 630.765C286.026 630.942 286.712 631.031 287.617 631.031C288.523 631.031 289.204 630.942 289.661 630.765C290.128 630.587 290.361 630.326 290.361 629.981C290.361 629.645 290.128 629.393 289.661 629.225C289.195 629.047 288.513 628.959 287.617 628.959Z" fill="#999999"/>
<circle cx="255" cy="878" r="59.5918" fill="white" stroke="#DEDEDE" stroke-width="0.816326"/>
<path d="M233.117 879.911H276.882M271.565 857.415V872.957C271.565 874.54 270.284 875.82 268.702 875.82C267.119 875.82 265.838 874.54 265.838 872.957V856.02C265.838 854.306 264.448 852.916 262.734 852.916H262.157M274.015 844.326L272.612 845.263C271.957 845.7 271.565 846.437 271.569 847.226L271.581 849.643M248.251 850.87L250.296 855.37M236.389 876.229H263.793V879.911H236.389V876.229ZM241.469 844.326H258.848C260.259 844.326 261.405 845.471 261.405 846.883V876.229H238.913V846.883C238.913 845.471 240.058 844.326 241.469 844.326ZM242.39 848.212H257.932V855.574H242.39V848.212ZM270.133 850.257H273.405V857.21H270.133V850.257ZM254.206 867.3C254.206 869.534 252.394 871.345 250.161 871.345C247.928 871.345 246.116 869.534 246.116 867.3C246.116 865.067 250.161 860.462 250.161 860.462C250.161 860.462 254.206 865.067 254.206 867.3Z" stroke="#222222" stroke-width="1.41176" stroke-linecap="round" stroke-linejoin="round"/>
<path d="M230.12 896.58V897.255C230.12 897.815 230.315 898.36 230.705 898.89C231.095 899.42 231.645 899.88 232.355 900.27C233.065 900.65 233.875 900.905 234.785 901.035L234.14 902.34C233.03 902.17 232.045 901.825 231.185 901.305C230.335 900.785 229.69 900.145 229.25 899.385C228.82 900.145 228.18 900.785 227.33 901.305C226.48 901.825 225.49 902.17 224.36 902.34L223.715 901.035C224.625 900.905 225.435 900.65 226.145 900.27C226.855 899.89 227.405 899.435 227.795 898.905C228.185 898.375 228.38 897.825 228.38 897.255V896.58H230.12ZM235.28 903.51V904.86H230.03V909.51H228.38V904.86H223.205V903.51H235.28ZM241.475 906.51V903.435H243.125V906.51H248.405V907.86H236.315V906.51H241.475ZM243.17 896.94V897.93C243.17 898.6 243.375 899.25 243.785 899.88C244.195 900.51 244.765 901.05 245.495 901.5C246.225 901.94 247.04 902.235 247.94 902.385L247.235 903.78C246.115 903.56 245.12 903.145 244.25 902.535C243.39 901.915 242.74 901.17 242.3 900.3C241.86 901.17 241.2 901.915 240.32 902.535C239.45 903.145 238.46 903.56 237.35 903.78L236.675 902.385C237.575 902.235 238.385 901.935 239.105 901.485C239.835 901.035 240.405 900.495 240.815 899.865C241.225 899.235 241.43 898.59 241.43 897.93V896.94H243.17ZM261.486 902.64V903.945H256.266V905.04C257.466 905.11 258.396 905.335 259.056 905.715C259.716 906.095 260.046 906.61 260.046 907.26C260.046 907.98 259.641 908.53 258.831 908.91C258.031 909.3 256.901 909.495 255.441 909.495C253.981 909.495 252.846 909.3 252.036 908.91C251.226 908.53 250.821 907.98 250.821 907.26C250.821 906.61 251.151 906.095 251.811 905.715C252.471 905.335 253.406 905.11 254.616 905.04V903.945H249.426V902.64H261.486ZM256.281 896.16V897.39H260.301V898.68H256.386C256.506 899.24 256.956 899.72 257.736 900.12C258.526 900.51 259.576 900.75 260.886 900.84L260.406 902.1C259.216 902 258.196 901.775 257.346 901.425C256.496 901.065 255.861 900.6 255.441 900.03C255.031 900.6 254.396 901.065 253.536 901.425C252.686 901.775 251.671 902 250.491 902.1L249.996 900.84C251.306 900.75 252.356 900.51 253.146 900.12C253.936 899.72 254.391 899.24 254.511 898.68H250.611V897.39H254.616V896.16H256.281ZM255.441 906.225C253.471 906.225 252.486 906.57 252.486 907.26C252.486 907.6 252.736 907.855 253.236 908.025C253.736 908.195 254.471 908.28 255.441 908.28C256.401 908.28 257.131 908.195 257.631 908.025C258.131 907.855 258.381 907.6 258.381 907.26C258.381 906.57 257.401 906.225 255.441 906.225ZM271.971 899.685V896.16H273.621V905.895H271.971V901.02H269.646V899.685H271.971ZM266.571 905.07V907.92H273.951V909.24H264.906V905.07H266.571ZM270.126 897.12V898.44H267.396V898.8C267.396 899.65 267.666 900.445 268.206 901.185C268.756 901.915 269.521 902.445 270.501 902.775L269.691 904.065C268.971 903.815 268.346 903.45 267.816 902.97C267.296 902.49 266.886 901.92 266.586 901.26C266.296 901.98 265.871 902.61 265.311 903.15C264.761 903.69 264.101 904.09 263.331 904.35L262.491 903.045C263.511 902.695 264.306 902.13 264.876 901.35C265.446 900.57 265.731 899.72 265.731 898.8V898.44H262.956V897.12H270.126ZM280.806 906.51V903.435H282.456V906.51H287.736V907.86H275.646V906.51H280.806ZM282.501 896.94V897.93C282.501 898.6 282.706 899.25 283.116 899.88C283.526 900.51 284.096 901.05 284.826 901.5C285.556 901.94 286.371 902.235 287.271 902.385L286.566 903.78C285.446 903.56 284.451 903.145 283.581 902.535C282.721 901.915 282.071 901.17 281.631 900.3C281.191 901.17 280.531 901.915 279.651 902.535C278.781 903.145 277.791 903.56 276.681 903.78L276.006 902.385C276.906 902.235 277.716 901.935 278.436 901.485C279.166 901.035 279.736 900.495 280.146 899.865C280.556 899.235 280.761 898.59 280.761 897.93V896.94H282.501Z" fill="#222222"/>
<path d="M220.493 948.606C221.034 948.606 221.52 948.736 221.949 948.998C222.388 949.25 222.728 949.604 222.971 950.062C223.214 950.519 223.335 951.037 223.335 951.616C223.335 952.194 223.214 952.712 222.971 953.17C222.728 953.627 222.388 953.982 221.949 954.234C221.52 954.486 221.034 954.612 220.493 954.612C219.952 954.612 219.462 954.486 219.023 954.234C218.594 953.982 218.258 953.627 218.015 953.17C217.772 952.712 217.651 952.194 217.651 951.616C217.651 951.037 217.772 950.519 218.015 950.062C218.258 949.604 218.594 949.25 219.023 948.998C219.462 948.736 219.952 948.606 220.493 948.606ZM220.493 949.908C220.064 949.908 219.714 950.062 219.443 950.37C219.182 950.678 219.051 951.093 219.051 951.616C219.051 952.129 219.186 952.544 219.457 952.862C219.728 953.17 220.073 953.324 220.493 953.324C220.922 953.324 221.272 953.17 221.543 952.862C221.814 952.544 221.949 952.129 221.949 951.616C221.949 951.102 221.814 950.692 221.543 950.384C221.272 950.066 220.922 949.908 220.493 949.908ZM228.151 947.85V955.27H226.695V952.19H225.505V955.214H224.063V948.074H225.505V950.93H226.695V947.85H228.151ZM228.151 955.886V960.31H226.625V957.118H219.667V955.886H228.151ZM239.617 947.85V952.988H241.325V954.276H239.617V960.31H238.077V947.85H239.617ZM229.691 956.852C231.035 956.852 232.085 956.842 232.841 956.824V955.648C232.16 955.536 231.619 955.279 231.217 954.878C230.816 954.476 230.615 953.982 230.615 953.394C230.615 952.936 230.741 952.53 230.993 952.176C231.245 951.821 231.595 951.55 232.043 951.364C232.501 951.168 233.023 951.07 233.611 951.07C234.199 951.07 234.717 951.168 235.165 951.364C235.623 951.55 235.977 951.821 236.229 952.176C236.491 952.53 236.621 952.936 236.621 953.394C236.621 953.982 236.416 954.476 236.005 954.878C235.604 955.279 235.063 955.536 234.381 955.648V956.754C235.324 956.716 236.327 956.628 237.391 956.488L237.517 957.594C236.351 957.818 235.17 957.962 233.975 958.028C232.79 958.084 231.432 958.112 229.901 958.112L229.691 956.852ZM232.841 949.264V947.892H234.381V949.264H237.293V950.482H229.915V949.264H232.841ZM233.611 952.232C233.145 952.232 232.771 952.334 232.491 952.54C232.211 952.745 232.071 953.03 232.071 953.394C232.071 953.758 232.211 954.042 232.491 954.248C232.771 954.453 233.145 954.556 233.611 954.556C234.087 954.556 234.465 954.453 234.745 954.248C235.025 954.042 235.165 953.758 235.165 953.394C235.165 953.03 235.025 952.745 234.745 952.54C234.465 952.334 234.087 952.232 233.611 952.232ZM248.522 948.242V948.872C248.522 949.394 248.704 949.903 249.068 950.398C249.432 950.892 249.945 951.322 250.608 951.686C251.27 952.04 252.026 952.278 252.876 952.4L252.274 953.618C251.238 953.459 250.318 953.137 249.516 952.652C248.722 952.166 248.12 951.569 247.71 950.86C247.308 951.569 246.711 952.166 245.918 952.652C245.124 953.137 244.2 953.459 243.146 953.618L242.544 952.4C243.393 952.278 244.149 952.04 244.812 951.686C245.474 951.331 245.988 950.906 246.352 950.412C246.716 949.917 246.898 949.404 246.898 948.872V948.242H248.522ZM253.338 954.71V955.97H248.438V960.31H246.898V955.97H242.068V954.71H253.338ZM259.12 957.51V954.64H260.66V957.51H265.588V958.77H254.304V957.51H259.12ZM260.702 948.578V949.502C260.702 950.127 260.893 950.734 261.276 951.322C261.659 951.91 262.191 952.414 262.872 952.834C263.553 953.244 264.314 953.52 265.154 953.66L264.496 954.962C263.451 954.756 262.522 954.369 261.71 953.8C260.907 953.221 260.301 952.526 259.89 951.714C259.479 952.526 258.863 953.221 258.042 953.8C257.23 954.369 256.306 954.756 255.27 954.962L254.64 953.66C255.48 953.52 256.236 953.24 256.908 952.82C257.589 952.4 258.121 951.896 258.504 951.308C258.887 950.72 259.078 950.118 259.078 949.502V948.578H260.702ZM276.725 948.914V950.146H275.633V953.842C276.342 953.786 276.87 953.734 277.215 953.688L277.313 954.822C275.4 955.139 272.931 955.298 269.907 955.298L269.739 954.038L271.139 954.024V950.146H270.061V948.914H276.725ZM279.511 947.85V951.462H281.247V952.736H279.511V957.02H277.971V947.85H279.511ZM273.127 956.152V958.826H280.015V960.058H271.587V956.152H273.127ZM274.163 953.94V950.146H272.623V953.996L274.163 953.94ZM292.643 947.836V960.296H291.187V953.912H289.885V959.708H288.443V948.074H289.885V952.666H291.187V947.836H292.643ZM287.239 949.18V957.104H282.395V949.18H287.239ZM283.823 950.384V955.9H285.811V950.384H283.823Z" fill="#999999"/>
<circle cx="121" cy="878" r="59.5918" fill="white" stroke="#DEDEDE" stroke-width="0.816326"/>
<path d="M142.176 882.236V855.286C142.176 854.729 141.561 854.392 141.091 854.691L132.519 860.146C132.049 860.445 131.434 860.107 131.434 859.55V855.286C131.434 854.729 130.819 854.392 130.349 854.691L121.777 860.146C121.307 860.445 120.692 860.107 120.692 859.55V855.286C120.692 854.729 120.077 854.392 119.607 854.69L108.62 861.679C108.417 861.809 108.293 862.033 108.293 862.275V882.236M115.352 866.721H117.339M115.352 871.192H117.339M115.352 875.665H117.339M124.398 866.721H126.386M124.398 871.192H126.386M124.398 875.665H126.386M133.444 866.721H135.432M133.444 871.192H135.432M133.444 875.665H135.432M99.8227 882.236V852.707C99.8227 852.25 100.191 851.883 100.65 851.883H103.937C104.395 851.883 104.764 852.25 104.764 852.707V882.236M97.7051 882.236H144.293" stroke="#222222" stroke-width="1.41176" stroke-linecap="round"/>
<path d="M106.658 896.955V898.5C106.658 899.41 106.928 900.24 107.468 900.99C108.018 901.74 108.798 902.285 109.808 902.625L108.968 903.915C108.248 903.675 107.623 903.315 107.093 902.835C106.573 902.345 106.163 901.77 105.863 901.11C105.573 901.83 105.153 902.46 104.603 903C104.063 903.53 103.408 903.93 102.638 904.2L101.753 902.91C102.803 902.55 103.608 901.97 104.168 901.17C104.728 900.37 105.008 899.475 105.008 898.485V896.955H106.658ZM112.343 896.145V900.105H114.203V901.47H112.343V905.94H110.693V896.145H112.343ZM105.533 905.01V907.92H112.868V909.24H103.883V905.01H105.533ZM118.673 896.73C119.543 896.73 120.288 896.955 120.908 897.405C121.528 897.855 121.918 898.45 122.078 899.19H124.448V896.16H126.098V903.315H124.448V900.525H122.093C121.943 901.275 121.553 901.88 120.923 902.34C120.303 902.8 119.553 903.03 118.673 903.03C118.013 903.03 117.413 902.895 116.873 902.625C116.343 902.355 115.928 901.985 115.628 901.515C115.328 901.035 115.178 900.49 115.178 899.88C115.178 899.27 115.328 898.73 115.628 898.26C115.928 897.78 116.343 897.405 116.873 897.135C117.413 896.865 118.013 896.73 118.673 896.73ZM118.673 898.095C118.103 898.095 117.638 898.26 117.278 898.59C116.928 898.91 116.753 899.34 116.753 899.88C116.753 900.41 116.928 900.84 117.278 901.17C117.638 901.49 118.103 901.65 118.673 901.65C119.233 901.65 119.688 901.49 120.038 901.17C120.398 900.84 120.578 900.41 120.578 899.88C120.578 899.34 120.398 898.91 120.038 898.59C119.688 898.26 119.233 898.095 118.673 898.095ZM119.003 903.945V905.355H124.463V903.945H126.098V909.345H117.353V903.945H119.003ZM119.003 908.025H124.463V906.63H119.003V908.025ZM135.264 901.29V896.4H136.794V908.865H135.264V902.625H133.539V901.29H135.264ZM130.584 898.485V896.595H132.159V898.485H134.364V899.82H132.159V900.225C132.159 901.315 132.384 902.33 132.834 903.27C133.294 904.2 133.964 904.9 134.844 905.37L133.929 906.6C133.339 906.28 132.829 905.845 132.399 905.295C131.979 904.735 131.644 904.095 131.394 903.375C131.154 904.165 130.819 904.865 130.389 905.475C129.959 906.085 129.444 906.565 128.844 906.915L127.914 905.67C128.794 905.15 129.459 904.395 129.909 903.405C130.359 902.415 130.584 901.355 130.584 900.225V899.82H128.364V898.485H130.584ZM139.524 896.145V909.495H137.949V896.145H139.524Z" fill="#222222"/>
<line x1="121" y1="161" x2="121" y2="477" stroke="#3FA0E6" stroke-width="2"/>
<path d="M132 466.5L121 477.5L110 466.5" stroke="#3FA0E6" stroke-width="2"/>
<line x1="255" y1="37" x2="255" y2="150" stroke="#3FA0E6" stroke-width="2"/>
<line x1="180" y1="71" x2="216" y2="71" stroke="#3FA0E6" stroke-width="2"/>
<path d="M266 139.5L255 150.5L244 139.5" stroke="#3FA0E6" stroke-width="2"/>
<line x1="255" y1="329" x2="255" y2="477" stroke="#3CBCB6" stroke-width="2"/>
<path d="M266 466.5L255 477.5L244 466.5" stroke="#3CBCB6" stroke-width="2"/>
<line x1="255" y1="643" x2="255" y2="805" stroke="#3CBCB6" stroke-width="2"/>
<path d="M266 794.5L255 805.5L244 794.5" stroke="#3CBCB6" stroke-width="2"/>
<line x1="121" y1="643" x2="121" y2="805" stroke="#3FA0E6" stroke-width="2"/>
<path d="M132 794.5L121 805.5L110 794.5" stroke="#3FA0E6" stroke-width="2"/>
<circle cx="121" cy="70" r="58.2353" fill="white" stroke="#A9DBFF" stroke-width="3.52941"/>
<path d="M96.1198 88.578V89.253C96.1198 89.813 96.3148 90.358 96.7048 90.888C97.0948 91.418 97.6448 91.878 98.3548 92.268C99.0648 92.648 99.8748 92.903 100.785 93.033L100.14 94.338C99.0298 94.168 98.0448 93.823 97.1848 93.303C96.3348 92.783 95.6898 92.143 95.2498 91.383C94.8198 92.143 94.1798 92.783 93.3298 93.303C92.4798 93.823 91.4898 94.168 90.3598 94.338L89.7148 93.033C90.6248 92.903 91.4348 92.648 92.1448 92.268C92.8548 91.888 93.4048 91.433 93.7948 90.903C94.1848 90.373 94.3798 89.823 94.3798 89.253V88.578H96.1198ZM101.28 95.508V96.858H96.0298V101.508H94.3798V96.858H89.2048V95.508H101.28ZM107.475 98.508V95.433H109.125V98.508H114.405V99.858H102.315V98.508H107.475ZM109.17 88.938V89.928C109.17 90.598 109.375 91.248 109.785 91.878C110.195 92.508 110.765 93.048 111.495 93.498C112.225 93.938 113.04 94.233 113.94 94.383L113.235 95.778C112.115 95.558 111.12 95.143 110.25 94.533C109.39 93.913 108.74 93.168 108.3 92.298C107.86 93.168 107.2 93.913 106.32 94.533C105.45 95.143 104.46 95.558 103.35 95.778L102.675 94.383C103.575 94.233 104.385 93.933 105.105 93.483C105.835 93.033 106.405 92.493 106.815 91.863C107.225 91.233 107.43 90.588 107.43 89.928V88.938H109.17ZM126.376 88.548V89.778H124.561V91.803H126.301V93.048H116.581V91.803H118.321V89.778H116.491V88.548H126.376ZM127.486 93.888V95.193H115.426V93.888H127.486ZM125.986 96.093V99.273H118.471V100.173H126.361V101.388H116.866V98.148H124.366V97.293H116.821V96.093H125.986ZM122.926 91.803V89.778H119.971V91.803H122.926ZM139.861 88.143V98.058H138.286V93.348H136.951V97.758H135.406V88.383H136.951V92.013H138.286V88.143H139.861ZM132.631 97.158V99.918H140.221V101.238H130.981V97.158H132.631ZM134.131 89.268V93.288H130.681V94.863C131.521 94.853 132.246 94.828 132.856 94.788C133.466 94.738 134.091 94.653 134.731 94.533L134.866 95.838C134.116 95.978 133.381 96.073 132.661 96.123C131.941 96.173 131.051 96.198 129.991 96.198H129.106V92.073H132.526V90.558H129.076V89.268H134.131ZM152.296 89.178V90.498H144.781V92.133H151.996V93.423H144.781V95.133H152.416V96.453H143.116V89.178H152.296ZM153.736 98.553V99.888H141.646V98.553H153.736Z" fill="#222222"/>
<path d="M142.176 79.1772C142.566 79.1772 142.882 78.8611 142.882 78.4713C142.882 78.0814 142.566 77.7654 142.176 77.7654V78.4713V79.1772ZM116.985 77.7654C116.595 77.7654 116.279 78.0814 116.279 78.4713C116.279 78.8611 116.595 79.1772 116.985 79.1772V78.4713V77.7654ZM107.783 71.2579C107.393 71.2579 107.077 71.5739 107.077 71.9638C107.077 72.3536 107.393 72.6697 107.783 72.6697V71.9638V71.2579ZM110.056 72.6697C110.445 72.6697 110.761 72.3536 110.761 71.9638C110.761 71.5739 110.445 71.2579 110.056 71.2579V71.9638V72.6697ZM107.815 74.5116C107.425 74.5116 107.109 74.8276 107.109 75.2175C107.109 75.6073 107.425 75.9233 107.815 75.9233V75.2175V74.5116ZM110.088 75.9233C110.478 75.9233 110.794 75.6073 110.794 75.2175C110.794 74.8276 110.478 74.5116 110.088 74.5116V75.2175V75.9233ZM103.249 71.2579C102.859 71.2579 102.543 71.5739 102.543 71.9638C102.543 72.3536 102.859 72.6697 103.249 72.6697V71.9638V71.2579ZM105.522 72.6697C105.912 72.6697 106.228 72.3536 106.228 71.9638C106.228 71.5739 105.912 71.2579 105.522 71.2579V71.9638V72.6697ZM103.282 74.5116C102.892 74.5116 102.576 74.8276 102.576 75.2175C102.576 75.6073 102.892 75.9233 103.282 75.9233V75.2175V74.5116ZM105.555 75.9233C105.945 75.9233 106.261 75.6073 106.261 75.2175C106.261 74.8276 105.945 74.5116 105.555 74.5116V75.2175V75.9233ZM112.316 71.2579C111.926 71.2579 111.61 71.5739 111.61 71.9638C111.61 72.3536 111.926 72.6697 112.316 72.6697V71.9638V71.2579ZM114.589 72.6697C114.979 72.6697 115.295 72.3536 115.295 71.9638C115.295 71.5739 114.979 71.2579 114.589 71.2579V71.9638V72.6697ZM112.348 74.5116C111.958 74.5116 111.642 74.8276 111.642 75.2175C111.642 75.6073 111.958 75.9233 112.348 75.9233V75.2175V74.5116ZM114.621 75.9233C115.011 75.9233 115.327 75.6073 115.327 75.2175C115.327 74.8276 115.011 74.5116 114.621 74.5116V75.2175V75.9233ZM101.766 68.7101C101.766 69.1 102.082 69.416 102.472 69.416C102.862 69.416 103.178 69.1 103.178 68.7101H102.472H101.766ZM110.833 68.7101C110.833 69.1 111.149 69.416 111.538 69.416C111.928 69.416 112.244 69.1 112.244 68.7101H111.538H110.833ZM106.299 53.6853C106.299 54.0752 106.615 54.3912 107.005 54.3912C107.395 54.3912 107.711 54.0752 107.711 53.6853H107.005H106.299ZM136.737 57.2969C136.737 57.6867 137.053 58.0028 137.442 58.0028C137.832 58.0028 138.148 57.6867 138.148 57.2969H137.442H136.737ZM130.196 48.7746C129.806 48.7746 129.49 49.0906 129.49 49.4805C129.49 49.8703 129.806 50.1863 130.196 50.1863V49.4805V48.7746ZM131.555 55.9878C131.555 56.3776 131.871 56.6937 132.261 56.6937C132.651 56.6937 132.967 56.3776 132.967 55.9878H132.261H131.555ZM102.472 56.9418C102.082 56.9418 101.766 57.2578 101.766 57.6477C101.766 58.0375 102.082 58.3536 102.472 58.3536V57.6477V56.9418ZM111.538 58.3536C111.928 58.3536 112.244 58.0375 112.244 57.6477C112.244 57.2578 111.928 56.9418 111.538 56.9418V57.6477V58.3536ZM126.375 78.4708C126.375 78.8606 126.691 79.1767 127.081 79.1767C127.471 79.1767 127.787 78.8606 127.787 78.4708H127.081H126.375ZM136.737 78.4708C136.737 78.8606 137.053 79.1767 137.442 79.1767C137.832 79.1767 138.148 78.8606 138.148 78.4708H137.442H136.737ZM115.1 41.054V40.3481C114.71 40.3481 114.394 40.6641 114.394 41.054H115.1ZM127.405 41.054H128.111C128.111 40.6641 127.794 40.3481 127.405 40.3481V41.054ZM127.405 44.3076V45.0135C127.794 45.0135 128.111 44.6975 128.111 44.3076H127.405ZM115.1 44.3076H114.394C114.394 44.6975 114.71 45.0135 115.1 45.0135V44.3076ZM126.553 44.241C126.516 43.8529 126.172 43.5681 125.784 43.6049C125.395 43.6417 125.111 43.9861 125.147 44.3743L125.85 44.3076L126.553 44.241ZM126.378 57.3564C126.415 57.7445 126.759 58.0293 127.147 57.9925C127.535 57.9557 127.82 57.6113 127.783 57.2232L127.081 57.2898L126.378 57.3564ZM116.243 40.9841C116.205 41.372 116.488 41.7178 116.876 41.7564C117.264 41.795 117.609 41.5118 117.648 41.1239L116.946 41.054L116.243 40.9841ZM117.367 36.8242V36.1183C117.004 36.1183 116.7 36.3933 116.664 36.7543L117.367 36.8242ZM125.138 36.8242L125.84 36.7569C125.806 36.3948 125.502 36.1183 125.138 36.1183V36.8242ZM124.817 40.8805C124.854 41.2686 125.199 41.553 125.587 41.5159C125.975 41.4787 126.26 41.134 126.223 40.7459L125.52 40.8132L124.817 40.8805ZM113.53 68.1521C113.491 68.54 113.774 68.8859 114.162 68.9246C114.55 68.9634 114.896 68.6803 114.935 68.2924L114.233 68.2222L113.53 68.1521ZM117.325 44.3715C117.363 43.9835 117.08 43.6377 116.692 43.5989C116.304 43.5602 115.959 43.8432 115.92 44.2311L116.622 44.3013L117.325 44.3715ZM142.176 78.4713V77.7654H100.918V78.4713V79.1772H142.176V78.4713ZM100.918 78.4713V77.7654C101.097 77.7654 101.235 77.9089 101.235 78.0808H100.529H99.8234C99.8234 78.6822 100.311 79.1772 100.918 79.1772V78.4713ZM100.529 78.0808H101.235V69.0942H100.529H99.8234V78.0808H100.529ZM100.529 69.0942H101.235C101.235 69.2661 101.097 69.4097 100.918 69.4097V68.7038V67.9979C100.311 67.9979 99.8234 68.4928 99.8234 69.0942H100.529ZM100.918 68.7038V69.4097H116.985V68.7038V67.9979H100.918V68.7038ZM116.985 68.7038V69.4097C116.805 69.4097 116.667 69.2661 116.667 69.0942H117.373H118.079C118.079 68.4928 117.592 67.9979 116.985 67.9979V68.7038ZM117.373 69.0942H116.667V78.0808H117.373H118.079V69.0942H117.373ZM117.373 78.0808H116.667C116.667 77.9089 116.805 77.7654 116.985 77.7654V78.4713V79.1772C117.592 79.1772 118.079 78.6822 118.079 78.0808H117.373ZM116.978 78.4711V77.7652H116.272V78.4711V79.177H116.978V78.4711ZM107.783 71.9638V72.6697H110.056V71.9638V71.2579H107.783V71.9638ZM107.815 75.2175V75.9233H110.088V75.2175V74.5116H107.815V75.2175ZM103.249 71.9638V72.6697H105.522V71.9638V71.2579H103.249V71.9638ZM103.282 75.2175V75.9233H105.555V75.2175V74.5116H103.282V75.2175ZM112.316 71.9638V72.6697H114.589V71.9638V71.2579H112.316V71.9638ZM112.348 75.2175V75.9233H114.621V75.2175V74.5116H112.348V75.2175ZM102.472 68.7101H103.178V55.8191H102.472H101.766V68.7101H102.472ZM102.472 55.8191H103.178C103.178 55.0605 103.791 54.4492 104.538 54.4492V53.7433V53.0374C103.005 53.0374 101.766 54.2872 101.766 55.8191H102.472ZM104.538 53.7433V54.4492H109.473V53.7433V53.0374H104.538V53.7433ZM109.473 53.7433V54.4492C110.219 54.4492 110.833 55.0605 110.833 55.8191H111.538H112.244C112.244 54.2872 111.005 53.0374 109.473 53.0374V53.7433ZM111.538 55.8191H110.833V68.7101H111.538H112.244V55.8191H111.538ZM107.005 53.6853H107.711V51.5639H107.005H106.299V53.6853H107.005ZM107.005 51.5639H107.711C107.711 50.8053 108.324 50.194 109.071 50.194V49.4881V48.7822C107.538 48.7822 106.299 50.032 106.299 51.5639H107.005ZM109.071 49.4881V50.194H135.377V49.4881V48.7822H109.071V49.4881ZM135.377 49.4881V50.194C136.123 50.194 136.737 50.8053 136.737 51.5639H137.442H138.148C138.148 50.032 136.909 48.7822 135.377 48.7822V49.4881ZM137.442 51.5639H136.737V57.2969H137.442H138.148V51.5639H137.442ZM130.196 49.4805V50.1863C130.942 50.1863 131.555 50.7976 131.555 51.5563H132.261H132.967C132.967 50.0244 131.728 48.7746 130.196 48.7746V49.4805ZM132.261 51.5563H131.555V55.9878H132.261H132.967V51.5563H132.261ZM102.472 57.6477V58.3536H111.538V57.6477V56.9418H102.472V57.6477ZM127.081 74.365L127.459 73.7691C124.929 72.1628 123.254 69.3316 123.254 66.1072H122.548H121.842C121.842 69.8326 123.78 73.1053 126.702 74.9609L127.081 74.365ZM122.548 66.1072H123.254C123.254 61.1058 127.293 57.0521 132.262 57.0521V56.3462V55.6403C126.506 55.6403 121.842 60.3325 121.842 66.1072H122.548ZM132.262 56.3462V57.0521C137.231 57.0521 141.27 61.1058 141.27 66.1072H141.976H142.681C142.681 60.3325 138.017 55.6403 132.262 55.6403V56.3462ZM141.976 66.1072H141.27C141.27 69.3316 139.594 72.1628 137.064 73.7691L137.442 74.365L137.821 74.9609C140.743 73.1053 142.681 69.8326 142.681 66.1072H141.976ZM127.081 78.4708H127.787V74.365H127.081H126.375V78.4708H127.081ZM127.081 74.365V75.0709H137.442V74.365V73.6591H127.081V74.365ZM137.442 74.365H136.737V78.4708H137.442H138.148V74.365H137.442ZM115.1 41.054V41.7599H127.405V41.054V40.3481H115.1V41.054ZM127.405 41.054H126.699V44.3076H127.405H128.111V41.054H127.405ZM127.405 44.3076V43.6018H115.1V44.3076V45.0135H127.405V44.3076ZM115.1 44.3076H115.806V41.054H115.1H114.394V44.3076H115.1ZM125.85 44.3076L125.147 44.3743L126.378 57.3564L127.081 57.2898L127.783 57.2232L126.553 44.241L125.85 44.3076ZM116.946 41.054L117.648 41.1239L118.069 36.8941L117.367 36.8242L116.664 36.7543L116.243 40.9841L116.946 41.054ZM117.367 36.8242V37.5301H125.138V36.8242V36.1183H117.367V36.8242ZM125.138 36.8242L124.435 36.8915L124.817 40.8805L125.52 40.8132L126.223 40.7459L125.84 36.7569L125.138 36.8242ZM114.233 68.2222L114.935 68.2924L117.325 44.3715L116.622 44.3013L115.92 44.2311L113.53 68.1521L114.233 68.2222Z" fill="#222222"/>
<path d="M102.344 140.066V140.696C102.344 141.219 102.526 141.727 102.89 142.222C103.254 142.717 103.767 143.146 104.43 143.51C105.093 143.865 105.849 144.103 106.698 144.224L106.096 145.442C105.06 145.283 104.141 144.961 103.338 144.476C102.545 143.991 101.943 143.393 101.532 142.684C101.131 143.393 100.533 143.991 99.7401 144.476C98.9467 144.961 98.0227 145.283 96.9681 145.442L96.3661 144.224C97.2154 144.103 97.9714 143.865 98.6341 143.51C99.2967 143.155 99.8101 142.731 100.174 142.236C100.538 141.741 100.72 141.228 100.72 140.696V140.066H102.344ZM107.16 146.534V147.794H102.26V152.134H100.72V147.794H95.8901V146.534H107.16ZM112.942 149.334V146.464H114.482V149.334H119.41V150.594H108.126V149.334H112.942ZM114.524 140.402V141.326C114.524 141.951 114.716 142.558 115.098 143.146C115.481 143.734 116.013 144.238 116.694 144.658C117.376 145.069 118.136 145.344 118.976 145.484L118.318 146.786C117.273 146.581 116.344 146.193 115.532 145.624C114.73 145.045 114.123 144.35 113.712 143.538C113.302 144.35 112.686 145.045 111.864 145.624C111.052 146.193 110.128 146.581 109.092 146.786L108.462 145.484C109.302 145.344 110.058 145.064 110.73 144.644C111.412 144.224 111.944 143.72 112.326 143.132C112.709 142.544 112.9 141.942 112.9 141.326V140.402H114.524ZM127.439 140.416V141.942C127.439 142.661 127.64 143.328 128.041 143.944C128.452 144.551 129.049 145.008 129.833 145.316L129.021 146.478C128.489 146.263 128.027 145.969 127.635 145.596C127.253 145.223 126.949 144.784 126.725 144.28C126.483 144.868 126.156 145.386 125.745 145.834C125.335 146.273 124.845 146.613 124.275 146.856L123.463 145.666C124.266 145.311 124.882 144.793 125.311 144.112C125.741 143.421 125.955 142.698 125.955 141.942V140.416H127.439ZM134.145 139.674V147.318H132.675V144.07H131.471V146.926H130.029V139.912H131.471V142.824H132.675V139.674H134.145ZM129.959 147.528C131.266 147.528 132.297 147.733 133.053 148.144C133.819 148.555 134.201 149.115 134.201 149.824C134.201 150.543 133.819 151.103 133.053 151.504C132.297 151.915 131.266 152.12 129.959 152.12C128.653 152.12 127.621 151.915 126.865 151.504C126.109 151.103 125.731 150.543 125.731 149.824C125.731 149.115 126.109 148.555 126.865 148.144C127.631 147.733 128.662 147.528 129.959 147.528ZM129.959 148.704C129.101 148.704 128.433 148.802 127.957 148.998C127.491 149.185 127.257 149.46 127.257 149.824C127.257 150.188 127.491 150.468 127.957 150.664C128.433 150.86 129.101 150.958 129.959 150.958C130.818 150.958 131.481 150.86 131.947 150.664C132.423 150.468 132.661 150.188 132.661 149.824C132.661 149.46 132.428 149.185 131.961 148.998C131.495 148.802 130.827 148.704 129.959 148.704ZM140.264 140.416V141.858C140.264 142.707 140.516 143.482 141.02 144.182C141.533 144.882 142.261 145.391 143.204 145.708L142.42 146.912C141.748 146.688 141.164 146.352 140.67 145.904C140.184 145.447 139.802 144.91 139.522 144.294C139.251 144.966 138.859 145.554 138.346 146.058C137.842 146.553 137.23 146.926 136.512 147.178L135.686 145.974C136.666 145.638 137.417 145.097 137.94 144.35C138.462 143.603 138.724 142.768 138.724 141.844V140.416H140.264ZM145.57 139.66V143.356H147.306V144.63H145.57V148.802H144.03V139.66H145.57ZM139.214 147.934V150.65H146.06V151.882H137.674V147.934H139.214Z" fill="#999999"/>
</svg>
