<svg width="68" height="45" viewBox="0 0 68 45" fill="none" xmlns="http://www.w3.org/2000/svg">
<path d="M64 44V5.82168C64 5.03259 63.1288 4.55437 62.4631 4.97802L50.3193 12.706C49.6536 13.1296 48.7824 12.6514 48.7824 11.8623V5.82168C48.7824 5.03259 47.9113 4.55437 47.2455 4.97802L35.1017 12.706C34.436 13.1296 33.5648 12.6514 33.5648 11.8623V5.82125C33.5648 5.03225 32.6939 4.55402 32.0281 4.97748L16.4633 14.8781C16.1747 15.0616 16 15.3799 16 15.7218V44M25.9998 22.0209H28.8153M25.9998 28.3549H28.8153M25.9995 34.6909H28.815M38.8152 22.0209H41.6307M38.8152 28.3549H41.6307M38.8152 34.6908H41.6307M51.6306 22.0209H54.4461M51.6306 28.3549H54.4461M51.6306 34.6909H54.446M4 44V2.16815C4 1.52083 4.52239 1 5.17164 1H9.82836C10.4776 1 11 1.52083 11 2.16815V44M1 44H67" stroke="#222222" stroke-width="2" stroke-linecap="round"/>
</svg>
