<svg width="64" height="53" viewBox="0 0 64 53" fill="none" xmlns="http://www.w3.org/2000/svg">
<path d="M1 51.7061H63M55.4673 19.837V41.8557C55.4673 44.0981 53.6536 45.9117 51.4112 45.9117C49.1688 45.9117 47.3551 44.0981 47.3551 41.8557V17.8611C47.3551 15.4332 45.385 13.4631 42.9572 13.4631H42.1402M58.938 1.29492L56.9506 2.62184C56.0235 3.24184 55.4672 4.28483 55.473 5.40315L55.4904 8.82763M22.4392 10.566L25.3364 16.9398M5.63551 46.4912H44.4579V51.7061H5.63551V46.4912ZM12.8321 1.29492H37.4525C39.4515 1.29492 41.074 2.91735 41.074 4.91642V46.4912H9.21061V4.91642C9.21061 2.91735 10.833 1.29492 12.8321 1.29492ZM14.1358 6.79959H36.1545V17.2295H14.1358V6.79959ZM53.4392 9.69679H58.0748V19.5473H53.4392V9.69679ZM30.876 33.8416C30.876 37.0053 28.3091 39.5722 25.1454 39.5722C21.9817 39.5722 19.4147 37.0053 19.4147 33.8416C19.4147 30.6778 25.1454 24.1533 25.1454 24.1533C25.1454 24.1533 30.876 30.6778 30.876 33.8416Z" stroke="#222222" stroke-width="2" stroke-linecap="round" stroke-linejoin="round"/>
</svg>
