<svg width="66" height="47" viewBox="0 0 66 47" fill="none" xmlns="http://www.w3.org/2000/svg">
<path d="M11.0151 8.08297H31.2596M3.62341 25.1918H38.6536M3.62341 37.23H38.6536M1 45.138H65M35.2572 45.135V24.7186C35.2572 18.2714 30.0134 13.0276 23.5662 13.0276H18.7522C12.3049 13.0276 7.06111 18.2714 7.06111 24.7186V45.135M27.6076 8.90567V13.5477M14.7131 8.90567V13.5477M44.8843 38.8587V45.134M59.885 38.8587V45.134M21.1142 7.57021V5.33515C21.1142 3.22904 22.8334 1.50977 24.9396 1.50977H48.4506C50.5568 1.50977 52.276 3.22904 52.276 5.33515V18.7455M63.7947 30.1347C63.7947 36.4253 58.6951 41.5249 52.4045 41.5249C46.1138 41.5249 41.0143 36.4253 41.0143 30.1347C41.0143 23.844 46.1138 18.7445 52.4045 18.7445C58.6951 18.7445 63.7947 23.844 63.7947 30.1347Z" stroke="#222222" stroke-width="2" stroke-miterlimit="10" stroke-linecap="round"/>
</svg>
