<svg width="14" height="15" viewBox="0 0 14 15" fill="none" xmlns="http://www.w3.org/2000/svg">
<path d="M13.6907 10.3658L11.8151 8.49015C11.3761 8.05118 10.6778 8.05118 10.2388 8.49015L9.62024 9.1087C9.36085 9.3681 8.94183 9.3681 8.68243 9.1087L4.91125 5.33752C4.65186 5.07813 4.65186 4.65911 4.91125 4.39971L5.52981 3.78116C5.96878 3.34219 5.96878 2.64382 5.52981 2.20484L3.65419 0.32923C3.21522 -0.109743 2.51685 -0.109743 2.07788 0.32923L1.12012 1.28699C0.361889 2.06517 -0.0371782 3.08279 0.00272845 4.10041C0.122449 6.25537 1.23984 8.37043 3.4347 10.5852C5.62957 12.7801 7.74463 13.9175 9.91954 14.0172C9.9794 14.0172 10.0393 14.0172 10.0991 14.0172C11.0569 14.0172 11.9947 13.6182 12.713 12.8998L13.6708 11.9421C14.1097 11.5031 14.1097 10.8047 13.6708 10.3658H13.6907Z" fill="#67B0E6"/>
</svg>
