<svg width="14" height="13" viewBox="0 0 14 13" fill="none" xmlns="http://www.w3.org/2000/svg">
<path d="M11.6617 12.166H2.33833C1.04925 12.166 0 11.1168 0 9.82768V3.17244C0 1.88336 1.04925 0.834106 2.33833 0.834106H11.6617C12.9507 0.834106 14 1.88336 14 3.17244V9.82768C14 11.1168 12.9507 12.166 11.6617 12.166Z" fill="#67B0E6"/>
<path d="M7.00268 7.32451C6.91274 7.32451 6.83779 7.29453 6.76285 7.21958L2.10118 2.55791C1.96627 2.42301 1.96627 2.21316 2.10118 2.09324C2.23608 1.95834 2.44593 1.95834 2.56585 2.09324L6.98769 6.51509L11.4095 2.09324C11.5444 1.95834 11.7543 1.95834 11.8742 2.09324C11.9941 2.22815 12.0091 2.438 11.8742 2.55791L7.21253 7.21958C7.15257 7.27954 7.06263 7.32451 6.9727 7.32451H7.00268Z" fill="white"/>
</svg>
