<svg width="58" height="72" viewBox="0 0 58 72" fill="none" xmlns="http://www.w3.org/2000/svg">
<path d="M13.3799 9.46289H44.6196V15.4146C44.6196 17.5852 42.8562 19.3485 40.6857 19.3485H17.3138C15.1432 19.3485 13.3799 17.5852 13.3799 15.4146V9.46289Z" stroke="#222222" stroke-width="2" stroke-linecap="round" stroke-linejoin="round"/>
<path d="M9.64992 13H1V71H57V13H48.3501" stroke="#222222" stroke-width="2" stroke-linecap="round" stroke-linejoin="round"/>
<path d="M24.3721 9.46248V5.6281C24.3721 3.07107 26.4431 1 29.0002 1C31.5572 1 33.6283 3.07107 33.6283 5.6281V9.46248" stroke="#222222" stroke-width="2" stroke-linecap="round" stroke-linejoin="round"/>
<path d="M26.1279 35.5723H44.3696" stroke="#222222" stroke-width="2" stroke-linecap="round" stroke-linejoin="round"/>
<path d="M26.1279 45.3906H44.3696" stroke="#222222" stroke-width="2" stroke-linecap="round" stroke-linejoin="round"/>
<path d="M26.1279 55.2109H44.3696" stroke="#222222" stroke-width="2" stroke-linecap="round" stroke-linejoin="round"/>
<path d="M10.7686 34.0247L14.2234 37.5212L19.2403 31.1367" stroke="#222222" stroke-width="2" stroke-linecap="round" stroke-linejoin="round"/>
<path d="M15.0069 55.7872C15.3251 55.7872 15.5831 55.5292 15.5831 55.211C15.5831 54.8927 15.3251 54.6348 15.0069 54.6348C14.6886 54.6348 14.4307 54.8927 14.4307 55.211C14.4307 55.5292 14.6886 55.7872 15.0069 55.7872Z" stroke="#222222" stroke-width="2" stroke-linecap="round" stroke-linejoin="round"/>
<path d="M15.5811 45.3906C15.5811 45.7077 15.3242 45.9668 15.0049 45.9668C14.6856 45.9668 14.4287 45.71 14.4287 45.3906C14.4287 45.0713 14.6856 44.8145 15.0049 44.8145C15.3242 44.8145 15.5811 45.0713 15.5811 45.3906Z" stroke="#222222" stroke-width="2" stroke-linecap="round" stroke-linejoin="round"/>
</svg>
