<svg width="72" height="61" viewBox="0 0 72 61" fill="none" xmlns="http://www.w3.org/2000/svg">
<path d="M19.5537 18.6752L25.6472 24.8453L34.4989 13.5801" stroke="#222222" stroke-width="2" stroke-linecap="round" stroke-linejoin="round"/>
<path d="M46.2954 1H7.7605C4.02645 1 1 4.02645 1 7.7605V32.5828C1 36.3169 4.02645 39.3433 7.7605 39.3433H10.5008V51.9697L22.3902 39.3433H46.2954C50.0294 39.3433 53.0559 36.3169 53.0559 32.5828V7.7605C53.0559 4.02645 50.0294 1 46.2954 1Z" stroke="#222222" stroke-width="2" stroke-linecap="round" stroke-linejoin="round"/>
<path d="M59.6084 18.334H64.2393C67.9734 18.334 70.9998 21.3604 70.9998 25.0945V42.78C70.9998 46.514 67.9734 49.5405 64.2393 49.5405H63.268V59.8164L53.5915 49.5405H34.7252C31.9669 49.5405 29.7314 47.305 29.7314 44.5467" stroke="#222222" stroke-width="2" stroke-linecap="round" stroke-linejoin="round"/>
</svg>
