<svg width="70" height="70" viewBox="0 0 70 70" fill="none" xmlns="http://www.w3.org/2000/svg">
<path d="M57.8094 30.0286H51.0991V21.8516C51.0991 13.5021 44.3073 6.71031 35.9578 6.71031H33.1251C24.7755 6.71031 17.9838 13.5021 17.9838 21.8516V30.0286H11.2734V21.8516C11.2686 9.80185 21.0705 0 33.1203 0H35.953C48.0028 0 57.8046 9.80185 57.8046 21.8516V30.0286H57.8094Z" fill="#0072C6"/>
<path d="M37.8258 69.8294H35.6833C33.8284 69.8294 32.3281 68.3292 32.3281 66.4743C32.3281 64.6193 33.8284 63.1191 35.6833 63.1191H37.8258C45.1544 63.1191 51.0978 57.1757 51.0978 49.8471V43.1559C51.0978 41.301 52.5981 39.8008 54.453 39.8008C56.3079 39.8008 57.8081 41.301 57.8081 43.1559V49.8471C57.8081 60.8807 48.8642 69.8294 37.8258 69.8294Z" fill="#0072C6"/>
<path d="M8.12427 27.0332H17.9453V53.8313H8.12427C3.63795 53.8313 0 50.1886 0 45.707V35.1575C0 30.6711 3.64274 27.0332 8.12427 27.0332Z" fill="#86C8F9"/>
<path d="M60.9148 53.832H51.0938V27.0339L60.9148 27.0339C65.4011 27.0339 69.0391 30.6767 69.0391 35.1582V45.7078C69.0391 50.1941 65.3963 53.832 60.9148 53.832Z" fill="#86C8F9"/>
</svg>
