<svg width="70" height="63" viewBox="0 0 70 63" fill="none" xmlns="http://www.w3.org/2000/svg">
<path d="M54.692 0.439453H18.3896C17.7268 0.439453 17.1934 0.978033 17.1934 1.63572V62.5833H70.0001V15.7476C70.0001 15.4317 69.8758 15.1261 69.648 14.8983L55.5413 0.791602C55.3186 0.56892 55.0131 0.439453 54.692 0.439453Z" fill="#86C8F9"/>
<path d="M57.3179 15.2504H70.0004L55.1895 0.439453V13.122C55.1895 14.2975 56.1423 15.2504 57.3179 15.2504Z" fill="#0072C6"/>
<path d="M11.4604 49.9258H22.9259C29.2491 49.9258 34.3863 55.063 34.3863 61.3861C34.3863 62.049 33.8477 62.5824 33.19 62.5824H1.19627C0.53858 62.5824 0 62.0438 0 61.3861C0 55.0578 5.13723 49.9258 11.4604 49.9258Z" fill="#0072C6"/>
<path d="M11.4604 49.9258H22.9259C29.2491 49.9258 34.3863 55.063 34.3863 61.3861C34.3863 62.049 33.8477 62.5824 33.19 62.5824H1.19627C0.53858 62.5824 0 62.0438 0 61.3861C0 55.0578 5.13723 49.9258 11.4604 49.9258Z" fill="#0072C6"/>
<path d="M26 40.5C26 45.7467 21.7467 50 16.5 50C11.2533 50 7 45.7467 7 40.5C7 35.2533 11.2533 31 16.5 31C21.7467 31 26 35.2533 26 40.5Z" fill="#0072C6"/>
<path d="M29 28H58" stroke="white" stroke-width="3" stroke-linecap="round" stroke-linejoin="round"/>
<path d="M29 38H58" stroke="white" stroke-width="3" stroke-linecap="round" stroke-linejoin="round"/>
<path d="M29 17H41" stroke="white" stroke-width="3" stroke-linecap="round" stroke-linejoin="round"/>
</svg>
