<svg width="70" height="76" viewBox="0 0 70 76" fill="none" xmlns="http://www.w3.org/2000/svg">
<path d="M45.8794 38.3258L47.778 41.714L49.6765 45.1021L51.8922 41.7375L54.1079 38.3728C55.4895 38.0744 56.8476 37.6185 58.1563 37.0006C59.4651 36.3826 60.7221 35.6049 61.9016 34.6627C65.9783 31.4037 68.3467 26.8008 68.8824 21.9934C69.4181 17.1861 68.1188 12.1743 64.8598 8.09769C61.6009 4.02106 56.9979 1.65263 52.1906 1.11691C47.3832 0.581193 42.3714 1.88054 38.2948 5.13949C34.2182 8.39844 31.8498 13.0014 31.314 17.8087C31.2013 18.8214 31.1707 19.8435 31.2201 20.8656" stroke="#222222" stroke-width="2" stroke-linecap="round" stroke-linejoin="round"/>
<path d="M31.223 18.7422C31.1736 20.1872 31.2887 21.6628 31.5871 23.1407" stroke="#222222" stroke-width="2" stroke-linecap="round" stroke-linejoin="round"/>
<path d="M24.7309 55.081C31.4567 55.081 36.9091 49.6286 36.9091 42.9028C36.9091 36.177 31.4567 30.7246 24.7309 30.7246C18.0051 30.7246 12.5527 36.177 12.5527 42.9028C12.5527 49.6286 18.0051 55.081 24.7309 55.081Z" stroke="#222222" stroke-width="2" stroke-linecap="round" stroke-linejoin="round"/>
<path d="M17.3582 52.9941L6.5005 57.6911C3.18986 58.8165 1 61.6596 1 64.834V74.1691H48.4627V64.834C48.4627 61.6596 46.2728 58.8165 42.9622 57.6911L32.1045 52.9941" stroke="#222222" stroke-width="2" stroke-linecap="round" stroke-linejoin="round"/>
<path d="M42.0762 19.6707L48.6176 26.292L58.1148 14.2031" stroke="#222222" stroke-width="2" stroke-linecap="round" stroke-linejoin="round"/>
</svg>
