<svg width="79" height="70" viewBox="0 0 79 70" fill="none" xmlns="http://www.w3.org/2000/svg">
<path d="M73.3262 15.7672L50.2799 48.8928L40.0706 51.8822L39.3213 41.2676L62.3676 8.14453" stroke="#222222" stroke-width="2" stroke-linecap="round" stroke-linejoin="round"/>
<path d="M62.0615 8.58512L65.3466 3.86271C67.4516 0.837615 71.6108 0.0908981 74.6359 2.19598C77.661 4.30105 78.4077 8.46024 76.3027 11.4853L73.0176 16.2077" stroke="#222222" stroke-width="2" stroke-linecap="round" stroke-linejoin="round"/>
<path d="M40.0708 51.8809L38.4678 54.1847" stroke="#222222" stroke-width="2" stroke-linecap="round" stroke-linejoin="round"/>
<path d="M39.583 41.1602L50.139 48.5024" stroke="#222222" stroke-width="2" stroke-linecap="round" stroke-linejoin="round"/>
<path d="M63.7842 6.10742L70.9634 11.1025" stroke="#222222" stroke-width="2" stroke-linecap="round" stroke-linejoin="round"/>
<path d="M40.5602 60.781C36.5029 65.6054 30.4196 68.6712 23.6227 68.6712C11.4051 68.6712 1.49902 58.7651 1.49902 46.5475C1.49902 34.3299 11.4051 24.4238 23.6227 24.4238C29.334 24.4238 34.5406 26.5875 38.4679 30.1427" stroke="#222222" stroke-width="2" stroke-linecap="round" stroke-linejoin="round"/>
<path d="M15.1084 45.9338L22.0531 52.9652L32.1376 40.1309" stroke="#222222" stroke-width="2" stroke-linecap="round" stroke-linejoin="round"/>
</svg>
