<svg width="83" height="59" viewBox="0 0 83 59" fill="none" xmlns="http://www.w3.org/2000/svg">
<path d="M22.1477 30.7252C27.9787 30.7252 32.7056 25.9982 32.7056 20.1673C32.7056 14.3363 27.9787 9.60938 22.1477 9.60938C16.3168 9.60938 11.5898 14.3363 11.5898 20.1673C11.5898 25.9982 16.3168 30.7252 22.1477 30.7252Z" stroke="#231F20" stroke-width="2" stroke-linecap="round" stroke-linejoin="round"/>
<path d="M31.1791 30.5842L28.5391 28.916" stroke="#231F20" stroke-width="2" stroke-linecap="round" stroke-linejoin="round"/>
<path d="M15.7525 28.916L6.33871 34.767C2.89405 36.7354 1.57031 39.1344 1.57031 41.8876V57.118H26.6721" stroke="#231F20" stroke-width="2" stroke-linecap="round" stroke-linejoin="round"/>
<path d="M56.7194 27.2885C63.7625 27.2885 69.4721 21.5789 69.4721 14.5358C69.4721 7.49275 63.7625 1.7832 56.7194 1.7832C49.6763 1.7832 43.9668 7.49275 43.9668 14.5358C43.9668 21.5789 49.6763 27.2885 56.7194 27.2885Z" stroke="#231F20" stroke-width="2" stroke-linecap="round" stroke-linejoin="round"/>
<path d="M48.9965 25.1035L37.3412 32.0642C34.1426 34.0326 31.8691 36.6382 31.8691 39.9623V57.1192H81.5707V39.9623C81.5707 36.6382 79.1693 34.5247 75.8107 32.4825L64.4409 25.1035" stroke="#231F20" stroke-width="2" stroke-linecap="round" stroke-linejoin="round"/>
<path d="M53.9462 33.25L51.1191 47.5651L56.7782 52.486L62.1913 47.5651L59.6447 32.9941" stroke="#231F20" stroke-width="2" stroke-linecap="round" stroke-linejoin="round"/>
<path d="M58.5996 27.2695H54.931C54.488 27.2695 54.1289 27.6287 54.1289 28.0716V31.7402C54.1289 32.1832 54.488 32.5423 54.931 32.5423H58.5996C59.0426 32.5423 59.4017 32.1832 59.4017 31.7402V28.0716C59.4017 27.6287 59.0426 27.2695 58.5996 27.2695Z" stroke="#231F20" stroke-width="2" stroke-linecap="round" stroke-linejoin="round"/>
</svg>
