<svg width="86" height="58" viewBox="0 0 86 58" fill="none" xmlns="http://www.w3.org/2000/svg">
<path d="M26.2567 30.8105C26.2567 25.8108 22.2037 21.7578 17.2041 21.7578C12.2044 21.7578 8.15137 25.8108 8.15137 30.8105V37.7161C8.15137 42.7157 12.2044 46.7688 17.2041 46.7688C22.2037 46.7688 26.2567 42.7157 26.2567 37.7161V30.8105Z" fill="#86C8F9"/>
<path d="M47.3202 30.8105C47.3202 25.8108 43.2672 21.7578 38.2675 21.7578C33.2679 21.7578 29.2148 25.8108 29.2148 30.8105V37.7161C29.2148 42.7157 33.2679 46.7688 38.2675 46.7688C43.2672 46.7688 47.3202 42.7157 47.3202 37.7161V30.8105Z" fill="#86C8F9"/>
<path d="M69.9329 49.5434C69.9329 52.0723 67.8897 53.1992 65.3608 53.1992H11.1375C8.61782 53.1992 6.56543 52.0723 6.56543 49.5434V5.16972C6.56543 2.65004 8.60865 0.597656 11.1375 0.597656H65.37C67.8897 0.597656 69.9421 2.64088 69.9421 5.16972V49.5434H69.9329Z" fill="#86C8F9"/>
<path d="M75.632 47.416V52.8493C75.632 53.4816 75.5037 54.0863 75.2746 54.6269C75.0456 55.1766 74.7066 55.6622 74.2943 56.0837C73.882 56.496 73.3872 56.8258 72.8374 57.0641C72.2969 57.2931 71.6921 57.4214 71.0599 57.4214H5.44766C4.81545 57.4214 4.2199 57.2931 3.67015 57.0641C3.1204 56.835 2.63479 56.496 2.22248 56.0837C1.81017 55.6714 1.47116 55.1766 1.2421 54.6269C1.01304 54.0863 0.884766 53.4816 0.884766 52.8493V47.416H75.6411H75.632Z" fill="#0072C6"/>
<path d="M19.3291 17.75H29.8384" stroke="white" stroke-width="3" stroke-linecap="round" stroke-linejoin="round"/>
<path d="M19.3291 32.6855H29.8384" stroke="white" stroke-width="3" stroke-linecap="round" stroke-linejoin="round"/>
<path d="M76.2005 19.6083L57.6924 16.5664L65.4163 33.6635L68.1834 30.0535L80.6351 39.61L85.8852 32.7656L73.4335 23.2183L76.2005 19.6083Z" fill="#0072C6"/>
</svg>
