<svg width="81" height="68" viewBox="0 0 81 68" fill="none" xmlns="http://www.w3.org/2000/svg">
<path d="M69 28V20.5" stroke="#0072C6" stroke-width="2" stroke-linejoin="round"/>
<path d="M46.501 20.5H73.501" stroke="#0072C6" stroke-width="2" stroke-linejoin="round"/>
<path d="M60 20.5V26.5" stroke="#0072C6" stroke-width="2" stroke-linejoin="round"/>
<path d="M51 20.5V26.5" stroke="#0072C6" stroke-width="2" stroke-linejoin="round"/>
<path d="M12 8.5V1" stroke="#0072C6" stroke-width="2" stroke-linejoin="round"/>
<path d="M37.501 8.5V1" stroke="#0072C6" stroke-width="2" stroke-linejoin="round"/>
<path d="M7.5 1H42" stroke="#0072C6" stroke-width="2" stroke-linejoin="round"/>
<path d="M28.5 1V7" stroke="#0072C6" stroke-width="2" stroke-linejoin="round"/>
<path d="M19.5 1V7" stroke="#0072C6" stroke-width="2" stroke-linejoin="round"/>
<path d="M7.5 67V13.06C7.5 10.54 9.53997 8.5 12.06 8.5H37.425C39.945 8.5 41.985 10.54 41.985 13.06V67" stroke="#0072C6" stroke-width="2" stroke-linejoin="round"/>
<path d="M46.501 28H68.941C71.461 28 73.501 30.04 73.501 32.56V67" stroke="#0072C6" stroke-width="2" stroke-linejoin="round"/>
<path d="M16.5 16V65.5" stroke="#0072C6" stroke-width="2" stroke-linejoin="round"/>
<path d="M24 16V65.5" stroke="#0072C6" stroke-width="2" stroke-linejoin="round"/>
<path d="M16.5 22H24" stroke="#0072C6" stroke-width="2" stroke-linejoin="round"/>
<path d="M16.5 29.5H24" stroke="#0072C6" stroke-width="2" stroke-linejoin="round"/>
<path d="M16.5 37H24" stroke="#0072C6" stroke-width="2" stroke-linejoin="round"/>
<path d="M16.5 44.5H24" stroke="#0072C6" stroke-width="2" stroke-linejoin="round"/>
<path d="M16.5 52H24" stroke="#0072C6" stroke-width="2" stroke-linejoin="round"/>
<path d="M16.5 59.5H24" stroke="#0072C6" stroke-width="2" stroke-linejoin="round"/>
<path d="M0 67H81" stroke="#0072C6" stroke-width="2" stroke-linejoin="round"/>
<path d="M61.7999 49.421C61.7999 52.586 59.2349 55.151 56.0699 55.151C52.9049 55.151 50.3398 52.586 50.3398 49.421C50.3398 46.256 56.0699 40.541 56.0699 40.541C56.0699 40.541 61.7999 46.256 61.7999 49.421Z" stroke="#0072C6" stroke-width="2" stroke-linejoin="round"/>
</svg>
