<svg width="85" height="74" viewBox="0 0 85 74" fill="none" xmlns="http://www.w3.org/2000/svg">
<path d="M81.138 36.7754H49.6553V42.4995H81.138V36.7754Z" stroke="#0072C6" stroke-width="2" stroke-linejoin="round"/>
<path d="M71.8939 23.8965C77.5608 26.4437 81.4961 32.1392 81.4961 38.7506C81.4961 47.7518 74.1979 55.0358 65.211 55.0358C56.2241 55.0358 48.9258 47.7375 48.9258 38.7506C48.9258 32.1392 52.8612 26.4437 58.5281 23.8965" stroke="#0072C6" stroke-width="2" stroke-linejoin="round"/>
<path d="M56.0813 52.2441L54.1064 62.2041" stroke="#0072C6" stroke-width="2" stroke-linejoin="round"/>
<path d="M59.0576 62.204L62.2202 55.0488" stroke="#0072C6" stroke-width="2" stroke-linejoin="round"/>
<path d="M74.5557 52.2441L76.5305 62.2041" stroke="#0072C6" stroke-width="2" stroke-linejoin="round"/>
<path d="M71.5939 62.204L68.417 55.0488" stroke="#0072C6" stroke-width="2" stroke-linejoin="round"/>
<path d="M71.1205 18.1719H58.2412V23.896H71.1205V18.1719Z" stroke="#0072C6" stroke-width="2" stroke-linejoin="round"/>
<path d="M13.8789 11.0172V7.29654C13.8789 3.81913 16.6981 1 20.1755 1H59.0853C62.5627 1 65.3818 3.81913 65.3818 7.29654V18.1724" stroke="#0072C6" stroke-width="2" stroke-linejoin="round"/>
<path d="M49.6553 36.7754H81.138" stroke="#0072C6" stroke-width="2" stroke-linejoin="round"/>
<path d="M49.6553 42.5H63.9656" stroke="#0072C6" stroke-width="2" stroke-linejoin="round"/>
<path d="M69.6895 42.5H81.1377" stroke="#0072C6" stroke-width="2" stroke-linejoin="round"/>
<path d="M3.8623 61.1021V21.0331C3.8623 16.2964 7.02489 11.9746 11.6471 10.9729C18.1583 9.57051 23.8968 14.4932 23.8968 20.7469V61.0877" stroke="#0072C6" stroke-width="2" stroke-linejoin="round"/>
<path d="M31.0518 61.1021V21.0331C31.0518 16.2964 34.2143 11.9746 38.8366 10.9729C45.3478 9.57051 51.0862 14.4932 51.0862 20.7469V25.3119" stroke="#0072C6" stroke-width="2" stroke-linejoin="round"/>
<path d="M5.29297 29.6211H16.7412" stroke="#0072C6" stroke-width="2" stroke-linejoin="round"/>
<path d="M32.4824 29.6211H43.9307" stroke="#0072C6" stroke-width="2" stroke-linejoin="round"/>
<path d="M84 62.5332H1V72.5504H84V62.5332Z" stroke="#0072C6" stroke-width="2" stroke-linejoin="round"/>
</svg>
