<svg width="87" height="82" viewBox="0 0 87 82" fill="none" xmlns="http://www.w3.org/2000/svg">
<path d="M46.8096 46.3309L49.4434 19.5078H56.0211L58.655 46.3309" stroke="#0072C6" stroke-width="2" stroke-linejoin="round"/>
<path d="M65.2334 46.3309L67.8531 19.5078H74.4307L77.0646 46.3309" stroke="#0072C6" stroke-width="2" stroke-linejoin="round"/>
<path d="M42.5381 45.1348H80.9788V75.0331" stroke="#0072C6" stroke-width="2" stroke-linejoin="round"/>
<path d="M5.26562 75.5459L11.2168 37.8028V20.9316H36.8439V37.8028L42.7808 75.5459" stroke="#0072C6" stroke-width="2" stroke-linejoin="round"/>
<path d="M11.2158 38.0176H31.148" stroke="#0072C6" stroke-width="2" stroke-linejoin="round"/>
<path d="M46.8096 56.5254H76.7079" stroke="#0072C6" stroke-width="2" stroke-linejoin="round" stroke-dasharray="4.27 4.27"/>
<path d="M19.8586 1.08398C17.3101 3.14839 17.3101 6.50838 19.8586 8.58702C22.4071 10.6514 22.4071 14.0115 19.8586 16.0901" stroke="#0072C6" stroke-width="2" stroke-linejoin="round"/>
<path d="M28.885 1C26.3365 3.06441 26.3365 6.42439 28.885 8.50304C31.4335 10.5674 31.4335 13.9275 28.885 16.0061" stroke="#0072C6" stroke-width="2" stroke-linejoin="round"/>
<path d="M85.25 75.0332H1.25V80.7281H85.25V75.0332Z" stroke="#0072C6" stroke-width="2" stroke-linejoin="round"/>
</svg>
