<svg width="110" height="65" viewBox="0 0 110 65" fill="none" xmlns="http://www.w3.org/2000/svg">
<g clip-path="url(#clip0_2098_5694)">
<path d="M0.466797 52.4618C2.18438 53.2365 4.76075 54.1513 7.29979 54.1513C11.5844 54.1513 15.9717 51.5283 16.0184 51.5003C16.4571 51.2296 17.0172 51.2296 17.4653 51.5003C17.5119 51.5283 21.9273 54.142 26.1932 54.142C30.4592 54.142 34.8745 51.519 34.9211 51.4909C35.1358 51.3603 35.3879 51.2949 35.6399 51.2949C36.0693 51.2949 36.3493 51.4816 36.5174 51.5936C37.6562 52.3591 40.6993 54.142 44.1998 54.142H44.5452C48.0457 54.142 51.0795 52.3591 52.2277 51.5936C52.3957 51.4816 52.6757 51.2949 53.1051 51.2949C53.3852 51.2949 53.6559 51.3789 53.8892 51.5376C53.9266 51.5656 57.8191 54.142 62.4585 54.142H62.5425C67.2098 54.114 70.8877 51.575 70.925 51.547C71.1584 51.3789 71.4385 51.2949 71.7278 51.2949C72.1572 51.2949 72.4373 51.4816 72.6053 51.5936C73.7441 52.3591 76.7872 54.142 80.2877 54.142H80.6331C84.0683 54.142 87.1394 52.5084 88.4556 51.8083C89.0157 51.5096 89.249 51.3883 89.5758 51.3509C90.0798 51.2949 90.4439 51.519 90.6399 51.6496C91.7134 52.3964 94.5978 54.142 98.0797 54.142H98.425C101.926 54.142 104.959 52.3591 106.107 51.5936" stroke="#0072C6" stroke-width="2" stroke-miterlimit="10" stroke-linecap="round"/>
<path d="M0.466797 62.7293C2.18438 63.5041 4.76075 64.4189 7.29979 64.4189C11.5844 64.4189 15.9717 61.7959 16.0184 61.7679C16.4571 61.4972 17.0172 61.4972 17.4653 61.7679C17.5119 61.7959 21.9273 64.4096 26.1932 64.4096C30.4592 64.4096 34.8745 61.7865 34.9211 61.7585C35.1358 61.6278 35.3879 61.5625 35.6399 61.5625C36.0693 61.5625 36.3493 61.7492 36.5174 61.8612C37.6562 62.6267 40.6993 64.4096 44.1998 64.4096H44.5452C48.0457 64.4096 51.0795 62.6267 52.2277 61.8612C52.3957 61.7492 52.6757 61.5625 53.1051 61.5625C53.3852 61.5625 53.6559 61.6465 53.8892 61.8052C53.9266 61.8332 57.8191 64.4096 62.4585 64.4096H62.5425C67.2098 64.3816 70.8877 61.8425 70.925 61.8145C71.1584 61.6465 71.4385 61.5625 71.7278 61.5625C72.1572 61.5625 72.4373 61.7492 72.6053 61.8612C73.7441 62.6267 76.7872 64.4096 80.2877 64.4096H80.6331C84.0683 64.4096 87.1394 62.776 88.4556 62.0759C89.0157 61.7772 89.249 61.6559 89.5758 61.6185C90.0798 61.5625 90.4439 61.7865 90.6399 61.9172C91.7134 62.664 94.5978 64.4096 98.0797 64.4096H98.425C101.926 64.4096 104.959 62.6267 106.107 61.8612" stroke="#0072C6" stroke-width="2" stroke-miterlimit="10" stroke-linecap="round"/>
<path d="M8.71875 5.56354V0.466797H18.0534V9.29741" stroke="#0072C6" stroke-width="2" stroke-linecap="round" stroke-linejoin="round"/>
<path d="M24.5878 9.29688H2.18457V16.7646H24.5878V9.29688Z" stroke="#0072C6" stroke-width="2" stroke-linecap="round" stroke-linejoin="round"/>
<path d="M4.98438 16.7656V30.5436" stroke="#0072C6" stroke-width="2" stroke-linecap="round" stroke-linejoin="round"/>
<path d="M21.7871 16.7656V30.7677" stroke="#0072C6" stroke-width="2" stroke-linecap="round" stroke-linejoin="round"/>
<path d="M8.71873 48.5032L2.18445 39.6165L1.25098 30.7673H24.5877L27.3881 36.3681H87.1301L91.8628 30.7673C91.8628 30.7673 106.733 28.9003 109.533 30.7673C105.8 34.5011 99.1252 40.1019 96.3995 48.5032" stroke="#0072C6" stroke-width="2" stroke-linecap="round" stroke-linejoin="round"/>
<path d="M10.875 23H16.125C16.6082 23 17 23 17 23C17 23 16.6082 23 16.125 23H10.875C10.3918 23 10 23 10 23C10 23 10.3918 23 10.875 23Z" stroke="#0072C6" stroke-width="2" stroke-linecap="round" stroke-linejoin="round"/>
<path d="M32.0739 36.0324C32.0552 35.8363 32.0459 35.631 32.0459 35.4256V27.0244C32.0459 22.8985 35.3877 19.5566 39.5137 19.5566C43.6396 19.5566 46.9814 22.8985 46.9814 27.0244V35.4256C46.9814 35.631 46.9814 35.827 46.9534 36.0324" stroke="#0072C6" stroke-width="2" stroke-linecap="round" stroke-linejoin="round"/>
<path d="M53.5436 36.0324C53.525 35.8363 53.5156 35.631 53.5156 35.4256V27.0244C53.5156 22.8985 56.8574 19.5566 60.9834 19.5566C65.1093 19.5566 68.4511 22.8985 68.4511 27.0244V35.4256C68.4511 35.631 68.4511 35.827 68.4231 36.0324" stroke="#0072C6" stroke-width="2" stroke-linecap="round" stroke-linejoin="round"/>
<path d="M75.0134 36.0324C74.9947 35.8363 74.9854 35.631 74.9854 35.4256V27.0244C74.9854 22.8985 78.3272 19.5566 82.4531 19.5566C86.4857 19.5566 89.7622 22.7491 89.9115 26.7444" stroke="#0072C6" stroke-width="2" stroke-linecap="round" stroke-linejoin="round"/>
<path d="M39.5234 19.5653V11.1641H82.463V19.5653" stroke="#0072C6" stroke-width="2" stroke-linecap="round" stroke-linejoin="round"/>
<path d="M60.9932 11.2012V19.5651" stroke="#0072C6" stroke-width="2" stroke-linecap="round" stroke-linejoin="round"/>
</g>
<defs>
<clipPath id="clip0_2098_5694">
<rect width="110" height="64.8854" fill="white"/>
</clipPath>
</defs>
</svg>
