<svg width="108" height="81" viewBox="0 0 108 81" fill="none" xmlns="http://www.w3.org/2000/svg">
<path d="M42.5352 5.50977L54.0378 17.0123" stroke="#0072C6" stroke-width="2" stroke-linejoin="round"/>
<path d="M41.6689 23.5078L54.4338 36.2726" stroke="#0072C6" stroke-width="2" stroke-linejoin="round"/>
<path d="M40.2666 38.8965L55.8681 54.4979" stroke="#0072C6" stroke-width="2" stroke-linejoin="round"/>
<path d="M52.4489 6.07812L42.0811 17.3679" stroke="#0072C6" stroke-width="2" stroke-linejoin="round"/>
<path d="M53.9531 22.9395L40.4365 36.456" stroke="#0072C6" stroke-width="2" stroke-linejoin="round"/>
<path d="M54.62 39.2949L39.0186 54.8964" stroke="#0072C6" stroke-width="2" stroke-linejoin="round"/>
<path d="M94.3322 56.3145H13.4883V66.2427H94.3322V56.3145Z" stroke="#0072C6" stroke-width="2" stroke-linejoin="round"/>
<path d="M37.5996 66.6602V76.5884" stroke="#0072C6" stroke-width="2" stroke-linejoin="round"/>
<path d="M26.2529 69.4968V66.6602" stroke="#0072C6" stroke-width="2" stroke-linejoin="round"/>
<path d="M82.9863 66.6602V72.3334" stroke="#0072C6" stroke-width="2" stroke-linejoin="round"/>
<path d="M73.0576 72.3334V66.6602" stroke="#0072C6" stroke-width="2" stroke-linejoin="round"/>
<path d="M65.9658 40.7129H82.9856" stroke="#0072C6" stroke-width="2" stroke-linejoin="round"/>
<path d="M39.0186 56.3143L43.2026 1H52.5918L56.0383 56.3143" stroke="#0072C6" stroke-width="2" stroke-linejoin="round"/>
<path d="M65 55.6012V36.5161C65 30.5884 69.4413 25.3809 75.3263 25.0208C81.7063 24.633 87 29.7297 87 36.0868V57" stroke="#0072C6" stroke-width="2" stroke-linejoin="round"/>
<path d="M20 56L21.5715 18H29.4285L31 53.5013" stroke="#0072C6" stroke-width="2" stroke-linejoin="round"/>
<path d="M1 77.4618C2.71758 78.2365 5.29396 79.1513 7.83299 79.1513C12.1176 79.1513 16.5049 76.5283 16.5516 76.5003C16.9903 76.2296 17.5504 76.2296 17.9985 76.5003C18.0451 76.5283 22.4605 79.142 26.7264 79.142C30.9924 79.142 35.4077 76.519 35.4543 76.4909C35.669 76.3603 35.9211 76.2949 36.1731 76.2949C36.6025 76.2949 36.8826 76.4816 37.0506 76.5936C38.1894 77.3591 41.2325 79.142 44.733 79.142H45.0784C48.5789 79.142 51.6127 77.3591 52.7609 76.5936C52.9289 76.4816 53.2089 76.2949 53.6383 76.2949C53.9184 76.2949 54.1891 76.3789 54.4224 76.5376C54.4598 76.5656 58.3523 79.142 62.9917 79.142H63.0757C67.743 79.114 71.4209 76.575 71.4583 76.547C71.6916 76.3789 71.9717 76.2949 72.261 76.2949C72.6904 76.2949 72.9705 76.4816 73.1385 76.5936C74.2773 77.3591 77.3204 79.142 80.8209 79.142H81.1663C84.6015 79.142 87.6726 77.5084 88.9888 76.8083C89.5489 76.5096 89.7822 76.3883 90.109 76.3509C90.613 76.2949 90.9771 76.519 91.1731 76.6496C92.2466 77.3964 95.131 79.142 98.6129 79.142H98.9583C102.459 79.142 105.493 77.3591 106.641 76.5936" stroke="#0072C6" stroke-width="2" stroke-miterlimit="10" stroke-linecap="round"/>
</svg>
