<svg width="70" height="41" viewBox="0 0 70 41" fill="none" xmlns="http://www.w3.org/2000/svg">
<path d="M32.2956 20.2137C32.2956 16.6328 29.3928 13.7299 25.8119 13.7299C22.231 13.7299 19.3281 16.6328 19.3281 20.2137V28.7799C19.3281 32.3608 22.231 35.2637 25.8119 35.2637C29.3928 35.2637 32.2956 32.3608 32.2956 28.7799V20.2137Z" fill="#86C8F9"/>
<path d="M46.3581 20.2137C46.3581 16.6328 43.4553 13.7299 39.8744 13.7299C36.2935 13.7299 33.3906 16.6328 33.3906 20.2137V28.7799C33.3906 32.3608 36.2935 35.2637 39.8744 35.2637C43.4553 35.2637 46.3581 32.3608 46.3581 28.7799V20.2137Z" fill="#86C8F9"/>
<path d="M66.8763 20.975V13.415H67.3138C67.8913 13.415 68.3637 12.9338 68.3637 12.3388V11.0613C68.3637 10.4663 67.8913 9.98501 67.3138 9.98501H50.6187C50.0412 9.98501 49.5688 10.4663 49.5688 11.0613V12.3388C49.5688 12.9338 50.0412 13.415 50.6187 13.415H51.0562V20.975H48.5275C48.5275 27.2575 40.5737 27.03 40.5737 27.03H24.2025C16.2575 27.03 16.2575 23.9675 16.2575 23.9675H14.1225L11.0163 4.91001H11.9963C12.18 4.91001 12.3375 4.76126 12.3375 4.56876V0.473757C12.3375 0.290007 12.18 0.132507 11.9963 0.132507H5.075C4.8825 0.132507 4.73375 0.290007 4.73375 0.473757V4.56876C4.73375 4.76126 4.8825 4.91001 5.075 4.91001H6.06375L2.9575 23.9675H0C0 26.7763 0.4375 29.1125 1.1725 31.0375C1.435 31.72 1.7325 32.3588 2.065 32.9363C6.93875 41.5638 18.7425 40.1988 18.7425 40.1988H56.35C62.055 40.1988 65.3625 36.8475 67.305 32.9363C67.6113 32.315 67.8825 31.6763 68.1275 31.0375C70 26.085 70 20.975 70 20.975H66.8763ZM11.69 16.915L8.54 14.0013L6.545 12.155H10.955L11.69 16.915ZM8.54 4.91001H9.835L10.6488 10.1775L8.54 6.69501L7.455 4.91001H8.54ZM7.09625 5.41751L10.5175 11.0525H6.23875L7.105 5.41751H7.09625ZM5.97625 12.7238L11.2175 17.58H5.2325L5.97625 12.7238ZM4.2525 23.9675L5.01375 18.9888L8.54 21.5L12.005 23.9675H4.2525ZM6.125 18.6825H11.9613L12.6788 23.3463L6.125 18.6825ZM58.1787 17.9913C58.1787 18.35 57.8812 18.6475 57.5225 18.6475H53.4188C53.06 18.6475 52.7625 18.35 52.7625 17.9913V15.8213C52.7625 15.4625 53.06 15.165 53.4188 15.165H57.5225C57.8812 15.165 58.1787 15.4625 58.1787 15.8213V17.9913ZM65.1787 17.9913C65.1787 18.35 64.8812 18.6475 64.5225 18.6475H60.4188C60.06 18.6475 59.7625 18.35 59.7625 17.9913V15.8213C59.7625 15.4625 60.06 15.165 60.4188 15.165H64.5225C64.8812 15.165 65.1787 15.4625 65.1787 15.8213V17.9913Z" fill="#0072C6"/>
</svg>
