<svg width="50" height="44" viewBox="0 0 50 44" fill="none" xmlns="http://www.w3.org/2000/svg">
<g clip-path="url(#clip0_2310_12129)">
<rect x="9.25879" y="0.703674" width="9.25926" height="7.40741" rx="0.925926" fill="#86C8F9"/>
<rect y="38.6667" width="50" height="4.62963" rx="0.925926" fill="#86C8F9"/>
<rect x="31.4814" y="0.703674" width="9.25926" height="7.40741" rx="0.925926" fill="#86C8F9"/>
<rect x="2.77734" y="5.33331" width="44.4444" height="33.3333" rx="0.925926" fill="#0072C6"/>
<path d="M9.43066 14.9687H16.7263" stroke="white" stroke-width="2" stroke-linecap="round" stroke-linejoin="round"/>
<path d="M13.0791 11.3923V18.5487" stroke="white" stroke-width="2" stroke-linecap="round" stroke-linejoin="round"/>
<path d="M33.2695 14.9687H40.5689" stroke="white" stroke-width="2" stroke-linecap="round" stroke-linejoin="round"/>
<path d="M27.3399 31.9049C27.3399 30.6356 26.2928 29.609 24.9981 29.609C23.7033 29.609 22.6562 30.6356 22.6562 31.9049C22.6562 33.1743 23.7033 34.2009 24.9981 34.2009C26.2928 34.2009 27.3399 33.1743 27.3399 31.9049Z" fill="white"/>
</g>
<defs>
<clipPath id="clip0_2310_12129">
<rect width="50" height="42.5926" fill="white" transform="translate(0 0.703674)"/>
</clipPath>
</defs>
</svg>
