<svg width="71" height="57" viewBox="0 0 71 57" fill="none" xmlns="http://www.w3.org/2000/svg">
<path d="M44.9957 38.3125C45.2146 38.3125 45.4335 38.0935 45.4335 37.8746C45.4335 37.7652 45.4335 37.7105 45.3788 37.6557C45.0505 37.2179 43.5181 35.1383 41.4385 32.7303C40.8365 33.387 40.2892 34.0985 39.8514 34.9194C39.4136 35.7403 39.0305 36.5612 38.7568 37.3821C41.6574 37.9841 44.1201 38.2577 44.8863 38.3125C44.8863 38.3125 44.9957 38.3125 45.0505 38.3125H44.9957Z" fill="#86C8F9"/>
<path d="M41.4421 32.7305C39.3625 30.3772 36.7903 27.805 34.2181 26.3821C31.3723 24.795 27.7603 24.0836 26.1185 26.9841C24.422 29.8846 26.83 32.6757 29.6758 34.3175C32.1385 35.7404 35.6958 36.7255 38.7605 37.3823C39.0341 36.5614 39.4172 35.6857 39.855 34.9195C40.2929 34.0986 40.8401 33.3872 41.4421 32.7305Z" fill="#86C8F9"/>
<path d="M0.0547272 37.7311C-0.0547271 37.95 0.0547271 38.1689 0.218909 38.3331C0.273636 38.3331 0.38309 38.3878 0.437817 38.3878C0.985088 38.3878 3.55726 38.0595 6.67671 37.4575C6.40307 36.6366 6.01999 35.7609 5.58217 34.9947C5.14435 34.1738 4.59708 33.4624 3.99508 32.8057C2.0249 34.9947 0.547271 37.0197 0.109454 37.6764C0.109454 37.6764 0.0547271 37.7311 0 37.7858L0.0547272 37.7311Z" fill="#86C8F9"/>
<path d="M6.67772 37.4025C9.74244 36.8005 13.245 35.8154 15.7624 34.3378C18.5535 32.6959 20.9615 29.9049 19.3197 27.0043C17.6232 24.1038 14.0112 24.7605 11.2201 26.4023C8.75736 27.8252 6.13045 30.3974 3.99609 32.7507C4.59809 33.4074 5.14536 34.1189 5.58318 34.9398C6.021 35.7607 6.40409 36.5816 6.67772 37.4025Z" fill="#86C8F9"/>
<path d="M23.0725 0.218756C22.9631 -0.000152588 22.6894 -0.0548797 22.4705 0.0545745C22.4158 0.0545745 22.3611 0.164029 22.3064 0.218756C22.0874 0.7113 21.0476 3.06457 20.0078 6.07456C20.8834 6.23874 21.7591 6.3482 22.6894 6.3482C23.6198 6.3482 24.4954 6.23874 25.3711 6.07456C24.4407 3.28348 23.4556 0.984936 23.1273 0.273483C23.1273 0.273483 23.1273 0.164029 23.0725 0.109302V0.218756Z" fill="#86C8F9"/>
<path d="M20.0072 6.12927C19.0222 9.08454 18.0918 12.6418 18.0918 15.5423C18.0918 18.7712 19.3505 22.2738 22.6889 22.2738C26.0272 22.2738 27.286 18.7712 27.286 15.5423C27.286 12.6965 26.4103 9.13927 25.3705 6.12927C24.4949 6.29345 23.6192 6.40291 22.6889 6.40291C21.7585 6.40291 20.8829 6.29345 20.0072 6.12927Z" fill="#86C8F9"/>
<rect x="20.499" y="29.0001" width="4" height="28" rx="1" fill="#86C8F9"/>
<path d="M22.499 19.8001C19.7212 19.8001 17.499 22.2446 17.499 25.3001C17.499 28.3557 19.7212 30.8001 22.499 30.8001C25.2768 30.8001 27.499 28.3557 27.499 25.3001C27.499 22.2446 25.2768 19.8001 22.499 19.8001ZM22.499 28.0065C21.1498 28.0065 20.0387 26.7842 20.0387 25.3001C20.0387 23.816 21.1498 22.5938 22.499 22.5938C23.8482 22.5938 24.9593 23.816 24.9593 25.3001C24.9593 26.7842 23.8482 28.0065 22.499 28.0065Z" fill="#0072C6"/>
<path d="M46.0025 17.9916C48.9406 17.9916 51.3223 15.6098 51.3223 12.6717C51.3223 9.73365 48.9406 7.35187 46.0025 7.35187C43.0644 7.35187 40.6826 9.73365 40.6826 12.6717C40.6826 15.6098 43.0644 17.9916 46.0025 17.9916Z" fill="#86C8F9"/>
<path d="M47.309 5.91869H44.6904L46.0025 3.66946L47.309 5.91869Z" fill="#86C8F9"/>
<path d="M42.1486 6.97125L40.2963 8.81804L39.6348 6.3042L42.1486 6.97125Z" fill="#86C8F9"/>
<path d="M39.2437 11.3658V13.9789L37 12.6724L39.2437 11.3658Z" fill="#86C8F9"/>
<path d="M40.2963 16.5255L42.1486 18.3723L39.6348 19.0394L40.2963 16.5255Z" fill="#86C8F9"/>
<path d="M44.6904 19.425H47.309L46.0025 21.6743L44.6904 19.425Z" fill="#86C8F9"/>
<path d="M49.8496 18.3723L51.7019 16.5255L52.3634 19.0394L49.8496 18.3723Z" fill="#86C8F9"/>
<path d="M52.7559 13.9789V11.3658L54.9996 12.6724L52.7559 13.9789Z" fill="#86C8F9"/>
<path d="M51.7019 8.81804L49.8496 6.97125L52.3634 6.3042L51.7019 8.81804Z" fill="#86C8F9"/>
<path d="M69.295 28.4485H41.2147C40.6846 28.4485 40.2549 28.8782 40.2549 29.4083V48.1685C40.2549 48.6986 40.6846 49.1284 41.2147 49.1284H69.295C69.8251 49.1284 70.2549 48.6986 70.2549 48.1685V29.4083C70.2549 28.8782 69.8251 28.4485 69.295 28.4485Z" fill="#1067C8"/>
<path d="M48.7977 30.6035H43.4706C42.9405 30.6035 42.5107 31.0332 42.5107 31.5633V36.8905C42.5107 37.4206 42.9405 37.8503 43.4706 37.8503H48.7977C49.3278 37.8503 49.7576 37.4206 49.7576 36.8904V31.5633C49.7576 31.0332 49.3278 30.6035 48.7977 30.6035Z" fill="#86C8F9"/>
<path d="M57.9208 30.6035H52.5936C52.0635 30.6035 51.6338 31.0332 51.6338 31.5633V36.8905C51.6338 37.4206 52.0635 37.8503 52.5936 37.8503H57.9208C58.4509 37.8503 58.8806 37.4206 58.8806 36.8904V31.5633C58.8806 31.0332 58.4509 30.6035 57.9208 30.6035Z" fill="#86C8F9"/>
<path d="M67.0399 30.6035H61.7128C61.1827 30.6035 60.7529 31.0332 60.7529 31.5633V36.8905C60.7529 37.4206 61.1827 37.8503 61.7128 37.8503H67.0399C67.57 37.8503 67.9998 37.4206 67.9998 36.8904V31.5633C67.9998 31.0332 67.57 30.6035 67.0399 30.6035Z" fill="#86C8F9"/>
<path d="M48.7977 39.7267H43.4706C42.9405 39.7267 42.5107 40.1564 42.5107 40.6865V46.0137C42.5107 46.5438 42.9405 46.9735 43.4706 46.9735H48.7977C49.3278 46.9735 49.7576 46.5438 49.7576 46.0137V40.6865C49.7576 40.1564 49.3278 39.7267 48.7977 39.7267Z" fill="#86C8F9"/>
<path d="M57.9208 39.7267H52.5936C52.0635 39.7267 51.6338 40.1564 51.6338 40.6865V46.0137C51.6338 46.5438 52.0635 46.9735 52.5936 46.9735H57.9208C58.4509 46.9735 58.8806 46.5438 58.8806 46.0137V40.6865C58.8806 40.1564 58.4509 39.7267 57.9208 39.7267Z" fill="#86C8F9"/>
<path d="M58.1172 49.1283H52.3965V54.6042H58.1172V49.1283Z" fill="#1067C8"/>
<path d="M47.6942 52.7174H62.8165C64.7324 52.7174 66.3178 54.1533 66.5537 56.0059C66.5871 56.2688 66.3691 56.4848 66.104 56.4848H44.4067C44.1416 56.4848 43.9235 56.2688 43.957 56.0059C44.1929 54.1533 45.7783 52.7174 47.6942 52.7174Z" fill="#1067C8"/>
<path d="M67.0399 39.7267H61.7128C61.1827 39.7267 60.7529 40.1564 60.7529 40.6865V46.0137C60.7529 46.5438 61.1827 46.9735 61.7128 46.9735H67.0399C67.57 46.9735 67.9998 46.5438 67.9998 46.0137V40.6865C67.9998 40.1564 67.57 39.7267 67.0399 39.7267Z" fill="#86C8F9"/>
</svg>
