<svg width="64" height="47" viewBox="0 0 64 47" fill="none" xmlns="http://www.w3.org/2000/svg">
<path d="M20.5898 11.4582C20.5898 17.4453 25.4445 22.2999 31.4316 22.2999H42.2734V0.620789H31.4316C25.4445 0.620789 20.5898 5.47545 20.5898 11.4626V11.4582ZM34.6666 6.70448C34.6666 6.07241 35.1757 5.56324 35.8078 5.56324C36.4399 5.56324 36.9491 6.07241 36.9491 6.70448V16.2119C36.9491 16.8439 36.4399 17.3531 35.8078 17.3531C35.1757 17.3531 34.6666 16.8439 34.6666 16.2119V6.70448ZM31.6204 16.2119C31.6204 16.8439 31.1112 17.3531 30.4791 17.3531C29.8471 17.3531 29.3379 16.8439 29.3379 16.2119V6.70448C29.3379 6.07241 29.8471 5.56324 30.4791 5.56324C31.1112 5.56324 31.6204 6.07241 31.6204 6.70448V16.2119Z" fill="#0072C6"/>
<path d="M56.3462 6.51131C56.3462 5.46225 55.4947 4.61072 54.4456 4.61072H43.0332V8.4163H54.4456C55.4947 8.4163 56.3462 7.56477 56.3462 6.51571V6.51131Z" fill="#86C8F9"/>
<path d="M54.4456 14.5H43.0332V18.3056H54.4456C55.4947 18.3056 56.3462 17.4541 56.3462 16.405C56.3462 15.3559 55.4947 14.5044 54.4456 14.5044V14.5Z" fill="#86C8F9"/>
<path d="M25.5372 11.4582C25.5372 12.9286 24.3433 14.1225 22.8729 14.1225H18.3079C16.8375 14.1225 15.6436 12.9286 15.6436 11.4582C15.6436 9.98772 16.8375 8.79382 18.3079 8.79382H22.8729C24.3433 8.79382 25.5372 9.98772 25.5372 11.4582Z" fill="#0072C6"/>
<path d="M61.0994 46.2308V39.1947C61.0994 37.5443 60.3752 36.0387 59.1681 34.9238C57.9654 33.8089 56.293 33.111 54.4407 33.111H9.55929C4.8451 33.111 1.00439 29.2659 1 24.5517V19.2274C1 14.5132 4.8451 10.6725 9.55929 10.6681H17.9254V12.5687H9.55929C5.90294 12.5731 2.90939 15.571 2.90061 19.223V24.5473C2.90939 28.2037 5.90294 31.1972 9.55929 31.206H54.4407C59.0978 31.2148 62.9868 34.7351 63 39.1947C63 43.0661 63 46.2308 63 46.2308H61.0994Z" fill="#0072C6" stroke="#0072C6"/>
</svg>
