<svg width="80" height="40" viewBox="0 0 80 40" fill="none" xmlns="http://www.w3.org/2000/svg">
<path fill-rule="evenodd" clip-rule="evenodd" d="M38.5527 14.3182L39.5731 10.976L41.7242 3.87378C41.7527 3.73512 41.918 3.56801 42.1651 3.42756C42.4691 3.26045 42.8549 3.14845 43.2407 3.14845H68.7483C69.134 3.14845 69.5198 3.26045 69.8523 3.45423C70.0727 3.5929 70.238 3.73334 70.2665 3.87201L72.4443 10.9742L73.4647 14.3165H75.5607C75.7545 14.3165 75.9465 14.3165 76.1403 14.3449L74.8709 10.2222L72.7198 3.12001C72.4709 2.33956 71.8932 1.67112 71.1483 1.22667C70.4585 0.808893 69.6034 0.558228 68.7483 0.558228H43.2407C42.3856 0.558228 41.5305 0.808893 40.8691 1.22667C40.0976 1.67289 39.518 2.34134 39.2976 3.12001L37.1198 10.2222L35.8789 14.3449C36.0727 14.3165 36.2647 14.3165 36.4585 14.3165H38.5545L38.5527 14.3182Z" fill="#86C8F9"/>
<path fill-rule="evenodd" clip-rule="evenodd" d="M75.5607 15.1537H36.4567C34.0016 15.1537 32.0176 17.1591 32.0176 19.6373V26.3769C32.0176 28.8284 34.0034 30.8604 36.4567 30.8604H75.5607C77.9874 30.8604 79.9998 28.8266 79.9998 26.3769V19.6373C79.9998 17.1591 77.9874 15.1537 75.5607 15.1537ZM39.5731 27.4364C37.8914 27.4364 36.5118 26.0444 36.5118 24.3449C36.5118 22.6453 37.8914 21.2533 39.5731 21.2533C41.2549 21.2533 42.6345 22.6453 42.6345 24.3449C42.6345 26.0444 41.2834 27.4364 39.5731 27.4364ZM64.5296 26.4889C64.5296 26.9351 64.1989 27.2693 63.7847 27.2693H48.2309C47.8167 27.2693 47.4594 26.9351 47.4594 26.4889V24.7058C47.4594 24.288 47.8185 23.9253 48.2309 23.9253H63.7847C64.1989 23.9253 64.5296 24.288 64.5296 24.7058V26.4889ZM72.4158 27.4364C70.7341 27.4364 69.3545 26.0444 69.3545 24.3449C69.3545 22.6453 70.7341 21.2533 72.4158 21.2533C74.0976 21.2533 75.4772 22.6453 75.4772 24.3449C75.4772 26.0444 74.1261 27.4364 72.4158 27.4364Z" fill="#86C8F9"/>
<path fill-rule="evenodd" clip-rule="evenodd" d="M36.2627 38.16C36.2627 38.8836 36.8689 39.4418 37.5871 39.4418H43.2689C43.9854 39.4418 44.5649 38.8854 44.5649 38.16V31.6978H36.2645V38.16H36.2627Z" fill="#86C8F9"/>
<path fill-rule="evenodd" clip-rule="evenodd" d="M67.4258 38.16C67.4258 38.8836 68.0053 39.4418 68.7502 39.4418H74.4302C75.1467 39.4418 75.7262 38.8854 75.7262 38.16V31.6978H67.4258V38.16Z" fill="#86C8F9"/>
<path fill-rule="evenodd" clip-rule="evenodd" d="M24.0462 36.7111H0.716445C0.330667 36.7111 0 37.0453 0 37.4347V39.44H24.7911V37.4347C24.7911 37.0453 24.4605 36.7111 24.0462 36.7111Z" fill="#0072C6"/>
<path fill-rule="evenodd" clip-rule="evenodd" d="M22.0049 5.43289C22.0049 4.62578 21.3702 3.95734 20.5702 3.95734H4.21817C3.41817 3.95734 2.75684 4.62578 2.75684 5.43289V35.8756H22.0049V5.43289ZM19.772 16.7965C19.772 17.6871 19.0271 18.4125 18.1453 18.4125H6.61817C5.73639 18.4125 5.01817 17.6889 5.01817 16.7965V8.35734C5.01817 7.46667 5.73462 6.71467 6.61817 6.71467H18.1453C19.0271 6.71467 19.772 7.46667 19.772 8.35734V16.7965Z" fill="#0072C6"/>
<path fill-rule="evenodd" clip-rule="evenodd" d="M27.0252 21.1982C26.4741 21.7547 26.1434 22.5067 26.1434 23.3422V26.7396C26.1434 27.1289 25.9781 27.52 25.7025 27.7973C25.427 28.048 25.0679 28.2151 24.6554 28.2151H22.835V29.7742H24.6554C25.4821 29.7742 26.2554 29.44 26.8065 28.8836C27.331 28.3271 27.6883 27.5751 27.6883 26.7396V23.3422C27.6883 22.9245 27.8536 22.5618 28.1025 22.2845H28.1292C28.3781 22.0053 28.7639 21.8382 29.1763 21.8382H31.1887V20.3058H29.1763C28.3496 20.3058 27.5763 20.64 27.0252 21.1965V21.1982Z" fill="#0072C6"/>
<path fill-rule="evenodd" clip-rule="evenodd" d="M14.505 7.49335L9.95566 12.7858H12.1068L9.48633 17.6605L15.305 11.5876H12.9068L14.505 7.49335Z" fill="#0072C6"/>
</svg>
