<svg width="40" height="40" viewBox="0 0 40 40" fill="none" xmlns="http://www.w3.org/2000/svg">
<g clip-path="url(#clip0_2270_14772)">
<path d="M38.9999 6.57819H7.57812C7.02584 6.57819 6.57812 7.0259 6.57812 7.57819V39C6.57812 39.5522 7.02584 40 7.57813 40H38.9999C39.5522 40 39.9999 39.5522 39.9999 39V7.57819C39.9999 7.0259 39.5522 6.57819 38.9999 6.57819Z" fill="#86C8F9"/>
<path d="M32.4218 0H1C0.447715 0 0 0.447716 0 1V32.4218C0 32.9741 0.447716 33.4218 1 33.4218H32.4218C32.9741 33.4218 33.4218 32.9741 33.4218 32.4218V1C33.4218 0.447715 32.9741 0 32.4218 0Z" fill="#0072C6"/>
<path d="M19.1219 9.8125H14.2979V23.6114H19.1219V9.8125Z" fill="#EAF5FD"/>
<path d="M23.6074 19.1229V14.2988H9.8085V19.1229H23.6074Z" fill="#EAF5FD"/>
</g>
<defs>
<clipPath id="clip0_2270_14772">
<rect width="40" height="40" fill="white"/>
</clipPath>
</defs>
</svg>
