<svg width="44" height="40" viewBox="0 0 44 40" fill="none" xmlns="http://www.w3.org/2000/svg">
<path d="M41.9595 6.29089H1.39648V37.5088H41.9595V6.29089Z" fill="#86C8F9"/>
<path d="M42.4425 0.143921H1.55752C0.695693 0.143921 0 0.839614 0 1.70144V37.7685C0 38.6303 0.695693 39.326 1.55752 39.326H42.4425C43.3043 39.326 44 38.6303 44 37.7685V1.70144C44 0.839614 43.3043 0.143921 42.4425 0.143921ZM11.9877 3.06687C12.6367 3.06687 13.1611 3.59124 13.1611 4.2402C13.1611 4.88917 12.6367 5.41354 11.9877 5.41354C11.3388 5.41354 10.8144 4.88917 10.8144 4.2402C10.8144 3.59124 11.3388 3.06687 11.9877 3.06687ZM8.0472 3.06687C8.69617 3.06687 9.22053 3.59124 9.22053 4.2402C9.22053 4.88917 8.69617 5.41354 8.0472 5.41354C7.39823 5.41354 6.87386 4.88917 6.87386 4.2402C6.87386 3.59124 7.39823 3.06687 8.0472 3.06687ZM4.10667 3.06687C4.75563 3.06687 5.28 3.59124 5.28 4.2402C5.28 4.88917 4.75563 5.41354 4.10667 5.41354C3.4577 5.41354 2.93333 4.88917 2.93333 4.2402C2.93333 3.59124 3.4577 3.06687 4.10667 3.06687ZM40.885 36.2109H3.11504V8.13401H40.885V36.2161V36.2109Z" fill="#0072C6"/>
<path d="M29.5614 28.958C29.3226 28.958 29.0786 28.8957 28.8553 28.7607C28.2167 28.3714 28.0143 27.5355 28.4088 26.8969L31.2851 22.1984L28.4088 17.4999C28.0195 16.8613 28.2167 16.0306 28.8553 15.636C29.4939 15.2466 30.3246 15.4439 30.7192 16.0825L34.0263 21.4871C34.2911 21.9232 34.2911 22.4684 34.0263 22.8993L30.7192 28.3039C30.4648 28.7192 30.0183 28.9528 29.5614 28.9528V28.958Z" fill="#0072C6"/>
<path d="M14.4379 28.9581C13.981 28.9581 13.5345 28.7296 13.2801 28.3091L9.973 22.9045C9.70822 22.4684 9.70822 21.9233 9.973 21.4923L13.2801 16.0877C13.6695 15.4492 14.5054 15.2467 15.144 15.6413C15.7826 16.0306 15.985 16.8665 15.5905 17.5051L12.7142 22.2036L15.5905 26.9021C15.9798 27.5407 15.7826 28.3714 15.144 28.766C14.9259 28.901 14.6819 28.9633 14.4379 28.9633V28.9581Z" fill="#0072C6"/>
<path d="M20.2216 29.7473C20.097 29.7473 19.9724 29.7317 19.8478 29.6953C19.1313 29.4877 18.716 28.7401 18.9184 28.0184L22.48 15.6361C22.6876 14.9196 23.4353 14.4991 24.1569 14.7068C24.8734 14.9145 25.2887 15.6621 25.0862 16.3837L21.5247 28.766C21.3534 29.3579 20.8134 29.7473 20.2216 29.7473Z" fill="#0072C6"/>
</svg>
