<svg width="71" height="70" viewBox="0 0 71 70" fill="none" xmlns="http://www.w3.org/2000/svg">
<path d="M20.0843 27.3112C27.6089 27.3112 33.7087 21.2114 33.7087 13.6869C33.7087 6.16234 27.6089 0.0625 20.0843 0.0625C12.5598 0.0625 6.45996 6.16234 6.45996 13.6869C6.45996 21.2114 12.5598 27.3112 20.0843 27.3112Z" fill="white"/>
<path d="M20.0848 24.3691C31.1506 24.3691 40.1695 33.3881 40.1695 44.4539V49.9548C40.1695 53.7927 37.0353 56.9269 33.1974 56.9269H6.9721C3.13424 56.9269 0 53.7927 0 49.9548V44.4539C0 33.3881 9.01895 24.3691 20.0848 24.3691Z" fill="white"/>
<path d="M50.4031 69.4C61.7782 69.4 70.9996 60.1786 70.9996 48.8035C70.9996 37.4284 61.7782 28.207 50.4031 28.207C39.028 28.207 29.8066 37.4284 29.8066 48.8035C29.8066 60.1786 39.028 69.4 50.4031 69.4Z" fill="#CCCCCC"/>
<path d="M42.3435 45.9889C42.7273 44.6457 43.4309 43.4943 44.4543 42.5349C47.5886 39.4006 52.5778 39.2727 55.8399 42.0871L54.4967 43.4304C53.7931 44.134 54.1769 45.3493 55.1363 45.5412L62.1724 46.9484C63.0679 47.1403 63.8355 46.3727 63.6436 45.4772L62.2364 38.4412C62.0445 37.4817 60.8291 37.0979 60.1255 37.8015L58.7823 39.1448C53.7931 34.7312 46.1813 34.8592 41.384 39.6565C39.9129 41.1276 38.8255 42.9186 38.2498 44.8376C37.9939 45.6051 38.2498 46.4367 38.7615 46.9484C39.2732 47.4601 39.2732 47.3961 39.657 47.4601C40.7444 47.7799 41.9597 47.2042 42.2795 46.0529L42.3435 45.9889Z" fill="white"/>
<path d="M59.3581 58.0152C60.8292 56.5441 61.9166 54.7531 62.4923 52.8341C62.8121 51.7467 62.2365 50.5314 61.0851 50.2116C59.9977 49.8918 58.7824 50.4675 58.4626 51.6188C58.0788 52.9621 57.3752 54.1134 56.3517 55.0729C53.2175 58.2071 48.2283 58.3351 44.9661 55.5206L46.3094 54.1774C47.013 53.4738 46.6292 52.2585 45.6697 52.0666L38.6337 50.6594C37.7382 50.4675 36.9706 51.235 37.1625 52.1305L38.5697 59.1666C38.7616 60.1261 39.9769 60.5098 40.6805 59.8062L42.0238 58.463C47.013 62.8765 54.6247 62.7486 59.422 57.9513L59.3581 58.0152Z" fill="white"/>
</svg>
