<svg width="71" height="63" viewBox="0 0 71 63" fill="none" xmlns="http://www.w3.org/2000/svg">
<path d="M44.9835 3.92676H6.58295C2.94729 3.92676 0 6.87405 0 10.5097V56.4171C0 60.0528 2.94729 63.0001 6.58295 63.0001H44.9835C48.6192 63.0001 51.5664 60.0528 51.5664 56.4171V10.5097C51.5664 6.87405 48.6192 3.92676 44.9835 3.92676Z" fill="#86C8F9"/>
<path d="M37.4178 0H14.1465C11.946 0 10.1621 1.78388 10.1621 3.98442V7.62236C10.1621 9.8229 11.946 11.6068 14.1465 11.6068H37.4178C39.6184 11.6068 41.4023 9.8229 41.4023 7.62236V3.98442C41.4023 1.78388 39.6184 0 37.4178 0Z" fill="#0072C6"/>
<path d="M50.5839 55.6668C42.615 55.6668 36.0898 49.1993 36.0898 41.1728C36.0898 33.1462 42.5573 26.6787 50.5839 26.6787C58.6105 26.6787 65.0779 33.1462 65.0779 41.1728C65.0779 49.1993 58.6105 55.6668 50.5839 55.6668ZM50.5839 32.511C45.791 32.511 41.8644 36.4376 41.8644 41.2305C41.8644 46.0233 45.791 49.95 50.5839 49.95C55.3767 49.95 59.3034 46.0233 59.3034 41.2305C59.3034 36.4376 55.3767 32.511 50.5839 32.511Z" fill="#0072C6"/>
<path d="M67.2156 60.7485C66.465 60.7485 65.7143 60.4598 65.1946 59.8824L56.706 51.3938C55.5511 50.2389 55.5511 48.4488 56.706 47.2939C57.8609 46.139 59.651 46.139 60.8059 47.2939L69.2945 55.7825C70.4494 56.9374 70.4494 58.7275 69.2945 59.8824C68.717 60.4598 67.9663 60.7485 67.2734 60.7485H67.2156Z" fill="#0072C6"/>
</svg>
