<svg width="78" height="59" viewBox="0 0 78 59" fill="none" xmlns="http://www.w3.org/2000/svg">
<path d="M65.6799 12.7749C64.45 14.127 62.2004 13.2569 62.2004 11.4291V5.14576C62.2004 3.32121 59.9575 2.44947 58.7253 3.79511L50.4754 12.8049C49.2433 14.1505 47.0004 13.2788 47.0004 11.4542V5.17091C47.0004 3.34314 44.7508 2.47305 43.5209 3.82512L35.3799 12.7749C34.15 14.127 31.9004 13.2569 31.9004 11.4291V5.15389C31.9004 3.3283 29.6553 2.45709 28.4239 3.80482L14.4239 19.127C14.0871 19.4956 13.9004 19.9768 13.9004 20.4761V56.5C13.9004 57.6046 14.7958 58.5 15.9004 58.5H75.3004C76.405 58.5 77.3004 57.6046 77.3004 56.5V5.17091C77.3004 3.34314 75.0508 2.47305 73.8209 3.82512L65.6799 12.7749Z" fill="white"/>
<path d="M19.7 26.4004H24.3C24.7 26.4004 25 26.7004 25 27.1004V29.8004C25 30.2004 24.7 30.5004 24.3 30.5004H19.7C19.3 30.5004 19 30.2004 19 29.8004V27.1004C19 26.7004 19.3 26.4004 19.7 26.4004Z" fill="#CCCCCC"/>
<path d="M19.7 33.7002H24.3C24.7 33.7002 25 34.0002 25 34.4002V37.1002C25 37.5002 24.7 37.8002 24.3 37.8002H19.7C19.3 37.8002 19 37.5002 19 37.1002V34.4002C19 34.0002 19.3 33.7002 19.7 33.7002Z" fill="#CCCCCC"/>
<path d="M19.7 41H24.3C24.7 41 25 41.3 25 41.7V44.4C25 44.8 24.7 45.1 24.3 45.1H19.7C19.3 45.1 19 44.8 19 44.4V41.7C19 41.3 19.3 41 19.7 41Z" fill="#CCCCCC"/>
<path d="M35.4002 26.4004H40.0002C40.4002 26.4004 40.7002 26.7004 40.7002 27.1004V29.8004C40.7002 30.2004 40.4002 30.5004 40.0002 30.5004H35.4002C35.0002 30.5004 34.7002 30.2004 34.7002 29.8004V27.1004C34.7002 26.7004 35.0002 26.4004 35.4002 26.4004Z" fill="#CCCCCC"/>
<path d="M40.0002 33.7002H35.4002C35.0136 33.7002 34.7002 34.0136 34.7002 34.4002V37.1002C34.7002 37.4868 35.0136 37.8002 35.4002 37.8002H40.0002C40.3868 37.8002 40.7002 37.4868 40.7002 37.1002V34.4002C40.7002 34.0136 40.3868 33.7002 40.0002 33.7002Z" fill="#CCCCCC"/>
<path d="M35.4002 41H40.0002C40.4002 41 40.7002 41.3 40.7002 41.7V44.4C40.7002 44.8 40.4002 45.1 40.0002 45.1H35.4002C35.0002 45.1 34.7002 44.8 34.7002 44.4V41.7C34.7002 41.3 35.0002 41 35.4002 41Z" fill="#CCCCCC"/>
<path d="M51.2 26.4004H55.8C56.2 26.4004 56.5 26.7004 56.5 27.1004V29.8004C56.5 30.2004 56.2 30.5004 55.8 30.5004H51.2C50.8 30.5004 50.5 30.2004 50.5 29.8004V27.1004C50.5 26.7004 50.8 26.4004 51.2 26.4004Z" fill="#CCCCCC"/>
<path d="M51.2 33.7002H55.8C56.2 33.7002 56.5 34.0002 56.5 34.4002V37.1002C56.5 37.5002 56.2 37.8002 55.8 37.8002H51.2C50.8 37.8002 50.5 37.5002 50.5 37.1002V34.4002C50.5 34.0002 50.8 33.7002 51.2 33.7002Z" fill="#CCCCCC"/>
<path d="M51.2 41H55.8C56.2 41 56.5 41.3 56.5 41.7V44.4C56.5 44.8 56.2 45.1 55.8 45.1H51.2C50.8 45.1 50.5 44.8 50.5 44.4V41.7C50.5 41.3 50.8 41 51.2 41Z" fill="#CCCCCC"/>
<path d="M66.9002 26.4004H71.5002C71.9002 26.4004 72.2002 26.7004 72.2002 27.1004V29.8004C72.2002 30.2004 71.9002 30.5004 71.5002 30.5004H66.9002C66.5002 30.5004 66.2002 30.2004 66.2002 29.8004V27.1004C66.2002 26.7004 66.5002 26.4004 66.9002 26.4004Z" fill="#CCCCCC"/>
<path d="M71.5002 33.7002H66.9002C66.5136 33.7002 66.2002 34.0136 66.2002 34.4002V37.1002C66.2002 37.4868 66.5136 37.8002 66.9002 37.8002H71.5002C71.8868 37.8002 72.2002 37.4868 72.2002 37.1002V34.4002C72.2002 34.0136 71.8868 33.7002 71.5002 33.7002Z" fill="#CCCCCC"/>
<path d="M66.9002 41H71.5002C71.9002 41 72.2002 41.3 72.2002 41.7V44.4C72.2002 44.8 71.9002 45.1 71.5002 45.1H66.9002C66.5002 45.1 66.2002 44.8 66.2002 44.4V41.7C66.2002 41.3 66.5002 41 66.9002 41Z" fill="#CCCCCC"/>
<path d="M12.5 1.5H2C0.895431 1.5 0 2.39543 0 3.5V56.5C0 57.6046 0.895431 58.5 2 58.5H12.5C13.6046 58.5 14.5 57.6046 14.5 56.5V3.5C14.5 2.39543 13.6046 1.5 12.5 1.5Z" fill="#CCCCCC"/>
</svg>
