<svg width="74" height="63" viewBox="0 0 74 63" fill="none" xmlns="http://www.w3.org/2000/svg">
<path d="M44.7592 3.61914H6.65292C3.03362 3.61914 0.0996094 6.56458 0.0996094 10.198V56.0061C0.0996094 59.6395 3.03362 62.585 6.65292 62.585H44.7592C48.3785 62.585 51.3125 59.6395 51.3125 56.0061V10.198C51.3125 6.56458 48.3785 3.61914 44.7592 3.61914Z" fill="white"/>
<path d="M33.1111 10.9295H18.3055C15.6356 10.9295 13.4512 8.7366 13.4512 6.05634V1.91411C13.4512 1.0613 14.1186 0.452148 14.9075 0.452148H36.4484C37.2979 0.452148 37.9047 1.12222 37.9047 1.91411V6.05634C37.9047 8.7366 35.7203 10.9295 33.0504 10.9295H33.1111Z" fill="#CCCCCC"/>
<path d="M73.4589 21.4071L68.4226 16.3512C67.7551 15.6811 66.6022 15.6811 65.8741 16.3512L39.8429 42.4838C38.5686 43.763 37.173 48.027 36.2628 51.1337C35.8381 52.6566 37.2337 54.0576 38.7507 53.6312C41.8453 52.7175 46.0928 51.3165 47.367 50.0372L73.3982 23.9047C74.0657 23.2346 74.0657 22.0772 73.3982 21.3462L73.4589 21.4071Z" fill="#CCCCCC"/>
<path d="M17.6973 32.98L22.855 40.5944L34.8694 28.5332" stroke="#CCCCCC" stroke-width="5.4" stroke-linecap="round" stroke-linejoin="round"/>
</svg>
