<svg width="54" height="64" viewBox="0 0 54 64" fill="none" xmlns="http://www.w3.org/2000/svg">
<path d="M5.90164 0.482422H37.1803L54 17.3021V57.2562C54 60.5021 51.3443 63.1578 48.0984 63.1578H5.90164C2.65574 63.1578 0 60.5021 0 57.2562V6.38406C0 3.13816 2.65574 0.482422 5.90164 0.482422Z" fill="white"/>
<path d="M37.1797 0.482422V11.4005C37.1797 14.6464 39.8354 17.3021 43.0813 17.3021H53.9994L37.1797 0.482422Z" fill="#CCCCCC"/>
<path d="M23.1871 14.9258C23.4248 12.0347 21.2738 9.49828 18.3827 9.26059C15.4916 9.0229 12.9552 11.1739 12.7175 14.065C12.4798 16.9561 14.6308 19.4925 17.5219 19.7302C20.413 19.9679 22.9494 17.8169 23.1871 14.9258Z" fill="#CCCCCC"/>
<path d="M23.0746 31.1715H12.9237C11.4483 31.1715 10.209 29.9912 10.209 28.4567V26.3322C10.209 22.024 13.691 18.542 17.9991 18.542C22.3073 18.542 25.7893 22.024 25.7893 26.3322V28.4567C25.7893 29.9322 24.609 31.1715 23.0746 31.1715Z" fill="#CCCCCC"/>
<path d="M16.0516 43.6229H12.4516C11.2123 43.6229 10.209 42.6197 10.209 41.3803C10.209 40.141 11.2123 39.1377 12.4516 39.1377H16.0516C17.291 39.1377 18.2942 40.141 18.2942 41.3803C18.2942 42.6197 17.291 43.6229 16.0516 43.6229Z" fill="#CCCCCC"/>
<path d="M41.6055 43.6229H22.8383C21.599 43.6229 20.5957 42.6197 20.5957 41.3803C20.5957 40.141 21.599 39.1377 22.8383 39.1377H41.6055C42.8449 39.1377 43.8482 40.141 43.8482 41.3803C43.8482 42.6197 42.8449 43.6229 41.6055 43.6229Z" fill="#CCCCCC"/>
<path d="M26.204 51.119H12.5122C11.2728 51.119 10.2695 50.1158 10.2695 48.8764C10.2695 47.6371 11.2728 46.6338 12.5122 46.6338H26.204C27.4433 46.6338 28.4466 47.6371 28.4466 48.8764C28.4466 50.1158 27.4433 51.119 26.204 51.119Z" fill="#CCCCCC"/>
<path d="M34.1695 51.119H32.9301C31.6908 51.119 30.6875 50.1158 30.6875 48.8764C30.6875 47.6371 31.6908 46.6338 32.9301 46.6338H34.1695C35.4088 46.6338 36.4121 47.6371 36.4121 48.8764C36.4121 50.1158 35.4088 51.119 34.1695 51.119Z" fill="#CCCCCC"/>
</svg>
