<svg width="68" height="52" viewBox="0 0 68 52" fill="none" xmlns="http://www.w3.org/2000/svg">
<path d="M57.8501 11.7625C56.7847 12.9338 54.836 12.18 54.836 10.5967V5.1538C54.836 3.57328 52.8931 2.81814 51.8257 3.98381L44.6792 11.7885C43.6119 12.9542 41.669 12.199 41.669 10.6185V5.17559C41.669 3.59228 39.7203 2.83857 38.6549 4.0098L31.6027 11.7625C30.5373 12.9338 28.5886 12.18 28.5886 10.5967V5.16084C28.5886 3.57942 26.6438 2.82474 25.5771 3.99221L13.4496 17.2651C13.1579 17.5844 12.9961 18.0012 12.9961 18.4337V49.6394C12.9961 50.5962 13.7718 51.3719 14.7286 51.3719H66.1838C67.1407 51.3719 67.9163 50.5962 67.9163 49.6394V5.17559C67.9163 3.59228 65.9676 2.83857 64.9023 4.0098L57.8501 11.7625Z" fill="white"/>
<path d="M18.0204 23.5654H22.0052C22.3517 23.5654 22.6116 23.8253 22.6116 24.1718V26.5107C22.6116 26.8572 22.3517 27.1171 22.0052 27.1171H18.0204C17.6739 27.1171 17.4141 26.8572 17.4141 26.5107V24.1718C17.4141 23.8253 17.6739 23.5654 18.0204 23.5654Z" fill="#CCCCCC"/>
<path d="M18.0204 29.8887H22.0052C22.3517 29.8887 22.6116 30.1485 22.6116 30.495V32.8339C22.6116 33.1804 22.3517 33.4403 22.0052 33.4403H18.0204C17.6739 33.4403 17.4141 33.1804 17.4141 32.8339V30.495C17.4141 30.1485 17.6739 29.8887 18.0204 29.8887Z" fill="#CCCCCC"/>
<path d="M18.0204 36.2119H22.0052C22.3517 36.2119 22.6116 36.4718 22.6116 36.8183V39.1572C22.6116 39.5037 22.3517 39.7635 22.0052 39.7635H18.0204C17.6739 39.7635 17.4141 39.5037 17.4141 39.1572V36.8183C17.4141 36.4718 17.6739 36.2119 18.0204 36.2119Z" fill="#CCCCCC"/>
<path d="M31.62 23.5654H35.6048C35.9513 23.5654 36.2112 23.8253 36.2112 24.1718V26.5107C36.2112 26.8572 35.9513 27.1171 35.6048 27.1171H31.62C31.2735 27.1171 31.0137 26.8572 31.0137 26.5107V24.1718C31.0137 23.8253 31.2735 23.5654 31.62 23.5654Z" fill="#CCCCCC"/>
<path d="M35.6048 29.8887H31.62C31.2852 29.8887 31.0137 30.1602 31.0137 30.495V32.8339C31.0137 33.1688 31.2852 33.4403 31.62 33.4403H35.6048C35.9397 33.4403 36.2112 33.1688 36.2112 32.8339V30.495C36.2112 30.1602 35.9397 29.8887 35.6048 29.8887Z" fill="#CCCCCC"/>
<path d="M31.62 36.2119H35.6048C35.9513 36.2119 36.2112 36.4718 36.2112 36.8183V39.1572C36.2112 39.5037 35.9513 39.7635 35.6048 39.7635H31.62C31.2735 39.7635 31.0137 39.5037 31.0137 39.1572V36.8183C31.0137 36.4718 31.2735 36.2119 31.62 36.2119Z" fill="#CCCCCC"/>
<path d="M45.3075 23.5654H49.2923C49.6388 23.5654 49.8987 23.8253 49.8987 24.1718V26.5107C49.8987 26.8572 49.6388 27.1171 49.2923 27.1171H45.3075C44.961 27.1171 44.7012 26.8572 44.7012 26.5107V24.1718C44.7012 23.8253 44.961 23.5654 45.3075 23.5654Z" fill="#CCCCCC"/>
<path d="M45.3075 29.8887H49.2923C49.6388 29.8887 49.8987 30.1485 49.8987 30.495V32.8339C49.8987 33.1804 49.6388 33.4403 49.2923 33.4403H45.3075C44.961 33.4403 44.7012 33.1804 44.7012 32.8339V30.495C44.7012 30.1485 44.961 29.8887 45.3075 29.8887Z" fill="#CCCCCC"/>
<path d="M45.3075 36.2119H49.2923C49.6388 36.2119 49.8987 36.4718 49.8987 36.8183V39.1572C49.8987 39.5037 49.6388 39.7635 49.2923 39.7635H45.3075C44.961 39.7635 44.7012 39.5037 44.7012 39.1572V36.8183C44.7012 36.4718 44.961 36.2119 45.3075 36.2119Z" fill="#CCCCCC"/>
<path d="M58.9072 23.5654H62.8919C63.2384 23.5654 63.4983 23.8253 63.4983 24.1718V26.5107C63.4983 26.8572 63.2384 27.1171 62.8919 27.1171H58.9072C58.5607 27.1171 58.3008 26.8572 58.3008 26.5107V24.1718C58.3008 23.8253 58.5607 23.5654 58.9072 23.5654Z" fill="#CCCCCC"/>
<path d="M62.8919 29.8887H58.9072C58.5723 29.8887 58.3008 30.1602 58.3008 30.495V32.8339C58.3008 33.1688 58.5723 33.4403 58.9072 33.4403H62.8919C63.2268 33.4403 63.4983 33.1688 63.4983 32.8339V30.495C63.4983 30.1602 63.2268 29.8887 62.8919 29.8887Z" fill="#CCCCCC"/>
<path d="M58.9072 36.2119H62.8919C63.2384 36.2119 63.4983 36.4718 63.4983 36.8183V39.1572C63.4983 39.5037 63.2384 39.7635 62.8919 39.7635H58.9072C58.5607 39.7635 58.3008 39.5037 58.3008 39.1572V36.8183C58.3008 36.4718 58.5607 36.2119 58.9072 36.2119Z" fill="#CCCCCC"/>
<path d="M11.7852 1.99512H2.68953C1.7327 1.99512 0.957031 2.77078 0.957031 3.72762V49.6389C0.957031 50.5957 1.7327 51.3714 2.68953 51.3714H11.7852C12.742 51.3714 13.5177 50.5957 13.5177 49.6389V3.72762C13.5177 2.77078 12.742 1.99512 11.7852 1.99512Z" fill="#CCCCCC"/>
</svg>
