<svg width="60" height="70" viewBox="0 0 60 70" fill="none" xmlns="http://www.w3.org/2000/svg">
<path d="M6.55738 0H41.3115L60 18.6885V63.082C60 66.6885 57.0492 69.6393 53.4426 69.6393H6.55738C2.95082 69.6393 0 66.6885 0 63.082V6.55738C0 2.95082 2.95082 0 6.55738 0Z" fill="#86C8F9"/>
<path d="M41.3115 0V12.1311C41.3115 15.7377 44.2623 18.6885 47.8689 18.6885H60L41.3115 0Z" fill="#0072C6"/>
<path d="M25.7634 16.0491C26.0275 12.8368 23.6375 10.0186 20.4252 9.7545C17.2129 9.49039 14.3946 11.8804 14.1305 15.0927C13.8664 18.3051 16.2565 21.1233 19.4688 21.3874C22.6811 21.6515 25.4993 19.2615 25.7634 16.0491Z" fill="#0072C6"/>
<path d="M25.6388 34.0992H14.3601C12.7208 34.0992 11.3438 32.7877 11.3438 31.0828V28.7221C11.3438 23.9353 15.2126 20.0664 19.9995 20.0664C24.7864 20.0664 28.6552 23.9353 28.6552 28.7221V31.0828C28.6552 32.7221 27.3437 34.0992 25.6388 34.0992Z" fill="#0072C6"/>
<path d="M17.8356 47.9348H13.8356C12.4585 47.9348 11.3438 46.82 11.3438 45.443C11.3438 44.0659 12.4585 42.9512 13.8356 42.9512H17.8356C19.2126 42.9512 20.3274 44.0659 20.3274 45.443C20.3274 46.82 19.2126 47.9348 17.8356 47.9348Z" fill="#0072C6"/>
<path d="M46.229 47.9348H25.3766C23.9995 47.9348 22.8848 46.82 22.8848 45.443C22.8848 44.0659 23.9995 42.9512 25.3766 42.9512H46.229C47.6061 42.9512 48.7208 44.0659 48.7208 45.443C48.7208 46.82 47.6061 47.9348 46.229 47.9348Z" fill="#0072C6"/>
<path d="M29.1141 56.2629H13.901C12.5239 56.2629 11.4092 55.1482 11.4092 53.7711C11.4092 52.3941 12.5239 51.2793 13.901 51.2793H29.1141C30.4911 51.2793 31.6059 52.3941 31.6059 53.7711C31.6059 55.1482 30.4911 56.2629 29.1141 56.2629Z" fill="#0072C6"/>
<path d="M37.9665 56.2629H36.5895C35.2124 56.2629 34.0977 55.1482 34.0977 53.7711C34.0977 52.3941 35.2124 51.2793 36.5895 51.2793H37.9665C39.3436 51.2793 40.4583 52.3941 40.4583 53.7711C40.4583 55.1482 39.3436 56.2629 37.9665 56.2629Z" fill="#0072C6"/>
</svg>
