<svg width="63" height="68" viewBox="0 0 63 68" fill="none" xmlns="http://www.w3.org/2000/svg">
<path d="M31.3583 18.1127C31.3255 18.1127 31.2928 18.1127 31.2535 18.1127C31.0899 18.1062 14.5867 17.1569 12.2169 10.3161C11.6408 8.6533 11.6801 6.02823 15.1496 2.99075C16.9302 1.43273 18.7959 0.640625 20.6813 0.640625C28.4714 0.640625 32.7723 14.054 33.2371 15.5793C33.4204 16.1946 33.296 16.8558 32.9032 17.3599C32.5301 17.8378 31.9605 18.1127 31.3583 18.1127ZM20.6813 4.56841C19.7713 4.56841 18.7763 5.03319 17.7354 5.94313C16.9106 6.66322 15.5817 8.02485 15.9286 9.02644C16.6226 11.0231 22.2327 13.131 28.4648 13.9165C26.7628 9.79235 23.758 4.56186 20.6878 4.56186L20.6813 4.56841Z" fill="#0072C6"/>
<path d="M31.3582 18.1127C30.756 18.1127 30.1865 17.8378 29.8133 17.3599C29.4205 16.8558 29.2962 16.1881 29.4795 15.5793C29.9442 14.0474 34.2452 0.640625 42.0353 0.640625C43.9271 0.640625 45.7863 1.43273 47.5669 2.99075C51.0364 6.02823 51.0757 8.6533 50.4996 10.3161C48.1299 17.1569 31.6266 18.0996 31.463 18.1127C31.4302 18.1127 31.3975 18.1127 31.3582 18.1127ZM42.0287 4.56841C38.9454 4.56841 35.9472 9.7989 34.2452 13.9231C40.4772 13.1375 46.0874 11.0296 46.7813 9.03298C47.1283 8.0314 45.7994 6.66977 44.9745 5.94967C43.9337 5.03319 42.9386 4.57495 42.0287 4.57495V4.56841Z" fill="#0072C6"/>
<path d="M57.5235 23.6035H5.19241C4.10778 23.6035 3.22852 24.4828 3.22852 25.5674V65.9515C3.22852 67.0361 4.10778 67.9154 5.19241 67.9154H57.5235C58.6081 67.9154 59.4874 67.0361 59.4874 65.9515V25.5674C59.4874 24.4828 58.6081 23.6035 57.5235 23.6035Z" fill="#86C8F9"/>
<path d="M2.14261 17.4258H60.5683C61.5568 17.4258 62.3555 18.2244 62.3555 19.2129V28.6723C62.3555 29.6608 61.5568 30.4595 60.5683 30.4595H2.14261C1.15412 30.4595 0.355469 29.6608 0.355469 28.6723V19.2129C0.355469 18.2244 1.15412 17.4258 2.14261 17.4258Z" fill="#86C8F9"/>
<path d="M34.9713 17.1582H27.7441V67.9182H34.9713V17.1582Z" fill="#0072C6"/>
</svg>
