<svg width="62" height="71" viewBox="0 0 62 71" fill="none" xmlns="http://www.w3.org/2000/svg">
<path d="M24.1698 66.2822C22.2977 69.8086 17.9141 71.1477 14.3901 69.2734L6.99677 65.3462C3.47043 63.4695 2.12893 59.0905 4.00563 55.5642C5.8777 52.0378 10.2567 50.6963 13.7853 52.573L21.1809 56.5002C24.7073 58.3746 26.0488 62.7535 24.1721 66.2822H24.1698Z" fill="#86C8F9"/>
<path d="M36.9963 66.2822C38.8683 69.8086 43.252 71.1477 46.776 69.2734L54.1693 65.3462C57.6979 63.4695 59.0371 59.0905 57.1627 55.5642C55.2907 52.0378 50.9117 50.6963 47.383 52.573L39.9897 56.5002C36.4634 58.3746 35.1219 62.7535 36.9963 66.2822Z" fill="#86C8F9"/>
<path d="M60.9558 34.4408C60.1402 31.6559 57.2232 30.0619 54.4383 30.8774L39.895 35.1382C37.4645 32.8422 34.1954 31.4265 30.5856 31.4265C26.9759 31.4265 23.7067 32.8422 21.2739 35.1382L6.73064 30.8774C3.94802 30.0619 1.03103 31.6559 0.213155 34.4408C-0.6024 37.2234 0.993956 40.1428 3.77889 40.956L17.0154 44.8368C17.0154 44.8924 17.0085 44.9457 17.0085 45.0013V49.5657H44.1604V45.0013C44.1604 44.9457 44.1535 44.8924 44.1535 44.8368L57.3923 40.956C60.175 40.1404 61.7713 37.2234 60.9581 34.4408H60.9558Z" fill="#86C8F9"/>
<path d="M17.0059 49.5625V50.7951L23.1109 54.0365C26.8643 56.0313 28.5117 60.4451 27.1794 64.3467C28.2684 64.6294 29.406 64.7939 30.583 64.7939C31.76 64.7939 32.8999 64.6294 33.9889 64.3467C32.6543 60.4474 34.3016 56.0337 38.0574 54.0365L44.1601 50.7951V49.5625H17.0082H17.0059Z" fill="#0072C6"/>
<path d="M35.8497 6.41786C35.8497 6.41786 35.8544 6.41786 35.859 6.41786C38.3636 5.41463 36.8553 2.79884 36.7163 0C36.2946 1.81878 35.5949 3.50086 32.3744 3.92022C29.1539 4.33959 28.1506 5.73437 28.1506 5.73437C28.1506 5.73437 28.1715 5.739 28.1784 5.74132C20.2314 6.90673 14.124 13.7347 14.124 22.0061C14.124 31.093 21.4918 38.4631 30.5834 38.4631C39.675 38.4631 47.0405 31.093 47.0405 22.0061C47.0405 14.7588 42.3533 8.61893 35.8497 6.42018V6.41786Z" fill="#86C8F9"/>
<path d="M25.3105 22.9503C25.3105 24.03 24.4347 24.9081 23.3527 24.9081C22.2707 24.9081 21.3926 24.03 21.3926 22.9503C21.3926 21.8707 22.2684 20.9902 23.3527 20.9902C24.437 20.9902 25.3105 21.866 25.3105 22.9503Z" fill="white"/>
<path d="M39.7265 22.9503C39.7265 24.03 38.8507 24.9081 37.7687 24.9081C36.6867 24.9081 35.8086 24.03 35.8086 22.9503C35.8086 21.8707 36.6844 20.9902 37.7687 20.9902C38.853 20.9902 39.7265 21.866 39.7265 22.9503Z" fill="white"/>
<path d="M30.5832 33.4415C34.9414 33.1056 35.8565 28.7637 35.8565 28.7637H25.3076C25.3076 28.7637 26.2228 33.1056 30.5832 33.4415Z" fill="white"/>
</svg>
