<svg width="81" height="73" viewBox="0 0 81 73" fill="none" xmlns="http://www.w3.org/2000/svg">
<path d="M70.8738 21.9382V48.0932C70.8738 61.5934 59.9045 72.5599 46.4071 72.5599C32.9097 72.5599 21.9404 61.5906 21.9404 48.0932V43.874C21.9404 42.9456 22.7003 42.1858 23.6287 42.1858C24.5571 42.1858 25.3169 42.9456 25.3169 43.874V48.0932C25.3169 59.7195 34.7837 69.1862 46.41 69.1862C58.0363 69.1862 67.503 59.7195 67.503 48.0932V21.9382C67.503 21.0099 68.2629 20.25 69.1913 20.25C70.1197 20.25 70.8795 21.0099 70.8795 21.9382H70.8738Z" fill="#86C8F9"/>
<path d="M70.625 12.7025C71.1152 11.9093 70.8697 10.869 70.0766 10.3788C69.2834 9.88855 68.2431 10.1341 67.7529 10.9272C67.2626 11.7203 67.5082 12.7607 68.3013 13.2509C69.0944 13.7411 70.1348 13.4956 70.625 12.7025Z" fill="#0072C6"/>
<path d="M69.188 0C62.6749 0 57.376 5.29897 57.376 11.812C57.376 18.325 62.6749 23.624 69.188 23.624C75.701 23.624 81 18.325 81 11.812C81 5.29897 75.701 0 69.188 0ZM69.188 16.8739C66.3971 16.8739 64.1261 14.6029 64.1261 11.812C64.1261 9.02111 66.3971 6.75012 69.188 6.75012C71.9789 6.75012 74.2499 9.02111 74.2499 11.812C74.2499 14.6029 71.9789 16.8739 69.188 16.8739Z" fill="#0072C6"/>
<path d="M47.1497 12.9943C47.1326 13.0458 47.1326 13.1115 47.1154 13.1629L42.5763 29.294C40.9052 38.7265 32.9582 45.5595 23.6257 45.5595C14.2932 45.5595 6.34619 38.7265 4.67508 29.294L0.138818 13.1629C0.121679 13.1115 0.121679 13.0458 0.104539 12.9943C-0.249678 10.9862 0.307357 8.9437 1.60711 7.40971C2.85544 5.92429 4.67794 5.06445 6.60043 5.06445H10.1283C11.0567 5.06445 11.8166 5.82431 11.8166 6.7527C11.8166 7.68109 11.0567 8.44094 10.1283 8.44094H6.60043C5.65489 8.44094 4.8122 8.84658 4.18661 9.58929C3.54673 10.3491 3.25821 11.3432 3.40961 12.3402L7.94874 28.4714C7.96588 28.5228 7.98302 28.5885 7.98302 28.6399C9.33418 36.4869 15.9129 42.1887 23.6257 42.1887C31.3385 42.1887 37.9172 36.4841 39.2684 28.6399C39.2684 28.5885 39.2855 28.5228 39.3027 28.4714L43.8418 12.3402C43.9932 11.3432 43.7075 10.3491 43.0648 9.58929C42.4392 8.84658 41.5965 8.44094 40.651 8.44094H37.1231C36.1947 8.44094 35.4348 7.68109 35.4348 6.7527C35.4348 5.82431 36.1947 5.06445 37.1231 5.06445H40.651C42.5735 5.06445 44.396 5.92429 45.6443 7.40971C46.944 8.94656 47.5011 10.9862 47.1469 12.9943H47.1497Z" fill="#86C8F9"/>
<path d="M18.5661 6.75223C18.5661 9.53741 16.2894 11.8141 13.5043 11.8141H10.1306C9.20224 11.8141 8.44238 11.0543 8.44238 10.1259V3.37574C8.44238 2.44735 9.20224 1.6875 10.1306 1.6875H13.5043C16.2894 1.6875 18.5661 3.9642 18.5661 6.74938V6.75223Z" fill="#0072C6"/>
<path d="M38.8132 3.37484V10.125C38.8132 11.0534 38.0534 11.8132 37.125 11.8132H33.7513C30.9662 11.8132 28.6895 9.53651 28.6895 6.75133C28.6895 3.96616 30.9662 1.68945 33.7513 1.68945H37.125C38.0534 1.68945 38.8132 2.44931 38.8132 3.3777V3.37484Z" fill="#0072C6"/>
</svg>
