<svg width="46" height="72" viewBox="0 0 46 72" fill="none" xmlns="http://www.w3.org/2000/svg">
<path d="M41.6104 0H3.92532C1.75742 0 0 1.75742 0 3.92532V68.0285C0 70.1964 1.75742 71.9538 3.92532 71.9538H41.6104C43.7783 71.9538 45.5358 70.1964 45.5358 68.0285V3.92532C45.5358 1.75742 43.7783 0 41.6104 0Z" fill="#0072C6"/>
<path d="M45.5358 10.5605H0V61.3924H45.5358V10.5605Z" fill="#86C8F9"/>
<path d="M22.7678 69.5239C24.345 69.5239 25.6236 68.2454 25.6236 66.6682C25.6236 65.091 24.345 63.8125 22.7678 63.8125C21.1907 63.8125 19.9121 65.091 19.9121 66.6682C19.9121 68.2454 21.1907 69.5239 22.7678 69.5239Z" fill="#86C8F9"/>
<path d="M26.9427 4.21094H18.5936C17.8796 4.21094 17.3008 4.78977 17.3008 5.5038C17.3008 6.21783 17.8796 6.79666 18.5936 6.79666H26.9427C27.6568 6.79666 28.2356 6.21783 28.2356 5.5038C28.2356 4.78977 27.6568 4.21094 26.9427 4.21094Z" fill="#86C8F9"/>
</svg>
