<svg width="75" height="72" viewBox="0 0 75 72" fill="none" xmlns="http://www.w3.org/2000/svg">
<path d="M7.97366 47.5332H5.57422V71.5277H7.97366V47.5332Z" fill="#0072C6"/>
<path d="M43.8945 62.4498C43.8945 63.3136 44.5984 64.0174 45.4622 64.0174C46.326 64.0174 47.0298 63.3136 47.0298 62.4498V32.6087C47.0298 31.7449 46.326 31.041 45.4622 31.041C44.5984 31.041 43.8945 31.7449 43.8945 32.6087V62.4498Z" fill="#0072C6"/>
<path d="M45.454 4.0957C61.6662 4.0957 74.8152 17.2447 74.8152 33.4569H16.0928C16.0928 17.2447 29.2417 4.0957 45.454 4.0957Z" fill="#86C8F9"/>
<path d="M45.4535 4.0957C56.6189 4.0957 65.6728 17.2447 65.6728 33.4569H25.2422C25.2422 17.2447 34.2961 4.0957 45.4615 4.0957H45.4535Z" fill="#0072C6"/>
<path d="M45.4536 4.0957C49.9726 4.0957 53.6357 17.2447 53.6357 33.4569H37.2715C37.2715 17.2447 40.9346 4.0957 45.4536 4.0957Z" fill="#86C8F9"/>
<path d="M43.8945 4.69491C43.8945 5.55871 44.5984 6.26255 45.4622 6.26255C46.326 6.26255 47.0298 5.55871 47.0298 4.69491V1.56764C47.0298 0.703837 46.326 0 45.4622 0C44.5984 0 43.8945 0.703837 43.8945 1.56764V4.69491Z" fill="#0072C6"/>
<path d="M74.8149 69.3515V65.1285C74.8149 61.1854 71.6156 57.9941 67.6805 57.9941H32.5847C28.6416 57.9941 32.3127 61.1934 32.3127 65.1285" fill="#86C8F9"/>
<path d="M40.8703 71.2477L43.3418 67.8245C45.6532 64.6252 44.9254 60.1622 41.7341 57.8588L13.7086 37.6234C10.5093 35.312 6.04638 36.0398 3.74291 39.2311L1.27148 42.6543" fill="#86C8F9"/>
<path d="M0 44.423L36.8475 70.9368L43.038 68.2495L3.43121 39.6641L0 44.423Z" fill="#0072C6"/>
<path d="M74.8145 65.6562H29.457V71.5269H74.8145V65.6562Z" fill="#0072C6"/>
</svg>
