<svg width="70" height="70" viewBox="0 0 70 70" fill="none" xmlns="http://www.w3.org/2000/svg">
<path d="M70 35.004C70 54.3332 54.3332 70.0079 34.996 70.0079C15.6588 70.0079 0 54.3332 0 35.004C0 15.6747 15.6668 0 34.996 0C54.3253 0 70 15.6747 70 35.004Z" fill="#86C8F9"/>
<mask id="mask0_2426_7368" style="mask-type:luminance" maskUnits="userSpaceOnUse" x="0" y="0" width="70" height="71">
<path d="M70 35.004C70 54.3332 54.3332 70.0079 34.996 70.0079C15.6588 70.0079 0 54.3332 0 35.004C0 15.6747 15.6668 0 34.996 0C54.3253 0 70 15.6747 70 35.004Z" fill="white"/>
</mask>
<g mask="url(#mask0_2426_7368)">
<path d="M0 68.6484V67.6633C13.5773 67.6633 24.6204 53.0134 24.6204 35.003C24.6204 16.9926 13.5773 2.33474 0 2.33474V1.34961C14.1255 1.34961 25.6134 16.4444 25.6134 35.003C25.6134 53.5616 14.1255 68.6484 0 68.6484Z" fill="#0072C6"/>
<path d="M17.2637 62.8177L13.7045 59.3936C14.1256 58.9645 14.5307 58.5038 14.9121 58.0509L18.6937 61.2288C18.2329 61.769 17.7562 62.3092 17.2637 62.8177ZM20.0205 59.5524L16.0402 56.6209C16.3977 56.1363 16.7393 55.6357 17.073 55.1193L21.228 57.7967C20.8388 58.4005 20.4415 58.9884 20.0205 59.5524ZM22.3165 55.9774L18.0105 53.5543C18.3044 53.022 18.5984 52.4817 18.8685 51.9256L23.3016 54.1024C22.9917 54.738 22.6581 55.3577 22.3165 55.9694V55.9774ZM24.1834 52.1878L19.6391 50.2572C19.8775 49.6932 20.0999 49.1212 20.3144 48.5412L24.9541 50.2334C24.7078 50.8928 24.4536 51.5522 24.1834 52.1878ZM25.6214 48.2393L20.9023 46.7854C21.085 46.1975 21.2519 45.6017 21.4028 44.9979L26.1855 46.2214C26.0107 46.9046 25.82 47.572 25.6135 48.2393H25.6214ZM26.6622 44.1876L21.8239 43.1865C21.951 42.5907 22.0543 41.979 22.1576 41.3593L27.0356 42.122C26.9243 42.8131 26.8052 43.5043 26.6622 44.1876ZM27.3136 40.0564L22.4038 39.5161C22.4674 38.9044 22.523 38.2847 22.5627 37.6571L27.4884 37.9749C27.4407 38.674 27.3851 39.3652 27.3057 40.0564H27.3136ZM27.5758 35.8854L22.6342 35.798C22.6342 35.5359 22.6342 35.2658 22.6342 34.9956C22.6342 34.6381 22.6342 34.2806 22.6183 33.9311L27.552 33.8039C27.5599 34.2012 27.5678 34.5984 27.5678 34.9956C27.5678 35.2896 27.5678 35.5915 27.5678 35.8854H27.5758ZM22.5468 32.072C22.4992 31.4444 22.4436 30.8247 22.3721 30.213L27.2739 29.641C27.3533 30.3242 27.4169 31.0154 27.4646 31.7145L22.5389 32.072H22.5468ZM22.1178 28.3698C22.0146 27.7581 21.9033 27.1464 21.7762 26.5426L26.6065 25.5098C26.7495 26.193 26.8767 26.8762 26.9958 27.5674L22.1258 28.3619L22.1178 28.3698ZM21.3393 24.7312C21.1804 24.1354 21.0135 23.5395 20.8229 22.9516L25.5261 21.458C25.7326 22.1174 25.9313 22.7927 26.114 23.476L21.3393 24.7233V24.7312ZM20.2191 21.2117C20.0046 20.6318 19.7742 20.0598 19.5279 19.5036L24.0563 17.5334C24.3344 18.1769 24.5966 18.8284 24.8428 19.4878L20.2111 21.2117H20.2191ZM18.7493 17.8273C18.4713 17.2712 18.1853 16.7389 17.8834 16.2066L22.1655 13.7517C22.5151 14.3555 22.8487 14.9832 23.1665 15.6187L18.7493 17.8273ZM16.9221 14.6495C16.5884 14.141 16.2388 13.6405 15.8813 13.1638L19.8298 10.2005C20.2509 10.7646 20.664 11.3525 21.0533 11.9483L16.9221 14.6495ZM14.7452 11.7497C14.348 11.2889 13.9428 10.844 13.5218 10.4229L17.0412 6.9591C17.5338 7.45961 18.0264 7.9919 18.4951 8.54008L14.7452 11.7576V11.7497ZM9.37467 7.07827C8.88211 6.76843 8.36571 6.48242 7.84931 6.22025L10.0659 1.81099C10.7173 2.13672 11.3608 2.50217 11.9805 2.88351L9.36673 7.07827H9.37467ZM6.25244 5.51318C5.71221 5.30662 5.16403 5.11595 4.61585 4.95705L5.95849 0.206174C6.65762 0.40479 7.36469 0.643128 8.05587 0.913245L6.25244 5.51318ZM2.93954 4.57571C2.37547 4.48038 1.80346 4.40093 1.23145 4.36121L1.5969 -0.564453C2.3278 -0.508841 3.0746 -0.42145 3.8055 -0.294336L2.94748 4.56777L2.93954 4.57571Z" fill="#0072C6"/>
<path d="M70.0002 68.6484C55.8746 68.6484 44.3867 53.5537 44.3867 35.003C44.3867 16.4523 55.8746 1.34961 70.0002 1.34961V2.33474C56.4228 2.33474 45.3798 16.9846 45.3798 34.995C45.3798 53.0055 56.4228 67.6554 70.0002 67.6554V68.6405V68.6484Z" fill="#0072C6"/>
<path d="M51.3062 61.2288L55.0878 58.0509C55.4691 58.5117 55.8823 58.9645 56.2954 59.3936L52.7362 62.8177C52.2436 62.3013 51.759 61.769 51.3062 61.2288ZM48.7798 57.7967L52.9348 55.1193C53.2685 55.6357 53.6101 56.1363 53.9676 56.6209L49.9874 59.5524C49.5742 58.9884 49.1691 58.4005 48.7798 57.7967ZM46.6983 54.1104L51.1314 51.9336C51.4015 52.4897 51.6955 53.0299 51.9894 53.5622L47.6834 55.9853C47.3418 55.3736 47.0161 54.7539 46.6983 54.1183V54.1104ZM45.0458 50.2334L49.6855 48.5412C49.9 49.1212 50.1224 49.6932 50.3687 50.2572L45.8244 52.1878C45.5543 51.5443 45.2921 50.8928 45.0538 50.2334H45.0458ZM43.8065 46.2214L48.5891 44.9979C48.7401 45.6017 48.9148 46.1975 49.0896 46.7854L44.3705 48.2393C44.164 47.5799 43.9733 46.9046 43.7985 46.2214H43.8065ZM42.9643 42.122L47.8423 41.3593C47.9377 41.979 48.0489 42.5827 48.176 43.1865L43.3377 44.1876C43.1947 43.5043 43.0756 42.8211 42.9643 42.122ZM42.5115 37.9749L47.4451 37.6571C47.4848 38.2768 47.5404 38.8964 47.604 39.5161L42.6942 40.0564C42.6148 39.3731 42.5591 38.674 42.5115 37.9749ZM42.4161 35.0036C42.4161 34.6064 42.4161 34.2091 42.432 33.8119L47.3656 33.939C47.3656 34.2965 47.3498 34.6461 47.3498 35.0036C47.3498 35.2737 47.3498 35.5359 47.3498 35.806L42.4082 35.8934C42.4082 35.5994 42.4082 35.3055 42.4082 35.0036H42.4161ZM42.5274 31.7145C42.575 31.0154 42.6386 30.3242 42.718 29.641L47.6278 30.213C47.5563 30.8247 47.5007 31.4523 47.453 32.072L42.5274 31.7145ZM43.012 27.5754C43.1232 26.8842 43.2503 26.201 43.3933 25.5177L48.2237 26.5505C48.0965 27.1543 47.9774 27.7581 47.882 28.3778L43.012 27.5833V27.5754ZM43.878 23.4839C44.0527 22.8007 44.2514 22.1254 44.4659 21.466L49.1691 22.9596C48.9863 23.5475 48.8116 24.1354 48.6606 24.7391L43.8859 23.4918L43.878 23.4839ZM45.1491 19.4798C45.3954 18.8125 45.6575 18.161 45.9356 17.5254L50.464 19.4957C50.2178 20.0518 49.9874 20.6238 49.7729 21.2038L45.1411 19.4798H45.1491ZM46.8334 15.6187C47.1511 14.9832 47.4848 14.3635 47.8344 13.7517L52.1165 16.2066C51.8146 16.731 51.5286 17.2712 51.2506 17.8273L46.8334 15.6187ZM48.9466 11.9483C49.3359 11.3525 49.749 10.7646 50.1701 10.2005L54.1186 13.1638C53.7611 13.6405 53.4115 14.141 53.0778 14.6495L48.9466 11.9483ZM51.5048 8.53213C51.9735 7.98395 52.4581 7.45961 52.9587 6.95115L56.4781 10.415C56.065 10.8361 55.6519 11.281 55.2546 11.7418L51.5048 8.52419V8.53213ZM58.0194 2.88351C58.639 2.50217 59.2826 2.13672 59.934 1.81099L62.1585 6.22025C61.6421 6.48242 61.1257 6.76843 60.6331 7.07827L58.0194 2.88351ZM61.944 0.913245C62.6352 0.643128 63.3423 0.40479 64.0414 0.206174L65.384 4.95705C64.8359 5.11595 64.2877 5.29867 63.7474 5.51318L61.944 0.913245ZM66.2023 -0.294336C66.9332 -0.429395 67.6721 -0.516785 68.4109 -0.564453L68.7764 4.36121C68.2044 4.40093 67.6324 4.47243 67.0683 4.57571L66.2103 -0.286392L66.2023 -0.294336Z" fill="#0072C6"/>
</g>
</svg>
