<svg width="70" height="61" viewBox="0 0 70 61" fill="none" xmlns="http://www.w3.org/2000/svg">
<path fill-rule="evenodd" clip-rule="evenodd" d="M34.9112 14.5684L59.8739 39.2446C60.0621 39.4272 60.1654 39.6767 60.1654 39.9384V60.0141C60.1654 60.5557 59.7282 60.9938 59.1877 60.9938H44.9242C44.3838 60.9938 43.9466 60.5557 43.9466 60.0141V38.6178C43.9466 38.0762 43.5094 37.6381 42.969 37.6381H27.4121C26.8716 37.6381 26.4344 38.0762 26.4344 38.6178V60.0141C26.4344 60.5557 25.9972 60.9938 25.4568 60.9938H11.4483C10.9079 60.9938 10.4707 60.5557 10.4707 60.0141V39.3663C10.4707 39.1047 10.5739 38.8552 10.7561 38.6726L34.9112 14.5684Z" fill="#86C8F9"/>
<path fill-rule="evenodd" clip-rule="evenodd" d="M34.8619 0L0.28691 34.3703C-0.0956367 34.7476 -0.0956367 35.3683 0.28691 35.7517L3.11654 38.6118C3.49302 38.9952 4.11238 38.9952 4.49493 38.6118L34.3154 8.96987C34.6979 8.59258 35.3112 8.59258 35.6877 8.96987L65.5081 38.624C65.8907 39.0013 66.51 39.0013 66.8865 38.624L69.7161 35.7639C70.0926 35.3805 70.0926 34.7598 69.7161 34.3825L60.45 25.1692C60.2678 24.9866 60.1646 24.7371 60.1646 24.4755V10.8685C60.1646 10.3269 59.7274 9.88877 59.187 9.88877H52.4712C51.9307 9.88877 51.4935 10.3269 51.4935 10.8685V13.9234C51.4935 14.7936 50.4491 15.2257 49.8298 14.6171L35.1473 0H34.8619Z" fill="#0072C6"/>
</svg>
