<svg width="60" height="61" viewBox="0 0 60 61" fill="none" xmlns="http://www.w3.org/2000/svg">
<path d="M43.0089 13.7305H3.50229C1.56803 13.7305 0 15.2985 0 17.2328V56.7394C0 58.6737 1.56803 60.2417 3.50229 60.2417H43.0089C44.9432 60.2417 46.5112 58.6737 46.5112 56.7394V17.2328C46.5112 15.2985 44.9432 13.7305 43.0089 13.7305Z" fill="#86C8F9"/>
<path d="M15.8432 46.6365L22.9184 46.6749C23.5213 46.6749 24.0986 46.4376 24.5284 46.0143L50.6224 19.9202C51.5012 19.0415 51.5012 17.611 50.6224 16.7258L43.5088 9.61221C42.63 8.73343 41.1996 8.73343 40.3144 9.61221L14.2204 35.7062C13.797 36.1296 13.5533 36.7133 13.5597 37.3162L13.5982 44.3914C13.6046 45.6294 14.6053 46.63 15.8432 46.6365Z" fill="#0072C6"/>
<path d="M48.0939 1.82501L46.5155 3.40343C45.6338 4.28519 45.6338 5.71481 46.5155 6.59657L53.632 13.7131C54.5138 14.5948 55.9434 14.5948 56.8252 13.7131L58.4036 12.1347C59.2854 11.2529 59.2854 9.82329 58.4036 8.94153L51.2871 1.825C50.4053 0.943244 48.9757 0.943246 48.0939 1.82501Z" fill="#0072C6"/>
</svg>
