<svg width="74" height="71" viewBox="0 0 74 71" fill="none" xmlns="http://www.w3.org/2000/svg">
<path d="M25.5423 15.0071H20.835V7.18347C20.835 3.21985 24.0548 0 28.0184 0H45.4075C49.3711 0 52.5909 3.21985 52.5909 7.18347V14.5364H47.8836V7.18347C47.8836 5.81833 46.7726 4.70738 45.4075 4.70738H28.0184C26.6533 4.70738 25.5423 5.81833 25.5423 7.18347V15.0071Z" fill="#0072C6"/>
<path d="M0 41.7637V60.3767C0 66.2138 4.73561 70.9494 10.5728 70.9494H63.4272C69.2644 70.9494 74 66.2138 74 60.3767V41.7637H0.00942396H0Z" fill="#0072C6"/>
<path d="M74 24.4419C74 18.6048 69.2644 13.8691 63.4272 13.8691H10.5728C4.73561 13.8691 0 18.6048 0 24.4419V42.5465H73.9906V24.4419H74Z" fill="#86C8F9"/>
<path d="M48.4102 39.1271H41.6128V32.5273H33.8927V39.1271H27.2646V46.3953H33.8927V52.449H41.6128V46.3953H48.4102V39.1271Z" fill="#F7F7F7"/>
</svg>
