<svg width="74" height="64" viewBox="0 0 74 64" fill="none" xmlns="http://www.w3.org/2000/svg">
<path d="M61.2916 21.9082H13.7246V49.8895L34.914 59.6611C36.544 60.3711 38.3158 60.319 40.1006 59.6611L61.2916 49.8895V21.9082Z" fill="#0072C6"/>
<path d="M6.14363 22.4766H4.51367V48.5299H6.14363V22.4766Z" fill="#86C8F9"/>
<path d="M5.32925 46.9023C3.52815 46.9023 2.06934 48.2799 2.06934 49.9799V63.9998H8.58916V49.9799C8.58916 48.2799 7.13035 46.9023 5.32925 46.9023Z" fill="#86C8F9"/>
<path d="M72.6449 16.8596L39.8339 0.836834C37.8567 -0.319282 36.2089 -0.237865 34.367 0.836834L1.55599 16.8596C-0.411365 17.8399 -0.623259 21.3441 1.55599 22.396L34.367 38.4188C36.0328 39.202 38.1941 39.2736 39.8339 38.4188L72.6449 22.396C74.4411 21.2903 74.459 17.9278 72.6449 16.8596Z" fill="#86C8F9"/>
</svg>
