<svg width="71" height="71" viewBox="0 0 71 71" fill="none" xmlns="http://www.w3.org/2000/svg">
<path d="M35.5 70.5C54.83 70.5 70.5 54.83 70.5 35.5C70.5 16.17 54.83 0.5 35.5 0.5C16.17 0.5 0.5 16.17 0.5 35.5C0.5 54.83 16.17 70.5 35.5 70.5Z" fill="#0072C6"/>
<path d="M35.5 66C18.6819 66 5 52.3181 5 35.5C5 18.6819 18.6819 5 35.5 5C52.3181 5 66 18.6819 66 35.5C66 52.3181 52.3181 66 35.5 66Z" fill="#86C8F9"/>
<path d="M38.0805 35.9886C39.2772 35.9886 40.2438 35.5859 40.9802 34.7804C41.7397 33.9749 42.1194 32.9393 42.1194 31.6736C42.1194 30.4078 41.7397 29.3722 40.9802 28.5667C40.2438 27.7612 39.2772 27.3585 38.0805 27.3585H33.006V35.9886H38.0805ZM38.2531 22.8708C40.0252 22.8708 41.6016 23.2505 42.9824 24.01C44.3633 24.7464 45.4334 25.782 46.1928 27.1168C46.9753 28.4516 47.3665 29.9705 47.3665 31.6736C47.3665 33.3766 46.9753 34.8955 46.1928 36.2303C45.4334 37.5651 44.3633 38.6122 42.9824 39.3716C41.6016 40.1081 40.0252 40.4763 38.2531 40.4763H33.006V49.0374H27.7589V22.8708H38.2531Z" fill="#0072C6"/>
</svg>
