<svg width="113" height="53" viewBox="0 0 113 53" fill="none" xmlns="http://www.w3.org/2000/svg">
<g clip-path="url(#clip0_640_64)">
<path d="M104.977 37.9841V34.8733H102.931V37.9139C102.931 38.7559 103.605 39.4342 104.442 39.4342H104.838H104.977H113V38.0074H104.977V37.9841Z" fill="white"/>
<path d="M45.7446 25.8217C43.0237 25.8217 41.3027 28.1606 41.3027 31.0375C41.3027 33.9143 43.0237 36.2766 45.7446 36.2766C48.4655 36.2766 50.1865 33.9377 50.1865 31.0375C50.1865 28.1606 48.4655 25.8217 45.7446 25.8217ZM45.7446 34.8031C44.0469 34.8031 43.4423 33.1191 43.4423 31.0375C43.4423 28.9558 44.0469 27.2718 45.7446 27.2718C47.4423 27.2718 48.0469 28.9558 48.0469 31.0375C48.0469 33.1191 47.4423 34.8031 45.7446 34.8031Z" fill="white"/>
<path d="M51.791 39.4108H52.3259C53.1399 39.4108 53.8143 38.7325 53.8143 37.9139V25.9854H51.791V39.4108Z" fill="white"/>
<path d="M89.8374 25.8217C87.1164 25.8217 85.3955 28.1606 85.3955 31.0375C85.3955 33.9143 87.1164 36.2766 89.8374 36.2766C92.5583 36.2766 94.2792 33.9377 94.2792 31.0375C94.2792 28.1606 92.535 25.8217 89.8374 25.8217ZM89.8374 34.8031C88.1397 34.8031 87.535 33.1191 87.535 31.0375C87.535 28.9558 88.1397 27.2718 89.8374 27.2718C91.535 27.2718 92.1397 28.9558 92.1397 31.0375C92.1397 33.1191 91.535 34.8031 89.8374 34.8031Z" fill="white"/>
<path d="M95.8838 39.4108H96.4187C97.2326 39.4108 97.907 38.7325 97.907 37.9139V25.9854H95.8838V39.4108Z" fill="white"/>
<path d="M110.698 35.6217H112.745V26.0088H110.698V27.8097H108.559V29.2599H110.698V30.3592H108.559V31.8093H110.698V35.6217Z" fill="white"/>
<path d="M64.1866 33.0021H68.8377V31.5754H59.5354V26.0322H57.4889V31.5052C57.4889 32.3239 58.1633 33.0021 58.9773 33.0021H62.1168V36.5573H56.4424V37.9841H69.8145V36.5573H64.1866V33.0021Z" fill="white"/>
<path d="M81.3027 39.4342H81.8376C82.6516 39.4342 83.326 38.7559 83.326 37.9373V26.0789H81.3027V39.4342Z" fill="white"/>
<path d="M78.2325 29.7042H76.9767V26.0321H75.1162V29.6808H72.9767V26.0321H71.1162V34.0546C71.1162 34.8732 71.7906 35.5515 72.6046 35.5515H75.4651C76.279 35.5515 76.9534 34.8732 76.9534 34.0546V31.1543H78.2092V39.4341H78.7441C79.5581 39.4341 80.2325 38.7558 80.2325 37.9372V26.0789H78.2092V29.7042H78.2325ZM75.093 34.1248H72.9534V31.1076H75.093V34.1248Z" fill="white"/>
<path d="M106.722 32.7683C106.908 33.1893 107.419 33.353 107.861 33.353H109.21L105.605 25.962H104.303C103.861 25.962 103.396 26.1024 103.163 26.5468L99.8379 33.353H102.14L104.582 28.184L106.722 32.7683Z" fill="white"/>
<path d="M7.44186 29.1898C6.04651 28.5349 4.88372 27.9969 4.88372 26.921C4.88372 26.1024 5.53488 25.4943 6.83721 25.4943C7.32558 25.4943 7.69768 25.541 8.11628 25.6346C8.32558 25.6814 8.55814 25.7048 8.74419 25.7048C9.88372 25.7048 10.5116 25.0265 10.9535 23.7401L11.1395 23.2021C10.9535 23.1319 9.11628 22.3133 6.69767 22.3133C2.86047 22.3133 0.837209 24.7926 0.837209 27.3654C0.837209 28.6752 1.23256 29.6108 1.88372 30.3358C2.69767 31.2948 3.86047 31.9029 4.95349 32.4409C6.53488 33.2127 7.97674 33.7974 7.97674 34.9669C7.97674 35.996 6.93023 36.5808 5.51163 36.5808C3.5814 36.5808 1.88372 35.4815 1.67442 35.3411L0 38.3116C0.27907 38.4753 2.32558 39.7851 5.69767 39.7851C9.27907 39.7851 12 37.7268 12 34.5225C12 31.365 9.48837 30.1955 7.44186 29.1898Z" fill="white"/>
<path d="M21.4652 30.6633L27.9768 22.6408H23.3489L18.1396 29.564H18.0698V22.6408H14.2559V39.6214H14.4884C16.1396 39.6214 18.1163 38.8495 18.1163 36.0662V32.1602H18.1861L23.4652 39.3875H28.3256L21.4652 30.6633Z" fill="white"/>
<path d="M28.1861 4.44395C26.8373 4.70124 24.8373 5.91748 24.8605 8.09267C24.8605 10.0574 26.4652 11.2502 26.4652 13.8464C26.4652 15.7877 25.4187 17.0975 24.2559 17.8226C24.721 17.7758 25.2326 17.7524 25.7907 17.7524C26.9768 17.7524 27.6745 17.8694 27.721 17.8694L33.7442 10.4316C32.0698 7.90556 30.1163 5.94087 28.1861 4.44395Z" fill="white"/>
<path d="M33.2553 24.5587C34.0227 23.3658 34.1158 21.4713 34.1855 19.5534C34.2553 17.7524 34.6274 16.3958 37.0227 16.3958C37.5576 16.3958 38.0692 16.466 38.9762 16.466C42.4879 16.4426 44.7669 15.2264 46.2088 14.4311C43.3018 12.56 39.046 10.6655 33.7669 10.455C33.4181 11.4373 30.7437 18.8985 30.5576 19.5066C30.5809 19.53 31.046 20.0679 31.6506 21.0971C32.4879 22.477 32.953 23.6933 33.2553 24.5587Z" fill="white"/>
<path d="M20.5116 18.4541C20.2092 18.4541 20.0464 18.2436 19.9999 17.8928C19.9534 17.5419 18.4418 3.64872 18.2325 1.56708C18.2092 1.26302 18.1395 0.701677 18.1162 0.491174C18.1162 0.163725 18.3255 0 18.5813 0C19.3023 0 23.186 0.91218 27.3255 3.83583C26.1395 4.16328 23.9767 5.4263 23.9767 7.99912C23.9767 10.2913 25.6046 11.5309 25.6278 13.823C25.6511 17.5419 21.3953 18.4541 20.5116 18.4541Z" fill="white"/>
<path d="M33.6045 25.541C33.6743 25.7048 33.7208 25.8685 33.7905 25.962C33.8836 26.1258 33.9998 26.1959 34.1626 26.1959C34.2557 26.1959 34.3719 26.1725 34.5115 26.1024C34.837 25.962 47.4184 20.068 49.3254 19.1792C49.6045 19.0388 50.1161 18.8049 50.3022 18.7114C50.4882 18.6178 50.558 18.4541 50.558 18.3138C50.558 18.2202 50.5347 18.15 50.4882 18.0565C50.2557 17.6823 49.0231 16.3725 46.9998 14.9457C45.3719 15.8345 42.8603 17.2379 39.0929 17.2379C38.1626 17.2379 37.9533 17.1677 37.3254 17.1911C35.4882 17.1911 35.0231 17.9863 34.9533 19.6002C34.9301 19.9042 34.9301 20.3252 34.9301 20.7696C34.8603 22.2198 34.6975 24.2079 33.6045 25.541Z" fill="white"/>
<path d="M59.1392 53C57.6508 53 56.7671 52.4153 56.5811 52.2984L57.2322 51.1055C57.6741 51.4096 58.302 51.737 59.0694 51.737C59.6973 51.737 60.4183 51.4797 60.4183 50.8014C60.4183 49.632 58.4415 49.4215 57.4415 48.2988C57.1159 47.9246 56.9066 47.4568 56.9066 46.8253C56.9066 45.609 57.8601 44.5565 59.5578 44.5565C60.7206 44.5565 61.6508 44.9541 61.7438 45.0009C61.7438 45.0009 61.6973 45.1179 61.6276 45.305C61.488 45.726 61.1392 46.0768 60.395 45.9131C60.1392 45.8429 59.9299 45.8195 59.6276 45.8195C58.9764 45.8195 58.4415 46.1002 58.4415 46.6615C58.4415 48.1818 61.9764 48.0883 61.9764 50.6377C61.9997 52.0411 60.7438 53 59.1392 53Z" fill="white"/>
<path d="M42.8368 45.9131V52.8597H41.3252V44.6735H47.0694C47.0694 44.6735 47.0694 44.9074 47.0694 44.9307C47.0694 45.5389 46.6275 45.9131 46.0461 45.9131H42.8368Z" fill="white"/>
<path d="M47.0461 51.5967H41.3252V52.8597H47.0461V51.5967Z" fill="white"/>
<path d="M46.7671 47.9947H42.6741V49.2578H46.7671V47.9947Z" fill="white"/>
<path d="M52.5577 51.433C52.2321 50.9418 51.86 50.3804 51.4879 49.8191C51.3716 49.632 51.2321 49.4449 51.0925 49.2578C50.6507 49.5852 50.2786 49.9828 50.2786 50.5442C50.2786 51.1523 50.6972 51.6902 51.5809 51.6902C51.9298 51.6902 52.2553 51.5967 52.5577 51.433ZM54.4181 51.6435C54.6972 52.0411 54.9298 52.3685 55.0925 52.6024C55.046 52.6492 54.9763 52.696 54.9298 52.7427C54.7902 52.8363 54.5344 53 54.1856 53C53.7205 53 53.4646 52.7661 53.3251 52.579C53.3019 52.5556 53.3019 52.5322 53.2786 52.5089C52.7437 52.8129 52.0925 53 51.3716 53C49.767 53 48.8135 51.9241 48.8135 50.6611C48.8135 49.4683 49.6274 48.79 50.4414 48.252C50.046 47.5971 49.7437 46.9656 49.7437 46.4277C49.7437 45.3985 50.4414 44.5565 51.8135 44.5565C53.2088 44.5565 53.8367 45.3751 53.8367 46.147C53.8367 47.0826 53.3716 47.6439 52.1856 48.5093C52.3484 48.7666 52.5344 49.0005 52.6739 49.211C52.9995 49.6788 53.3484 50.1699 53.6507 50.6143C54.0925 50.1465 54.3949 49.6788 54.5112 49.4916L55.5809 50.0998C55.4414 50.357 55.0693 51.0119 54.4181 51.6435ZM51.5577 47.5036C52.1856 47.0592 52.5344 46.7317 52.5344 46.3107C52.5344 46.0067 52.3251 45.7026 51.8367 45.7026C51.4646 45.7026 51.1623 45.9833 51.1623 46.4043C51.1623 46.7083 51.3251 47.0826 51.5577 47.5036Z" fill="white"/>
</g>
<defs>
<clipPath id="clip0_640_64">
<rect width="113" height="53" fill="white"/>
</clipPath>
</defs>
</svg>
