<svg width="113" height="53" viewBox="0 0 113 53" fill="none" xmlns="http://www.w3.org/2000/svg">
<g clip-path="url(#clip0_464_2896)">
<path d="M104.976 37.9843V34.8735H102.93V37.9141C102.93 38.7561 103.604 39.4344 104.441 39.4344H104.837H104.976H112.999V38.0077H104.976V37.9843Z" fill="#0072C6"/>
<path d="M45.7465 25.8218C43.0256 25.8218 41.3047 28.1607 41.3047 31.0376C41.3047 33.9145 43.0256 36.2768 45.7465 36.2768C48.4675 36.2768 50.1884 33.9378 50.1884 31.0376C50.1884 28.1607 48.4675 25.8218 45.7465 25.8218ZM45.7465 34.8032C44.0489 34.8032 43.4442 33.1192 43.4442 31.0376C43.4442 28.9559 44.0489 27.2719 45.7465 27.2719C47.4442 27.2719 48.0489 28.9559 48.0489 31.0376C48.0489 33.1192 47.4442 34.8032 45.7465 34.8032Z" fill="#0072C6"/>
<path d="M51.793 39.4108H52.3279C53.1418 39.4108 53.8162 38.7325 53.8162 37.9139V25.9854H51.793V39.4108Z" fill="#0072C6"/>
<path d="M89.8403 25.8218C87.1194 25.8218 85.3984 28.1607 85.3984 31.0376C85.3984 33.9145 87.1194 36.2768 89.8403 36.2768C92.5612 36.2768 94.2822 33.9378 94.2822 31.0376C94.2822 28.1607 92.538 25.8218 89.8403 25.8218ZM89.8403 34.8032C88.1426 34.8032 87.538 33.1192 87.538 31.0376C87.538 28.9559 88.1426 27.2719 89.8403 27.2719C91.538 27.2719 92.1426 28.9559 92.1426 31.0376C92.1426 33.1192 91.538 34.8032 89.8403 34.8032Z" fill="#0072C6"/>
<path d="M95.8828 39.4108H96.4177C97.2317 39.4108 97.9061 38.7325 97.9061 37.9139V25.9854H95.8828V39.4108Z" fill="#0072C6"/>
<path d="M110.698 35.6218H112.745V26.0088H110.698V27.8098H108.559V29.2599H110.698V30.3592H108.559V31.8093H110.698V35.6218Z" fill="#0072C6"/>
<path d="M64.1895 33.0022H68.8407V31.5755H59.5383V26.0322H57.4918V31.5053C57.4918 32.3239 58.1662 33.0022 58.9802 33.0022H62.1197V36.5574H56.4453V37.9841H69.8174V36.5574H64.1895V33.0022Z" fill="#0072C6"/>
<path d="M81.3047 39.4344H81.8396C82.6535 39.4344 83.3279 38.7561 83.3279 37.9374V26.0791H81.3047V39.4344Z" fill="#0072C6"/>
<path d="M78.2335 29.7043H76.9777V26.0322H75.1172V29.6809H72.9777V26.0322H71.1172V34.0547C71.1172 34.8734 71.7916 35.5516 72.6056 35.5516H75.466C76.28 35.5516 76.9544 34.8734 76.9544 34.0547V31.1545H78.2102V39.4343H78.7451C79.5591 39.4343 80.2335 38.756 80.2335 37.9373V26.079H78.2102V29.7043H78.2335ZM75.0939 34.1249H72.9544V31.1077H75.0939V34.1249Z" fill="#0072C6"/>
<path d="M106.724 32.7682C106.91 33.1892 107.421 33.3529 107.863 33.3529H109.212L105.607 25.9619H104.305C103.863 25.9619 103.398 26.1022 103.165 26.5466L99.8398 33.3529H102.142L104.584 28.1839L106.724 32.7682Z" fill="#0072C6"/>
<path d="M7.44186 29.1899C6.04651 28.535 4.88372 27.9971 4.88372 26.9212C4.88372 26.1025 5.53488 25.4944 6.83721 25.4944C7.32558 25.4944 7.69768 25.5412 8.11628 25.6347C8.32558 25.6815 8.55814 25.7049 8.74419 25.7049C9.88372 25.7049 10.5116 25.0266 10.9535 23.7402L11.1395 23.2023C10.9535 23.1321 9.11628 22.3135 6.69767 22.3135C2.86047 22.3135 0.837209 24.7927 0.837209 27.3656C0.837209 28.6753 1.23256 29.6109 1.88372 30.336C2.69767 31.2949 3.86047 31.9031 4.95349 32.441C6.53488 33.2129 7.97674 33.7976 7.97674 34.9671C7.97674 35.9962 6.93023 36.5809 5.51163 36.5809C3.5814 36.5809 1.88372 35.4816 1.67442 35.3413L0 38.3117C0.27907 38.4754 2.32558 39.7852 5.69767 39.7852C9.27907 39.7852 12 37.727 12 34.5227C12 31.3651 9.48837 30.1956 7.44186 29.1899Z" fill="#0072C6"/>
<path d="M21.4632 30.6631L27.9748 22.6406H23.3469L18.1376 29.5638H18.0679V22.6406H14.2539V39.6212H14.4865C16.1376 39.6212 18.1144 38.8494 18.1144 36.066V32.16H18.1841L23.4632 39.3873H28.3237L21.4632 30.6631Z" fill="#0072C6"/>
<path d="M28.188 4.44385C26.8392 4.70113 24.8392 5.91737 24.8625 8.09257C24.8625 10.0573 26.4671 11.2501 26.4671 13.8463C26.4671 15.7876 25.4206 17.0974 24.2578 17.8225C24.7229 17.7757 25.2346 17.7523 25.7927 17.7523C26.9787 17.7523 27.6764 17.8693 27.7229 17.8693L33.7462 10.4315C32.0718 7.90545 30.1183 5.94076 28.188 4.44385Z" fill="#0072C6"/>
<path d="M33.2563 24.5588C34.0237 23.3659 34.1167 21.4714 34.1865 19.5535C34.2563 17.7525 34.6284 16.3959 37.0237 16.3959C37.5586 16.3959 38.0702 16.4661 38.9772 16.4661C42.4888 16.4427 44.7679 15.2265 46.2098 14.4312C43.3028 12.5601 39.047 10.6656 33.7679 10.4551C33.4191 11.4374 30.7446 18.8986 30.5586 19.5067C30.5818 19.5301 31.047 20.0681 31.6516 21.0972C32.4888 22.4771 32.9539 23.6934 33.2563 24.5588Z" fill="#0072C6"/>
<path d="M20.5125 18.4541C20.2102 18.4541 20.0474 18.2436 20.0009 17.8928C19.9544 17.5419 18.4428 3.64872 18.2335 1.56708C18.2102 1.26302 18.1404 0.701677 18.1172 0.491174C18.1172 0.163725 18.3265 0 18.5823 0C19.3032 0 23.187 0.91218 27.3265 3.83583C26.1404 4.16328 23.9777 5.4263 23.9777 7.99912C23.9777 10.2913 25.6056 11.5309 25.6288 13.823C25.6521 17.5419 21.3963 18.4541 20.5125 18.4541Z" fill="#0072C6"/>
<path d="M33.6055 25.5411C33.6752 25.7048 33.7217 25.8686 33.7915 25.9621C33.8845 26.1259 34.0008 26.196 34.1636 26.196C34.2566 26.196 34.3729 26.1726 34.5124 26.1025C34.838 25.9621 47.4194 20.068 49.3264 19.1793C49.6055 19.0389 50.1171 18.805 50.3031 18.7115C50.4892 18.6179 50.559 18.4542 50.559 18.3139C50.559 18.2203 50.5357 18.1501 50.4892 18.0566C50.2566 17.6823 49.0241 16.3725 47.0008 14.9458C45.3729 15.8346 42.8613 17.2379 39.0938 17.2379C38.1636 17.2379 37.9543 17.1678 37.3264 17.1912C35.4892 17.1912 35.0241 17.9864 34.9543 19.6003C34.9311 19.9043 34.931 20.3253 34.931 20.7697C34.8613 22.2199 34.6985 24.2079 33.6055 25.5411Z" fill="#0072C6"/>
<path d="M59.1363 53.0002C57.6479 53.0002 56.7642 52.4154 56.5781 52.2985L57.2293 51.1056C57.6711 51.4097 58.2991 51.7371 59.0665 51.7371C59.6944 51.7371 60.4153 51.4799 60.4153 50.8016C60.4153 49.6321 58.4386 49.4216 57.4386 48.2989C57.113 47.9247 56.9037 47.4569 56.9037 46.8254C56.9037 45.6092 57.8572 44.5566 59.5549 44.5566C60.7177 44.5566 61.6479 44.9543 61.7409 45.001C61.7409 45.001 61.6944 45.118 61.6246 45.3051C61.4851 45.7261 61.1363 46.0769 60.3921 45.9132C60.1363 45.843 59.927 45.8197 59.6246 45.8197C58.9735 45.8197 58.4386 46.1003 58.4386 46.6617C58.4386 48.182 61.9735 48.0884 61.9735 50.6378C61.9967 52.0412 60.7409 53.0002 59.1363 53.0002Z" fill="#0072C6"/>
<path d="M42.8358 45.9135V52.8601H41.3242V44.6738H47.0684C47.0684 44.6738 47.0684 44.9077 47.0684 44.9311C47.0684 45.5392 46.6265 45.9135 46.0451 45.9135H42.8358Z" fill="#0072C6"/>
<path d="M47.0452 51.5967H41.3242V52.8597H47.0452V51.5967Z" fill="#0072C6"/>
<path d="M46.7649 47.9946H42.6719V49.2576H46.7649V47.9946Z" fill="#0072C6"/>
<path d="M52.5567 51.4331C52.2311 50.9419 51.859 50.3806 51.4869 49.8192C51.3706 49.6321 51.2311 49.445 51.0916 49.2579C50.6497 49.5853 50.2776 49.9829 50.2776 50.5443C50.2776 51.1524 50.6962 51.6904 51.5799 51.6904C51.9288 51.6904 52.2544 51.5968 52.5567 51.4331ZM54.4172 51.6436C54.6962 52.0412 54.9288 52.3686 55.0916 52.6025C55.0451 52.6493 54.9753 52.6961 54.9288 52.7429C54.7892 52.8364 54.5334 53.0002 54.1846 53.0002C53.7195 53.0002 53.4637 52.7663 53.3241 52.5791C53.3009 52.5558 53.3009 52.5324 53.2776 52.509C52.7427 52.813 52.0916 53.0002 51.3706 53.0002C49.766 53.0002 48.8125 51.9242 48.8125 50.6612C48.8125 49.4684 49.6265 48.7901 50.4404 48.2521C50.0451 47.5972 49.7427 46.9657 49.7427 46.4278C49.7427 45.3987 50.4404 44.5566 51.8125 44.5566C53.2079 44.5566 53.8358 45.3753 53.8358 46.1471C53.8358 47.0827 53.3706 47.644 52.1846 48.5094C52.3474 48.7667 52.5334 49.0006 52.673 49.2111C52.9985 49.6789 53.3474 50.1701 53.6497 50.6144C54.0916 50.1467 54.3939 49.6789 54.5102 49.4918L55.5799 50.0999C55.4404 50.3572 55.0683 51.0121 54.4172 51.6436ZM51.5567 47.5037C52.1846 47.0593 52.5334 46.7318 52.5334 46.3108C52.5334 46.0068 52.3241 45.7027 51.8358 45.7027C51.4637 45.7027 51.1613 45.9834 51.1613 46.4044C51.1613 46.7084 51.3241 47.0827 51.5567 47.5037Z" fill="#0072C6"/>
</g>
<defs>
<clipPath id="clip0_464_2896">
<rect width="113" height="53" fill="white"/>
</clipPath>
</defs>
</svg>
