<svg width="132" height="79" viewBox="0 0 132 79" fill="none" xmlns="http://www.w3.org/2000/svg">
<path d="M120.769 43.5463V39.98H118.415V43.4658C118.415 44.4311 119.191 45.2087 120.154 45.2087H120.609H120.769H129.999V43.5731H120.769V43.5463Z" fill="#0072C6"/>
<path d="M52.6257 29.6025C49.4955 29.6025 47.5156 32.284 47.5156 35.5821C47.5156 38.8802 49.4955 41.5885 52.6257 41.5885C55.756 41.5885 57.7358 38.907 57.7358 35.5821C57.7358 32.284 55.756 29.6025 52.6257 29.6025ZM52.6257 39.8992C50.6727 39.8992 49.977 37.9686 49.977 35.5821C49.977 33.1956 50.6727 31.265 52.6257 31.265C54.5788 31.265 55.2744 33.1956 55.2744 35.5821C55.2744 37.9686 54.5788 39.8992 52.6257 39.8992Z" fill="#0072C6"/>
<path d="M59.582 45.1819H60.1974C61.1338 45.1819 61.9097 44.4042 61.9097 43.4657V29.7905H59.582V45.1819Z" fill="#0072C6"/>
<path d="M103.353 29.6025C100.222 29.6025 98.2424 32.284 98.2424 35.5821C98.2424 38.8802 100.222 41.5885 103.353 41.5885C106.483 41.5885 108.463 38.907 108.463 35.5821C108.463 32.284 106.456 29.6025 103.353 29.6025ZM103.353 39.8992C101.399 39.8992 100.704 37.9686 100.704 35.5821C100.704 33.1956 101.399 31.265 103.353 31.265C105.306 31.265 106.001 33.1956 106.001 35.5821C106.001 37.9686 105.306 39.8992 103.353 39.8992Z" fill="#0072C6"/>
<path d="M110.308 45.1819H110.924C111.86 45.1819 112.636 44.4042 112.636 43.4657V29.7905H110.308V45.1819Z" fill="#0072C6"/>
<path d="M127.351 40.838H129.705V29.8174H127.351V31.8821H124.889V33.5446H127.351V34.8048H124.889V36.4673H127.351V40.838Z" fill="#0072C6"/>
<path d="M73.8419 37.8349H79.1928V36.1992H68.491V29.8442H66.1366V36.1187C66.1366 37.0572 66.9125 37.8349 67.8489 37.8349H71.4607V41.9106H64.9326V43.5463H80.3164V41.9106H73.8419V37.8349Z" fill="#0072C6"/>
<path d="M93.5334 45.2083H94.1488C95.0852 45.2083 95.8611 44.4307 95.8611 43.4922V29.8975H93.5334V45.2083Z" fill="#0072C6"/>
<path d="M90.0023 34.0541H88.5576V29.8442H86.4172V34.0272H83.9558V29.8442H81.8154V39.0415C81.8154 39.98 82.5913 40.7576 83.5277 40.7576H86.8185C87.7549 40.7576 88.5308 39.98 88.5308 39.0415V35.7165H89.9755V45.2087H90.5909C91.5273 45.2087 92.3032 44.4311 92.3032 43.4926V29.8979H89.9755V34.0541H90.0023ZM86.3904 39.1219H83.929V35.6629H86.3904V39.1219Z" fill="#0072C6"/>
<path d="M122.776 37.5666C122.99 38.0492 123.578 38.2369 124.087 38.2369H125.639L121.492 29.7637H119.993C119.485 29.7637 118.95 29.9246 118.682 30.434L114.856 38.2369H117.505L120.314 32.311L122.776 37.5666Z" fill="#0072C6"/>
<path d="M8.56143 33.4634C6.95616 32.7126 5.61844 32.0959 5.61844 30.8625C5.61844 29.924 6.36757 29.2268 7.86582 29.2268C8.42766 29.2268 8.85573 29.2804 9.33731 29.3877C9.5781 29.4413 9.84565 29.4681 10.0597 29.4681C11.3707 29.4681 12.093 28.6905 12.6014 27.2157L12.8154 26.599C12.6014 26.5186 10.4878 25.5801 7.70529 25.5801C3.2908 25.5801 0.963161 28.4224 0.963161 31.3719C0.963161 32.8735 1.41799 33.9461 2.16711 34.7773C3.10352 35.8767 4.44124 36.5739 5.6987 37.1906C7.51801 38.0755 9.17679 38.7458 9.17679 40.0865C9.17679 41.2664 7.97283 41.9367 6.34081 41.9367C4.12019 41.9367 2.16711 40.6764 1.92632 40.5156L0 43.921C0.321054 44.1087 2.67545 45.6103 6.55485 45.6103C10.675 45.6103 13.8053 43.2506 13.8053 39.5771C13.8053 35.9572 10.9158 34.6164 8.56143 33.4634Z" fill="#0072C6"/>
<path d="M24.6943 35.1533L32.1855 25.9561H26.8614L20.8684 33.893H20.7881V25.9561H16.4004V45.4231H16.6679C18.5675 45.4231 20.8416 44.5383 20.8416 41.3474V36.8694H20.9219L26.9952 45.155H32.5868L24.6943 35.1533Z" fill="#0072C6"/>
<path d="M32.4268 5.09473C30.875 5.38968 28.5741 6.78402 28.6009 9.27773C28.6009 11.5301 30.4469 12.8976 30.4469 15.874C30.4469 18.0996 29.243 19.6012 27.9053 20.4324C28.4404 20.3788 29.029 20.352 29.6711 20.352C31.0355 20.352 31.8382 20.4861 31.8917 20.4861L38.8211 11.9591C36.8948 9.06322 34.6474 6.81083 32.4268 5.09473Z" fill="#0072C6"/>
<path d="M38.2588 28.1548C39.1417 26.7873 39.2487 24.6153 39.329 22.4165C39.4092 20.3519 39.8373 18.7966 42.593 18.7966C43.2084 18.7966 43.797 18.8771 44.8404 18.8771C48.8803 18.8503 51.5023 17.4559 53.161 16.5442C49.8167 14.3991 44.9207 12.2272 38.8474 11.9858C38.4461 13.112 35.3693 21.6657 35.1553 22.3629C35.182 22.3897 35.7171 23.0065 36.4127 24.1863C37.3759 25.7683 37.911 27.1627 38.2588 28.1548Z" fill="#0072C6"/>
<path d="M23.5975 21.1564C23.2497 21.1564 23.0624 20.915 23.0089 20.5128C22.9554 20.1106 21.2164 4.18301 20.9756 1.79655C20.9488 1.44796 20.8686 0.804424 20.8418 0.563097C20.8418 0.187699 21.0826 0 21.3769 0C22.2063 0 26.6743 1.04575 31.4366 4.39752C30.0721 4.77292 27.5839 6.22088 27.5839 9.17044C27.5839 11.7982 29.4567 13.2194 29.4835 15.8472C29.5102 20.1106 24.6142 21.1564 23.5975 21.1564Z" fill="#0072C6"/>
<path d="M38.6599 29.2811C38.7402 29.4688 38.7937 29.6565 38.8739 29.7637C38.981 29.9514 39.1147 30.0319 39.302 30.0319C39.409 30.0319 39.5428 30.0051 39.7033 29.9246C40.0779 29.7637 54.5521 23.0066 56.7459 21.9876C57.067 21.8268 57.6556 21.5586 57.8696 21.4514C58.0837 21.3441 58.1639 21.1564 58.1639 20.9955C58.1639 20.8883 58.1372 20.8078 58.0837 20.7006C57.8161 20.2715 56.3981 18.7699 54.0705 17.1343C52.1977 18.1532 49.3082 19.7621 44.974 19.7621C43.9038 19.7621 43.663 19.6816 42.9406 19.7084C40.827 19.7084 40.2919 20.6201 40.2117 22.4703C40.1849 22.8189 40.1849 23.3015 40.1849 23.811C40.1047 25.4735 39.9174 27.7527 38.6599 29.2811Z" fill="#0072C6"/>
<path d="M56.556 63.838V66.851H49.449V63.838H56.556ZM48.3565 62.1935H52.301V61.653C51.4193 61.5993 50.7447 61.4498 50.277 61.2045C49.817 60.9592 49.587 60.6257 49.587 60.204C49.587 59.721 49.8783 59.3568 50.461 59.1115C51.0513 58.8585 51.9023 58.732 53.014 58.732C54.1257 58.732 54.9767 58.8585 55.567 59.1115C56.1573 59.3568 56.4525 59.721 56.4525 60.204C56.4525 60.6257 56.2187 60.9592 55.751 61.2045C55.2833 61.4498 54.6087 61.5993 53.727 61.653V62.1935H57.6715V63.286H48.3565V62.1935ZM48.805 57.3865H52.301V56.57H53.727V57.3865H57.177V58.4675H48.805V57.3865ZM55.1645 65.793V64.896H50.8405V65.793H55.1645ZM51.105 60.204C51.105 60.3727 51.2583 60.4992 51.565 60.5835C51.8793 60.6678 52.3623 60.71 53.014 60.71C53.6657 60.71 54.1487 60.6717 54.463 60.595C54.7773 60.5107 54.9345 60.3803 54.9345 60.204C54.9345 60.0277 54.7773 59.8973 54.463 59.813C54.1563 59.7287 53.6733 59.6865 53.014 59.6865C52.3623 59.6865 51.8793 59.7287 51.565 59.813C51.2583 59.8973 51.105 60.0277 51.105 60.204ZM67.3318 56.662V66.966H65.9748V56.662H67.3318ZM59.1323 63.447V58.962H58.4768V57.835H63.1688V58.962H62.5018V63.2975C62.7164 63.2822 62.9924 63.2515 63.3298 63.2055L63.4333 64.229C62.2143 64.482 60.5544 64.6085 58.4538 64.6085L58.3043 63.447H59.1323ZM60.6733 63.401C60.8036 63.401 60.9838 63.3933 61.2138 63.378V58.962H60.4088V63.4125L60.6733 63.401ZM62.9158 60.434H63.9393V56.869H65.2618V66.4715H63.9393V61.676H62.9158V60.434ZM76.992 56.639V66.9775H75.5545V56.639H76.992ZM68.7465 61.0435C68.7465 60.3075 68.8615 59.6635 69.0915 59.1115C69.3292 58.5518 69.6512 58.1225 70.0575 57.8235C70.4715 57.5245 70.9392 57.375 71.4605 57.375C71.9742 57.375 72.4342 57.5245 72.8405 57.8235C73.2545 58.1225 73.5765 58.5518 73.8065 59.1115C74.0365 59.6635 74.1515 60.3075 74.1515 61.0435C74.1515 61.7872 74.0365 62.4388 73.8065 62.9985C73.5765 63.5505 73.2545 63.976 72.8405 64.275C72.4342 64.574 71.9742 64.7235 71.4605 64.7235C70.9392 64.7235 70.4715 64.574 70.0575 64.275C69.6512 63.976 69.3292 63.5505 69.0915 62.9985C68.8615 62.4388 68.7465 61.7872 68.7465 61.0435ZM70.1265 61.0435C70.1265 61.8025 70.2454 62.3928 70.483 62.8145C70.7284 63.2285 71.0542 63.4355 71.4605 63.4355C71.8592 63.4355 72.1774 63.2285 72.415 62.8145C72.6604 62.3928 72.783 61.8025 72.783 61.0435C72.783 60.2922 72.6604 59.7095 72.415 59.2955C72.1774 58.8738 71.8592 58.663 71.4605 58.663C71.0542 58.663 70.7284 58.87 70.483 59.284C70.2454 59.698 70.1265 60.2845 70.1265 61.0435ZM84.6053 57.651V58.824H82.4433V59.4795C82.4433 60.0468 82.543 60.6065 82.7423 61.1585C82.9416 61.7105 83.233 62.205 83.6163 62.642C84.0073 63.079 84.475 63.4125 85.0193 63.6425L84.2373 64.7695C83.6623 64.5165 83.164 64.1485 82.7423 63.6655C82.3206 63.1825 81.991 62.619 81.7533 61.975C81.5156 62.6803 81.1821 63.2975 80.7528 63.8265C80.3235 64.3555 79.8175 64.7542 79.2348 65.0225L78.4298 63.8955C78.9741 63.6502 79.438 63.2937 79.8213 62.826C80.2123 62.3583 80.5075 61.8332 80.7068 61.2505C80.9061 60.6678 81.0058 60.0775 81.0058 59.4795V58.824H78.8323V57.651H84.6053ZM85.6058 56.662H87.0318V66.966H85.6058V56.662ZM99.2735 56.662V60.5145H100.791V61.6875H99.2735V66.966H97.8475V56.662H99.2735ZM91.5455 57.4785H92.96V59.997H95.122V57.4785H96.5365V64.5625H91.5455V57.4785ZM95.122 63.424V61.1125H92.96V63.424H95.122ZM105.208 64.643V63.0675H102.356V59.6175H108.129V58.456H102.333V57.329H109.543V60.7215H103.759V61.929H109.773V63.0675H106.634V64.643H110.601V65.8045H101.275V64.643H105.208ZM119.376 56.639V60.618H120.825V61.791H119.376V66.9545H117.939V56.639H119.376ZM111.234 64.0795C112.445 63.4585 113.377 62.7225 114.029 61.8715C114.68 61.0128 115.071 60.0085 115.202 58.8585H111.798V57.7085H116.639C116.639 59.3415 116.279 60.7867 115.558 62.044C114.837 63.3013 113.661 64.3402 112.028 65.1605L111.234 64.0795ZM129.933 56.6505V66.9545H128.507V56.6505H129.933ZM121.4 64.068C122.696 63.4547 123.658 62.7263 124.287 61.883C124.923 61.0397 125.299 60.0315 125.414 58.8585H121.929V57.72H126.874C126.874 59.4067 126.518 60.8672 125.805 62.1015C125.092 63.3282 123.869 64.3593 122.136 65.195L121.4 64.068Z" fill="#444444"/>
</svg>
