<svg width="130" height="46" viewBox="0 0 130 46" fill="none" xmlns="http://www.w3.org/2000/svg">
<path d="M120.769 43.1611V39.5948H118.415V43.0806C118.415 44.0459 119.191 44.8235 120.154 44.8235H120.609H120.769H130V43.1879H120.769V43.1611Z" fill="#0072C6"/>
<path d="M52.6257 29.2176C49.4955 29.2176 47.5156 31.899 47.5156 35.1971C47.5156 38.4953 49.4955 41.2035 52.6257 41.2035C55.756 41.2035 57.7358 38.5221 57.7358 35.1971C57.7358 31.899 55.756 29.2176 52.6257 29.2176ZM52.6257 39.5142C50.6727 39.5142 49.977 37.5836 49.977 35.1971C49.977 32.8107 50.6727 30.8801 52.6257 30.8801C54.5788 30.8801 55.2744 32.8107 55.2744 35.1971C55.2744 37.5836 54.5788 39.5142 52.6257 39.5142Z" fill="#0072C6"/>
<path d="M59.582 44.7969H60.1974C61.1338 44.7969 61.9097 44.0193 61.9097 43.0808V29.4056H59.582V44.7969Z" fill="#0072C6"/>
<path d="M103.352 29.2178C100.222 29.2178 98.2422 31.8992 98.2422 35.1973C98.2422 38.4955 100.222 41.2037 103.352 41.2037C106.483 41.2037 108.462 38.5223 108.462 35.1973C108.462 31.8992 106.456 29.2178 103.352 29.2178ZM103.352 39.5144C101.399 39.5144 100.704 37.5838 100.704 35.1973C100.704 32.8109 101.399 30.8803 103.352 30.8803C105.305 30.8803 106.001 32.8109 106.001 35.1973C106.001 37.5838 105.305 39.5144 103.352 39.5144Z" fill="#0072C6"/>
<path d="M110.309 44.7968H110.924C111.86 44.7968 112.636 44.0192 112.636 43.0807V29.4055H110.309V44.7968Z" fill="#0072C6"/>
<path d="M127.351 40.453H129.705V29.4324H127.351V31.4971H124.89V33.1595H127.351V34.4198H124.89V36.0823H127.351V40.453Z" fill="#0072C6"/>
<path d="M73.8419 37.4499H79.1928V35.8142H68.491V29.4593H66.1366V35.7338C66.1366 36.6723 66.9125 37.4499 67.8489 37.4499H71.4607V41.5257H64.9326V43.1613H80.3164V41.5257H73.8419V37.4499Z" fill="#0072C6"/>
<path d="M93.5332 44.8233H94.1486C95.085 44.8233 95.8608 44.0457 95.8608 43.1072V29.5124H93.5332V44.8233Z" fill="#0072C6"/>
<path d="M90.0023 33.6691H88.5576V29.4593H86.4172V33.6423H83.9558V29.4593H81.8154V38.6565C81.8154 39.595 82.5913 40.3726 83.5277 40.3726H86.8185C87.7549 40.3726 88.5308 39.595 88.5308 38.6565V35.3316H89.9755V44.8238H90.5909C91.5273 44.8238 92.3032 44.0462 92.3032 43.1077V29.5129H89.9755V33.6691H90.0023ZM86.3904 38.737H83.929V35.278H86.3904V38.737Z" fill="#0072C6"/>
<path d="M122.776 37.1816C122.99 37.6643 123.578 37.852 124.087 37.852H125.639L121.492 29.3787H119.993C119.485 29.3787 118.95 29.5396 118.682 30.0491L114.856 37.852H117.505L120.314 31.9261L122.776 37.1816Z" fill="#0072C6"/>
<path d="M8.56143 33.4636C6.95616 32.7128 5.61844 32.0961 5.61844 30.8626C5.61844 29.9242 6.36757 29.227 7.86582 29.227C8.42766 29.227 8.85573 29.2806 9.33731 29.3879C9.5781 29.4415 9.84565 29.4683 10.0597 29.4683C11.3707 29.4683 12.093 28.6907 12.6014 27.2159L12.8154 26.5992C12.6014 26.5188 10.4878 25.5803 7.70529 25.5803C3.2908 25.5803 0.963161 28.4226 0.963161 31.3721C0.963161 32.8737 1.41799 33.9463 2.16711 34.7775C3.10352 35.8769 4.44124 36.5741 5.6987 37.1908C7.51801 38.0757 9.17679 38.746 9.17679 40.0867C9.17679 41.2665 7.97283 41.9369 6.34081 41.9369C4.12019 41.9369 2.16711 40.6766 1.92632 40.5157L0 43.9211C0.321054 44.1088 2.67545 45.6104 6.55485 45.6104C10.675 45.6104 13.8053 43.2508 13.8053 39.5772C13.8053 35.9573 10.9158 34.6166 8.56143 33.4636Z" fill="#0072C6"/>
<path d="M24.6943 35.1535L32.1855 25.9562H26.8614L20.8684 33.8932H20.7881V25.9562H16.4004V45.4233H16.6679C18.5675 45.4233 20.8416 44.5384 20.8416 41.3476V36.8696H20.9219L26.9952 45.1552H32.5868L24.6943 35.1535Z" fill="#0072C6"/>
<path d="M32.4268 5.0946C30.875 5.38956 28.5741 6.7839 28.6009 9.27761C28.6009 11.53 30.4469 12.8975 30.4469 15.8739C30.4469 18.0995 29.243 19.6011 27.9053 20.4323C28.4404 20.3787 29.029 20.3519 29.6711 20.3519C31.0355 20.3519 31.8382 20.4859 31.8917 20.4859L38.8211 11.959C36.8948 9.0631 34.6474 6.81071 32.4268 5.0946Z" fill="#0072C6"/>
<path d="M38.2588 28.1547C39.1417 26.7871 39.2487 24.6152 39.329 22.4164C39.4092 20.3517 39.8373 18.7965 42.593 18.7965C43.2084 18.7965 43.797 18.877 44.8404 18.877C48.8803 18.8501 51.5023 17.4558 53.161 16.5441C49.8167 14.399 44.9207 12.227 38.8474 11.9857C38.4461 13.1119 35.3693 21.6656 35.1553 22.3628C35.182 22.3896 35.7171 23.0063 36.4127 24.1862C37.3759 25.7682 37.911 27.1625 38.2588 28.1547Z" fill="#0072C6"/>
<path d="M23.5975 21.1562C23.2497 21.1562 23.0624 20.9149 23.0089 20.5127C22.9554 20.1105 21.2164 4.18289 20.9756 1.79643C20.9488 1.44784 20.8686 0.804302 20.8418 0.562975C20.8418 0.187577 21.0826 -0.00012207 21.3769 -0.00012207C22.2063 -0.00012207 26.6743 1.04563 31.4366 4.3974C30.0721 4.7728 27.5839 6.22076 27.5839 9.17032C27.5839 11.7981 29.4567 13.2193 29.4835 15.847C29.5102 20.1105 24.6142 21.1562 23.5975 21.1562Z" fill="#0072C6"/>
<path d="M38.6602 29.2811C38.7404 29.4688 38.7939 29.6565 38.8742 29.7637C38.9812 29.9514 39.115 30.0319 39.3023 30.0319C39.4093 30.0319 39.5431 30.0051 39.7036 29.9246C40.0781 29.7637 54.5523 23.0066 56.7462 21.9876C57.0672 21.8268 57.6558 21.5586 57.8699 21.4514C58.0839 21.3441 58.1642 21.1564 58.1642 20.9955C58.1642 20.8883 58.1374 20.8078 58.0839 20.7006C57.8164 20.2715 56.3984 18.7699 54.0707 17.1343C52.1979 18.1532 49.3084 19.7621 44.9742 19.7621C43.904 19.7621 43.6632 19.6816 42.9409 19.7084C40.8273 19.7084 40.2922 20.6201 40.2119 22.4703C40.1852 22.8189 40.1852 23.3015 40.1852 23.811C40.1049 25.4735 39.9176 27.7527 38.6602 29.2811Z" fill="#0072C6"/>
</svg>
